%TF.GenerationSoftware,KiCad,Pcbnew,(5.1.8)-1*%
%TF.CreationDate,2021-03-07T20:35:29-08:00*%
%TF.ProjectId,KiCAD Simulations,4b694341-4420-4536-996d-756c6174696f,rev?*%
%TF.SameCoordinates,Original*%
%TF.FileFunction,Paste,Top*%
%TF.FilePolarity,Positive*%
%FSLAX46Y46*%
G04 Gerber Fmt 4.6, Leading zero omitted, Abs format (unit mm)*
G04 Created by KiCad (PCBNEW (5.1.8)-1) date 2021-03-07 20:35:29*
%MOMM*%
%LPD*%
G01*
G04 APERTURE LIST*
%ADD10R,11.912600X3.240799*%
%ADD11R,1.492199X3.600399*%
%ADD12R,0.972299X0.508000*%
%ADD13R,1.842999X1.447000*%
%ADD14R,1.454899X0.558000*%
%ADD15R,2.500000X2.710000*%
%ADD16R,0.800000X0.900000*%
%ADD17R,2.300000X2.500000*%
G04 APERTURE END LIST*
D10*
%TO.C,Lr1*%
X198374000Y-110944399D03*
X198374000Y-126291601D03*
%TD*%
%TO.C,Cout1*%
G36*
G01*
X144668001Y-25770000D02*
X143367999Y-25770000D01*
G75*
G02*
X143118000Y-25520001I0J249999D01*
G01*
X143118000Y-24694999D01*
G75*
G02*
X143367999Y-24445000I249999J0D01*
G01*
X144668001Y-24445000D01*
G75*
G02*
X144918000Y-24694999I0J-249999D01*
G01*
X144918000Y-25520001D01*
G75*
G02*
X144668001Y-25770000I-249999J0D01*
G01*
G37*
G36*
G01*
X144668001Y-28895000D02*
X143367999Y-28895000D01*
G75*
G02*
X143118000Y-28645001I0J249999D01*
G01*
X143118000Y-27819999D01*
G75*
G02*
X143367999Y-27570000I249999J0D01*
G01*
X144668001Y-27570000D01*
G75*
G02*
X144918000Y-27819999I0J-249999D01*
G01*
X144918000Y-28645001D01*
G75*
G02*
X144668001Y-28895000I-249999J0D01*
G01*
G37*
%TD*%
%TO.C,Rdrv2*%
G36*
G01*
X200646000Y-75344000D02*
X200646000Y-75024000D01*
G75*
G02*
X200806000Y-74864000I160000J0D01*
G01*
X201201000Y-74864000D01*
G75*
G02*
X201361000Y-75024000I0J-160000D01*
G01*
X201361000Y-75344000D01*
G75*
G02*
X201201000Y-75504000I-160000J0D01*
G01*
X200806000Y-75504000D01*
G75*
G02*
X200646000Y-75344000I0J160000D01*
G01*
G37*
G36*
G01*
X199451000Y-75344000D02*
X199451000Y-75024000D01*
G75*
G02*
X199611000Y-74864000I160000J0D01*
G01*
X200006000Y-74864000D01*
G75*
G02*
X200166000Y-75024000I0J-160000D01*
G01*
X200166000Y-75344000D01*
G75*
G02*
X200006000Y-75504000I-160000J0D01*
G01*
X199611000Y-75504000D01*
G75*
G02*
X199451000Y-75344000I0J160000D01*
G01*
G37*
%TD*%
%TO.C,Cvcr26*%
G36*
G01*
X127983000Y-95583500D02*
X127033000Y-95583500D01*
G75*
G02*
X126783000Y-95333500I0J250000D01*
G01*
X126783000Y-94658500D01*
G75*
G02*
X127033000Y-94408500I250000J0D01*
G01*
X127983000Y-94408500D01*
G75*
G02*
X128233000Y-94658500I0J-250000D01*
G01*
X128233000Y-95333500D01*
G75*
G02*
X127983000Y-95583500I-250000J0D01*
G01*
G37*
G36*
G01*
X127983000Y-97658500D02*
X127033000Y-97658500D01*
G75*
G02*
X126783000Y-97408500I0J250000D01*
G01*
X126783000Y-96733500D01*
G75*
G02*
X127033000Y-96483500I250000J0D01*
G01*
X127983000Y-96483500D01*
G75*
G02*
X128233000Y-96733500I0J-250000D01*
G01*
X128233000Y-97408500D01*
G75*
G02*
X127983000Y-97658500I-250000J0D01*
G01*
G37*
%TD*%
%TO.C,Cvcr25*%
G36*
G01*
X122903000Y-95583500D02*
X121953000Y-95583500D01*
G75*
G02*
X121703000Y-95333500I0J250000D01*
G01*
X121703000Y-94658500D01*
G75*
G02*
X121953000Y-94408500I250000J0D01*
G01*
X122903000Y-94408500D01*
G75*
G02*
X123153000Y-94658500I0J-250000D01*
G01*
X123153000Y-95333500D01*
G75*
G02*
X122903000Y-95583500I-250000J0D01*
G01*
G37*
G36*
G01*
X122903000Y-97658500D02*
X121953000Y-97658500D01*
G75*
G02*
X121703000Y-97408500I0J250000D01*
G01*
X121703000Y-96733500D01*
G75*
G02*
X121953000Y-96483500I250000J0D01*
G01*
X122903000Y-96483500D01*
G75*
G02*
X123153000Y-96733500I0J-250000D01*
G01*
X123153000Y-97408500D01*
G75*
G02*
X122903000Y-97658500I-250000J0D01*
G01*
G37*
%TD*%
%TO.C,Cvcr24*%
G36*
G01*
X117823000Y-95562000D02*
X116873000Y-95562000D01*
G75*
G02*
X116623000Y-95312000I0J250000D01*
G01*
X116623000Y-94637000D01*
G75*
G02*
X116873000Y-94387000I250000J0D01*
G01*
X117823000Y-94387000D01*
G75*
G02*
X118073000Y-94637000I0J-250000D01*
G01*
X118073000Y-95312000D01*
G75*
G02*
X117823000Y-95562000I-250000J0D01*
G01*
G37*
G36*
G01*
X117823000Y-97637000D02*
X116873000Y-97637000D01*
G75*
G02*
X116623000Y-97387000I0J250000D01*
G01*
X116623000Y-96712000D01*
G75*
G02*
X116873000Y-96462000I250000J0D01*
G01*
X117823000Y-96462000D01*
G75*
G02*
X118073000Y-96712000I0J-250000D01*
G01*
X118073000Y-97387000D01*
G75*
G02*
X117823000Y-97637000I-250000J0D01*
G01*
G37*
%TD*%
%TO.C,Cvcr23*%
G36*
G01*
X116873000Y-101774500D02*
X117823000Y-101774500D01*
G75*
G02*
X118073000Y-102024500I0J-250000D01*
G01*
X118073000Y-102699500D01*
G75*
G02*
X117823000Y-102949500I-250000J0D01*
G01*
X116873000Y-102949500D01*
G75*
G02*
X116623000Y-102699500I0J250000D01*
G01*
X116623000Y-102024500D01*
G75*
G02*
X116873000Y-101774500I250000J0D01*
G01*
G37*
G36*
G01*
X116873000Y-99699500D02*
X117823000Y-99699500D01*
G75*
G02*
X118073000Y-99949500I0J-250000D01*
G01*
X118073000Y-100624500D01*
G75*
G02*
X117823000Y-100874500I-250000J0D01*
G01*
X116873000Y-100874500D01*
G75*
G02*
X116623000Y-100624500I0J250000D01*
G01*
X116623000Y-99949500D01*
G75*
G02*
X116873000Y-99699500I250000J0D01*
G01*
G37*
%TD*%
%TO.C,Cvcr22*%
G36*
G01*
X121953000Y-101774500D02*
X122903000Y-101774500D01*
G75*
G02*
X123153000Y-102024500I0J-250000D01*
G01*
X123153000Y-102699500D01*
G75*
G02*
X122903000Y-102949500I-250000J0D01*
G01*
X121953000Y-102949500D01*
G75*
G02*
X121703000Y-102699500I0J250000D01*
G01*
X121703000Y-102024500D01*
G75*
G02*
X121953000Y-101774500I250000J0D01*
G01*
G37*
G36*
G01*
X121953000Y-99699500D02*
X122903000Y-99699500D01*
G75*
G02*
X123153000Y-99949500I0J-250000D01*
G01*
X123153000Y-100624500D01*
G75*
G02*
X122903000Y-100874500I-250000J0D01*
G01*
X121953000Y-100874500D01*
G75*
G02*
X121703000Y-100624500I0J250000D01*
G01*
X121703000Y-99949500D01*
G75*
G02*
X121953000Y-99699500I250000J0D01*
G01*
G37*
%TD*%
%TO.C,Cvcr21*%
G36*
G01*
X127033000Y-101774500D02*
X127983000Y-101774500D01*
G75*
G02*
X128233000Y-102024500I0J-250000D01*
G01*
X128233000Y-102699500D01*
G75*
G02*
X127983000Y-102949500I-250000J0D01*
G01*
X127033000Y-102949500D01*
G75*
G02*
X126783000Y-102699500I0J250000D01*
G01*
X126783000Y-102024500D01*
G75*
G02*
X127033000Y-101774500I250000J0D01*
G01*
G37*
G36*
G01*
X127033000Y-99699500D02*
X127983000Y-99699500D01*
G75*
G02*
X128233000Y-99949500I0J-250000D01*
G01*
X128233000Y-100624500D01*
G75*
G02*
X127983000Y-100874500I-250000J0D01*
G01*
X127033000Y-100874500D01*
G75*
G02*
X126783000Y-100624500I0J250000D01*
G01*
X126783000Y-99949500D01*
G75*
G02*
X127033000Y-99699500I250000J0D01*
G01*
G37*
%TD*%
%TO.C,Cvcc28*%
G36*
G01*
X63458000Y-157672000D02*
X64558000Y-157672000D01*
G75*
G02*
X64808000Y-157922000I0J-250000D01*
G01*
X64808000Y-160422000D01*
G75*
G02*
X64558000Y-160672000I-250000J0D01*
G01*
X63458000Y-160672000D01*
G75*
G02*
X63208000Y-160422000I0J250000D01*
G01*
X63208000Y-157922000D01*
G75*
G02*
X63458000Y-157672000I250000J0D01*
G01*
G37*
G36*
G01*
X63458000Y-153272000D02*
X64558000Y-153272000D01*
G75*
G02*
X64808000Y-153522000I0J-250000D01*
G01*
X64808000Y-156022000D01*
G75*
G02*
X64558000Y-156272000I-250000J0D01*
G01*
X63458000Y-156272000D01*
G75*
G02*
X63208000Y-156022000I0J250000D01*
G01*
X63208000Y-153522000D01*
G75*
G02*
X63458000Y-153272000I250000J0D01*
G01*
G37*
%TD*%
%TO.C,Cvcc27*%
G36*
G01*
X73618000Y-157672000D02*
X74718000Y-157672000D01*
G75*
G02*
X74968000Y-157922000I0J-250000D01*
G01*
X74968000Y-160422000D01*
G75*
G02*
X74718000Y-160672000I-250000J0D01*
G01*
X73618000Y-160672000D01*
G75*
G02*
X73368000Y-160422000I0J250000D01*
G01*
X73368000Y-157922000D01*
G75*
G02*
X73618000Y-157672000I250000J0D01*
G01*
G37*
G36*
G01*
X73618000Y-153272000D02*
X74718000Y-153272000D01*
G75*
G02*
X74968000Y-153522000I0J-250000D01*
G01*
X74968000Y-156022000D01*
G75*
G02*
X74718000Y-156272000I-250000J0D01*
G01*
X73618000Y-156272000D01*
G75*
G02*
X73368000Y-156022000I0J250000D01*
G01*
X73368000Y-153522000D01*
G75*
G02*
X73618000Y-153272000I250000J0D01*
G01*
G37*
%TD*%
%TO.C,Cvcc26*%
G36*
G01*
X83778000Y-157672000D02*
X84878000Y-157672000D01*
G75*
G02*
X85128000Y-157922000I0J-250000D01*
G01*
X85128000Y-160422000D01*
G75*
G02*
X84878000Y-160672000I-250000J0D01*
G01*
X83778000Y-160672000D01*
G75*
G02*
X83528000Y-160422000I0J250000D01*
G01*
X83528000Y-157922000D01*
G75*
G02*
X83778000Y-157672000I250000J0D01*
G01*
G37*
G36*
G01*
X83778000Y-153272000D02*
X84878000Y-153272000D01*
G75*
G02*
X85128000Y-153522000I0J-250000D01*
G01*
X85128000Y-156022000D01*
G75*
G02*
X84878000Y-156272000I-250000J0D01*
G01*
X83778000Y-156272000D01*
G75*
G02*
X83528000Y-156022000I0J250000D01*
G01*
X83528000Y-153522000D01*
G75*
G02*
X83778000Y-153272000I250000J0D01*
G01*
G37*
%TD*%
%TO.C,Cvcc25*%
G36*
G01*
X93938000Y-157672000D02*
X95038000Y-157672000D01*
G75*
G02*
X95288000Y-157922000I0J-250000D01*
G01*
X95288000Y-160422000D01*
G75*
G02*
X95038000Y-160672000I-250000J0D01*
G01*
X93938000Y-160672000D01*
G75*
G02*
X93688000Y-160422000I0J250000D01*
G01*
X93688000Y-157922000D01*
G75*
G02*
X93938000Y-157672000I250000J0D01*
G01*
G37*
G36*
G01*
X93938000Y-153272000D02*
X95038000Y-153272000D01*
G75*
G02*
X95288000Y-153522000I0J-250000D01*
G01*
X95288000Y-156022000D01*
G75*
G02*
X95038000Y-156272000I-250000J0D01*
G01*
X93938000Y-156272000D01*
G75*
G02*
X93688000Y-156022000I0J250000D01*
G01*
X93688000Y-153522000D01*
G75*
G02*
X93938000Y-153272000I250000J0D01*
G01*
G37*
%TD*%
%TO.C,Cvcc24*%
G36*
G01*
X95038000Y-147128000D02*
X93938000Y-147128000D01*
G75*
G02*
X93688000Y-146878000I0J250000D01*
G01*
X93688000Y-144378000D01*
G75*
G02*
X93938000Y-144128000I250000J0D01*
G01*
X95038000Y-144128000D01*
G75*
G02*
X95288000Y-144378000I0J-250000D01*
G01*
X95288000Y-146878000D01*
G75*
G02*
X95038000Y-147128000I-250000J0D01*
G01*
G37*
G36*
G01*
X95038000Y-151528000D02*
X93938000Y-151528000D01*
G75*
G02*
X93688000Y-151278000I0J250000D01*
G01*
X93688000Y-148778000D01*
G75*
G02*
X93938000Y-148528000I250000J0D01*
G01*
X95038000Y-148528000D01*
G75*
G02*
X95288000Y-148778000I0J-250000D01*
G01*
X95288000Y-151278000D01*
G75*
G02*
X95038000Y-151528000I-250000J0D01*
G01*
G37*
%TD*%
%TO.C,Cvcc23*%
G36*
G01*
X84878000Y-147128000D02*
X83778000Y-147128000D01*
G75*
G02*
X83528000Y-146878000I0J250000D01*
G01*
X83528000Y-144378000D01*
G75*
G02*
X83778000Y-144128000I250000J0D01*
G01*
X84878000Y-144128000D01*
G75*
G02*
X85128000Y-144378000I0J-250000D01*
G01*
X85128000Y-146878000D01*
G75*
G02*
X84878000Y-147128000I-250000J0D01*
G01*
G37*
G36*
G01*
X84878000Y-151528000D02*
X83778000Y-151528000D01*
G75*
G02*
X83528000Y-151278000I0J250000D01*
G01*
X83528000Y-148778000D01*
G75*
G02*
X83778000Y-148528000I250000J0D01*
G01*
X84878000Y-148528000D01*
G75*
G02*
X85128000Y-148778000I0J-250000D01*
G01*
X85128000Y-151278000D01*
G75*
G02*
X84878000Y-151528000I-250000J0D01*
G01*
G37*
%TD*%
%TO.C,Cvcc22*%
G36*
G01*
X74718000Y-147128000D02*
X73618000Y-147128000D01*
G75*
G02*
X73368000Y-146878000I0J250000D01*
G01*
X73368000Y-144378000D01*
G75*
G02*
X73618000Y-144128000I250000J0D01*
G01*
X74718000Y-144128000D01*
G75*
G02*
X74968000Y-144378000I0J-250000D01*
G01*
X74968000Y-146878000D01*
G75*
G02*
X74718000Y-147128000I-250000J0D01*
G01*
G37*
G36*
G01*
X74718000Y-151528000D02*
X73618000Y-151528000D01*
G75*
G02*
X73368000Y-151278000I0J250000D01*
G01*
X73368000Y-148778000D01*
G75*
G02*
X73618000Y-148528000I250000J0D01*
G01*
X74718000Y-148528000D01*
G75*
G02*
X74968000Y-148778000I0J-250000D01*
G01*
X74968000Y-151278000D01*
G75*
G02*
X74718000Y-151528000I-250000J0D01*
G01*
G37*
%TD*%
%TO.C,Cvcc21*%
G36*
G01*
X64558000Y-147128000D02*
X63458000Y-147128000D01*
G75*
G02*
X63208000Y-146878000I0J250000D01*
G01*
X63208000Y-144378000D01*
G75*
G02*
X63458000Y-144128000I250000J0D01*
G01*
X64558000Y-144128000D01*
G75*
G02*
X64808000Y-144378000I0J-250000D01*
G01*
X64808000Y-146878000D01*
G75*
G02*
X64558000Y-147128000I-250000J0D01*
G01*
G37*
G36*
G01*
X64558000Y-151528000D02*
X63458000Y-151528000D01*
G75*
G02*
X63208000Y-151278000I0J250000D01*
G01*
X63208000Y-148778000D01*
G75*
G02*
X63458000Y-148528000I250000J0D01*
G01*
X64558000Y-148528000D01*
G75*
G02*
X64808000Y-148778000I0J-250000D01*
G01*
X64808000Y-151278000D01*
G75*
G02*
X64558000Y-151528000I-250000J0D01*
G01*
G37*
%TD*%
%TO.C,Css13*%
G36*
G01*
X138932500Y-102461000D02*
X138932500Y-102771000D01*
G75*
G02*
X138777500Y-102926000I-155000J0D01*
G01*
X138352500Y-102926000D01*
G75*
G02*
X138197500Y-102771000I0J155000D01*
G01*
X138197500Y-102461000D01*
G75*
G02*
X138352500Y-102306000I155000J0D01*
G01*
X138777500Y-102306000D01*
G75*
G02*
X138932500Y-102461000I0J-155000D01*
G01*
G37*
G36*
G01*
X140067500Y-102461000D02*
X140067500Y-102771000D01*
G75*
G02*
X139912500Y-102926000I-155000J0D01*
G01*
X139487500Y-102926000D01*
G75*
G02*
X139332500Y-102771000I0J155000D01*
G01*
X139332500Y-102461000D01*
G75*
G02*
X139487500Y-102306000I155000J0D01*
G01*
X139912500Y-102306000D01*
G75*
G02*
X140067500Y-102461000I0J-155000D01*
G01*
G37*
%TD*%
%TO.C,Css12*%
G36*
G01*
X138932500Y-99921000D02*
X138932500Y-100231000D01*
G75*
G02*
X138777500Y-100386000I-155000J0D01*
G01*
X138352500Y-100386000D01*
G75*
G02*
X138197500Y-100231000I0J155000D01*
G01*
X138197500Y-99921000D01*
G75*
G02*
X138352500Y-99766000I155000J0D01*
G01*
X138777500Y-99766000D01*
G75*
G02*
X138932500Y-99921000I0J-155000D01*
G01*
G37*
G36*
G01*
X140067500Y-99921000D02*
X140067500Y-100231000D01*
G75*
G02*
X139912500Y-100386000I-155000J0D01*
G01*
X139487500Y-100386000D01*
G75*
G02*
X139332500Y-100231000I0J155000D01*
G01*
X139332500Y-99921000D01*
G75*
G02*
X139487500Y-99766000I155000J0D01*
G01*
X139912500Y-99766000D01*
G75*
G02*
X140067500Y-99921000I0J-155000D01*
G01*
G37*
%TD*%
%TO.C,Css11*%
G36*
G01*
X138932500Y-97381000D02*
X138932500Y-97691000D01*
G75*
G02*
X138777500Y-97846000I-155000J0D01*
G01*
X138352500Y-97846000D01*
G75*
G02*
X138197500Y-97691000I0J155000D01*
G01*
X138197500Y-97381000D01*
G75*
G02*
X138352500Y-97226000I155000J0D01*
G01*
X138777500Y-97226000D01*
G75*
G02*
X138932500Y-97381000I0J-155000D01*
G01*
G37*
G36*
G01*
X140067500Y-97381000D02*
X140067500Y-97691000D01*
G75*
G02*
X139912500Y-97846000I-155000J0D01*
G01*
X139487500Y-97846000D01*
G75*
G02*
X139332500Y-97691000I0J155000D01*
G01*
X139332500Y-97381000D01*
G75*
G02*
X139487500Y-97226000I155000J0D01*
G01*
X139912500Y-97226000D01*
G75*
G02*
X140067500Y-97381000I0J-155000D01*
G01*
G37*
%TD*%
%TO.C,Coutx24*%
G36*
G01*
X146779000Y-151209500D02*
X145829000Y-151209500D01*
G75*
G02*
X145579000Y-150959500I0J250000D01*
G01*
X145579000Y-150284500D01*
G75*
G02*
X145829000Y-150034500I250000J0D01*
G01*
X146779000Y-150034500D01*
G75*
G02*
X147029000Y-150284500I0J-250000D01*
G01*
X147029000Y-150959500D01*
G75*
G02*
X146779000Y-151209500I-250000J0D01*
G01*
G37*
G36*
G01*
X146779000Y-153284500D02*
X145829000Y-153284500D01*
G75*
G02*
X145579000Y-153034500I0J250000D01*
G01*
X145579000Y-152359500D01*
G75*
G02*
X145829000Y-152109500I250000J0D01*
G01*
X146779000Y-152109500D01*
G75*
G02*
X147029000Y-152359500I0J-250000D01*
G01*
X147029000Y-153034500D01*
G75*
G02*
X146779000Y-153284500I-250000J0D01*
G01*
G37*
%TD*%
%TO.C,Coutx23*%
G36*
G01*
X145829000Y-143176500D02*
X146779000Y-143176500D01*
G75*
G02*
X147029000Y-143426500I0J-250000D01*
G01*
X147029000Y-144101500D01*
G75*
G02*
X146779000Y-144351500I-250000J0D01*
G01*
X145829000Y-144351500D01*
G75*
G02*
X145579000Y-144101500I0J250000D01*
G01*
X145579000Y-143426500D01*
G75*
G02*
X145829000Y-143176500I250000J0D01*
G01*
G37*
G36*
G01*
X145829000Y-141101500D02*
X146779000Y-141101500D01*
G75*
G02*
X147029000Y-141351500I0J-250000D01*
G01*
X147029000Y-142026500D01*
G75*
G02*
X146779000Y-142276500I-250000J0D01*
G01*
X145829000Y-142276500D01*
G75*
G02*
X145579000Y-142026500I0J250000D01*
G01*
X145579000Y-141351500D01*
G75*
G02*
X145829000Y-141101500I250000J0D01*
G01*
G37*
%TD*%
%TO.C,Coutx21*%
G36*
G01*
X152367000Y-151166500D02*
X151417000Y-151166500D01*
G75*
G02*
X151167000Y-150916500I0J250000D01*
G01*
X151167000Y-150241500D01*
G75*
G02*
X151417000Y-149991500I250000J0D01*
G01*
X152367000Y-149991500D01*
G75*
G02*
X152617000Y-150241500I0J-250000D01*
G01*
X152617000Y-150916500D01*
G75*
G02*
X152367000Y-151166500I-250000J0D01*
G01*
G37*
G36*
G01*
X152367000Y-153241500D02*
X151417000Y-153241500D01*
G75*
G02*
X151167000Y-152991500I0J250000D01*
G01*
X151167000Y-152316500D01*
G75*
G02*
X151417000Y-152066500I250000J0D01*
G01*
X152367000Y-152066500D01*
G75*
G02*
X152617000Y-152316500I0J-250000D01*
G01*
X152617000Y-152991500D01*
G75*
G02*
X152367000Y-153241500I-250000J0D01*
G01*
G37*
%TD*%
D11*
%TO.C,Cout26*%
X161036000Y-150893500D03*
X161036000Y-159494500D03*
%TD*%
%TO.C,Cout25*%
X186436000Y-150893500D03*
X186436000Y-159494500D03*
%TD*%
%TO.C,Cout24*%
X173736000Y-150893500D03*
X173736000Y-159494500D03*
%TD*%
%TO.C,Cout23*%
X161036000Y-143746500D03*
X161036000Y-135145500D03*
%TD*%
%TO.C,Cout22*%
X173736000Y-143746500D03*
X173736000Y-135145500D03*
%TD*%
%TO.C,Cout21*%
X186436000Y-143746500D03*
X186436000Y-135145500D03*
%TD*%
D12*
%TO.C,UVR1*%
X128108451Y-136209999D03*
X128108451Y-138110001D03*
X125383549Y-138110001D03*
X125383549Y-137160000D03*
X125383549Y-136209999D03*
%TD*%
D13*
%TO.C,UO1*%
X128130300Y-117094000D03*
X128130300Y-119634000D03*
X119265700Y-119634000D03*
X119265700Y-117094000D03*
%TD*%
D14*
%TO.C,U2LLC1*%
X119198652Y-148463000D03*
X119198652Y-147193000D03*
X119198652Y-145923000D03*
X119198652Y-144653000D03*
X124641348Y-144653000D03*
X124641348Y-145923000D03*
X124641348Y-147193000D03*
X124641348Y-148463000D03*
%TD*%
%TO.C,U1LLC1*%
X139119348Y-84201000D03*
X139119348Y-85471000D03*
X139119348Y-86741000D03*
X139119348Y-89281000D03*
X139119348Y-90551000D03*
X139119348Y-91821000D03*
X139119348Y-93091000D03*
X133676652Y-93091000D03*
X133676652Y-91821000D03*
X133676652Y-90551000D03*
X133676652Y-89281000D03*
X133676652Y-88011000D03*
X133676652Y-86741000D03*
X133676652Y-84201000D03*
%TD*%
%TO.C,Rlimit1*%
G36*
G01*
X142611000Y-127090000D02*
X141361000Y-127090000D01*
G75*
G02*
X141111000Y-126840000I0J250000D01*
G01*
X141111000Y-126040000D01*
G75*
G02*
X141361000Y-125790000I250000J0D01*
G01*
X142611000Y-125790000D01*
G75*
G02*
X142861000Y-126040000I0J-250000D01*
G01*
X142861000Y-126840000D01*
G75*
G02*
X142611000Y-127090000I-250000J0D01*
G01*
G37*
G36*
G01*
X142611000Y-130190000D02*
X141361000Y-130190000D01*
G75*
G02*
X141111000Y-129940000I0J250000D01*
G01*
X141111000Y-129140000D01*
G75*
G02*
X141361000Y-128890000I250000J0D01*
G01*
X142611000Y-128890000D01*
G75*
G02*
X142861000Y-129140000I0J-250000D01*
G01*
X142861000Y-129940000D01*
G75*
G02*
X142611000Y-130190000I-250000J0D01*
G01*
G37*
%TD*%
%TO.C,Rled1*%
G36*
G01*
X125119000Y-126148000D02*
X125119000Y-126328000D01*
G75*
G02*
X125029000Y-126418000I-90000J0D01*
G01*
X124751000Y-126418000D01*
G75*
G02*
X124661000Y-126328000I0J90000D01*
G01*
X124661000Y-126148000D01*
G75*
G02*
X124751000Y-126058000I90000J0D01*
G01*
X125029000Y-126058000D01*
G75*
G02*
X125119000Y-126148000I0J-90000D01*
G01*
G37*
G36*
G01*
X125984000Y-126148000D02*
X125984000Y-126328000D01*
G75*
G02*
X125894000Y-126418000I-90000J0D01*
G01*
X125616000Y-126418000D01*
G75*
G02*
X125526000Y-126328000I0J90000D01*
G01*
X125526000Y-126148000D01*
G75*
G02*
X125616000Y-126058000I90000J0D01*
G01*
X125894000Y-126058000D01*
G75*
G02*
X125984000Y-126148000I0J-90000D01*
G01*
G37*
%TD*%
%TO.C,Risns1*%
G36*
G01*
X111522500Y-91357000D02*
X111997500Y-91357000D01*
G75*
G02*
X112235000Y-91594500I0J-237500D01*
G01*
X112235000Y-92094500D01*
G75*
G02*
X111997500Y-92332000I-237500J0D01*
G01*
X111522500Y-92332000D01*
G75*
G02*
X111285000Y-92094500I0J237500D01*
G01*
X111285000Y-91594500D01*
G75*
G02*
X111522500Y-91357000I237500J0D01*
G01*
G37*
G36*
G01*
X111522500Y-89532000D02*
X111997500Y-89532000D01*
G75*
G02*
X112235000Y-89769500I0J-237500D01*
G01*
X112235000Y-90269500D01*
G75*
G02*
X111997500Y-90507000I-237500J0D01*
G01*
X111522500Y-90507000D01*
G75*
G02*
X111285000Y-90269500I0J237500D01*
G01*
X111285000Y-89769500D01*
G75*
G02*
X111522500Y-89532000I237500J0D01*
G01*
G37*
%TD*%
%TO.C,Rfbt4*%
G36*
G01*
X140799000Y-132350500D02*
X140799000Y-132825500D01*
G75*
G02*
X140561500Y-133063000I-237500J0D01*
G01*
X140061500Y-133063000D01*
G75*
G02*
X139824000Y-132825500I0J237500D01*
G01*
X139824000Y-132350500D01*
G75*
G02*
X140061500Y-132113000I237500J0D01*
G01*
X140561500Y-132113000D01*
G75*
G02*
X140799000Y-132350500I0J-237500D01*
G01*
G37*
G36*
G01*
X142624000Y-132350500D02*
X142624000Y-132825500D01*
G75*
G02*
X142386500Y-133063000I-237500J0D01*
G01*
X141886500Y-133063000D01*
G75*
G02*
X141649000Y-132825500I0J237500D01*
G01*
X141649000Y-132350500D01*
G75*
G02*
X141886500Y-132113000I237500J0D01*
G01*
X142386500Y-132113000D01*
G75*
G02*
X142624000Y-132350500I0J-237500D01*
G01*
G37*
%TD*%
%TO.C,Rfbb2*%
G36*
G01*
X133510000Y-136920000D02*
X133190000Y-136920000D01*
G75*
G02*
X133030000Y-136760000I0J160000D01*
G01*
X133030000Y-136365000D01*
G75*
G02*
X133190000Y-136205000I160000J0D01*
G01*
X133510000Y-136205000D01*
G75*
G02*
X133670000Y-136365000I0J-160000D01*
G01*
X133670000Y-136760000D01*
G75*
G02*
X133510000Y-136920000I-160000J0D01*
G01*
G37*
G36*
G01*
X133510000Y-138115000D02*
X133190000Y-138115000D01*
G75*
G02*
X133030000Y-137955000I0J160000D01*
G01*
X133030000Y-137560000D01*
G75*
G02*
X133190000Y-137400000I160000J0D01*
G01*
X133510000Y-137400000D01*
G75*
G02*
X133670000Y-137560000I0J-160000D01*
G01*
X133670000Y-137955000D01*
G75*
G02*
X133510000Y-138115000I-160000J0D01*
G01*
G37*
%TD*%
%TO.C,Rcomp2*%
G36*
G01*
X128675000Y-132498000D02*
X128675000Y-132678000D01*
G75*
G02*
X128585000Y-132768000I-90000J0D01*
G01*
X128307000Y-132768000D01*
G75*
G02*
X128217000Y-132678000I0J90000D01*
G01*
X128217000Y-132498000D01*
G75*
G02*
X128307000Y-132408000I90000J0D01*
G01*
X128585000Y-132408000D01*
G75*
G02*
X128675000Y-132498000I0J-90000D01*
G01*
G37*
G36*
G01*
X129540000Y-132498000D02*
X129540000Y-132678000D01*
G75*
G02*
X129450000Y-132768000I-90000J0D01*
G01*
X129172000Y-132768000D01*
G75*
G02*
X129082000Y-132678000I0J90000D01*
G01*
X129082000Y-132498000D01*
G75*
G02*
X129172000Y-132408000I90000J0D01*
G01*
X129450000Y-132408000D01*
G75*
G02*
X129540000Y-132498000I0J-90000D01*
G01*
G37*
%TD*%
%TO.C,Rbias1*%
G36*
G01*
X125128000Y-130226500D02*
X124808000Y-130226500D01*
G75*
G02*
X124648000Y-130066500I0J160000D01*
G01*
X124648000Y-129671500D01*
G75*
G02*
X124808000Y-129511500I160000J0D01*
G01*
X125128000Y-129511500D01*
G75*
G02*
X125288000Y-129671500I0J-160000D01*
G01*
X125288000Y-130066500D01*
G75*
G02*
X125128000Y-130226500I-160000J0D01*
G01*
G37*
G36*
G01*
X125128000Y-131421500D02*
X124808000Y-131421500D01*
G75*
G02*
X124648000Y-131261500I0J160000D01*
G01*
X124648000Y-130866500D01*
G75*
G02*
X124808000Y-130706500I160000J0D01*
G01*
X125128000Y-130706500D01*
G75*
G02*
X125288000Y-130866500I0J-160000D01*
G01*
X125288000Y-131261500D01*
G75*
G02*
X125128000Y-131421500I-160000J0D01*
G01*
G37*
%TD*%
D15*
%TO.C,Dboot1*%
X151384000Y-85344000D03*
X151384000Y-81464000D03*
%TD*%
%TO.C,Cz1*%
G36*
G01*
X129302500Y-127986500D02*
X129777500Y-127986500D01*
G75*
G02*
X130015000Y-128224000I0J-237500D01*
G01*
X130015000Y-128824000D01*
G75*
G02*
X129777500Y-129061500I-237500J0D01*
G01*
X129302500Y-129061500D01*
G75*
G02*
X129065000Y-128824000I0J237500D01*
G01*
X129065000Y-128224000D01*
G75*
G02*
X129302500Y-127986500I237500J0D01*
G01*
G37*
G36*
G01*
X129302500Y-126261500D02*
X129777500Y-126261500D01*
G75*
G02*
X130015000Y-126499000I0J-237500D01*
G01*
X130015000Y-127099000D01*
G75*
G02*
X129777500Y-127336500I-237500J0D01*
G01*
X129302500Y-127336500D01*
G75*
G02*
X129065000Y-127099000I0J237500D01*
G01*
X129065000Y-126499000D01*
G75*
G02*
X129302500Y-126261500I237500J0D01*
G01*
G37*
%TD*%
%TO.C,Coutx22*%
G36*
G01*
X151417000Y-143198000D02*
X152367000Y-143198000D01*
G75*
G02*
X152617000Y-143448000I0J-250000D01*
G01*
X152617000Y-144123000D01*
G75*
G02*
X152367000Y-144373000I-250000J0D01*
G01*
X151417000Y-144373000D01*
G75*
G02*
X151167000Y-144123000I0J250000D01*
G01*
X151167000Y-143448000D01*
G75*
G02*
X151417000Y-143198000I250000J0D01*
G01*
G37*
G36*
G01*
X151417000Y-141123000D02*
X152367000Y-141123000D01*
G75*
G02*
X152617000Y-141373000I0J-250000D01*
G01*
X152617000Y-142048000D01*
G75*
G02*
X152367000Y-142298000I-250000J0D01*
G01*
X151417000Y-142298000D01*
G75*
G02*
X151167000Y-142048000I0J250000D01*
G01*
X151167000Y-141373000D01*
G75*
G02*
X151417000Y-141123000I250000J0D01*
G01*
G37*
%TD*%
%TO.C,Ccomp3*%
G36*
G01*
X133681500Y-131937999D02*
X133681500Y-133238001D01*
G75*
G02*
X133431501Y-133488000I-249999J0D01*
G01*
X132606499Y-133488000D01*
G75*
G02*
X132356500Y-133238001I0J249999D01*
G01*
X132356500Y-131937999D01*
G75*
G02*
X132606499Y-131688000I249999J0D01*
G01*
X133431501Y-131688000D01*
G75*
G02*
X133681500Y-131937999I0J-249999D01*
G01*
G37*
G36*
G01*
X136806500Y-131937999D02*
X136806500Y-133238001D01*
G75*
G02*
X136556501Y-133488000I-249999J0D01*
G01*
X135731499Y-133488000D01*
G75*
G02*
X135481500Y-133238001I0J249999D01*
G01*
X135481500Y-131937999D01*
G75*
G02*
X135731499Y-131688000I249999J0D01*
G01*
X136556501Y-131688000D01*
G75*
G02*
X136806500Y-131937999I0J-249999D01*
G01*
G37*
%TD*%
%TO.C,Cboot1*%
G36*
G01*
X137242500Y-80280500D02*
X137242500Y-80755500D01*
G75*
G02*
X137005000Y-80993000I-237500J0D01*
G01*
X136405000Y-80993000D01*
G75*
G02*
X136167500Y-80755500I0J237500D01*
G01*
X136167500Y-80280500D01*
G75*
G02*
X136405000Y-80043000I237500J0D01*
G01*
X137005000Y-80043000D01*
G75*
G02*
X137242500Y-80280500I0J-237500D01*
G01*
G37*
G36*
G01*
X138967500Y-80280500D02*
X138967500Y-80755500D01*
G75*
G02*
X138730000Y-80993000I-237500J0D01*
G01*
X138130000Y-80993000D01*
G75*
G02*
X137892500Y-80755500I0J237500D01*
G01*
X137892500Y-80280500D01*
G75*
G02*
X138130000Y-80043000I237500J0D01*
G01*
X138730000Y-80043000D01*
G75*
G02*
X138967500Y-80280500I0J-237500D01*
G01*
G37*
%TD*%
%TO.C,Rvcc2*%
G36*
G01*
X139089000Y-105066000D02*
X139089000Y-105246000D01*
G75*
G02*
X138999000Y-105336000I-90000J0D01*
G01*
X138721000Y-105336000D01*
G75*
G02*
X138631000Y-105246000I0J90000D01*
G01*
X138631000Y-105066000D01*
G75*
G02*
X138721000Y-104976000I90000J0D01*
G01*
X138999000Y-104976000D01*
G75*
G02*
X139089000Y-105066000I0J-90000D01*
G01*
G37*
G36*
G01*
X139954000Y-105066000D02*
X139954000Y-105246000D01*
G75*
G02*
X139864000Y-105336000I-90000J0D01*
G01*
X139586000Y-105336000D01*
G75*
G02*
X139496000Y-105246000I0J90000D01*
G01*
X139496000Y-105066000D01*
G75*
G02*
X139586000Y-104976000I90000J0D01*
G01*
X139864000Y-104976000D01*
G75*
G02*
X139954000Y-105066000I0J-90000D01*
G01*
G37*
%TD*%
%TO.C,Rvcc1*%
G36*
G01*
X144576500Y-105066000D02*
X144576500Y-105246000D01*
G75*
G02*
X144486500Y-105336000I-90000J0D01*
G01*
X144208500Y-105336000D01*
G75*
G02*
X144118500Y-105246000I0J90000D01*
G01*
X144118500Y-105066000D01*
G75*
G02*
X144208500Y-104976000I90000J0D01*
G01*
X144486500Y-104976000D01*
G75*
G02*
X144576500Y-105066000I0J-90000D01*
G01*
G37*
G36*
G01*
X145441500Y-105066000D02*
X145441500Y-105246000D01*
G75*
G02*
X145351500Y-105336000I-90000J0D01*
G01*
X145073500Y-105336000D01*
G75*
G02*
X144983500Y-105246000I0J90000D01*
G01*
X144983500Y-105066000D01*
G75*
G02*
X145073500Y-104976000I90000J0D01*
G01*
X145351500Y-104976000D01*
G75*
G02*
X145441500Y-105066000I0J-90000D01*
G01*
G37*
%TD*%
%TO.C,Rho1*%
G36*
G01*
X199540500Y-88552000D02*
X199540500Y-88232000D01*
G75*
G02*
X199700500Y-88072000I160000J0D01*
G01*
X200095500Y-88072000D01*
G75*
G02*
X200255500Y-88232000I0J-160000D01*
G01*
X200255500Y-88552000D01*
G75*
G02*
X200095500Y-88712000I-160000J0D01*
G01*
X199700500Y-88712000D01*
G75*
G02*
X199540500Y-88552000I0J160000D01*
G01*
G37*
G36*
G01*
X198345500Y-88552000D02*
X198345500Y-88232000D01*
G75*
G02*
X198505500Y-88072000I160000J0D01*
G01*
X198900500Y-88072000D01*
G75*
G02*
X199060500Y-88232000I0J-160000D01*
G01*
X199060500Y-88552000D01*
G75*
G02*
X198900500Y-88712000I-160000J0D01*
G01*
X198505500Y-88712000D01*
G75*
G02*
X198345500Y-88552000I0J160000D01*
G01*
G37*
%TD*%
%TO.C,Rlo1*%
G36*
G01*
X199376000Y-72550000D02*
X199376000Y-72230000D01*
G75*
G02*
X199536000Y-72070000I160000J0D01*
G01*
X199931000Y-72070000D01*
G75*
G02*
X200091000Y-72230000I0J-160000D01*
G01*
X200091000Y-72550000D01*
G75*
G02*
X199931000Y-72710000I-160000J0D01*
G01*
X199536000Y-72710000D01*
G75*
G02*
X199376000Y-72550000I0J160000D01*
G01*
G37*
G36*
G01*
X198181000Y-72550000D02*
X198181000Y-72230000D01*
G75*
G02*
X198341000Y-72070000I160000J0D01*
G01*
X198736000Y-72070000D01*
G75*
G02*
X198896000Y-72230000I0J-160000D01*
G01*
X198896000Y-72550000D01*
G75*
G02*
X198736000Y-72710000I-160000J0D01*
G01*
X198341000Y-72710000D01*
G75*
G02*
X198181000Y-72550000I0J160000D01*
G01*
G37*
%TD*%
%TO.C,Rdrv1*%
G36*
G01*
X199738000Y-91680000D02*
X200058000Y-91680000D01*
G75*
G02*
X200218000Y-91840000I0J-160000D01*
G01*
X200218000Y-92235000D01*
G75*
G02*
X200058000Y-92395000I-160000J0D01*
G01*
X199738000Y-92395000D01*
G75*
G02*
X199578000Y-92235000I0J160000D01*
G01*
X199578000Y-91840000D01*
G75*
G02*
X199738000Y-91680000I160000J0D01*
G01*
G37*
G36*
G01*
X199738000Y-90485000D02*
X200058000Y-90485000D01*
G75*
G02*
X200218000Y-90645000I0J-160000D01*
G01*
X200218000Y-91040000D01*
G75*
G02*
X200058000Y-91200000I-160000J0D01*
G01*
X199738000Y-91200000D01*
G75*
G02*
X199578000Y-91040000I0J160000D01*
G01*
X199578000Y-90645000D01*
G75*
G02*
X199738000Y-90485000I160000J0D01*
G01*
G37*
%TD*%
%TO.C,Rbw2*%
G36*
G01*
X134215000Y-100420000D02*
X134215000Y-100240000D01*
G75*
G02*
X134305000Y-100150000I90000J0D01*
G01*
X134583000Y-100150000D01*
G75*
G02*
X134673000Y-100240000I0J-90000D01*
G01*
X134673000Y-100420000D01*
G75*
G02*
X134583000Y-100510000I-90000J0D01*
G01*
X134305000Y-100510000D01*
G75*
G02*
X134215000Y-100420000I0J90000D01*
G01*
G37*
G36*
G01*
X133350000Y-100420000D02*
X133350000Y-100240000D01*
G75*
G02*
X133440000Y-100150000I90000J0D01*
G01*
X133718000Y-100150000D01*
G75*
G02*
X133808000Y-100240000I0J-90000D01*
G01*
X133808000Y-100420000D01*
G75*
G02*
X133718000Y-100510000I-90000J0D01*
G01*
X133440000Y-100510000D01*
G75*
G02*
X133350000Y-100420000I0J90000D01*
G01*
G37*
%TD*%
%TO.C,Rbw1*%
G36*
G01*
X133764000Y-102794500D02*
X133444000Y-102794500D01*
G75*
G02*
X133284000Y-102634500I0J160000D01*
G01*
X133284000Y-102239500D01*
G75*
G02*
X133444000Y-102079500I160000J0D01*
G01*
X133764000Y-102079500D01*
G75*
G02*
X133924000Y-102239500I0J-160000D01*
G01*
X133924000Y-102634500D01*
G75*
G02*
X133764000Y-102794500I-160000J0D01*
G01*
G37*
G36*
G01*
X133764000Y-103989500D02*
X133444000Y-103989500D01*
G75*
G02*
X133284000Y-103829500I0J160000D01*
G01*
X133284000Y-103434500D01*
G75*
G02*
X133444000Y-103274500I160000J0D01*
G01*
X133764000Y-103274500D01*
G75*
G02*
X133924000Y-103434500I0J-160000D01*
G01*
X133924000Y-103829500D01*
G75*
G02*
X133764000Y-103989500I-160000J0D01*
G01*
G37*
%TD*%
%TO.C,Rboot1*%
G36*
G01*
X150933999Y-90808000D02*
X151834001Y-90808000D01*
G75*
G02*
X152084000Y-91057999I0J-249999D01*
G01*
X152084000Y-91758001D01*
G75*
G02*
X151834001Y-92008000I-249999J0D01*
G01*
X150933999Y-92008000D01*
G75*
G02*
X150684000Y-91758001I0J249999D01*
G01*
X150684000Y-91057999D01*
G75*
G02*
X150933999Y-90808000I249999J0D01*
G01*
G37*
G36*
G01*
X150933999Y-88808000D02*
X151834001Y-88808000D01*
G75*
G02*
X152084000Y-89057999I0J-249999D01*
G01*
X152084000Y-89758001D01*
G75*
G02*
X151834001Y-90008000I-249999J0D01*
G01*
X150933999Y-90008000D01*
G75*
G02*
X150684000Y-89758001I0J249999D01*
G01*
X150684000Y-89057999D01*
G75*
G02*
X150933999Y-88808000I249999J0D01*
G01*
G37*
%TD*%
%TO.C,R28*%
G36*
G01*
X136742000Y-113929000D02*
X136742000Y-115179000D01*
G75*
G02*
X136492000Y-115429000I-250000J0D01*
G01*
X135692000Y-115429000D01*
G75*
G02*
X135442000Y-115179000I0J250000D01*
G01*
X135442000Y-113929000D01*
G75*
G02*
X135692000Y-113679000I250000J0D01*
G01*
X136492000Y-113679000D01*
G75*
G02*
X136742000Y-113929000I0J-250000D01*
G01*
G37*
G36*
G01*
X139842000Y-113929000D02*
X139842000Y-115179000D01*
G75*
G02*
X139592000Y-115429000I-250000J0D01*
G01*
X138792000Y-115429000D01*
G75*
G02*
X138542000Y-115179000I0J250000D01*
G01*
X138542000Y-113929000D01*
G75*
G02*
X138792000Y-113679000I250000J0D01*
G01*
X139592000Y-113679000D01*
G75*
G02*
X139842000Y-113929000I0J-250000D01*
G01*
G37*
%TD*%
%TO.C,R27*%
G36*
G01*
X133720000Y-109357000D02*
X133720000Y-110607000D01*
G75*
G02*
X133470000Y-110857000I-250000J0D01*
G01*
X132670000Y-110857000D01*
G75*
G02*
X132420000Y-110607000I0J250000D01*
G01*
X132420000Y-109357000D01*
G75*
G02*
X132670000Y-109107000I250000J0D01*
G01*
X133470000Y-109107000D01*
G75*
G02*
X133720000Y-109357000I0J-250000D01*
G01*
G37*
G36*
G01*
X136820000Y-109357000D02*
X136820000Y-110607000D01*
G75*
G02*
X136570000Y-110857000I-250000J0D01*
G01*
X135770000Y-110857000D01*
G75*
G02*
X135520000Y-110607000I0J250000D01*
G01*
X135520000Y-109357000D01*
G75*
G02*
X135770000Y-109107000I250000J0D01*
G01*
X136570000Y-109107000D01*
G75*
G02*
X136820000Y-109357000I0J-250000D01*
G01*
G37*
%TD*%
%TO.C,R20*%
G36*
G01*
X139842000Y-118501000D02*
X139842000Y-119751000D01*
G75*
G02*
X139592000Y-120001000I-250000J0D01*
G01*
X138792000Y-120001000D01*
G75*
G02*
X138542000Y-119751000I0J250000D01*
G01*
X138542000Y-118501000D01*
G75*
G02*
X138792000Y-118251000I250000J0D01*
G01*
X139592000Y-118251000D01*
G75*
G02*
X139842000Y-118501000I0J-250000D01*
G01*
G37*
G36*
G01*
X142942000Y-118501000D02*
X142942000Y-119751000D01*
G75*
G02*
X142692000Y-120001000I-250000J0D01*
G01*
X141892000Y-120001000D01*
G75*
G02*
X141642000Y-119751000I0J250000D01*
G01*
X141642000Y-118501000D01*
G75*
G02*
X141892000Y-118251000I250000J0D01*
G01*
X142692000Y-118251000D01*
G75*
G02*
X142942000Y-118501000I0J-250000D01*
G01*
G37*
%TD*%
%TO.C,R19*%
G36*
G01*
X126416500Y-86200000D02*
X126416500Y-86520000D01*
G75*
G02*
X126256500Y-86680000I-160000J0D01*
G01*
X125861500Y-86680000D01*
G75*
G02*
X125701500Y-86520000I0J160000D01*
G01*
X125701500Y-86200000D01*
G75*
G02*
X125861500Y-86040000I160000J0D01*
G01*
X126256500Y-86040000D01*
G75*
G02*
X126416500Y-86200000I0J-160000D01*
G01*
G37*
G36*
G01*
X127611500Y-86200000D02*
X127611500Y-86520000D01*
G75*
G02*
X127451500Y-86680000I-160000J0D01*
G01*
X127056500Y-86680000D01*
G75*
G02*
X126896500Y-86520000I0J160000D01*
G01*
X126896500Y-86200000D01*
G75*
G02*
X127056500Y-86040000I160000J0D01*
G01*
X127451500Y-86040000D01*
G75*
G02*
X127611500Y-86200000I0J-160000D01*
G01*
G37*
%TD*%
D16*
%TO.C,Dz1*%
X135448000Y-126524000D03*
X136398000Y-128524000D03*
X134498000Y-128524000D03*
%TD*%
%TO.C,Cvrcc1*%
G36*
G01*
X143035000Y-90344500D02*
X143985000Y-90344500D01*
G75*
G02*
X144235000Y-90594500I0J-250000D01*
G01*
X144235000Y-91269500D01*
G75*
G02*
X143985000Y-91519500I-250000J0D01*
G01*
X143035000Y-91519500D01*
G75*
G02*
X142785000Y-91269500I0J250000D01*
G01*
X142785000Y-90594500D01*
G75*
G02*
X143035000Y-90344500I250000J0D01*
G01*
G37*
G36*
G01*
X143035000Y-88269500D02*
X143985000Y-88269500D01*
G75*
G02*
X144235000Y-88519500I0J-250000D01*
G01*
X144235000Y-89194500D01*
G75*
G02*
X143985000Y-89444500I-250000J0D01*
G01*
X143035000Y-89444500D01*
G75*
G02*
X142785000Y-89194500I0J250000D01*
G01*
X142785000Y-88519500D01*
G75*
G02*
X143035000Y-88269500I250000J0D01*
G01*
G37*
%TD*%
%TO.C,Cvcc3*%
G36*
G01*
X125555500Y-82583000D02*
X125555500Y-83533000D01*
G75*
G02*
X125305500Y-83783000I-250000J0D01*
G01*
X124630500Y-83783000D01*
G75*
G02*
X124380500Y-83533000I0J250000D01*
G01*
X124380500Y-82583000D01*
G75*
G02*
X124630500Y-82333000I250000J0D01*
G01*
X125305500Y-82333000D01*
G75*
G02*
X125555500Y-82583000I0J-250000D01*
G01*
G37*
G36*
G01*
X127630500Y-82583000D02*
X127630500Y-83533000D01*
G75*
G02*
X127380500Y-83783000I-250000J0D01*
G01*
X126705500Y-83783000D01*
G75*
G02*
X126455500Y-83533000I0J250000D01*
G01*
X126455500Y-82583000D01*
G75*
G02*
X126705500Y-82333000I250000J0D01*
G01*
X127380500Y-82333000D01*
G75*
G02*
X127630500Y-82583000I0J-250000D01*
G01*
G37*
%TD*%
%TO.C,Crvcc2*%
G36*
G01*
X143800500Y-108491000D02*
X143800500Y-109441000D01*
G75*
G02*
X143550500Y-109691000I-250000J0D01*
G01*
X142875500Y-109691000D01*
G75*
G02*
X142625500Y-109441000I0J250000D01*
G01*
X142625500Y-108491000D01*
G75*
G02*
X142875500Y-108241000I250000J0D01*
G01*
X143550500Y-108241000D01*
G75*
G02*
X143800500Y-108491000I0J-250000D01*
G01*
G37*
G36*
G01*
X145875500Y-108491000D02*
X145875500Y-109441000D01*
G75*
G02*
X145625500Y-109691000I-250000J0D01*
G01*
X144950500Y-109691000D01*
G75*
G02*
X144700500Y-109441000I0J250000D01*
G01*
X144700500Y-108491000D01*
G75*
G02*
X144950500Y-108241000I250000J0D01*
G01*
X145625500Y-108241000D01*
G75*
G02*
X145875500Y-108491000I0J-250000D01*
G01*
G37*
%TD*%
%TO.C,Creg1*%
G36*
G01*
X129639000Y-146698500D02*
X129949000Y-146698500D01*
G75*
G02*
X130104000Y-146853500I0J-155000D01*
G01*
X130104000Y-147278500D01*
G75*
G02*
X129949000Y-147433500I-155000J0D01*
G01*
X129639000Y-147433500D01*
G75*
G02*
X129484000Y-147278500I0J155000D01*
G01*
X129484000Y-146853500D01*
G75*
G02*
X129639000Y-146698500I155000J0D01*
G01*
G37*
G36*
G01*
X129639000Y-145563500D02*
X129949000Y-145563500D01*
G75*
G02*
X130104000Y-145718500I0J-155000D01*
G01*
X130104000Y-146143500D01*
G75*
G02*
X129949000Y-146298500I-155000J0D01*
G01*
X129639000Y-146298500D01*
G75*
G02*
X129484000Y-146143500I0J155000D01*
G01*
X129484000Y-145718500D01*
G75*
G02*
X129639000Y-145563500I155000J0D01*
G01*
G37*
%TD*%
%TO.C,Cisns1*%
G36*
G01*
X114653000Y-90624000D02*
X114963000Y-90624000D01*
G75*
G02*
X115118000Y-90779000I0J-155000D01*
G01*
X115118000Y-91204000D01*
G75*
G02*
X114963000Y-91359000I-155000J0D01*
G01*
X114653000Y-91359000D01*
G75*
G02*
X114498000Y-91204000I0J155000D01*
G01*
X114498000Y-90779000D01*
G75*
G02*
X114653000Y-90624000I155000J0D01*
G01*
G37*
G36*
G01*
X114653000Y-89489000D02*
X114963000Y-89489000D01*
G75*
G02*
X115118000Y-89644000I0J-155000D01*
G01*
X115118000Y-90069000D01*
G75*
G02*
X114963000Y-90224000I-155000J0D01*
G01*
X114653000Y-90224000D01*
G75*
G02*
X114498000Y-90069000I0J155000D01*
G01*
X114498000Y-89644000D01*
G75*
G02*
X114653000Y-89489000I155000J0D01*
G01*
G37*
%TD*%
%TO.C,Cbw1*%
G36*
G01*
X134312000Y-97691000D02*
X134312000Y-97381000D01*
G75*
G02*
X134467000Y-97226000I155000J0D01*
G01*
X134892000Y-97226000D01*
G75*
G02*
X135047000Y-97381000I0J-155000D01*
G01*
X135047000Y-97691000D01*
G75*
G02*
X134892000Y-97846000I-155000J0D01*
G01*
X134467000Y-97846000D01*
G75*
G02*
X134312000Y-97691000I0J155000D01*
G01*
G37*
G36*
G01*
X133177000Y-97691000D02*
X133177000Y-97381000D01*
G75*
G02*
X133332000Y-97226000I155000J0D01*
G01*
X133757000Y-97226000D01*
G75*
G02*
X133912000Y-97381000I0J-155000D01*
G01*
X133912000Y-97691000D01*
G75*
G02*
X133757000Y-97846000I-155000J0D01*
G01*
X133332000Y-97846000D01*
G75*
G02*
X133177000Y-97691000I0J155000D01*
G01*
G37*
%TD*%
%TO.C,C16*%
G36*
G01*
X126486500Y-88491000D02*
X126486500Y-88801000D01*
G75*
G02*
X126331500Y-88956000I-155000J0D01*
G01*
X125906500Y-88956000D01*
G75*
G02*
X125751500Y-88801000I0J155000D01*
G01*
X125751500Y-88491000D01*
G75*
G02*
X125906500Y-88336000I155000J0D01*
G01*
X126331500Y-88336000D01*
G75*
G02*
X126486500Y-88491000I0J-155000D01*
G01*
G37*
G36*
G01*
X127621500Y-88491000D02*
X127621500Y-88801000D01*
G75*
G02*
X127466500Y-88956000I-155000J0D01*
G01*
X127041500Y-88956000D01*
G75*
G02*
X126886500Y-88801000I0J155000D01*
G01*
X126886500Y-88491000D01*
G75*
G02*
X127041500Y-88336000I155000J0D01*
G01*
X127466500Y-88336000D01*
G75*
G02*
X127621500Y-88491000I0J-155000D01*
G01*
G37*
%TD*%
D14*
%TO.C,U1*%
X123879348Y-56261000D03*
X123879348Y-57531000D03*
X123879348Y-58801000D03*
X123879348Y-60071000D03*
X118436652Y-60071000D03*
X118436652Y-58801000D03*
X118436652Y-57531000D03*
X118436652Y-56261000D03*
%TD*%
%TO.C,Risense1*%
G36*
G01*
X100998000Y-37770500D02*
X100678000Y-37770500D01*
G75*
G02*
X100518000Y-37610500I0J160000D01*
G01*
X100518000Y-37215500D01*
G75*
G02*
X100678000Y-37055500I160000J0D01*
G01*
X100998000Y-37055500D01*
G75*
G02*
X101158000Y-37215500I0J-160000D01*
G01*
X101158000Y-37610500D01*
G75*
G02*
X100998000Y-37770500I-160000J0D01*
G01*
G37*
G36*
G01*
X100998000Y-38965500D02*
X100678000Y-38965500D01*
G75*
G02*
X100518000Y-38805500I0J160000D01*
G01*
X100518000Y-38410500D01*
G75*
G02*
X100678000Y-38250500I160000J0D01*
G01*
X100998000Y-38250500D01*
G75*
G02*
X101158000Y-38410500I0J-160000D01*
G01*
X101158000Y-38805500D01*
G75*
G02*
X100998000Y-38965500I-160000J0D01*
G01*
G37*
%TD*%
%TO.C,Rgate3*%
G36*
G01*
X123792000Y-52653500D02*
X124112000Y-52653500D01*
G75*
G02*
X124272000Y-52813500I0J-160000D01*
G01*
X124272000Y-53208500D01*
G75*
G02*
X124112000Y-53368500I-160000J0D01*
G01*
X123792000Y-53368500D01*
G75*
G02*
X123632000Y-53208500I0J160000D01*
G01*
X123632000Y-52813500D01*
G75*
G02*
X123792000Y-52653500I160000J0D01*
G01*
G37*
G36*
G01*
X123792000Y-51458500D02*
X124112000Y-51458500D01*
G75*
G02*
X124272000Y-51618500I0J-160000D01*
G01*
X124272000Y-52013500D01*
G75*
G02*
X124112000Y-52173500I-160000J0D01*
G01*
X123792000Y-52173500D01*
G75*
G02*
X123632000Y-52013500I0J160000D01*
G01*
X123632000Y-51618500D01*
G75*
G02*
X123792000Y-51458500I160000J0D01*
G01*
G37*
%TD*%
%TO.C,Rgate2*%
G36*
G01*
X128106000Y-48210000D02*
X127926000Y-48210000D01*
G75*
G02*
X127836000Y-48120000I0J90000D01*
G01*
X127836000Y-47842000D01*
G75*
G02*
X127926000Y-47752000I90000J0D01*
G01*
X128106000Y-47752000D01*
G75*
G02*
X128196000Y-47842000I0J-90000D01*
G01*
X128196000Y-48120000D01*
G75*
G02*
X128106000Y-48210000I-90000J0D01*
G01*
G37*
G36*
G01*
X128106000Y-49075000D02*
X127926000Y-49075000D01*
G75*
G02*
X127836000Y-48985000I0J90000D01*
G01*
X127836000Y-48707000D01*
G75*
G02*
X127926000Y-48617000I90000J0D01*
G01*
X128106000Y-48617000D01*
G75*
G02*
X128196000Y-48707000I0J-90000D01*
G01*
X128196000Y-48985000D01*
G75*
G02*
X128106000Y-49075000I-90000J0D01*
G01*
G37*
%TD*%
%TO.C,Rgate1*%
G36*
G01*
X124864500Y-48928000D02*
X124864500Y-48608000D01*
G75*
G02*
X125024500Y-48448000I160000J0D01*
G01*
X125419500Y-48448000D01*
G75*
G02*
X125579500Y-48608000I0J-160000D01*
G01*
X125579500Y-48928000D01*
G75*
G02*
X125419500Y-49088000I-160000J0D01*
G01*
X125024500Y-49088000D01*
G75*
G02*
X124864500Y-48928000I0J160000D01*
G01*
G37*
G36*
G01*
X123669500Y-48928000D02*
X123669500Y-48608000D01*
G75*
G02*
X123829500Y-48448000I160000J0D01*
G01*
X124224500Y-48448000D01*
G75*
G02*
X124384500Y-48608000I0J-160000D01*
G01*
X124384500Y-48928000D01*
G75*
G02*
X124224500Y-49088000I-160000J0D01*
G01*
X123829500Y-49088000D01*
G75*
G02*
X123669500Y-48928000I0J160000D01*
G01*
G37*
%TD*%
%TO.C,Rfreq1*%
G36*
G01*
X111430500Y-61562000D02*
X111430500Y-61882000D01*
G75*
G02*
X111270500Y-62042000I-160000J0D01*
G01*
X110875500Y-62042000D01*
G75*
G02*
X110715500Y-61882000I0J160000D01*
G01*
X110715500Y-61562000D01*
G75*
G02*
X110875500Y-61402000I160000J0D01*
G01*
X111270500Y-61402000D01*
G75*
G02*
X111430500Y-61562000I0J-160000D01*
G01*
G37*
G36*
G01*
X112625500Y-61562000D02*
X112625500Y-61882000D01*
G75*
G02*
X112465500Y-62042000I-160000J0D01*
G01*
X112070500Y-62042000D01*
G75*
G02*
X111910500Y-61882000I0J160000D01*
G01*
X111910500Y-61562000D01*
G75*
G02*
X112070500Y-61402000I160000J0D01*
G01*
X112465500Y-61402000D01*
G75*
G02*
X112625500Y-61562000I0J-160000D01*
G01*
G37*
%TD*%
%TO.C,Rfbt3*%
G36*
G01*
X149416000Y-50447001D02*
X149416000Y-47596999D01*
G75*
G02*
X149665999Y-47347000I249999J0D01*
G01*
X150566001Y-47347000D01*
G75*
G02*
X150816000Y-47596999I0J-249999D01*
G01*
X150816000Y-50447001D01*
G75*
G02*
X150566001Y-50697000I-249999J0D01*
G01*
X149665999Y-50697000D01*
G75*
G02*
X149416000Y-50447001I0J249999D01*
G01*
G37*
G36*
G01*
X143316000Y-50447001D02*
X143316000Y-47596999D01*
G75*
G02*
X143565999Y-47347000I249999J0D01*
G01*
X144466001Y-47347000D01*
G75*
G02*
X144716000Y-47596999I0J-249999D01*
G01*
X144716000Y-50447001D01*
G75*
G02*
X144466001Y-50697000I-249999J0D01*
G01*
X143565999Y-50697000D01*
G75*
G02*
X143316000Y-50447001I0J249999D01*
G01*
G37*
%TD*%
%TO.C,Rfbt2*%
G36*
G01*
X149414000Y-35461001D02*
X149414000Y-32610999D01*
G75*
G02*
X149663999Y-32361000I249999J0D01*
G01*
X150564001Y-32361000D01*
G75*
G02*
X150814000Y-32610999I0J-249999D01*
G01*
X150814000Y-35461001D01*
G75*
G02*
X150564001Y-35711000I-249999J0D01*
G01*
X149663999Y-35711000D01*
G75*
G02*
X149414000Y-35461001I0J249999D01*
G01*
G37*
G36*
G01*
X143314000Y-35461001D02*
X143314000Y-32610999D01*
G75*
G02*
X143563999Y-32361000I249999J0D01*
G01*
X144464001Y-32361000D01*
G75*
G02*
X144714000Y-32610999I0J-249999D01*
G01*
X144714000Y-35461001D01*
G75*
G02*
X144464001Y-35711000I-249999J0D01*
G01*
X143563999Y-35711000D01*
G75*
G02*
X143314000Y-35461001I0J249999D01*
G01*
G37*
%TD*%
%TO.C,Rfbt1*%
G36*
G01*
X144714000Y-39976999D02*
X144714000Y-42827001D01*
G75*
G02*
X144464001Y-43077000I-249999J0D01*
G01*
X143563999Y-43077000D01*
G75*
G02*
X143314000Y-42827001I0J249999D01*
G01*
X143314000Y-39976999D01*
G75*
G02*
X143563999Y-39727000I249999J0D01*
G01*
X144464001Y-39727000D01*
G75*
G02*
X144714000Y-39976999I0J-249999D01*
G01*
G37*
G36*
G01*
X150814000Y-39976999D02*
X150814000Y-42827001D01*
G75*
G02*
X150564001Y-43077000I-249999J0D01*
G01*
X149663999Y-43077000D01*
G75*
G02*
X149414000Y-42827001I0J249999D01*
G01*
X149414000Y-39976999D01*
G75*
G02*
X149663999Y-39727000I249999J0D01*
G01*
X150564001Y-39727000D01*
G75*
G02*
X150814000Y-39976999I0J-249999D01*
G01*
G37*
%TD*%
%TO.C,Rfbb1*%
G36*
G01*
X130352000Y-63082000D02*
X130352000Y-62902000D01*
G75*
G02*
X130442000Y-62812000I90000J0D01*
G01*
X130720000Y-62812000D01*
G75*
G02*
X130810000Y-62902000I0J-90000D01*
G01*
X130810000Y-63082000D01*
G75*
G02*
X130720000Y-63172000I-90000J0D01*
G01*
X130442000Y-63172000D01*
G75*
G02*
X130352000Y-63082000I0J90000D01*
G01*
G37*
G36*
G01*
X129487000Y-63082000D02*
X129487000Y-62902000D01*
G75*
G02*
X129577000Y-62812000I90000J0D01*
G01*
X129855000Y-62812000D01*
G75*
G02*
X129945000Y-62902000I0J-90000D01*
G01*
X129945000Y-63082000D01*
G75*
G02*
X129855000Y-63172000I-90000J0D01*
G01*
X129577000Y-63172000D01*
G75*
G02*
X129487000Y-63082000I0J90000D01*
G01*
G37*
%TD*%
%TO.C,Rcomp1*%
G36*
G01*
X124663500Y-68670000D02*
X124663500Y-68490000D01*
G75*
G02*
X124753500Y-68400000I90000J0D01*
G01*
X125031500Y-68400000D01*
G75*
G02*
X125121500Y-68490000I0J-90000D01*
G01*
X125121500Y-68670000D01*
G75*
G02*
X125031500Y-68760000I-90000J0D01*
G01*
X124753500Y-68760000D01*
G75*
G02*
X124663500Y-68670000I0J90000D01*
G01*
G37*
G36*
G01*
X123798500Y-68670000D02*
X123798500Y-68490000D01*
G75*
G02*
X123888500Y-68400000I90000J0D01*
G01*
X124166500Y-68400000D01*
G75*
G02*
X124256500Y-68490000I0J-90000D01*
G01*
X124256500Y-68670000D01*
G75*
G02*
X124166500Y-68760000I-90000J0D01*
G01*
X123888500Y-68760000D01*
G75*
G02*
X123798500Y-68670000I0J90000D01*
G01*
G37*
%TD*%
%TO.C,Cvsense1*%
G36*
G01*
X130352000Y-60288000D02*
X130352000Y-60108000D01*
G75*
G02*
X130442000Y-60018000I90000J0D01*
G01*
X130720000Y-60018000D01*
G75*
G02*
X130810000Y-60108000I0J-90000D01*
G01*
X130810000Y-60288000D01*
G75*
G02*
X130720000Y-60378000I-90000J0D01*
G01*
X130442000Y-60378000D01*
G75*
G02*
X130352000Y-60288000I0J90000D01*
G01*
G37*
G36*
G01*
X129487000Y-60288000D02*
X129487000Y-60108000D01*
G75*
G02*
X129577000Y-60018000I90000J0D01*
G01*
X129855000Y-60018000D01*
G75*
G02*
X129945000Y-60108000I0J-90000D01*
G01*
X129945000Y-60288000D01*
G75*
G02*
X129855000Y-60378000I-90000J0D01*
G01*
X129577000Y-60378000D01*
G75*
G02*
X129487000Y-60288000I0J90000D01*
G01*
G37*
%TD*%
%TO.C,Cvccx1*%
G36*
G01*
X130950500Y-54765000D02*
X130950500Y-54455000D01*
G75*
G02*
X131105500Y-54300000I155000J0D01*
G01*
X131530500Y-54300000D01*
G75*
G02*
X131685500Y-54455000I0J-155000D01*
G01*
X131685500Y-54765000D01*
G75*
G02*
X131530500Y-54920000I-155000J0D01*
G01*
X131105500Y-54920000D01*
G75*
G02*
X130950500Y-54765000I0J155000D01*
G01*
G37*
G36*
G01*
X129815500Y-54765000D02*
X129815500Y-54455000D01*
G75*
G02*
X129970500Y-54300000I155000J0D01*
G01*
X130395500Y-54300000D01*
G75*
G02*
X130550500Y-54455000I0J-155000D01*
G01*
X130550500Y-54765000D01*
G75*
G02*
X130395500Y-54920000I-155000J0D01*
G01*
X129970500Y-54920000D01*
G75*
G02*
X129815500Y-54765000I0J155000D01*
G01*
G37*
%TD*%
%TO.C,Cvcc1*%
G36*
G01*
X132687500Y-58308001D02*
X132687500Y-57007999D01*
G75*
G02*
X132937499Y-56758000I249999J0D01*
G01*
X133762501Y-56758000D01*
G75*
G02*
X134012500Y-57007999I0J-249999D01*
G01*
X134012500Y-58308001D01*
G75*
G02*
X133762501Y-58558000I-249999J0D01*
G01*
X132937499Y-58558000D01*
G75*
G02*
X132687500Y-58308001I0J249999D01*
G01*
G37*
G36*
G01*
X129562500Y-58308001D02*
X129562500Y-57007999D01*
G75*
G02*
X129812499Y-56758000I249999J0D01*
G01*
X130637501Y-56758000D01*
G75*
G02*
X130887500Y-57007999I0J-249999D01*
G01*
X130887500Y-58308001D01*
G75*
G02*
X130637501Y-58558000I-249999J0D01*
G01*
X129812499Y-58558000D01*
G75*
G02*
X129562500Y-58308001I0J249999D01*
G01*
G37*
%TD*%
%TO.C,Cisense1*%
G36*
G01*
X110908000Y-59539000D02*
X111088000Y-59539000D01*
G75*
G02*
X111178000Y-59629000I0J-90000D01*
G01*
X111178000Y-59907000D01*
G75*
G02*
X111088000Y-59997000I-90000J0D01*
G01*
X110908000Y-59997000D01*
G75*
G02*
X110818000Y-59907000I0J90000D01*
G01*
X110818000Y-59629000D01*
G75*
G02*
X110908000Y-59539000I90000J0D01*
G01*
G37*
G36*
G01*
X110908000Y-58674000D02*
X111088000Y-58674000D01*
G75*
G02*
X111178000Y-58764000I0J-90000D01*
G01*
X111178000Y-59042000D01*
G75*
G02*
X111088000Y-59132000I-90000J0D01*
G01*
X110908000Y-59132000D01*
G75*
G02*
X110818000Y-59042000I0J90000D01*
G01*
X110818000Y-58764000D01*
G75*
G02*
X110908000Y-58674000I90000J0D01*
G01*
G37*
%TD*%
%TO.C,Cin1*%
G36*
G01*
X103919000Y-32962000D02*
X104869000Y-32962000D01*
G75*
G02*
X105119000Y-33212000I0J-250000D01*
G01*
X105119000Y-33887000D01*
G75*
G02*
X104869000Y-34137000I-250000J0D01*
G01*
X103919000Y-34137000D01*
G75*
G02*
X103669000Y-33887000I0J250000D01*
G01*
X103669000Y-33212000D01*
G75*
G02*
X103919000Y-32962000I250000J0D01*
G01*
G37*
G36*
G01*
X103919000Y-30887000D02*
X104869000Y-30887000D01*
G75*
G02*
X105119000Y-31137000I0J-250000D01*
G01*
X105119000Y-31812000D01*
G75*
G02*
X104869000Y-32062000I-250000J0D01*
G01*
X103919000Y-32062000D01*
G75*
G02*
X103669000Y-31812000I0J250000D01*
G01*
X103669000Y-31137000D01*
G75*
G02*
X103919000Y-30887000I250000J0D01*
G01*
G37*
%TD*%
%TO.C,Cicomp1*%
G36*
G01*
X111473000Y-55451500D02*
X110523000Y-55451500D01*
G75*
G02*
X110273000Y-55201500I0J250000D01*
G01*
X110273000Y-54526500D01*
G75*
G02*
X110523000Y-54276500I250000J0D01*
G01*
X111473000Y-54276500D01*
G75*
G02*
X111723000Y-54526500I0J-250000D01*
G01*
X111723000Y-55201500D01*
G75*
G02*
X111473000Y-55451500I-250000J0D01*
G01*
G37*
G36*
G01*
X111473000Y-57526500D02*
X110523000Y-57526500D01*
G75*
G02*
X110273000Y-57276500I0J250000D01*
G01*
X110273000Y-56601500D01*
G75*
G02*
X110523000Y-56351500I250000J0D01*
G01*
X111473000Y-56351500D01*
G75*
G02*
X111723000Y-56601500I0J-250000D01*
G01*
X111723000Y-57276500D01*
G75*
G02*
X111473000Y-57526500I-250000J0D01*
G01*
G37*
%TD*%
%TO.C,Ccomp2*%
G36*
G01*
X127607000Y-64462000D02*
X127917000Y-64462000D01*
G75*
G02*
X128072000Y-64617000I0J-155000D01*
G01*
X128072000Y-65042000D01*
G75*
G02*
X127917000Y-65197000I-155000J0D01*
G01*
X127607000Y-65197000D01*
G75*
G02*
X127452000Y-65042000I0J155000D01*
G01*
X127452000Y-64617000D01*
G75*
G02*
X127607000Y-64462000I155000J0D01*
G01*
G37*
G36*
G01*
X127607000Y-63327000D02*
X127917000Y-63327000D01*
G75*
G02*
X128072000Y-63482000I0J-155000D01*
G01*
X128072000Y-63907000D01*
G75*
G02*
X127917000Y-64062000I-155000J0D01*
G01*
X127607000Y-64062000D01*
G75*
G02*
X127452000Y-63907000I0J155000D01*
G01*
X127452000Y-63482000D01*
G75*
G02*
X127607000Y-63327000I155000J0D01*
G01*
G37*
%TD*%
%TO.C,Ccomp1*%
G36*
G01*
X123477000Y-65198500D02*
X124427000Y-65198500D01*
G75*
G02*
X124677000Y-65448500I0J-250000D01*
G01*
X124677000Y-66123500D01*
G75*
G02*
X124427000Y-66373500I-250000J0D01*
G01*
X123477000Y-66373500D01*
G75*
G02*
X123227000Y-66123500I0J250000D01*
G01*
X123227000Y-65448500D01*
G75*
G02*
X123477000Y-65198500I250000J0D01*
G01*
G37*
G36*
G01*
X123477000Y-63123500D02*
X124427000Y-63123500D01*
G75*
G02*
X124677000Y-63373500I0J-250000D01*
G01*
X124677000Y-64048500D01*
G75*
G02*
X124427000Y-64298500I-250000J0D01*
G01*
X123477000Y-64298500D01*
G75*
G02*
X123227000Y-64048500I0J250000D01*
G01*
X123227000Y-63373500D01*
G75*
G02*
X123477000Y-63123500I250000J0D01*
G01*
G37*
%TD*%
%TO.C,Rsense1*%
G36*
G01*
X104234000Y-38250500D02*
X104554000Y-38250500D01*
G75*
G02*
X104714000Y-38410500I0J-160000D01*
G01*
X104714000Y-38805500D01*
G75*
G02*
X104554000Y-38965500I-160000J0D01*
G01*
X104234000Y-38965500D01*
G75*
G02*
X104074000Y-38805500I0J160000D01*
G01*
X104074000Y-38410500D01*
G75*
G02*
X104234000Y-38250500I160000J0D01*
G01*
G37*
G36*
G01*
X104234000Y-37055500D02*
X104554000Y-37055500D01*
G75*
G02*
X104714000Y-37215500I0J-160000D01*
G01*
X104714000Y-37610500D01*
G75*
G02*
X104554000Y-37770500I-160000J0D01*
G01*
X104234000Y-37770500D01*
G75*
G02*
X104074000Y-37610500I0J160000D01*
G01*
X104074000Y-37215500D01*
G75*
G02*
X104234000Y-37055500I160000J0D01*
G01*
G37*
%TD*%
D17*
%TO.C,Dturnoff1*%
X132080000Y-43670000D03*
X132080000Y-39370000D03*
%TD*%
M02*
