%TF.GenerationSoftware,KiCad,Pcbnew,(5.1.8)-1*%
%TF.CreationDate,2021-03-07T20:35:29-08:00*%
%TF.ProjectId,KiCAD Simulations,4b694341-4420-4536-996d-756c6174696f,rev?*%
%TF.SameCoordinates,Original*%
%TF.FileFunction,Soldermask,Bot*%
%TF.FilePolarity,Negative*%
%FSLAX46Y46*%
G04 Gerber Fmt 4.6, Leading zero omitted, Abs format (unit mm)*
G04 Created by KiCad (PCBNEW (5.1.8)-1) date 2021-03-07 20:35:29*
%MOMM*%
%LPD*%
G01*
G04 APERTURE LIST*
%ADD10O,1.600000X1.600000*%
%ADD11R,1.600000X1.600000*%
%ADD12C,2.000000*%
%ADD13O,2.000000X2.000000*%
%ADD14R,2.000000X2.000000*%
%ADD15O,3.200000X3.200000*%
%ADD16R,3.200000X3.200000*%
%ADD17O,2.800000X2.800000*%
%ADD18R,2.800000X2.800000*%
%ADD19C,3.000000*%
%ADD20R,3.000000X3.000000*%
%ADD21O,1.000000X1.000000*%
%ADD22R,1.000000X1.000000*%
%ADD23C,1.447800*%
%ADD24C,1.117600*%
%ADD25C,2.400000*%
%ADD26C,4.000000*%
%ADD27R,4.000000X4.000000*%
%ADD28O,2.500000X4.500000*%
%ADD29R,2.500000X4.500000*%
%ADD30O,2.000000X1.905000*%
%ADD31R,2.000000X1.905000*%
%ADD32C,1.600000*%
%ADD33C,1.854200*%
G04 APERTURE END LIST*
D10*
%TO.C,Disense1*%
X108458000Y-45974000D03*
D11*
X100838000Y-45974000D03*
%TD*%
D12*
%TO.C,Cr1*%
X190914000Y-96774000D03*
X200914000Y-96774000D03*
%TD*%
D13*
%TO.C,Dstart1*%
X109982000Y-21844000D03*
D14*
X104902000Y-21844000D03*
%TD*%
D15*
%TO.C,Dboost1*%
X127000000Y-33274000D03*
D16*
X111760000Y-33274000D03*
%TD*%
D17*
%TO.C,Coutx1*%
X167386000Y-19706000D03*
D18*
X167386000Y-60706000D03*
%TD*%
D19*
%TO.C,J6*%
X207398000Y-144726000D03*
D20*
X199898000Y-157226000D03*
%TD*%
D21*
%TO.C,J5*%
X54610000Y-148590000D03*
D22*
X54610000Y-147320000D03*
%TD*%
D19*
%TO.C,J4*%
X192732000Y-52952000D03*
D20*
X205232000Y-60452000D03*
%TD*%
D19*
%TO.C,J3*%
X192224000Y-22726000D03*
D20*
X204724000Y-30226000D03*
%TD*%
D21*
%TO.C,J2*%
X118110000Y-48006000D03*
D22*
X118110000Y-46736000D03*
%TD*%
D19*
%TO.C,J1*%
X72190000Y-30614000D03*
D20*
X59690000Y-23114000D03*
%TD*%
D23*
%TO.C,L1*%
X70866000Y-70104000D03*
X70866000Y-57404000D03*
%TD*%
D12*
%TO.C,Rntc1*%
X59580000Y-41148000D03*
X68580000Y-41148000D03*
%TD*%
%TO.C,Cr2*%
X201008000Y-80518000D03*
X191008000Y-80518000D03*
%TD*%
D24*
%TO.C,Cisns2*%
X148804000Y-73660000D03*
X143804000Y-73660000D03*
%TD*%
D25*
%TO.C,Cinx1*%
X160634000Y-109474000D03*
X183134000Y-109474000D03*
%TD*%
D26*
%TO.C,Cin2*%
X167546000Y-86360000D03*
D27*
X177546000Y-86360000D03*
%TD*%
D28*
%TO.C,QM4*%
X106956000Y-159512000D03*
X112406000Y-159512000D03*
D29*
X117856000Y-159512000D03*
%TD*%
D28*
%TO.C,QM3*%
X128292000Y-159512000D03*
X133742000Y-159512000D03*
D29*
X139192000Y-159512000D03*
%TD*%
D30*
%TO.C,QM2*%
X208534000Y-80518000D03*
X208534000Y-77978000D03*
D31*
X208534000Y-75438000D03*
%TD*%
D30*
%TO.C,QM1*%
X208534000Y-99314000D03*
X208534000Y-96774000D03*
D31*
X208534000Y-94234000D03*
%TD*%
D32*
%TO.C,Cvcr1*%
X143844000Y-66802000D03*
X148844000Y-66802000D03*
%TD*%
D33*
%TO.C,Uac1*%
X93218000Y-20973999D03*
X93218000Y-28474000D03*
X93218000Y-35974000D03*
X93218000Y-45974000D03*
%TD*%
D28*
%TO.C,Q1*%
X135868000Y-21082000D03*
X130418000Y-21082000D03*
D29*
X124968000Y-21082000D03*
%TD*%
M02*
