M48
; DRILL file {KiCad (5.1.8)-1} date 03/29/21 19:48:29
; FORMAT={-:-/ absolute / inch / decimal}
; #@! TF.CreationDate,2021-03-29T19:48:29-07:00
; #@! TF.GenerationSoftware,Kicad,Pcbnew,(5.1.8)-1
; #@! TF.FileFunction,Plated,1,2,PTH
FMAT,2
INCH
T1C0.0157
T2C0.0295
T3C0.0394
T4C0.0420
T5C0.0591
T6C0.0630
T7C0.0630
T8C0.0709
T9C0.0787
%
G90
G05
T1
X3.0976Y-4.5599
X3.4571Y-3.5343
X3.6821Y-4.4093
X3.7071Y-3.5593
X3.7321Y-3.7843
X3.7821Y-3.5843
X3.7821Y-4.8593
X3.8138Y-3.691
X3.8321Y-3.0843
X3.8321Y-3.4343
X4.1571Y-3.0843
X4.5571Y-3.9343
X4.7321Y-2.5093
X5.1821Y-4.2593
X5.4321Y-3.2843
X5.4571Y-3.7093
X6.7974Y-3.1435
X7.4016Y-2.0276
X7.4016Y-2.1063
X7.4016Y-2.185
X7.4016Y-2.2638
X7.4016Y-2.3425
X7.4475Y-3.4777
X7.4803Y-2.0276
X7.4803Y-2.1063
X7.4803Y-2.185
X7.4803Y-2.2638
X7.4803Y-2.3425
X7.7165Y-2.0276
X7.7165Y-2.1063
X7.7165Y-2.185
X7.7165Y-2.2638
X7.7165Y-2.3425
X7.7953Y-2.0276
X7.7953Y-2.1063
X7.7953Y-2.185
X7.7953Y-2.2638
X7.7953Y-2.3425
X7.874Y-2.0276
X7.874Y-2.1063
X7.874Y-2.185
X7.874Y-2.2638
X7.874Y-2.3425
X7.9528Y-2.0276
X7.9528Y-2.1063
X7.9528Y-2.185
X7.9528Y-2.2638
X7.9528Y-2.3425
X8.0315Y-2.0276
X8.0315Y-2.1063
X8.0315Y-2.185
X8.0315Y-2.2638
X8.0315Y-2.3425
X8.1102Y-2.0276
X8.1102Y-2.1063
X8.1102Y-2.185
X8.1102Y-2.2638
X8.1102Y-2.3425
X8.3071Y-2.0276
X8.3071Y-2.1063
X8.3071Y-2.185
X8.3071Y-2.2638
X8.3071Y-2.3425
X8.3858Y-2.0276
X8.3858Y-2.1063
X8.3858Y-2.185
X8.3858Y-2.2638
X8.3858Y-2.3425
X8.3858Y-3.0512
X8.3858Y-3.0906
X8.4252Y-3.0512
X8.4252Y-3.0906
X8.4646Y-2.0276
X8.4646Y-2.1063
X8.4646Y-2.185
X8.4646Y-2.2638
X8.4646Y-2.3425
X8.4646Y-3.0512
X8.4646Y-3.0906
X8.5039Y-3.0512
X8.5039Y-3.0906
X8.5433Y-2.0276
X8.5433Y-2.1063
X8.5433Y-2.185
X8.5433Y-2.2638
X8.5433Y-2.3425
X8.5433Y-3.0512
X8.5433Y-3.0906
X8.5827Y-3.0512
X8.5827Y-3.0906
X8.622Y-2.0276
X8.622Y-2.1063
X8.622Y-2.185
X8.622Y-2.2638
X8.622Y-2.3425
X8.622Y-3.0512
X8.622Y-3.0906
X8.6614Y-3.0512
X8.6614Y-3.0906
X8.7008Y-2.0276
X8.7008Y-2.1063
X8.7008Y-2.185
X8.7008Y-2.2638
X8.7008Y-2.3425
X8.7008Y-3.0512
X8.7008Y-3.0906
X8.7402Y-3.0512
X8.7402Y-3.0906
X8.7795Y-3.0512
X8.7795Y-3.0906
X8.8189Y-3.0512
X8.8189Y-3.0906
X8.8583Y-3.0512
X8.8583Y-3.0906
X8.8976Y-2.0276
X8.8976Y-2.1063
X8.8976Y-2.185
X8.8976Y-2.2638
X8.8976Y-2.3425
X8.8976Y-3.0512
X8.8976Y-3.0906
X8.937Y-3.0512
X8.937Y-3.0906
X8.9764Y-2.0276
X8.9764Y-2.1063
X8.9764Y-2.185
X8.9764Y-2.2638
X8.9764Y-2.3425
X8.9764Y-3.0512
X8.9764Y-3.0906
X9.0157Y-3.0512
X9.0157Y-3.0906
X9.0551Y-2.0276
X9.0551Y-2.1063
X9.0551Y-2.185
X9.0551Y-2.2638
X9.0551Y-2.3425
X9.0551Y-3.0512
X9.0551Y-3.0906
T2
X4.9614Y-3.4153
X4.9614Y-3.7153
T3
X6.122Y-1.6929
X2.5076Y-4.8024
X2.5076Y-4.9024
X5.8268Y-5.2165
T4
X3.4802Y-2.1535
X3.4802Y-2.4488
T5
X5.8354Y-3.5208
X5.8354Y-3.7354
X5.8354Y-3.9499
X5.8354Y-4.4317
X5.8354Y-4.6462
X5.8354Y-4.8608
T6
X7.141Y-3.7671
X7.141Y-3.9639
X7.141Y-4.1608
X7.141Y-4.3576
X7.141Y-4.5545
X7.141Y-4.7513
X7.141Y-4.9482
X7.141Y-5.145
T7
X5.1965Y-2.2858
X5.9965Y-2.2858
T8
X8.7556Y-3.7671
X8.7556Y-3.9639
X8.7556Y-4.1608
X8.7556Y-4.3576
X8.7556Y-4.5545
X8.7556Y-4.7513
X8.7556Y-4.9482
X8.7556Y-5.145
T9
X6.5885Y-2.3836
X6.8838Y-1.8915
X2.4002Y-2.5535
X2.6955Y-2.0614
X3.3778Y-1.6258
X4.1652Y-1.6258
X4.4502Y-2.0935
X4.4502Y-2.4872
T0
M30
