%TF.GenerationSoftware,KiCad,Pcbnew,(5.1.8)-1*%
%TF.CreationDate,2021-03-29T18:42:40-07:00*%
%TF.ProjectId,KiCAD Simulations,4b694341-4420-4536-996d-756c6174696f,rev?*%
%TF.SameCoordinates,Original*%
%TF.FileFunction,Soldermask,Bot*%
%TF.FilePolarity,Negative*%
%FSLAX46Y46*%
G04 Gerber Fmt 4.6, Leading zero omitted, Abs format (unit mm)*
G04 Created by KiCad (PCBNEW (5.1.8)-1) date 2021-03-29 18:42:40*
%MOMM*%
%LPD*%
G01*
G04 APERTURE LIST*
%ADD10R,1.700000X1.700000*%
%ADD11C,3.000000*%
%ADD12R,3.000000X3.000000*%
%ADD13C,4.000000*%
%ADD14O,4.500000X2.500000*%
%ADD15R,4.500000X2.500000*%
%ADD16C,2.108200*%
%ADD17R,2.108200X2.108200*%
%ADD18O,1.700000X1.700000*%
%ADD19O,1.500000X1.500000*%
%ADD20R,1.500000X1.500000*%
%ADD21C,1.574800*%
%ADD22R,4.000000X4.000000*%
G04 APERTURE END LIST*
D10*
%TO.C,TPisoGND1*%
X155500000Y-43000000D03*
%TD*%
%TO.C,TPgnd6*%
X148000000Y-132500000D03*
%TD*%
D11*
%TO.C,J4*%
X68466000Y-52360000D03*
D12*
X60966000Y-64860000D03*
%TD*%
D11*
%TO.C,TR1*%
X181382000Y-130684000D03*
X181382000Y-125684000D03*
X181382000Y-120684000D03*
X181382000Y-115684000D03*
X181382000Y-110684000D03*
X181382000Y-105684000D03*
X181382000Y-100684000D03*
X181382000Y-95684000D03*
X222392000Y-95684000D03*
X222392000Y-100684000D03*
X222392000Y-105684000D03*
X222392000Y-110684000D03*
X222392000Y-115684000D03*
X222392000Y-120684000D03*
X222392000Y-125684000D03*
X222392000Y-130684000D03*
%TD*%
D13*
%TO.C,TPpfc1*%
X85796000Y-41296000D03*
%TD*%
%TO.C,TPllc1*%
X105796000Y-41296000D03*
%TD*%
D14*
%TO.C,M2*%
X148220000Y-123464000D03*
X148220000Y-118014000D03*
D15*
X148220000Y-112564000D03*
%TD*%
D14*
%TO.C,M1*%
X148220000Y-100328000D03*
X148220000Y-94878000D03*
D15*
X148220000Y-89428000D03*
%TD*%
D16*
%TO.C,Lr1*%
X131992000Y-58060000D03*
D17*
X152312000Y-58060000D03*
%TD*%
D11*
%TO.C,J6*%
X167348000Y-60544000D03*
D12*
X174848000Y-48044000D03*
%TD*%
D18*
%TO.C,J5*%
X63692000Y-124522000D03*
D10*
X63692000Y-121982000D03*
%TD*%
D19*
%TO.C,Dboot1*%
X126020000Y-86748000D03*
D20*
X126020000Y-94368000D03*
%TD*%
D21*
%TO.C,Cpfc1*%
X88398000Y-62200000D03*
X88398000Y-54700000D03*
%TD*%
D13*
%TO.C,Cin2*%
X113036000Y-63176000D03*
D22*
X113036000Y-53176000D03*
%TD*%
M02*
