M48
; DRILL file {KiCad (5.1.8)-1} date 03/15/21 15:17:29
; FORMAT={-:-/ absolute / inch / decimal}
; #@! TF.CreationDate,2021-03-15T15:17:29-07:00
; #@! TF.GenerationSoftware,Kicad,Pcbnew,(5.1.8)-1
; #@! TF.FileFunction,Plated,1,2,PTH
FMAT,2
INCH
T1C0.0157
T2C0.0276
T3C0.0315
T4C0.0370
T5C0.0394
T6C0.0433
T7C0.0530
T8C0.0551
T9C0.0591
T10C0.0630
T11C0.0787
%
G90
G05
T1
X6.125Y-2.71
X6.5Y-3.01
X6.725Y-2.81
X6.775Y-2.935
X6.925Y-3.585
X7.25Y-3.1
X7.425Y-3.235
T2
X6.645Y-2.62
T3
X5.75Y-2.735
X5.75Y-3.035
T4
X4.74Y-1.995
X5.24Y-1.995
T5
X3.74Y-3.27
X3.74Y-3.6243
X7.52Y-3.0
X7.52Y-3.1
T6
X5.59Y-1.53
X5.79Y-1.53
T7
X3.865Y-2.895
X4.2587Y-2.895
X4.554Y-2.895
X4.8493Y-2.895
T8
X4.165Y-0.9808
X4.165Y-2.595
X6.0108Y-1.61
X7.625Y-1.61
X7.85Y-1.61
X9.4642Y-1.61
T9
X6.95Y-2.16
X6.95Y-2.3746
X6.95Y-2.5891
T10
X4.75Y-1.04
X5.35Y-1.04
T11
X4.19Y-3.27
X4.6821Y-3.5653
X8.45Y-2.41
X8.9421Y-2.7053
T0
M30
