%TF.GenerationSoftware,KiCad,Pcbnew,(5.1.8)-1*%
%TF.CreationDate,2021-03-15T15:17:27-07:00*%
%TF.ProjectId,KiCAD Simulations,4b694341-4420-4536-996d-756c6174696f,rev?*%
%TF.SameCoordinates,Original*%
%TF.FileFunction,Legend,Top*%
%TF.FilePolarity,Positive*%
%FSLAX46Y46*%
G04 Gerber Fmt 4.6, Leading zero omitted, Abs format (unit mm)*
G04 Created by KiCad (PCBNEW (5.1.8)-1) date 2021-03-15 15:17:27*
%MOMM*%
%LPD*%
G01*
G04 APERTURE LIST*
%ADD10C,0.120000*%
%ADD11C,0.152400*%
%ADD12C,0.127000*%
%ADD13C,0.500000*%
%ADD14C,0.150000*%
%ADD15C,0.015000*%
G04 APERTURE END LIST*
D10*
%TO.C,Dboost1*%
X131715000Y-29136000D02*
X131715000Y-23696000D01*
X131475000Y-29136000D02*
X131475000Y-23696000D01*
X131595000Y-29136000D02*
X131595000Y-23696000D01*
X122490000Y-26416000D02*
X123400000Y-26416000D01*
X134050000Y-26416000D02*
X133140000Y-26416000D01*
X123400000Y-29136000D02*
X133140000Y-29136000D01*
X123400000Y-23696000D02*
X123400000Y-29136000D01*
X133140000Y-23696000D02*
X123400000Y-23696000D01*
X133140000Y-29136000D02*
X133140000Y-23696000D01*
%TO.C,Coutx2*%
X154315000Y-40894000D02*
X155805000Y-40894000D01*
X192035000Y-40894000D02*
X190545000Y-40894000D01*
X186345000Y-30774000D02*
X155805000Y-30774000D01*
X187395000Y-31824000D02*
X186345000Y-30774000D01*
X188445000Y-30774000D02*
X187395000Y-31824000D01*
X190545000Y-30774000D02*
X188445000Y-30774000D01*
X186345000Y-51014000D02*
X155805000Y-51014000D01*
X187395000Y-49964000D02*
X186345000Y-51014000D01*
X188445000Y-51014000D02*
X187395000Y-49964000D01*
X190545000Y-51014000D02*
X188445000Y-51014000D01*
X155805000Y-51014000D02*
X155805000Y-30774000D01*
X190545000Y-51014000D02*
X190545000Y-30774000D01*
X191945000Y-44944000D02*
X191945000Y-42844000D01*
X192995000Y-43894000D02*
X190895000Y-43894000D01*
%TO.C,J2*%
X192338000Y-80070000D02*
X191008000Y-80070000D01*
X192338000Y-78740000D02*
X192338000Y-80070000D01*
X192338000Y-77470000D02*
X189678000Y-77470000D01*
X189678000Y-77470000D02*
X189678000Y-74870000D01*
X192338000Y-77470000D02*
X192338000Y-74870000D01*
X192338000Y-74870000D02*
X189678000Y-74870000D01*
D11*
%TO.C,Uac1*%
X95289964Y-73533000D02*
G75*
G03*
X95289964Y-73533000I-381000J0D01*
G01*
X95543964Y-71005700D02*
X95543964Y-76060300D01*
X126100164Y-71005700D02*
X95543964Y-71005700D01*
X126100164Y-76060300D02*
X126100164Y-71005700D01*
X95543964Y-76060300D02*
X126100164Y-76060300D01*
%TO.C,U1*%
X157695900Y-69380100D02*
X153454100Y-69380100D01*
X153454100Y-74637900D02*
X157695900Y-74637900D01*
D10*
%TO.C,TPvsense1*%
X201995000Y-73914000D02*
G75*
G03*
X201995000Y-73914000I-700000J0D01*
G01*
%TO.C,TPQ1*%
X185485000Y-54864000D02*
G75*
G03*
X185485000Y-54864000I-700000J0D01*
G01*
%TO.C,TPisense1*%
X141035000Y-65024000D02*
G75*
G03*
X141035000Y-65024000I-700000J0D01*
G01*
%TO.C,TPgnd5*%
X185485000Y-65659000D02*
G75*
G03*
X185485000Y-65659000I-700000J0D01*
G01*
%TO.C,TPgnd2*%
X238190000Y-54229000D02*
G75*
G03*
X238190000Y-54229000I-700000J0D01*
G01*
%TO.C,TPgnd1*%
X146750000Y-82296000D02*
G75*
G03*
X146750000Y-82296000I-700000J0D01*
G01*
%TO.C,TPgate1*%
X168340000Y-69469000D02*
G75*
G03*
X168340000Y-69469000I-700000J0D01*
G01*
%TO.C,TPDstart2*%
X145988000Y-26416000D02*
G75*
G03*
X145988000Y-26416000I-700000J0D01*
G01*
%TO.C,TPDstart1*%
X159450000Y-26416000D02*
G75*
G03*
X159450000Y-26416000I-700000J0D01*
G01*
%TO.C,Rsense1*%
X180067936Y-92134000D02*
X184422064Y-92134000D01*
X180067936Y-88714000D02*
X184422064Y-88714000D01*
%TO.C,Rntc1*%
X97116000Y-94178000D02*
X92876000Y-94178000D01*
X97116000Y-80938000D02*
X92876000Y-80938000D01*
X92876000Y-80938000D02*
X92876000Y-94178000D01*
X97116000Y-80938000D02*
X97116000Y-94178000D01*
%TO.C,Risense1*%
X180067936Y-85784000D02*
X184422064Y-85784000D01*
X180067936Y-82364000D02*
X184422064Y-82364000D01*
%TO.C,Rgate3*%
X158895064Y-54678000D02*
X154540936Y-54678000D01*
X158895064Y-58098000D02*
X154540936Y-58098000D01*
%TO.C,Rgate2*%
X164065936Y-65083000D02*
X168420064Y-65083000D01*
X164065936Y-61663000D02*
X168420064Y-61663000D01*
%TO.C,Rgate1*%
X154540936Y-65083000D02*
X158895064Y-65083000D01*
X154540936Y-61663000D02*
X158895064Y-61663000D01*
%TO.C,Rfreq1*%
X200932064Y-89349000D02*
X196577936Y-89349000D01*
X200932064Y-92769000D02*
X196577936Y-92769000D01*
%TO.C,Rfbt3*%
X195385000Y-59581064D02*
X195385000Y-55226936D01*
X191965000Y-59581064D02*
X191965000Y-55226936D01*
%TO.C,Rfbt2*%
X199585000Y-64116936D02*
X199585000Y-68471064D01*
X203005000Y-64116936D02*
X203005000Y-68471064D01*
%TO.C,Rfbt1*%
X195385000Y-68471064D02*
X195385000Y-64116936D01*
X191965000Y-68471064D02*
X191965000Y-64116936D01*
%TO.C,Rfbb1*%
X199585000Y-55226936D02*
X199585000Y-59581064D01*
X203005000Y-55226936D02*
X203005000Y-59581064D01*
%TO.C,Rcomp1*%
X196577936Y-85784000D02*
X200932064Y-85784000D01*
X196577936Y-82364000D02*
X200932064Y-82364000D01*
%TO.C,Q1*%
X178981000Y-62119000D02*
X173710000Y-62119000D01*
X178981000Y-58510000D02*
X173710000Y-58510000D01*
X178981000Y-68384000D02*
X173710000Y-68384000D01*
X178981000Y-52244000D02*
X173710000Y-52244000D01*
X173710000Y-52244000D02*
X173710000Y-68384000D01*
X178981000Y-52244000D02*
X178981000Y-68384000D01*
D12*
%TO.C,L1*%
X117538500Y-34163000D02*
X135953500Y-34163000D01*
X135953500Y-34163000D02*
X135953500Y-67183000D01*
X135953500Y-67183000D02*
X117538500Y-67183000D01*
X117538500Y-67183000D02*
X117538500Y-34163000D01*
D13*
%TO.C,J3*%
X214880000Y-55214000D02*
G75*
G03*
X214880000Y-55214000I-250000J0D01*
G01*
D12*
X208930000Y-56964000D02*
X235330000Y-56964000D01*
X208930000Y-72964000D02*
X208930000Y-56964000D01*
X235330000Y-72964000D02*
X208930000Y-72964000D01*
X235330000Y-56964000D02*
X235330000Y-72964000D01*
D13*
%TO.C,J1*%
X106676000Y-77058000D02*
G75*
G03*
X106676000Y-77058000I-250000J0D01*
G01*
D12*
X100726000Y-78808000D02*
X127126000Y-78808000D01*
X100726000Y-94808000D02*
X100726000Y-78808000D01*
X127126000Y-94808000D02*
X100726000Y-94808000D01*
X127126000Y-78808000D02*
X127126000Y-94808000D01*
D10*
%TO.C,Dturnoff1*%
X162058000Y-54238000D02*
X167758000Y-54238000D01*
X162058000Y-58538000D02*
X167758000Y-58538000D01*
X162058000Y-54238000D02*
X162058000Y-58538000D01*
%TO.C,Dstart1*%
X146377000Y-35592000D02*
X146377000Y-37102000D01*
X142676000Y-35592000D02*
X142676000Y-37102000D01*
X139406000Y-37102000D02*
X149646000Y-37102000D01*
X149646000Y-35592000D02*
X149646000Y-40233000D01*
X139406000Y-35592000D02*
X139406000Y-40233000D01*
X139406000Y-40233000D02*
X149646000Y-40233000D01*
X139406000Y-35592000D02*
X149646000Y-35592000D01*
%TO.C,Disense1*%
X147170000Y-71759000D02*
X144930000Y-71759000D01*
X147170000Y-71999000D02*
X144930000Y-71999000D01*
X147170000Y-71879000D02*
X144930000Y-71879000D01*
X146050000Y-76049000D02*
X146050000Y-75399000D01*
X146050000Y-70509000D02*
X146050000Y-71159000D01*
X147170000Y-75399000D02*
X147170000Y-71159000D01*
X144930000Y-75399000D02*
X147170000Y-75399000D01*
X144930000Y-71159000D02*
X144930000Y-75399000D01*
X147170000Y-71159000D02*
X144930000Y-71159000D01*
%TO.C,Cvsense1*%
X167365000Y-77012748D02*
X167365000Y-78435252D01*
X169185000Y-77012748D02*
X169185000Y-78435252D01*
%TO.C,Cvccx1*%
X178160000Y-77012748D02*
X178160000Y-78435252D01*
X179980000Y-77012748D02*
X179980000Y-78435252D01*
%TO.C,Cvcc1*%
X172445000Y-77012748D02*
X172445000Y-78435252D01*
X174265000Y-77012748D02*
X174265000Y-78435252D01*
%TO.C,Coutx1*%
X238750000Y-40894000D02*
X237260000Y-40894000D01*
X201030000Y-40894000D02*
X202520000Y-40894000D01*
X206720000Y-51014000D02*
X237260000Y-51014000D01*
X205670000Y-49964000D02*
X206720000Y-51014000D01*
X204620000Y-51014000D02*
X205670000Y-49964000D01*
X202520000Y-51014000D02*
X204620000Y-51014000D01*
X206720000Y-30774000D02*
X237260000Y-30774000D01*
X205670000Y-31824000D02*
X206720000Y-30774000D01*
X204620000Y-30774000D02*
X205670000Y-31824000D01*
X202520000Y-30774000D02*
X204620000Y-30774000D01*
X237260000Y-30774000D02*
X237260000Y-51014000D01*
X202520000Y-30774000D02*
X202520000Y-51014000D01*
X201120000Y-36844000D02*
X201120000Y-38944000D01*
X200070000Y-37894000D02*
X202170000Y-37894000D01*
%TO.C,Cisense1*%
X139425000Y-70662748D02*
X139425000Y-72085252D01*
X141245000Y-70662748D02*
X141245000Y-72085252D01*
%TO.C,Cin1*%
X105791000Y-26553000D02*
X105791000Y-28043000D01*
X105791000Y-64273000D02*
X105791000Y-62783000D01*
X115911000Y-58583000D02*
X115911000Y-28043000D01*
X114861000Y-59633000D02*
X115911000Y-58583000D01*
X115911000Y-60683000D02*
X114861000Y-59633000D01*
X115911000Y-62783000D02*
X115911000Y-60683000D01*
X95671000Y-58583000D02*
X95671000Y-28043000D01*
X96721000Y-59633000D02*
X95671000Y-58583000D01*
X95671000Y-60683000D02*
X96721000Y-59633000D01*
X95671000Y-62783000D02*
X95671000Y-60683000D01*
X95671000Y-28043000D02*
X115911000Y-28043000D01*
X95671000Y-62783000D02*
X115911000Y-62783000D01*
X101741000Y-64183000D02*
X103841000Y-64183000D01*
X102791000Y-65233000D02*
X102791000Y-63133000D01*
%TO.C,Cicomp1*%
X189788748Y-91334000D02*
X191211252Y-91334000D01*
X189788748Y-89514000D02*
X191211252Y-89514000D01*
%TO.C,Ccomp2*%
X161650000Y-77012748D02*
X161650000Y-78435252D01*
X163470000Y-77012748D02*
X163470000Y-78435252D01*
%TO.C,Ccomp1*%
X189788748Y-84984000D02*
X191211252Y-84984000D01*
X189788748Y-83164000D02*
X191211252Y-83164000D01*
%TO.C,Dboost1*%
D14*
X125484285Y-30588380D02*
X125484285Y-29588380D01*
X125722380Y-29588380D01*
X125865238Y-29636000D01*
X125960476Y-29731238D01*
X126008095Y-29826476D01*
X126055714Y-30016952D01*
X126055714Y-30159809D01*
X126008095Y-30350285D01*
X125960476Y-30445523D01*
X125865238Y-30540761D01*
X125722380Y-30588380D01*
X125484285Y-30588380D01*
X126484285Y-30588380D02*
X126484285Y-29588380D01*
X126484285Y-29969333D02*
X126579523Y-29921714D01*
X126770000Y-29921714D01*
X126865238Y-29969333D01*
X126912857Y-30016952D01*
X126960476Y-30112190D01*
X126960476Y-30397904D01*
X126912857Y-30493142D01*
X126865238Y-30540761D01*
X126770000Y-30588380D01*
X126579523Y-30588380D01*
X126484285Y-30540761D01*
X127531904Y-30588380D02*
X127436666Y-30540761D01*
X127389047Y-30493142D01*
X127341428Y-30397904D01*
X127341428Y-30112190D01*
X127389047Y-30016952D01*
X127436666Y-29969333D01*
X127531904Y-29921714D01*
X127674761Y-29921714D01*
X127770000Y-29969333D01*
X127817619Y-30016952D01*
X127865238Y-30112190D01*
X127865238Y-30397904D01*
X127817619Y-30493142D01*
X127770000Y-30540761D01*
X127674761Y-30588380D01*
X127531904Y-30588380D01*
X128436666Y-30588380D02*
X128341428Y-30540761D01*
X128293809Y-30493142D01*
X128246190Y-30397904D01*
X128246190Y-30112190D01*
X128293809Y-30016952D01*
X128341428Y-29969333D01*
X128436666Y-29921714D01*
X128579523Y-29921714D01*
X128674761Y-29969333D01*
X128722380Y-30016952D01*
X128770000Y-30112190D01*
X128770000Y-30397904D01*
X128722380Y-30493142D01*
X128674761Y-30540761D01*
X128579523Y-30588380D01*
X128436666Y-30588380D01*
X129150952Y-30540761D02*
X129246190Y-30588380D01*
X129436666Y-30588380D01*
X129531904Y-30540761D01*
X129579523Y-30445523D01*
X129579523Y-30397904D01*
X129531904Y-30302666D01*
X129436666Y-30255047D01*
X129293809Y-30255047D01*
X129198571Y-30207428D01*
X129150952Y-30112190D01*
X129150952Y-30064571D01*
X129198571Y-29969333D01*
X129293809Y-29921714D01*
X129436666Y-29921714D01*
X129531904Y-29969333D01*
X129865238Y-29921714D02*
X130246190Y-29921714D01*
X130008095Y-29588380D02*
X130008095Y-30445523D01*
X130055714Y-30540761D01*
X130150952Y-30588380D01*
X130246190Y-30588380D01*
X131103333Y-30588380D02*
X130531904Y-30588380D01*
X130817619Y-30588380D02*
X130817619Y-29588380D01*
X130722380Y-29731238D01*
X130627142Y-29826476D01*
X130531904Y-29874095D01*
X135628095Y-29468380D02*
X135628095Y-28468380D01*
X136199523Y-29468380D02*
X135770952Y-28896952D01*
X136199523Y-28468380D02*
X135628095Y-29039809D01*
%TO.C,Coutx2*%
X171413095Y-52371142D02*
X171365476Y-52418761D01*
X171222619Y-52466380D01*
X171127380Y-52466380D01*
X170984523Y-52418761D01*
X170889285Y-52323523D01*
X170841666Y-52228285D01*
X170794047Y-52037809D01*
X170794047Y-51894952D01*
X170841666Y-51704476D01*
X170889285Y-51609238D01*
X170984523Y-51514000D01*
X171127380Y-51466380D01*
X171222619Y-51466380D01*
X171365476Y-51514000D01*
X171413095Y-51561619D01*
X171984523Y-52466380D02*
X171889285Y-52418761D01*
X171841666Y-52371142D01*
X171794047Y-52275904D01*
X171794047Y-51990190D01*
X171841666Y-51894952D01*
X171889285Y-51847333D01*
X171984523Y-51799714D01*
X172127380Y-51799714D01*
X172222619Y-51847333D01*
X172270238Y-51894952D01*
X172317857Y-51990190D01*
X172317857Y-52275904D01*
X172270238Y-52371142D01*
X172222619Y-52418761D01*
X172127380Y-52466380D01*
X171984523Y-52466380D01*
X173175000Y-51799714D02*
X173175000Y-52466380D01*
X172746428Y-51799714D02*
X172746428Y-52323523D01*
X172794047Y-52418761D01*
X172889285Y-52466380D01*
X173032142Y-52466380D01*
X173127380Y-52418761D01*
X173175000Y-52371142D01*
X173508333Y-51799714D02*
X173889285Y-51799714D01*
X173651190Y-51466380D02*
X173651190Y-52323523D01*
X173698809Y-52418761D01*
X173794047Y-52466380D01*
X173889285Y-52466380D01*
X174127380Y-52466380D02*
X174651190Y-51799714D01*
X174127380Y-51799714D02*
X174651190Y-52466380D01*
X174984523Y-51561619D02*
X175032142Y-51514000D01*
X175127380Y-51466380D01*
X175365476Y-51466380D01*
X175460714Y-51514000D01*
X175508333Y-51561619D01*
X175555952Y-51656857D01*
X175555952Y-51752095D01*
X175508333Y-51894952D01*
X174936904Y-52466380D01*
X175555952Y-52466380D01*
%TO.C,J2*%
X190674666Y-80522380D02*
X190674666Y-81236666D01*
X190627047Y-81379523D01*
X190531809Y-81474761D01*
X190388952Y-81522380D01*
X190293714Y-81522380D01*
X191103238Y-80617619D02*
X191150857Y-80570000D01*
X191246095Y-80522380D01*
X191484190Y-80522380D01*
X191579428Y-80570000D01*
X191627047Y-80617619D01*
X191674666Y-80712857D01*
X191674666Y-80808095D01*
X191627047Y-80950952D01*
X191055619Y-81522380D01*
X191674666Y-81522380D01*
%TO.C,Uac1*%
X109179206Y-72985380D02*
X109179206Y-73794904D01*
X109226825Y-73890142D01*
X109274444Y-73937761D01*
X109369683Y-73985380D01*
X109560159Y-73985380D01*
X109655397Y-73937761D01*
X109703016Y-73890142D01*
X109750635Y-73794904D01*
X109750635Y-72985380D01*
X110655397Y-73985380D02*
X110655397Y-73461571D01*
X110607778Y-73366333D01*
X110512540Y-73318714D01*
X110322064Y-73318714D01*
X110226825Y-73366333D01*
X110655397Y-73937761D02*
X110560159Y-73985380D01*
X110322064Y-73985380D01*
X110226825Y-73937761D01*
X110179206Y-73842523D01*
X110179206Y-73747285D01*
X110226825Y-73652047D01*
X110322064Y-73604428D01*
X110560159Y-73604428D01*
X110655397Y-73556809D01*
X111560159Y-73937761D02*
X111464921Y-73985380D01*
X111274444Y-73985380D01*
X111179206Y-73937761D01*
X111131587Y-73890142D01*
X111083968Y-73794904D01*
X111083968Y-73509190D01*
X111131587Y-73413952D01*
X111179206Y-73366333D01*
X111274444Y-73318714D01*
X111464921Y-73318714D01*
X111560159Y-73366333D01*
X112512540Y-73985380D02*
X111941111Y-73985380D01*
X112226825Y-73985380D02*
X112226825Y-72985380D01*
X112131587Y-73128238D01*
X112036349Y-73223476D01*
X111941111Y-73271095D01*
X98171000Y-72985380D02*
X98171000Y-73223476D01*
X97932904Y-73128238D02*
X98171000Y-73223476D01*
X98409095Y-73128238D01*
X98028142Y-73413952D02*
X98171000Y-73223476D01*
X98313857Y-73413952D01*
%TO.C,U1*%
X154813095Y-71461380D02*
X154813095Y-72270904D01*
X154860714Y-72366142D01*
X154908333Y-72413761D01*
X155003571Y-72461380D01*
X155194047Y-72461380D01*
X155289285Y-72413761D01*
X155336904Y-72366142D01*
X155384523Y-72270904D01*
X155384523Y-71461380D01*
X156384523Y-72461380D02*
X155813095Y-72461380D01*
X156098809Y-72461380D02*
X156098809Y-71461380D01*
X156003571Y-71604238D01*
X155908333Y-71699476D01*
X155813095Y-71747095D01*
%TO.C,TPvsense1*%
X197533095Y-71918380D02*
X198104523Y-71918380D01*
X197818809Y-72918380D02*
X197818809Y-71918380D01*
X198437857Y-72918380D02*
X198437857Y-71918380D01*
X198818809Y-71918380D01*
X198914047Y-71966000D01*
X198961666Y-72013619D01*
X199009285Y-72108857D01*
X199009285Y-72251714D01*
X198961666Y-72346952D01*
X198914047Y-72394571D01*
X198818809Y-72442190D01*
X198437857Y-72442190D01*
X199342619Y-72251714D02*
X199580714Y-72918380D01*
X199818809Y-72251714D01*
X200152142Y-72870761D02*
X200247380Y-72918380D01*
X200437857Y-72918380D01*
X200533095Y-72870761D01*
X200580714Y-72775523D01*
X200580714Y-72727904D01*
X200533095Y-72632666D01*
X200437857Y-72585047D01*
X200295000Y-72585047D01*
X200199761Y-72537428D01*
X200152142Y-72442190D01*
X200152142Y-72394571D01*
X200199761Y-72299333D01*
X200295000Y-72251714D01*
X200437857Y-72251714D01*
X200533095Y-72299333D01*
X201390238Y-72870761D02*
X201295000Y-72918380D01*
X201104523Y-72918380D01*
X201009285Y-72870761D01*
X200961666Y-72775523D01*
X200961666Y-72394571D01*
X201009285Y-72299333D01*
X201104523Y-72251714D01*
X201295000Y-72251714D01*
X201390238Y-72299333D01*
X201437857Y-72394571D01*
X201437857Y-72489809D01*
X200961666Y-72585047D01*
X201866428Y-72251714D02*
X201866428Y-72918380D01*
X201866428Y-72346952D02*
X201914047Y-72299333D01*
X202009285Y-72251714D01*
X202152142Y-72251714D01*
X202247380Y-72299333D01*
X202295000Y-72394571D01*
X202295000Y-72918380D01*
X202723571Y-72870761D02*
X202818809Y-72918380D01*
X203009285Y-72918380D01*
X203104523Y-72870761D01*
X203152142Y-72775523D01*
X203152142Y-72727904D01*
X203104523Y-72632666D01*
X203009285Y-72585047D01*
X202866428Y-72585047D01*
X202771190Y-72537428D01*
X202723571Y-72442190D01*
X202723571Y-72394571D01*
X202771190Y-72299333D01*
X202866428Y-72251714D01*
X203009285Y-72251714D01*
X203104523Y-72299333D01*
X203961666Y-72870761D02*
X203866428Y-72918380D01*
X203675952Y-72918380D01*
X203580714Y-72870761D01*
X203533095Y-72775523D01*
X203533095Y-72394571D01*
X203580714Y-72299333D01*
X203675952Y-72251714D01*
X203866428Y-72251714D01*
X203961666Y-72299333D01*
X204009285Y-72394571D01*
X204009285Y-72489809D01*
X203533095Y-72585047D01*
X204961666Y-72918380D02*
X204390238Y-72918380D01*
X204675952Y-72918380D02*
X204675952Y-71918380D01*
X204580714Y-72061238D01*
X204485476Y-72156476D01*
X204390238Y-72204095D01*
%TO.C,TPQ1*%
X182999285Y-55764380D02*
X183570714Y-55764380D01*
X183285000Y-56764380D02*
X183285000Y-55764380D01*
X183904047Y-56764380D02*
X183904047Y-55764380D01*
X184285000Y-55764380D01*
X184380238Y-55812000D01*
X184427857Y-55859619D01*
X184475476Y-55954857D01*
X184475476Y-56097714D01*
X184427857Y-56192952D01*
X184380238Y-56240571D01*
X184285000Y-56288190D01*
X183904047Y-56288190D01*
X185570714Y-56859619D02*
X185475476Y-56812000D01*
X185380238Y-56716761D01*
X185237380Y-56573904D01*
X185142142Y-56526285D01*
X185046904Y-56526285D01*
X185094523Y-56764380D02*
X184999285Y-56716761D01*
X184904047Y-56621523D01*
X184856428Y-56431047D01*
X184856428Y-56097714D01*
X184904047Y-55907238D01*
X184999285Y-55812000D01*
X185094523Y-55764380D01*
X185285000Y-55764380D01*
X185380238Y-55812000D01*
X185475476Y-55907238D01*
X185523095Y-56097714D01*
X185523095Y-56431047D01*
X185475476Y-56621523D01*
X185380238Y-56716761D01*
X185285000Y-56764380D01*
X185094523Y-56764380D01*
X186475476Y-56764380D02*
X185904047Y-56764380D01*
X186189761Y-56764380D02*
X186189761Y-55764380D01*
X186094523Y-55907238D01*
X185999285Y-56002476D01*
X185904047Y-56050095D01*
%TO.C,TPisense1*%
X136715952Y-63028380D02*
X137287380Y-63028380D01*
X137001666Y-64028380D02*
X137001666Y-63028380D01*
X137620714Y-64028380D02*
X137620714Y-63028380D01*
X138001666Y-63028380D01*
X138096904Y-63076000D01*
X138144523Y-63123619D01*
X138192142Y-63218857D01*
X138192142Y-63361714D01*
X138144523Y-63456952D01*
X138096904Y-63504571D01*
X138001666Y-63552190D01*
X137620714Y-63552190D01*
X138620714Y-64028380D02*
X138620714Y-63361714D01*
X138620714Y-63028380D02*
X138573095Y-63076000D01*
X138620714Y-63123619D01*
X138668333Y-63076000D01*
X138620714Y-63028380D01*
X138620714Y-63123619D01*
X139049285Y-63980761D02*
X139144523Y-64028380D01*
X139335000Y-64028380D01*
X139430238Y-63980761D01*
X139477857Y-63885523D01*
X139477857Y-63837904D01*
X139430238Y-63742666D01*
X139335000Y-63695047D01*
X139192142Y-63695047D01*
X139096904Y-63647428D01*
X139049285Y-63552190D01*
X139049285Y-63504571D01*
X139096904Y-63409333D01*
X139192142Y-63361714D01*
X139335000Y-63361714D01*
X139430238Y-63409333D01*
X140287380Y-63980761D02*
X140192142Y-64028380D01*
X140001666Y-64028380D01*
X139906428Y-63980761D01*
X139858809Y-63885523D01*
X139858809Y-63504571D01*
X139906428Y-63409333D01*
X140001666Y-63361714D01*
X140192142Y-63361714D01*
X140287380Y-63409333D01*
X140335000Y-63504571D01*
X140335000Y-63599809D01*
X139858809Y-63695047D01*
X140763571Y-63361714D02*
X140763571Y-64028380D01*
X140763571Y-63456952D02*
X140811190Y-63409333D01*
X140906428Y-63361714D01*
X141049285Y-63361714D01*
X141144523Y-63409333D01*
X141192142Y-63504571D01*
X141192142Y-64028380D01*
X141620714Y-63980761D02*
X141715952Y-64028380D01*
X141906428Y-64028380D01*
X142001666Y-63980761D01*
X142049285Y-63885523D01*
X142049285Y-63837904D01*
X142001666Y-63742666D01*
X141906428Y-63695047D01*
X141763571Y-63695047D01*
X141668333Y-63647428D01*
X141620714Y-63552190D01*
X141620714Y-63504571D01*
X141668333Y-63409333D01*
X141763571Y-63361714D01*
X141906428Y-63361714D01*
X142001666Y-63409333D01*
X142858809Y-63980761D02*
X142763571Y-64028380D01*
X142573095Y-64028380D01*
X142477857Y-63980761D01*
X142430238Y-63885523D01*
X142430238Y-63504571D01*
X142477857Y-63409333D01*
X142573095Y-63361714D01*
X142763571Y-63361714D01*
X142858809Y-63409333D01*
X142906428Y-63504571D01*
X142906428Y-63599809D01*
X142430238Y-63695047D01*
X143858809Y-64028380D02*
X143287380Y-64028380D01*
X143573095Y-64028380D02*
X143573095Y-63028380D01*
X143477857Y-63171238D01*
X143382619Y-63266476D01*
X143287380Y-63314095D01*
%TO.C,TPgnd5*%
X182165952Y-63663380D02*
X182737380Y-63663380D01*
X182451666Y-64663380D02*
X182451666Y-63663380D01*
X183070714Y-64663380D02*
X183070714Y-63663380D01*
X183451666Y-63663380D01*
X183546904Y-63711000D01*
X183594523Y-63758619D01*
X183642142Y-63853857D01*
X183642142Y-63996714D01*
X183594523Y-64091952D01*
X183546904Y-64139571D01*
X183451666Y-64187190D01*
X183070714Y-64187190D01*
X184499285Y-63996714D02*
X184499285Y-64806238D01*
X184451666Y-64901476D01*
X184404047Y-64949095D01*
X184308809Y-64996714D01*
X184165952Y-64996714D01*
X184070714Y-64949095D01*
X184499285Y-64615761D02*
X184404047Y-64663380D01*
X184213571Y-64663380D01*
X184118333Y-64615761D01*
X184070714Y-64568142D01*
X184023095Y-64472904D01*
X184023095Y-64187190D01*
X184070714Y-64091952D01*
X184118333Y-64044333D01*
X184213571Y-63996714D01*
X184404047Y-63996714D01*
X184499285Y-64044333D01*
X184975476Y-63996714D02*
X184975476Y-64663380D01*
X184975476Y-64091952D02*
X185023095Y-64044333D01*
X185118333Y-63996714D01*
X185261190Y-63996714D01*
X185356428Y-64044333D01*
X185404047Y-64139571D01*
X185404047Y-64663380D01*
X186308809Y-64663380D02*
X186308809Y-63663380D01*
X186308809Y-64615761D02*
X186213571Y-64663380D01*
X186023095Y-64663380D01*
X185927857Y-64615761D01*
X185880238Y-64568142D01*
X185832619Y-64472904D01*
X185832619Y-64187190D01*
X185880238Y-64091952D01*
X185927857Y-64044333D01*
X186023095Y-63996714D01*
X186213571Y-63996714D01*
X186308809Y-64044333D01*
X187261190Y-63663380D02*
X186785000Y-63663380D01*
X186737380Y-64139571D01*
X186785000Y-64091952D01*
X186880238Y-64044333D01*
X187118333Y-64044333D01*
X187213571Y-64091952D01*
X187261190Y-64139571D01*
X187308809Y-64234809D01*
X187308809Y-64472904D01*
X187261190Y-64568142D01*
X187213571Y-64615761D01*
X187118333Y-64663380D01*
X186880238Y-64663380D01*
X186785000Y-64615761D01*
X186737380Y-64568142D01*
%TO.C,TPgnd2*%
X234870952Y-52233380D02*
X235442380Y-52233380D01*
X235156666Y-53233380D02*
X235156666Y-52233380D01*
X235775714Y-53233380D02*
X235775714Y-52233380D01*
X236156666Y-52233380D01*
X236251904Y-52281000D01*
X236299523Y-52328619D01*
X236347142Y-52423857D01*
X236347142Y-52566714D01*
X236299523Y-52661952D01*
X236251904Y-52709571D01*
X236156666Y-52757190D01*
X235775714Y-52757190D01*
X237204285Y-52566714D02*
X237204285Y-53376238D01*
X237156666Y-53471476D01*
X237109047Y-53519095D01*
X237013809Y-53566714D01*
X236870952Y-53566714D01*
X236775714Y-53519095D01*
X237204285Y-53185761D02*
X237109047Y-53233380D01*
X236918571Y-53233380D01*
X236823333Y-53185761D01*
X236775714Y-53138142D01*
X236728095Y-53042904D01*
X236728095Y-52757190D01*
X236775714Y-52661952D01*
X236823333Y-52614333D01*
X236918571Y-52566714D01*
X237109047Y-52566714D01*
X237204285Y-52614333D01*
X237680476Y-52566714D02*
X237680476Y-53233380D01*
X237680476Y-52661952D02*
X237728095Y-52614333D01*
X237823333Y-52566714D01*
X237966190Y-52566714D01*
X238061428Y-52614333D01*
X238109047Y-52709571D01*
X238109047Y-53233380D01*
X239013809Y-53233380D02*
X239013809Y-52233380D01*
X239013809Y-53185761D02*
X238918571Y-53233380D01*
X238728095Y-53233380D01*
X238632857Y-53185761D01*
X238585238Y-53138142D01*
X238537619Y-53042904D01*
X238537619Y-52757190D01*
X238585238Y-52661952D01*
X238632857Y-52614333D01*
X238728095Y-52566714D01*
X238918571Y-52566714D01*
X239013809Y-52614333D01*
X239442380Y-52328619D02*
X239490000Y-52281000D01*
X239585238Y-52233380D01*
X239823333Y-52233380D01*
X239918571Y-52281000D01*
X239966190Y-52328619D01*
X240013809Y-52423857D01*
X240013809Y-52519095D01*
X239966190Y-52661952D01*
X239394761Y-53233380D01*
X240013809Y-53233380D01*
%TO.C,TPgnd1*%
X143430952Y-80300380D02*
X144002380Y-80300380D01*
X143716666Y-81300380D02*
X143716666Y-80300380D01*
X144335714Y-81300380D02*
X144335714Y-80300380D01*
X144716666Y-80300380D01*
X144811904Y-80348000D01*
X144859523Y-80395619D01*
X144907142Y-80490857D01*
X144907142Y-80633714D01*
X144859523Y-80728952D01*
X144811904Y-80776571D01*
X144716666Y-80824190D01*
X144335714Y-80824190D01*
X145764285Y-80633714D02*
X145764285Y-81443238D01*
X145716666Y-81538476D01*
X145669047Y-81586095D01*
X145573809Y-81633714D01*
X145430952Y-81633714D01*
X145335714Y-81586095D01*
X145764285Y-81252761D02*
X145669047Y-81300380D01*
X145478571Y-81300380D01*
X145383333Y-81252761D01*
X145335714Y-81205142D01*
X145288095Y-81109904D01*
X145288095Y-80824190D01*
X145335714Y-80728952D01*
X145383333Y-80681333D01*
X145478571Y-80633714D01*
X145669047Y-80633714D01*
X145764285Y-80681333D01*
X146240476Y-80633714D02*
X146240476Y-81300380D01*
X146240476Y-80728952D02*
X146288095Y-80681333D01*
X146383333Y-80633714D01*
X146526190Y-80633714D01*
X146621428Y-80681333D01*
X146669047Y-80776571D01*
X146669047Y-81300380D01*
X147573809Y-81300380D02*
X147573809Y-80300380D01*
X147573809Y-81252761D02*
X147478571Y-81300380D01*
X147288095Y-81300380D01*
X147192857Y-81252761D01*
X147145238Y-81205142D01*
X147097619Y-81109904D01*
X147097619Y-80824190D01*
X147145238Y-80728952D01*
X147192857Y-80681333D01*
X147288095Y-80633714D01*
X147478571Y-80633714D01*
X147573809Y-80681333D01*
X148573809Y-81300380D02*
X148002380Y-81300380D01*
X148288095Y-81300380D02*
X148288095Y-80300380D01*
X148192857Y-80443238D01*
X148097619Y-80538476D01*
X148002380Y-80586095D01*
%TO.C,TPgate1*%
X164759047Y-67473380D02*
X165330476Y-67473380D01*
X165044761Y-68473380D02*
X165044761Y-67473380D01*
X165663809Y-68473380D02*
X165663809Y-67473380D01*
X166044761Y-67473380D01*
X166140000Y-67521000D01*
X166187619Y-67568619D01*
X166235238Y-67663857D01*
X166235238Y-67806714D01*
X166187619Y-67901952D01*
X166140000Y-67949571D01*
X166044761Y-67997190D01*
X165663809Y-67997190D01*
X167092380Y-67806714D02*
X167092380Y-68616238D01*
X167044761Y-68711476D01*
X166997142Y-68759095D01*
X166901904Y-68806714D01*
X166759047Y-68806714D01*
X166663809Y-68759095D01*
X167092380Y-68425761D02*
X166997142Y-68473380D01*
X166806666Y-68473380D01*
X166711428Y-68425761D01*
X166663809Y-68378142D01*
X166616190Y-68282904D01*
X166616190Y-67997190D01*
X166663809Y-67901952D01*
X166711428Y-67854333D01*
X166806666Y-67806714D01*
X166997142Y-67806714D01*
X167092380Y-67854333D01*
X167997142Y-68473380D02*
X167997142Y-67949571D01*
X167949523Y-67854333D01*
X167854285Y-67806714D01*
X167663809Y-67806714D01*
X167568571Y-67854333D01*
X167997142Y-68425761D02*
X167901904Y-68473380D01*
X167663809Y-68473380D01*
X167568571Y-68425761D01*
X167520952Y-68330523D01*
X167520952Y-68235285D01*
X167568571Y-68140047D01*
X167663809Y-68092428D01*
X167901904Y-68092428D01*
X167997142Y-68044809D01*
X168330476Y-67806714D02*
X168711428Y-67806714D01*
X168473333Y-67473380D02*
X168473333Y-68330523D01*
X168520952Y-68425761D01*
X168616190Y-68473380D01*
X168711428Y-68473380D01*
X169425714Y-68425761D02*
X169330476Y-68473380D01*
X169140000Y-68473380D01*
X169044761Y-68425761D01*
X168997142Y-68330523D01*
X168997142Y-67949571D01*
X169044761Y-67854333D01*
X169140000Y-67806714D01*
X169330476Y-67806714D01*
X169425714Y-67854333D01*
X169473333Y-67949571D01*
X169473333Y-68044809D01*
X168997142Y-68140047D01*
X170425714Y-68473380D02*
X169854285Y-68473380D01*
X170140000Y-68473380D02*
X170140000Y-67473380D01*
X170044761Y-67616238D01*
X169949523Y-67711476D01*
X169854285Y-67759095D01*
%TO.C,TPDstart2*%
X141788000Y-24420380D02*
X142359428Y-24420380D01*
X142073714Y-25420380D02*
X142073714Y-24420380D01*
X142692761Y-25420380D02*
X142692761Y-24420380D01*
X143073714Y-24420380D01*
X143168952Y-24468000D01*
X143216571Y-24515619D01*
X143264190Y-24610857D01*
X143264190Y-24753714D01*
X143216571Y-24848952D01*
X143168952Y-24896571D01*
X143073714Y-24944190D01*
X142692761Y-24944190D01*
X143692761Y-25420380D02*
X143692761Y-24420380D01*
X143930857Y-24420380D01*
X144073714Y-24468000D01*
X144168952Y-24563238D01*
X144216571Y-24658476D01*
X144264190Y-24848952D01*
X144264190Y-24991809D01*
X144216571Y-25182285D01*
X144168952Y-25277523D01*
X144073714Y-25372761D01*
X143930857Y-25420380D01*
X143692761Y-25420380D01*
X144645142Y-25372761D02*
X144740380Y-25420380D01*
X144930857Y-25420380D01*
X145026095Y-25372761D01*
X145073714Y-25277523D01*
X145073714Y-25229904D01*
X145026095Y-25134666D01*
X144930857Y-25087047D01*
X144788000Y-25087047D01*
X144692761Y-25039428D01*
X144645142Y-24944190D01*
X144645142Y-24896571D01*
X144692761Y-24801333D01*
X144788000Y-24753714D01*
X144930857Y-24753714D01*
X145026095Y-24801333D01*
X145359428Y-24753714D02*
X145740380Y-24753714D01*
X145502285Y-24420380D02*
X145502285Y-25277523D01*
X145549904Y-25372761D01*
X145645142Y-25420380D01*
X145740380Y-25420380D01*
X146502285Y-25420380D02*
X146502285Y-24896571D01*
X146454666Y-24801333D01*
X146359428Y-24753714D01*
X146168952Y-24753714D01*
X146073714Y-24801333D01*
X146502285Y-25372761D02*
X146407047Y-25420380D01*
X146168952Y-25420380D01*
X146073714Y-25372761D01*
X146026095Y-25277523D01*
X146026095Y-25182285D01*
X146073714Y-25087047D01*
X146168952Y-25039428D01*
X146407047Y-25039428D01*
X146502285Y-24991809D01*
X146978476Y-25420380D02*
X146978476Y-24753714D01*
X146978476Y-24944190D02*
X147026095Y-24848952D01*
X147073714Y-24801333D01*
X147168952Y-24753714D01*
X147264190Y-24753714D01*
X147454666Y-24753714D02*
X147835619Y-24753714D01*
X147597523Y-24420380D02*
X147597523Y-25277523D01*
X147645142Y-25372761D01*
X147740380Y-25420380D01*
X147835619Y-25420380D01*
X148121333Y-24515619D02*
X148168952Y-24468000D01*
X148264190Y-24420380D01*
X148502285Y-24420380D01*
X148597523Y-24468000D01*
X148645142Y-24515619D01*
X148692761Y-24610857D01*
X148692761Y-24706095D01*
X148645142Y-24848952D01*
X148073714Y-25420380D01*
X148692761Y-25420380D01*
%TO.C,TPDstart1*%
X155250000Y-24420380D02*
X155821428Y-24420380D01*
X155535714Y-25420380D02*
X155535714Y-24420380D01*
X156154761Y-25420380D02*
X156154761Y-24420380D01*
X156535714Y-24420380D01*
X156630952Y-24468000D01*
X156678571Y-24515619D01*
X156726190Y-24610857D01*
X156726190Y-24753714D01*
X156678571Y-24848952D01*
X156630952Y-24896571D01*
X156535714Y-24944190D01*
X156154761Y-24944190D01*
X157154761Y-25420380D02*
X157154761Y-24420380D01*
X157392857Y-24420380D01*
X157535714Y-24468000D01*
X157630952Y-24563238D01*
X157678571Y-24658476D01*
X157726190Y-24848952D01*
X157726190Y-24991809D01*
X157678571Y-25182285D01*
X157630952Y-25277523D01*
X157535714Y-25372761D01*
X157392857Y-25420380D01*
X157154761Y-25420380D01*
X158107142Y-25372761D02*
X158202380Y-25420380D01*
X158392857Y-25420380D01*
X158488095Y-25372761D01*
X158535714Y-25277523D01*
X158535714Y-25229904D01*
X158488095Y-25134666D01*
X158392857Y-25087047D01*
X158250000Y-25087047D01*
X158154761Y-25039428D01*
X158107142Y-24944190D01*
X158107142Y-24896571D01*
X158154761Y-24801333D01*
X158250000Y-24753714D01*
X158392857Y-24753714D01*
X158488095Y-24801333D01*
X158821428Y-24753714D02*
X159202380Y-24753714D01*
X158964285Y-24420380D02*
X158964285Y-25277523D01*
X159011904Y-25372761D01*
X159107142Y-25420380D01*
X159202380Y-25420380D01*
X159964285Y-25420380D02*
X159964285Y-24896571D01*
X159916666Y-24801333D01*
X159821428Y-24753714D01*
X159630952Y-24753714D01*
X159535714Y-24801333D01*
X159964285Y-25372761D02*
X159869047Y-25420380D01*
X159630952Y-25420380D01*
X159535714Y-25372761D01*
X159488095Y-25277523D01*
X159488095Y-25182285D01*
X159535714Y-25087047D01*
X159630952Y-25039428D01*
X159869047Y-25039428D01*
X159964285Y-24991809D01*
X160440476Y-25420380D02*
X160440476Y-24753714D01*
X160440476Y-24944190D02*
X160488095Y-24848952D01*
X160535714Y-24801333D01*
X160630952Y-24753714D01*
X160726190Y-24753714D01*
X160916666Y-24753714D02*
X161297619Y-24753714D01*
X161059523Y-24420380D02*
X161059523Y-25277523D01*
X161107142Y-25372761D01*
X161202380Y-25420380D01*
X161297619Y-25420380D01*
X162154761Y-25420380D02*
X161583333Y-25420380D01*
X161869047Y-25420380D02*
X161869047Y-24420380D01*
X161773809Y-24563238D01*
X161678571Y-24658476D01*
X161583333Y-24706095D01*
%TO.C,Rsense1*%
X179959285Y-88256380D02*
X179625952Y-87780190D01*
X179387857Y-88256380D02*
X179387857Y-87256380D01*
X179768809Y-87256380D01*
X179864047Y-87304000D01*
X179911666Y-87351619D01*
X179959285Y-87446857D01*
X179959285Y-87589714D01*
X179911666Y-87684952D01*
X179864047Y-87732571D01*
X179768809Y-87780190D01*
X179387857Y-87780190D01*
X180340238Y-88208761D02*
X180435476Y-88256380D01*
X180625952Y-88256380D01*
X180721190Y-88208761D01*
X180768809Y-88113523D01*
X180768809Y-88065904D01*
X180721190Y-87970666D01*
X180625952Y-87923047D01*
X180483095Y-87923047D01*
X180387857Y-87875428D01*
X180340238Y-87780190D01*
X180340238Y-87732571D01*
X180387857Y-87637333D01*
X180483095Y-87589714D01*
X180625952Y-87589714D01*
X180721190Y-87637333D01*
X181578333Y-88208761D02*
X181483095Y-88256380D01*
X181292619Y-88256380D01*
X181197380Y-88208761D01*
X181149761Y-88113523D01*
X181149761Y-87732571D01*
X181197380Y-87637333D01*
X181292619Y-87589714D01*
X181483095Y-87589714D01*
X181578333Y-87637333D01*
X181625952Y-87732571D01*
X181625952Y-87827809D01*
X181149761Y-87923047D01*
X182054523Y-87589714D02*
X182054523Y-88256380D01*
X182054523Y-87684952D02*
X182102142Y-87637333D01*
X182197380Y-87589714D01*
X182340238Y-87589714D01*
X182435476Y-87637333D01*
X182483095Y-87732571D01*
X182483095Y-88256380D01*
X182911666Y-88208761D02*
X183006904Y-88256380D01*
X183197380Y-88256380D01*
X183292619Y-88208761D01*
X183340238Y-88113523D01*
X183340238Y-88065904D01*
X183292619Y-87970666D01*
X183197380Y-87923047D01*
X183054523Y-87923047D01*
X182959285Y-87875428D01*
X182911666Y-87780190D01*
X182911666Y-87732571D01*
X182959285Y-87637333D01*
X183054523Y-87589714D01*
X183197380Y-87589714D01*
X183292619Y-87637333D01*
X184149761Y-88208761D02*
X184054523Y-88256380D01*
X183864047Y-88256380D01*
X183768809Y-88208761D01*
X183721190Y-88113523D01*
X183721190Y-87732571D01*
X183768809Y-87637333D01*
X183864047Y-87589714D01*
X184054523Y-87589714D01*
X184149761Y-87637333D01*
X184197380Y-87732571D01*
X184197380Y-87827809D01*
X183721190Y-87923047D01*
X185149761Y-88256380D02*
X184578333Y-88256380D01*
X184864047Y-88256380D02*
X184864047Y-87256380D01*
X184768809Y-87399238D01*
X184673571Y-87494476D01*
X184578333Y-87542095D01*
%TO.C,Rntc1*%
X98698380Y-88891333D02*
X98222190Y-89224666D01*
X98698380Y-89462761D02*
X97698380Y-89462761D01*
X97698380Y-89081809D01*
X97746000Y-88986571D01*
X97793619Y-88938952D01*
X97888857Y-88891333D01*
X98031714Y-88891333D01*
X98126952Y-88938952D01*
X98174571Y-88986571D01*
X98222190Y-89081809D01*
X98222190Y-89462761D01*
X98031714Y-88462761D02*
X98698380Y-88462761D01*
X98126952Y-88462761D02*
X98079333Y-88415142D01*
X98031714Y-88319904D01*
X98031714Y-88177047D01*
X98079333Y-88081809D01*
X98174571Y-88034190D01*
X98698380Y-88034190D01*
X98031714Y-87700857D02*
X98031714Y-87319904D01*
X97698380Y-87558000D02*
X98555523Y-87558000D01*
X98650761Y-87510380D01*
X98698380Y-87415142D01*
X98698380Y-87319904D01*
X98650761Y-86558000D02*
X98698380Y-86653238D01*
X98698380Y-86843714D01*
X98650761Y-86938952D01*
X98603142Y-86986571D01*
X98507904Y-87034190D01*
X98222190Y-87034190D01*
X98126952Y-86986571D01*
X98079333Y-86938952D01*
X98031714Y-86843714D01*
X98031714Y-86653238D01*
X98079333Y-86558000D01*
X98698380Y-85605619D02*
X98698380Y-86177047D01*
X98698380Y-85891333D02*
X97698380Y-85891333D01*
X97841238Y-85986571D01*
X97936476Y-86081809D01*
X97984095Y-86177047D01*
%TO.C,Risense1*%
X179721190Y-81906380D02*
X179387857Y-81430190D01*
X179149761Y-81906380D02*
X179149761Y-80906380D01*
X179530714Y-80906380D01*
X179625952Y-80954000D01*
X179673571Y-81001619D01*
X179721190Y-81096857D01*
X179721190Y-81239714D01*
X179673571Y-81334952D01*
X179625952Y-81382571D01*
X179530714Y-81430190D01*
X179149761Y-81430190D01*
X180149761Y-81906380D02*
X180149761Y-81239714D01*
X180149761Y-80906380D02*
X180102142Y-80954000D01*
X180149761Y-81001619D01*
X180197380Y-80954000D01*
X180149761Y-80906380D01*
X180149761Y-81001619D01*
X180578333Y-81858761D02*
X180673571Y-81906380D01*
X180864047Y-81906380D01*
X180959285Y-81858761D01*
X181006904Y-81763523D01*
X181006904Y-81715904D01*
X180959285Y-81620666D01*
X180864047Y-81573047D01*
X180721190Y-81573047D01*
X180625952Y-81525428D01*
X180578333Y-81430190D01*
X180578333Y-81382571D01*
X180625952Y-81287333D01*
X180721190Y-81239714D01*
X180864047Y-81239714D01*
X180959285Y-81287333D01*
X181816428Y-81858761D02*
X181721190Y-81906380D01*
X181530714Y-81906380D01*
X181435476Y-81858761D01*
X181387857Y-81763523D01*
X181387857Y-81382571D01*
X181435476Y-81287333D01*
X181530714Y-81239714D01*
X181721190Y-81239714D01*
X181816428Y-81287333D01*
X181864047Y-81382571D01*
X181864047Y-81477809D01*
X181387857Y-81573047D01*
X182292619Y-81239714D02*
X182292619Y-81906380D01*
X182292619Y-81334952D02*
X182340238Y-81287333D01*
X182435476Y-81239714D01*
X182578333Y-81239714D01*
X182673571Y-81287333D01*
X182721190Y-81382571D01*
X182721190Y-81906380D01*
X183149761Y-81858761D02*
X183245000Y-81906380D01*
X183435476Y-81906380D01*
X183530714Y-81858761D01*
X183578333Y-81763523D01*
X183578333Y-81715904D01*
X183530714Y-81620666D01*
X183435476Y-81573047D01*
X183292619Y-81573047D01*
X183197380Y-81525428D01*
X183149761Y-81430190D01*
X183149761Y-81382571D01*
X183197380Y-81287333D01*
X183292619Y-81239714D01*
X183435476Y-81239714D01*
X183530714Y-81287333D01*
X184387857Y-81858761D02*
X184292619Y-81906380D01*
X184102142Y-81906380D01*
X184006904Y-81858761D01*
X183959285Y-81763523D01*
X183959285Y-81382571D01*
X184006904Y-81287333D01*
X184102142Y-81239714D01*
X184292619Y-81239714D01*
X184387857Y-81287333D01*
X184435476Y-81382571D01*
X184435476Y-81477809D01*
X183959285Y-81573047D01*
X185387857Y-81906380D02*
X184816428Y-81906380D01*
X185102142Y-81906380D02*
X185102142Y-80906380D01*
X185006904Y-81049238D01*
X184911666Y-81144476D01*
X184816428Y-81192095D01*
%TO.C,Rgate3*%
X154932285Y-59460380D02*
X154598952Y-58984190D01*
X154360857Y-59460380D02*
X154360857Y-58460380D01*
X154741809Y-58460380D01*
X154837047Y-58508000D01*
X154884666Y-58555619D01*
X154932285Y-58650857D01*
X154932285Y-58793714D01*
X154884666Y-58888952D01*
X154837047Y-58936571D01*
X154741809Y-58984190D01*
X154360857Y-58984190D01*
X155789428Y-58793714D02*
X155789428Y-59603238D01*
X155741809Y-59698476D01*
X155694190Y-59746095D01*
X155598952Y-59793714D01*
X155456095Y-59793714D01*
X155360857Y-59746095D01*
X155789428Y-59412761D02*
X155694190Y-59460380D01*
X155503714Y-59460380D01*
X155408476Y-59412761D01*
X155360857Y-59365142D01*
X155313238Y-59269904D01*
X155313238Y-58984190D01*
X155360857Y-58888952D01*
X155408476Y-58841333D01*
X155503714Y-58793714D01*
X155694190Y-58793714D01*
X155789428Y-58841333D01*
X156694190Y-59460380D02*
X156694190Y-58936571D01*
X156646571Y-58841333D01*
X156551333Y-58793714D01*
X156360857Y-58793714D01*
X156265619Y-58841333D01*
X156694190Y-59412761D02*
X156598952Y-59460380D01*
X156360857Y-59460380D01*
X156265619Y-59412761D01*
X156218000Y-59317523D01*
X156218000Y-59222285D01*
X156265619Y-59127047D01*
X156360857Y-59079428D01*
X156598952Y-59079428D01*
X156694190Y-59031809D01*
X157027523Y-58793714D02*
X157408476Y-58793714D01*
X157170380Y-58460380D02*
X157170380Y-59317523D01*
X157218000Y-59412761D01*
X157313238Y-59460380D01*
X157408476Y-59460380D01*
X158122761Y-59412761D02*
X158027523Y-59460380D01*
X157837047Y-59460380D01*
X157741809Y-59412761D01*
X157694190Y-59317523D01*
X157694190Y-58936571D01*
X157741809Y-58841333D01*
X157837047Y-58793714D01*
X158027523Y-58793714D01*
X158122761Y-58841333D01*
X158170380Y-58936571D01*
X158170380Y-59031809D01*
X157694190Y-59127047D01*
X158503714Y-58460380D02*
X159122761Y-58460380D01*
X158789428Y-58841333D01*
X158932285Y-58841333D01*
X159027523Y-58888952D01*
X159075142Y-58936571D01*
X159122761Y-59031809D01*
X159122761Y-59269904D01*
X159075142Y-59365142D01*
X159027523Y-59412761D01*
X158932285Y-59460380D01*
X158646571Y-59460380D01*
X158551333Y-59412761D01*
X158503714Y-59365142D01*
%TO.C,Rgate2*%
X164457285Y-61205380D02*
X164123952Y-60729190D01*
X163885857Y-61205380D02*
X163885857Y-60205380D01*
X164266809Y-60205380D01*
X164362047Y-60253000D01*
X164409666Y-60300619D01*
X164457285Y-60395857D01*
X164457285Y-60538714D01*
X164409666Y-60633952D01*
X164362047Y-60681571D01*
X164266809Y-60729190D01*
X163885857Y-60729190D01*
X165314428Y-60538714D02*
X165314428Y-61348238D01*
X165266809Y-61443476D01*
X165219190Y-61491095D01*
X165123952Y-61538714D01*
X164981095Y-61538714D01*
X164885857Y-61491095D01*
X165314428Y-61157761D02*
X165219190Y-61205380D01*
X165028714Y-61205380D01*
X164933476Y-61157761D01*
X164885857Y-61110142D01*
X164838238Y-61014904D01*
X164838238Y-60729190D01*
X164885857Y-60633952D01*
X164933476Y-60586333D01*
X165028714Y-60538714D01*
X165219190Y-60538714D01*
X165314428Y-60586333D01*
X166219190Y-61205380D02*
X166219190Y-60681571D01*
X166171571Y-60586333D01*
X166076333Y-60538714D01*
X165885857Y-60538714D01*
X165790619Y-60586333D01*
X166219190Y-61157761D02*
X166123952Y-61205380D01*
X165885857Y-61205380D01*
X165790619Y-61157761D01*
X165743000Y-61062523D01*
X165743000Y-60967285D01*
X165790619Y-60872047D01*
X165885857Y-60824428D01*
X166123952Y-60824428D01*
X166219190Y-60776809D01*
X166552523Y-60538714D02*
X166933476Y-60538714D01*
X166695380Y-60205380D02*
X166695380Y-61062523D01*
X166743000Y-61157761D01*
X166838238Y-61205380D01*
X166933476Y-61205380D01*
X167647761Y-61157761D02*
X167552523Y-61205380D01*
X167362047Y-61205380D01*
X167266809Y-61157761D01*
X167219190Y-61062523D01*
X167219190Y-60681571D01*
X167266809Y-60586333D01*
X167362047Y-60538714D01*
X167552523Y-60538714D01*
X167647761Y-60586333D01*
X167695380Y-60681571D01*
X167695380Y-60776809D01*
X167219190Y-60872047D01*
X168076333Y-60300619D02*
X168123952Y-60253000D01*
X168219190Y-60205380D01*
X168457285Y-60205380D01*
X168552523Y-60253000D01*
X168600142Y-60300619D01*
X168647761Y-60395857D01*
X168647761Y-60491095D01*
X168600142Y-60633952D01*
X168028714Y-61205380D01*
X168647761Y-61205380D01*
%TO.C,Rgate1*%
X154932285Y-61205380D02*
X154598952Y-60729190D01*
X154360857Y-61205380D02*
X154360857Y-60205380D01*
X154741809Y-60205380D01*
X154837047Y-60253000D01*
X154884666Y-60300619D01*
X154932285Y-60395857D01*
X154932285Y-60538714D01*
X154884666Y-60633952D01*
X154837047Y-60681571D01*
X154741809Y-60729190D01*
X154360857Y-60729190D01*
X155789428Y-60538714D02*
X155789428Y-61348238D01*
X155741809Y-61443476D01*
X155694190Y-61491095D01*
X155598952Y-61538714D01*
X155456095Y-61538714D01*
X155360857Y-61491095D01*
X155789428Y-61157761D02*
X155694190Y-61205380D01*
X155503714Y-61205380D01*
X155408476Y-61157761D01*
X155360857Y-61110142D01*
X155313238Y-61014904D01*
X155313238Y-60729190D01*
X155360857Y-60633952D01*
X155408476Y-60586333D01*
X155503714Y-60538714D01*
X155694190Y-60538714D01*
X155789428Y-60586333D01*
X156694190Y-61205380D02*
X156694190Y-60681571D01*
X156646571Y-60586333D01*
X156551333Y-60538714D01*
X156360857Y-60538714D01*
X156265619Y-60586333D01*
X156694190Y-61157761D02*
X156598952Y-61205380D01*
X156360857Y-61205380D01*
X156265619Y-61157761D01*
X156218000Y-61062523D01*
X156218000Y-60967285D01*
X156265619Y-60872047D01*
X156360857Y-60824428D01*
X156598952Y-60824428D01*
X156694190Y-60776809D01*
X157027523Y-60538714D02*
X157408476Y-60538714D01*
X157170380Y-60205380D02*
X157170380Y-61062523D01*
X157218000Y-61157761D01*
X157313238Y-61205380D01*
X157408476Y-61205380D01*
X158122761Y-61157761D02*
X158027523Y-61205380D01*
X157837047Y-61205380D01*
X157741809Y-61157761D01*
X157694190Y-61062523D01*
X157694190Y-60681571D01*
X157741809Y-60586333D01*
X157837047Y-60538714D01*
X158027523Y-60538714D01*
X158122761Y-60586333D01*
X158170380Y-60681571D01*
X158170380Y-60776809D01*
X157694190Y-60872047D01*
X159122761Y-61205380D02*
X158551333Y-61205380D01*
X158837047Y-61205380D02*
X158837047Y-60205380D01*
X158741809Y-60348238D01*
X158646571Y-60443476D01*
X158551333Y-60491095D01*
%TO.C,Rfreq1*%
X197112142Y-94131380D02*
X196778809Y-93655190D01*
X196540714Y-94131380D02*
X196540714Y-93131380D01*
X196921666Y-93131380D01*
X197016904Y-93179000D01*
X197064523Y-93226619D01*
X197112142Y-93321857D01*
X197112142Y-93464714D01*
X197064523Y-93559952D01*
X197016904Y-93607571D01*
X196921666Y-93655190D01*
X196540714Y-93655190D01*
X197397857Y-93464714D02*
X197778809Y-93464714D01*
X197540714Y-94131380D02*
X197540714Y-93274238D01*
X197588333Y-93179000D01*
X197683571Y-93131380D01*
X197778809Y-93131380D01*
X198112142Y-94131380D02*
X198112142Y-93464714D01*
X198112142Y-93655190D02*
X198159761Y-93559952D01*
X198207380Y-93512333D01*
X198302619Y-93464714D01*
X198397857Y-93464714D01*
X199112142Y-94083761D02*
X199016904Y-94131380D01*
X198826428Y-94131380D01*
X198731190Y-94083761D01*
X198683571Y-93988523D01*
X198683571Y-93607571D01*
X198731190Y-93512333D01*
X198826428Y-93464714D01*
X199016904Y-93464714D01*
X199112142Y-93512333D01*
X199159761Y-93607571D01*
X199159761Y-93702809D01*
X198683571Y-93798047D01*
X200016904Y-93464714D02*
X200016904Y-94464714D01*
X200016904Y-94083761D02*
X199921666Y-94131380D01*
X199731190Y-94131380D01*
X199635952Y-94083761D01*
X199588333Y-94036142D01*
X199540714Y-93940904D01*
X199540714Y-93655190D01*
X199588333Y-93559952D01*
X199635952Y-93512333D01*
X199731190Y-93464714D01*
X199921666Y-93464714D01*
X200016904Y-93512333D01*
X201016904Y-94131380D02*
X200445476Y-94131380D01*
X200731190Y-94131380D02*
X200731190Y-93131380D01*
X200635952Y-93274238D01*
X200540714Y-93369476D01*
X200445476Y-93417095D01*
%TO.C,Rfbt3*%
X191507380Y-58594476D02*
X191031190Y-58927809D01*
X191507380Y-59165904D02*
X190507380Y-59165904D01*
X190507380Y-58784952D01*
X190555000Y-58689714D01*
X190602619Y-58642095D01*
X190697857Y-58594476D01*
X190840714Y-58594476D01*
X190935952Y-58642095D01*
X190983571Y-58689714D01*
X191031190Y-58784952D01*
X191031190Y-59165904D01*
X190840714Y-58308761D02*
X190840714Y-57927809D01*
X191507380Y-58165904D02*
X190650238Y-58165904D01*
X190555000Y-58118285D01*
X190507380Y-58023047D01*
X190507380Y-57927809D01*
X191507380Y-57594476D02*
X190507380Y-57594476D01*
X190888333Y-57594476D02*
X190840714Y-57499238D01*
X190840714Y-57308761D01*
X190888333Y-57213523D01*
X190935952Y-57165904D01*
X191031190Y-57118285D01*
X191316904Y-57118285D01*
X191412142Y-57165904D01*
X191459761Y-57213523D01*
X191507380Y-57308761D01*
X191507380Y-57499238D01*
X191459761Y-57594476D01*
X190840714Y-56832571D02*
X190840714Y-56451619D01*
X190507380Y-56689714D02*
X191364523Y-56689714D01*
X191459761Y-56642095D01*
X191507380Y-56546857D01*
X191507380Y-56451619D01*
X190507380Y-56213523D02*
X190507380Y-55594476D01*
X190888333Y-55927809D01*
X190888333Y-55784952D01*
X190935952Y-55689714D01*
X190983571Y-55642095D01*
X191078809Y-55594476D01*
X191316904Y-55594476D01*
X191412142Y-55642095D01*
X191459761Y-55689714D01*
X191507380Y-55784952D01*
X191507380Y-56070666D01*
X191459761Y-56165904D01*
X191412142Y-56213523D01*
%TO.C,Rfbt2*%
X204367380Y-67484476D02*
X203891190Y-67817809D01*
X204367380Y-68055904D02*
X203367380Y-68055904D01*
X203367380Y-67674952D01*
X203415000Y-67579714D01*
X203462619Y-67532095D01*
X203557857Y-67484476D01*
X203700714Y-67484476D01*
X203795952Y-67532095D01*
X203843571Y-67579714D01*
X203891190Y-67674952D01*
X203891190Y-68055904D01*
X203700714Y-67198761D02*
X203700714Y-66817809D01*
X204367380Y-67055904D02*
X203510238Y-67055904D01*
X203415000Y-67008285D01*
X203367380Y-66913047D01*
X203367380Y-66817809D01*
X204367380Y-66484476D02*
X203367380Y-66484476D01*
X203748333Y-66484476D02*
X203700714Y-66389238D01*
X203700714Y-66198761D01*
X203748333Y-66103523D01*
X203795952Y-66055904D01*
X203891190Y-66008285D01*
X204176904Y-66008285D01*
X204272142Y-66055904D01*
X204319761Y-66103523D01*
X204367380Y-66198761D01*
X204367380Y-66389238D01*
X204319761Y-66484476D01*
X203700714Y-65722571D02*
X203700714Y-65341619D01*
X203367380Y-65579714D02*
X204224523Y-65579714D01*
X204319761Y-65532095D01*
X204367380Y-65436857D01*
X204367380Y-65341619D01*
X203462619Y-65055904D02*
X203415000Y-65008285D01*
X203367380Y-64913047D01*
X203367380Y-64674952D01*
X203415000Y-64579714D01*
X203462619Y-64532095D01*
X203557857Y-64484476D01*
X203653095Y-64484476D01*
X203795952Y-64532095D01*
X204367380Y-65103523D01*
X204367380Y-64484476D01*
%TO.C,Rfbt1*%
X191507380Y-67484476D02*
X191031190Y-67817809D01*
X191507380Y-68055904D02*
X190507380Y-68055904D01*
X190507380Y-67674952D01*
X190555000Y-67579714D01*
X190602619Y-67532095D01*
X190697857Y-67484476D01*
X190840714Y-67484476D01*
X190935952Y-67532095D01*
X190983571Y-67579714D01*
X191031190Y-67674952D01*
X191031190Y-68055904D01*
X190840714Y-67198761D02*
X190840714Y-66817809D01*
X191507380Y-67055904D02*
X190650238Y-67055904D01*
X190555000Y-67008285D01*
X190507380Y-66913047D01*
X190507380Y-66817809D01*
X191507380Y-66484476D02*
X190507380Y-66484476D01*
X190888333Y-66484476D02*
X190840714Y-66389238D01*
X190840714Y-66198761D01*
X190888333Y-66103523D01*
X190935952Y-66055904D01*
X191031190Y-66008285D01*
X191316904Y-66008285D01*
X191412142Y-66055904D01*
X191459761Y-66103523D01*
X191507380Y-66198761D01*
X191507380Y-66389238D01*
X191459761Y-66484476D01*
X190840714Y-65722571D02*
X190840714Y-65341619D01*
X190507380Y-65579714D02*
X191364523Y-65579714D01*
X191459761Y-65532095D01*
X191507380Y-65436857D01*
X191507380Y-65341619D01*
X191507380Y-64484476D02*
X191507380Y-65055904D01*
X191507380Y-64770190D02*
X190507380Y-64770190D01*
X190650238Y-64865428D01*
X190745476Y-64960666D01*
X190793095Y-65055904D01*
%TO.C,Rfbb1*%
X204367380Y-58761142D02*
X203891190Y-59094476D01*
X204367380Y-59332571D02*
X203367380Y-59332571D01*
X203367380Y-58951619D01*
X203415000Y-58856380D01*
X203462619Y-58808761D01*
X203557857Y-58761142D01*
X203700714Y-58761142D01*
X203795952Y-58808761D01*
X203843571Y-58856380D01*
X203891190Y-58951619D01*
X203891190Y-59332571D01*
X203700714Y-58475428D02*
X203700714Y-58094476D01*
X204367380Y-58332571D02*
X203510238Y-58332571D01*
X203415000Y-58284952D01*
X203367380Y-58189714D01*
X203367380Y-58094476D01*
X204367380Y-57761142D02*
X203367380Y-57761142D01*
X203748333Y-57761142D02*
X203700714Y-57665904D01*
X203700714Y-57475428D01*
X203748333Y-57380190D01*
X203795952Y-57332571D01*
X203891190Y-57284952D01*
X204176904Y-57284952D01*
X204272142Y-57332571D01*
X204319761Y-57380190D01*
X204367380Y-57475428D01*
X204367380Y-57665904D01*
X204319761Y-57761142D01*
X204367380Y-56856380D02*
X203367380Y-56856380D01*
X203748333Y-56856380D02*
X203700714Y-56761142D01*
X203700714Y-56570666D01*
X203748333Y-56475428D01*
X203795952Y-56427809D01*
X203891190Y-56380190D01*
X204176904Y-56380190D01*
X204272142Y-56427809D01*
X204319761Y-56475428D01*
X204367380Y-56570666D01*
X204367380Y-56761142D01*
X204319761Y-56856380D01*
X204367380Y-55427809D02*
X204367380Y-55999238D01*
X204367380Y-55713523D02*
X203367380Y-55713523D01*
X203510238Y-55808761D01*
X203605476Y-55904000D01*
X203653095Y-55999238D01*
%TO.C,Rcomp1*%
X196588333Y-81906380D02*
X196255000Y-81430190D01*
X196016904Y-81906380D02*
X196016904Y-80906380D01*
X196397857Y-80906380D01*
X196493095Y-80954000D01*
X196540714Y-81001619D01*
X196588333Y-81096857D01*
X196588333Y-81239714D01*
X196540714Y-81334952D01*
X196493095Y-81382571D01*
X196397857Y-81430190D01*
X196016904Y-81430190D01*
X197445476Y-81858761D02*
X197350238Y-81906380D01*
X197159761Y-81906380D01*
X197064523Y-81858761D01*
X197016904Y-81811142D01*
X196969285Y-81715904D01*
X196969285Y-81430190D01*
X197016904Y-81334952D01*
X197064523Y-81287333D01*
X197159761Y-81239714D01*
X197350238Y-81239714D01*
X197445476Y-81287333D01*
X198016904Y-81906380D02*
X197921666Y-81858761D01*
X197874047Y-81811142D01*
X197826428Y-81715904D01*
X197826428Y-81430190D01*
X197874047Y-81334952D01*
X197921666Y-81287333D01*
X198016904Y-81239714D01*
X198159761Y-81239714D01*
X198255000Y-81287333D01*
X198302619Y-81334952D01*
X198350238Y-81430190D01*
X198350238Y-81715904D01*
X198302619Y-81811142D01*
X198255000Y-81858761D01*
X198159761Y-81906380D01*
X198016904Y-81906380D01*
X198778809Y-81906380D02*
X198778809Y-81239714D01*
X198778809Y-81334952D02*
X198826428Y-81287333D01*
X198921666Y-81239714D01*
X199064523Y-81239714D01*
X199159761Y-81287333D01*
X199207380Y-81382571D01*
X199207380Y-81906380D01*
X199207380Y-81382571D02*
X199255000Y-81287333D01*
X199350238Y-81239714D01*
X199493095Y-81239714D01*
X199588333Y-81287333D01*
X199635952Y-81382571D01*
X199635952Y-81906380D01*
X200112142Y-81239714D02*
X200112142Y-82239714D01*
X200112142Y-81287333D02*
X200207380Y-81239714D01*
X200397857Y-81239714D01*
X200493095Y-81287333D01*
X200540714Y-81334952D01*
X200588333Y-81430190D01*
X200588333Y-81715904D01*
X200540714Y-81811142D01*
X200493095Y-81858761D01*
X200397857Y-81906380D01*
X200207380Y-81906380D01*
X200112142Y-81858761D01*
X201540714Y-81906380D02*
X200969285Y-81906380D01*
X201255000Y-81906380D02*
X201255000Y-80906380D01*
X201159761Y-81049238D01*
X201064523Y-81144476D01*
X200969285Y-81192095D01*
%TO.C,Q1*%
X180527619Y-60409238D02*
X180480000Y-60504476D01*
X180384761Y-60599714D01*
X180241904Y-60742571D01*
X180194285Y-60837809D01*
X180194285Y-60933047D01*
X180432380Y-60885428D02*
X180384761Y-60980666D01*
X180289523Y-61075904D01*
X180099047Y-61123523D01*
X179765714Y-61123523D01*
X179575238Y-61075904D01*
X179480000Y-60980666D01*
X179432380Y-60885428D01*
X179432380Y-60694952D01*
X179480000Y-60599714D01*
X179575238Y-60504476D01*
X179765714Y-60456857D01*
X180099047Y-60456857D01*
X180289523Y-60504476D01*
X180384761Y-60599714D01*
X180432380Y-60694952D01*
X180432380Y-60885428D01*
X180432380Y-59504476D02*
X180432380Y-60075904D01*
X180432380Y-59790190D02*
X179432380Y-59790190D01*
X179575238Y-59885428D01*
X179670476Y-59980666D01*
X179718095Y-60075904D01*
%TO.C,L1*%
D15*
X116330333Y-62971333D02*
X116330333Y-63638000D01*
X114930333Y-63638000D01*
X116330333Y-61771333D02*
X116330333Y-62571333D01*
X116330333Y-62171333D02*
X114930333Y-62171333D01*
X115130333Y-62304666D01*
X115263666Y-62438000D01*
X115330333Y-62571333D01*
%TO.C,J3*%
X237823301Y-64233084D02*
X239253014Y-64233084D01*
X239538957Y-64328398D01*
X239729585Y-64519026D01*
X239824899Y-64804969D01*
X239824899Y-64995597D01*
X237823301Y-63470570D02*
X237823301Y-62231486D01*
X238585815Y-62898685D01*
X238585815Y-62612743D01*
X238681129Y-62422114D01*
X238776443Y-62326800D01*
X238967072Y-62231486D01*
X239443643Y-62231486D01*
X239634271Y-62326800D01*
X239729585Y-62422114D01*
X239824899Y-62612743D01*
X239824899Y-63184628D01*
X239729585Y-63375256D01*
X239634271Y-63470570D01*
%TO.C,J1*%
X129619301Y-86077084D02*
X131049014Y-86077084D01*
X131334957Y-86172398D01*
X131525585Y-86363026D01*
X131620899Y-86648969D01*
X131620899Y-86839597D01*
X131620899Y-84075486D02*
X131620899Y-85219256D01*
X131620899Y-84647371D02*
X129619301Y-84647371D01*
X129905244Y-84837999D01*
X130095872Y-85028628D01*
X130191186Y-85219256D01*
%TO.C,Dturnoff1*%
D14*
X162346095Y-53840380D02*
X162346095Y-52840380D01*
X162584190Y-52840380D01*
X162727047Y-52888000D01*
X162822285Y-52983238D01*
X162869904Y-53078476D01*
X162917523Y-53268952D01*
X162917523Y-53411809D01*
X162869904Y-53602285D01*
X162822285Y-53697523D01*
X162727047Y-53792761D01*
X162584190Y-53840380D01*
X162346095Y-53840380D01*
X163203238Y-53173714D02*
X163584190Y-53173714D01*
X163346095Y-52840380D02*
X163346095Y-53697523D01*
X163393714Y-53792761D01*
X163488952Y-53840380D01*
X163584190Y-53840380D01*
X164346095Y-53173714D02*
X164346095Y-53840380D01*
X163917523Y-53173714D02*
X163917523Y-53697523D01*
X163965142Y-53792761D01*
X164060380Y-53840380D01*
X164203238Y-53840380D01*
X164298476Y-53792761D01*
X164346095Y-53745142D01*
X164822285Y-53840380D02*
X164822285Y-53173714D01*
X164822285Y-53364190D02*
X164869904Y-53268952D01*
X164917523Y-53221333D01*
X165012761Y-53173714D01*
X165108000Y-53173714D01*
X165441333Y-53173714D02*
X165441333Y-53840380D01*
X165441333Y-53268952D02*
X165488952Y-53221333D01*
X165584190Y-53173714D01*
X165727047Y-53173714D01*
X165822285Y-53221333D01*
X165869904Y-53316571D01*
X165869904Y-53840380D01*
X166488952Y-53840380D02*
X166393714Y-53792761D01*
X166346095Y-53745142D01*
X166298476Y-53649904D01*
X166298476Y-53364190D01*
X166346095Y-53268952D01*
X166393714Y-53221333D01*
X166488952Y-53173714D01*
X166631809Y-53173714D01*
X166727047Y-53221333D01*
X166774666Y-53268952D01*
X166822285Y-53364190D01*
X166822285Y-53649904D01*
X166774666Y-53745142D01*
X166727047Y-53792761D01*
X166631809Y-53840380D01*
X166488952Y-53840380D01*
X167108000Y-53173714D02*
X167488952Y-53173714D01*
X167250857Y-53840380D02*
X167250857Y-52983238D01*
X167298476Y-52888000D01*
X167393714Y-52840380D01*
X167488952Y-52840380D01*
X167679428Y-53173714D02*
X168060380Y-53173714D01*
X167822285Y-53840380D02*
X167822285Y-52983238D01*
X167869904Y-52888000D01*
X167965142Y-52840380D01*
X168060380Y-52840380D01*
X168917523Y-53840380D02*
X168346095Y-53840380D01*
X168631809Y-53840380D02*
X168631809Y-52840380D01*
X168536571Y-52983238D01*
X168441333Y-53078476D01*
X168346095Y-53126095D01*
%TO.C,Dstart1*%
X142049809Y-35044380D02*
X142049809Y-34044380D01*
X142287904Y-34044380D01*
X142430761Y-34092000D01*
X142526000Y-34187238D01*
X142573619Y-34282476D01*
X142621238Y-34472952D01*
X142621238Y-34615809D01*
X142573619Y-34806285D01*
X142526000Y-34901523D01*
X142430761Y-34996761D01*
X142287904Y-35044380D01*
X142049809Y-35044380D01*
X143002190Y-34996761D02*
X143097428Y-35044380D01*
X143287904Y-35044380D01*
X143383142Y-34996761D01*
X143430761Y-34901523D01*
X143430761Y-34853904D01*
X143383142Y-34758666D01*
X143287904Y-34711047D01*
X143145047Y-34711047D01*
X143049809Y-34663428D01*
X143002190Y-34568190D01*
X143002190Y-34520571D01*
X143049809Y-34425333D01*
X143145047Y-34377714D01*
X143287904Y-34377714D01*
X143383142Y-34425333D01*
X143716476Y-34377714D02*
X144097428Y-34377714D01*
X143859333Y-34044380D02*
X143859333Y-34901523D01*
X143906952Y-34996761D01*
X144002190Y-35044380D01*
X144097428Y-35044380D01*
X144859333Y-35044380D02*
X144859333Y-34520571D01*
X144811714Y-34425333D01*
X144716476Y-34377714D01*
X144526000Y-34377714D01*
X144430761Y-34425333D01*
X144859333Y-34996761D02*
X144764095Y-35044380D01*
X144526000Y-35044380D01*
X144430761Y-34996761D01*
X144383142Y-34901523D01*
X144383142Y-34806285D01*
X144430761Y-34711047D01*
X144526000Y-34663428D01*
X144764095Y-34663428D01*
X144859333Y-34615809D01*
X145335523Y-35044380D02*
X145335523Y-34377714D01*
X145335523Y-34568190D02*
X145383142Y-34472952D01*
X145430761Y-34425333D01*
X145526000Y-34377714D01*
X145621238Y-34377714D01*
X145811714Y-34377714D02*
X146192666Y-34377714D01*
X145954571Y-34044380D02*
X145954571Y-34901523D01*
X146002190Y-34996761D01*
X146097428Y-35044380D01*
X146192666Y-35044380D01*
X147049809Y-35044380D02*
X146478380Y-35044380D01*
X146764095Y-35044380D02*
X146764095Y-34044380D01*
X146668857Y-34187238D01*
X146573619Y-34282476D01*
X146478380Y-34330095D01*
%TO.C,Disense1*%
X148622380Y-76374238D02*
X147622380Y-76374238D01*
X147622380Y-76136142D01*
X147670000Y-75993285D01*
X147765238Y-75898047D01*
X147860476Y-75850428D01*
X148050952Y-75802809D01*
X148193809Y-75802809D01*
X148384285Y-75850428D01*
X148479523Y-75898047D01*
X148574761Y-75993285D01*
X148622380Y-76136142D01*
X148622380Y-76374238D01*
X148622380Y-75374238D02*
X147955714Y-75374238D01*
X147622380Y-75374238D02*
X147670000Y-75421857D01*
X147717619Y-75374238D01*
X147670000Y-75326619D01*
X147622380Y-75374238D01*
X147717619Y-75374238D01*
X148574761Y-74945666D02*
X148622380Y-74850428D01*
X148622380Y-74659952D01*
X148574761Y-74564714D01*
X148479523Y-74517095D01*
X148431904Y-74517095D01*
X148336666Y-74564714D01*
X148289047Y-74659952D01*
X148289047Y-74802809D01*
X148241428Y-74898047D01*
X148146190Y-74945666D01*
X148098571Y-74945666D01*
X148003333Y-74898047D01*
X147955714Y-74802809D01*
X147955714Y-74659952D01*
X148003333Y-74564714D01*
X148574761Y-73707571D02*
X148622380Y-73802809D01*
X148622380Y-73993285D01*
X148574761Y-74088523D01*
X148479523Y-74136142D01*
X148098571Y-74136142D01*
X148003333Y-74088523D01*
X147955714Y-73993285D01*
X147955714Y-73802809D01*
X148003333Y-73707571D01*
X148098571Y-73659952D01*
X148193809Y-73659952D01*
X148289047Y-74136142D01*
X147955714Y-73231380D02*
X148622380Y-73231380D01*
X148050952Y-73231380D02*
X148003333Y-73183761D01*
X147955714Y-73088523D01*
X147955714Y-72945666D01*
X148003333Y-72850428D01*
X148098571Y-72802809D01*
X148622380Y-72802809D01*
X148574761Y-72374238D02*
X148622380Y-72279000D01*
X148622380Y-72088523D01*
X148574761Y-71993285D01*
X148479523Y-71945666D01*
X148431904Y-71945666D01*
X148336666Y-71993285D01*
X148289047Y-72088523D01*
X148289047Y-72231380D01*
X148241428Y-72326619D01*
X148146190Y-72374238D01*
X148098571Y-72374238D01*
X148003333Y-72326619D01*
X147955714Y-72231380D01*
X147955714Y-72088523D01*
X148003333Y-71993285D01*
X148574761Y-71136142D02*
X148622380Y-71231380D01*
X148622380Y-71421857D01*
X148574761Y-71517095D01*
X148479523Y-71564714D01*
X148098571Y-71564714D01*
X148003333Y-71517095D01*
X147955714Y-71421857D01*
X147955714Y-71231380D01*
X148003333Y-71136142D01*
X148098571Y-71088523D01*
X148193809Y-71088523D01*
X148289047Y-71564714D01*
X148622380Y-70136142D02*
X148622380Y-70707571D01*
X148622380Y-70421857D02*
X147622380Y-70421857D01*
X147765238Y-70517095D01*
X147860476Y-70612333D01*
X147908095Y-70707571D01*
X148302380Y-69730904D02*
X147302380Y-69730904D01*
X148302380Y-69159476D02*
X147730952Y-69588047D01*
X147302380Y-69159476D02*
X147873809Y-69730904D01*
%TO.C,Cvsense1*%
X170482142Y-80390666D02*
X170529761Y-80438285D01*
X170577380Y-80581142D01*
X170577380Y-80676380D01*
X170529761Y-80819238D01*
X170434523Y-80914476D01*
X170339285Y-80962095D01*
X170148809Y-81009714D01*
X170005952Y-81009714D01*
X169815476Y-80962095D01*
X169720238Y-80914476D01*
X169625000Y-80819238D01*
X169577380Y-80676380D01*
X169577380Y-80581142D01*
X169625000Y-80438285D01*
X169672619Y-80390666D01*
X169910714Y-80057333D02*
X170577380Y-79819238D01*
X169910714Y-79581142D01*
X170529761Y-79247809D02*
X170577380Y-79152571D01*
X170577380Y-78962095D01*
X170529761Y-78866857D01*
X170434523Y-78819238D01*
X170386904Y-78819238D01*
X170291666Y-78866857D01*
X170244047Y-78962095D01*
X170244047Y-79104952D01*
X170196428Y-79200190D01*
X170101190Y-79247809D01*
X170053571Y-79247809D01*
X169958333Y-79200190D01*
X169910714Y-79104952D01*
X169910714Y-78962095D01*
X169958333Y-78866857D01*
X170529761Y-78009714D02*
X170577380Y-78104952D01*
X170577380Y-78295428D01*
X170529761Y-78390666D01*
X170434523Y-78438285D01*
X170053571Y-78438285D01*
X169958333Y-78390666D01*
X169910714Y-78295428D01*
X169910714Y-78104952D01*
X169958333Y-78009714D01*
X170053571Y-77962095D01*
X170148809Y-77962095D01*
X170244047Y-78438285D01*
X169910714Y-77533523D02*
X170577380Y-77533523D01*
X170005952Y-77533523D02*
X169958333Y-77485904D01*
X169910714Y-77390666D01*
X169910714Y-77247809D01*
X169958333Y-77152571D01*
X170053571Y-77104952D01*
X170577380Y-77104952D01*
X170529761Y-76676380D02*
X170577380Y-76581142D01*
X170577380Y-76390666D01*
X170529761Y-76295428D01*
X170434523Y-76247809D01*
X170386904Y-76247809D01*
X170291666Y-76295428D01*
X170244047Y-76390666D01*
X170244047Y-76533523D01*
X170196428Y-76628761D01*
X170101190Y-76676380D01*
X170053571Y-76676380D01*
X169958333Y-76628761D01*
X169910714Y-76533523D01*
X169910714Y-76390666D01*
X169958333Y-76295428D01*
X170529761Y-75438285D02*
X170577380Y-75533523D01*
X170577380Y-75724000D01*
X170529761Y-75819238D01*
X170434523Y-75866857D01*
X170053571Y-75866857D01*
X169958333Y-75819238D01*
X169910714Y-75724000D01*
X169910714Y-75533523D01*
X169958333Y-75438285D01*
X170053571Y-75390666D01*
X170148809Y-75390666D01*
X170244047Y-75866857D01*
X170577380Y-74438285D02*
X170577380Y-75009714D01*
X170577380Y-74724000D02*
X169577380Y-74724000D01*
X169720238Y-74819238D01*
X169815476Y-74914476D01*
X169863095Y-75009714D01*
%TO.C,Cvccx1*%
X181277142Y-79533523D02*
X181324761Y-79581142D01*
X181372380Y-79724000D01*
X181372380Y-79819238D01*
X181324761Y-79962095D01*
X181229523Y-80057333D01*
X181134285Y-80104952D01*
X180943809Y-80152571D01*
X180800952Y-80152571D01*
X180610476Y-80104952D01*
X180515238Y-80057333D01*
X180420000Y-79962095D01*
X180372380Y-79819238D01*
X180372380Y-79724000D01*
X180420000Y-79581142D01*
X180467619Y-79533523D01*
X180705714Y-79200190D02*
X181372380Y-78962095D01*
X180705714Y-78724000D01*
X181324761Y-77914476D02*
X181372380Y-78009714D01*
X181372380Y-78200190D01*
X181324761Y-78295428D01*
X181277142Y-78343047D01*
X181181904Y-78390666D01*
X180896190Y-78390666D01*
X180800952Y-78343047D01*
X180753333Y-78295428D01*
X180705714Y-78200190D01*
X180705714Y-78009714D01*
X180753333Y-77914476D01*
X181324761Y-77057333D02*
X181372380Y-77152571D01*
X181372380Y-77343047D01*
X181324761Y-77438285D01*
X181277142Y-77485904D01*
X181181904Y-77533523D01*
X180896190Y-77533523D01*
X180800952Y-77485904D01*
X180753333Y-77438285D01*
X180705714Y-77343047D01*
X180705714Y-77152571D01*
X180753333Y-77057333D01*
X181372380Y-76724000D02*
X180705714Y-76200190D01*
X180705714Y-76724000D02*
X181372380Y-76200190D01*
X181372380Y-75295428D02*
X181372380Y-75866857D01*
X181372380Y-75581142D02*
X180372380Y-75581142D01*
X180515238Y-75676380D01*
X180610476Y-75771619D01*
X180658095Y-75866857D01*
%TO.C,Cvcc1*%
X175562142Y-79128761D02*
X175609761Y-79176380D01*
X175657380Y-79319238D01*
X175657380Y-79414476D01*
X175609761Y-79557333D01*
X175514523Y-79652571D01*
X175419285Y-79700190D01*
X175228809Y-79747809D01*
X175085952Y-79747809D01*
X174895476Y-79700190D01*
X174800238Y-79652571D01*
X174705000Y-79557333D01*
X174657380Y-79414476D01*
X174657380Y-79319238D01*
X174705000Y-79176380D01*
X174752619Y-79128761D01*
X174990714Y-78795428D02*
X175657380Y-78557333D01*
X174990714Y-78319238D01*
X175609761Y-77509714D02*
X175657380Y-77604952D01*
X175657380Y-77795428D01*
X175609761Y-77890666D01*
X175562142Y-77938285D01*
X175466904Y-77985904D01*
X175181190Y-77985904D01*
X175085952Y-77938285D01*
X175038333Y-77890666D01*
X174990714Y-77795428D01*
X174990714Y-77604952D01*
X175038333Y-77509714D01*
X175609761Y-76652571D02*
X175657380Y-76747809D01*
X175657380Y-76938285D01*
X175609761Y-77033523D01*
X175562142Y-77081142D01*
X175466904Y-77128761D01*
X175181190Y-77128761D01*
X175085952Y-77081142D01*
X175038333Y-77033523D01*
X174990714Y-76938285D01*
X174990714Y-76747809D01*
X175038333Y-76652571D01*
X175657380Y-75700190D02*
X175657380Y-76271619D01*
X175657380Y-75985904D02*
X174657380Y-75985904D01*
X174800238Y-76081142D01*
X174895476Y-76176380D01*
X174943095Y-76271619D01*
%TO.C,Coutx1*%
X218128095Y-30131142D02*
X218080476Y-30178761D01*
X217937619Y-30226380D01*
X217842380Y-30226380D01*
X217699523Y-30178761D01*
X217604285Y-30083523D01*
X217556666Y-29988285D01*
X217509047Y-29797809D01*
X217509047Y-29654952D01*
X217556666Y-29464476D01*
X217604285Y-29369238D01*
X217699523Y-29274000D01*
X217842380Y-29226380D01*
X217937619Y-29226380D01*
X218080476Y-29274000D01*
X218128095Y-29321619D01*
X218699523Y-30226380D02*
X218604285Y-30178761D01*
X218556666Y-30131142D01*
X218509047Y-30035904D01*
X218509047Y-29750190D01*
X218556666Y-29654952D01*
X218604285Y-29607333D01*
X218699523Y-29559714D01*
X218842380Y-29559714D01*
X218937619Y-29607333D01*
X218985238Y-29654952D01*
X219032857Y-29750190D01*
X219032857Y-30035904D01*
X218985238Y-30131142D01*
X218937619Y-30178761D01*
X218842380Y-30226380D01*
X218699523Y-30226380D01*
X219890000Y-29559714D02*
X219890000Y-30226380D01*
X219461428Y-29559714D02*
X219461428Y-30083523D01*
X219509047Y-30178761D01*
X219604285Y-30226380D01*
X219747142Y-30226380D01*
X219842380Y-30178761D01*
X219890000Y-30131142D01*
X220223333Y-29559714D02*
X220604285Y-29559714D01*
X220366190Y-29226380D02*
X220366190Y-30083523D01*
X220413809Y-30178761D01*
X220509047Y-30226380D01*
X220604285Y-30226380D01*
X220842380Y-30226380D02*
X221366190Y-29559714D01*
X220842380Y-29559714D02*
X221366190Y-30226380D01*
X222270952Y-30226380D02*
X221699523Y-30226380D01*
X221985238Y-30226380D02*
X221985238Y-29226380D01*
X221890000Y-29369238D01*
X221794761Y-29464476D01*
X221699523Y-29512095D01*
%TO.C,Cisense1*%
X142542142Y-73897809D02*
X142589761Y-73945428D01*
X142637380Y-74088285D01*
X142637380Y-74183523D01*
X142589761Y-74326380D01*
X142494523Y-74421619D01*
X142399285Y-74469238D01*
X142208809Y-74516857D01*
X142065952Y-74516857D01*
X141875476Y-74469238D01*
X141780238Y-74421619D01*
X141685000Y-74326380D01*
X141637380Y-74183523D01*
X141637380Y-74088285D01*
X141685000Y-73945428D01*
X141732619Y-73897809D01*
X142637380Y-73469238D02*
X141970714Y-73469238D01*
X141637380Y-73469238D02*
X141685000Y-73516857D01*
X141732619Y-73469238D01*
X141685000Y-73421619D01*
X141637380Y-73469238D01*
X141732619Y-73469238D01*
X142589761Y-73040666D02*
X142637380Y-72945428D01*
X142637380Y-72754952D01*
X142589761Y-72659714D01*
X142494523Y-72612095D01*
X142446904Y-72612095D01*
X142351666Y-72659714D01*
X142304047Y-72754952D01*
X142304047Y-72897809D01*
X142256428Y-72993047D01*
X142161190Y-73040666D01*
X142113571Y-73040666D01*
X142018333Y-72993047D01*
X141970714Y-72897809D01*
X141970714Y-72754952D01*
X142018333Y-72659714D01*
X142589761Y-71802571D02*
X142637380Y-71897809D01*
X142637380Y-72088285D01*
X142589761Y-72183523D01*
X142494523Y-72231142D01*
X142113571Y-72231142D01*
X142018333Y-72183523D01*
X141970714Y-72088285D01*
X141970714Y-71897809D01*
X142018333Y-71802571D01*
X142113571Y-71754952D01*
X142208809Y-71754952D01*
X142304047Y-72231142D01*
X141970714Y-71326380D02*
X142637380Y-71326380D01*
X142065952Y-71326380D02*
X142018333Y-71278761D01*
X141970714Y-71183523D01*
X141970714Y-71040666D01*
X142018333Y-70945428D01*
X142113571Y-70897809D01*
X142637380Y-70897809D01*
X142589761Y-70469238D02*
X142637380Y-70374000D01*
X142637380Y-70183523D01*
X142589761Y-70088285D01*
X142494523Y-70040666D01*
X142446904Y-70040666D01*
X142351666Y-70088285D01*
X142304047Y-70183523D01*
X142304047Y-70326380D01*
X142256428Y-70421619D01*
X142161190Y-70469238D01*
X142113571Y-70469238D01*
X142018333Y-70421619D01*
X141970714Y-70326380D01*
X141970714Y-70183523D01*
X142018333Y-70088285D01*
X142589761Y-69231142D02*
X142637380Y-69326380D01*
X142637380Y-69516857D01*
X142589761Y-69612095D01*
X142494523Y-69659714D01*
X142113571Y-69659714D01*
X142018333Y-69612095D01*
X141970714Y-69516857D01*
X141970714Y-69326380D01*
X142018333Y-69231142D01*
X142113571Y-69183523D01*
X142208809Y-69183523D01*
X142304047Y-69659714D01*
X142637380Y-68231142D02*
X142637380Y-68802571D01*
X142637380Y-68516857D02*
X141637380Y-68516857D01*
X141780238Y-68612095D01*
X141875476Y-68707333D01*
X141923095Y-68802571D01*
%TO.C,Cin1*%
X95028142Y-46270142D02*
X95075761Y-46317761D01*
X95123380Y-46460619D01*
X95123380Y-46555857D01*
X95075761Y-46698714D01*
X94980523Y-46793952D01*
X94885285Y-46841571D01*
X94694809Y-46889190D01*
X94551952Y-46889190D01*
X94361476Y-46841571D01*
X94266238Y-46793952D01*
X94171000Y-46698714D01*
X94123380Y-46555857D01*
X94123380Y-46460619D01*
X94171000Y-46317761D01*
X94218619Y-46270142D01*
X95123380Y-45841571D02*
X94456714Y-45841571D01*
X94123380Y-45841571D02*
X94171000Y-45889190D01*
X94218619Y-45841571D01*
X94171000Y-45793952D01*
X94123380Y-45841571D01*
X94218619Y-45841571D01*
X94456714Y-45365380D02*
X95123380Y-45365380D01*
X94551952Y-45365380D02*
X94504333Y-45317761D01*
X94456714Y-45222523D01*
X94456714Y-45079666D01*
X94504333Y-44984428D01*
X94599571Y-44936809D01*
X95123380Y-44936809D01*
X95123380Y-43936809D02*
X95123380Y-44508238D01*
X95123380Y-44222523D02*
X94123380Y-44222523D01*
X94266238Y-44317761D01*
X94361476Y-44413000D01*
X94409095Y-44508238D01*
%TO.C,Cicomp1*%
X188095238Y-88931142D02*
X188047619Y-88978761D01*
X187904761Y-89026380D01*
X187809523Y-89026380D01*
X187666666Y-88978761D01*
X187571428Y-88883523D01*
X187523809Y-88788285D01*
X187476190Y-88597809D01*
X187476190Y-88454952D01*
X187523809Y-88264476D01*
X187571428Y-88169238D01*
X187666666Y-88074000D01*
X187809523Y-88026380D01*
X187904761Y-88026380D01*
X188047619Y-88074000D01*
X188095238Y-88121619D01*
X188523809Y-89026380D02*
X188523809Y-88359714D01*
X188523809Y-88026380D02*
X188476190Y-88074000D01*
X188523809Y-88121619D01*
X188571428Y-88074000D01*
X188523809Y-88026380D01*
X188523809Y-88121619D01*
X189428571Y-88978761D02*
X189333333Y-89026380D01*
X189142857Y-89026380D01*
X189047619Y-88978761D01*
X189000000Y-88931142D01*
X188952380Y-88835904D01*
X188952380Y-88550190D01*
X189000000Y-88454952D01*
X189047619Y-88407333D01*
X189142857Y-88359714D01*
X189333333Y-88359714D01*
X189428571Y-88407333D01*
X190000000Y-89026380D02*
X189904761Y-88978761D01*
X189857142Y-88931142D01*
X189809523Y-88835904D01*
X189809523Y-88550190D01*
X189857142Y-88454952D01*
X189904761Y-88407333D01*
X190000000Y-88359714D01*
X190142857Y-88359714D01*
X190238095Y-88407333D01*
X190285714Y-88454952D01*
X190333333Y-88550190D01*
X190333333Y-88835904D01*
X190285714Y-88931142D01*
X190238095Y-88978761D01*
X190142857Y-89026380D01*
X190000000Y-89026380D01*
X190761904Y-89026380D02*
X190761904Y-88359714D01*
X190761904Y-88454952D02*
X190809523Y-88407333D01*
X190904761Y-88359714D01*
X191047619Y-88359714D01*
X191142857Y-88407333D01*
X191190476Y-88502571D01*
X191190476Y-89026380D01*
X191190476Y-88502571D02*
X191238095Y-88407333D01*
X191333333Y-88359714D01*
X191476190Y-88359714D01*
X191571428Y-88407333D01*
X191619047Y-88502571D01*
X191619047Y-89026380D01*
X192095238Y-88359714D02*
X192095238Y-89359714D01*
X192095238Y-88407333D02*
X192190476Y-88359714D01*
X192380952Y-88359714D01*
X192476190Y-88407333D01*
X192523809Y-88454952D01*
X192571428Y-88550190D01*
X192571428Y-88835904D01*
X192523809Y-88931142D01*
X192476190Y-88978761D01*
X192380952Y-89026380D01*
X192190476Y-89026380D01*
X192095238Y-88978761D01*
X193523809Y-89026380D02*
X192952380Y-89026380D01*
X193238095Y-89026380D02*
X193238095Y-88026380D01*
X193142857Y-88169238D01*
X193047619Y-88264476D01*
X192952380Y-88312095D01*
%TO.C,Ccomp2*%
X164767142Y-79890666D02*
X164814761Y-79938285D01*
X164862380Y-80081142D01*
X164862380Y-80176380D01*
X164814761Y-80319238D01*
X164719523Y-80414476D01*
X164624285Y-80462095D01*
X164433809Y-80509714D01*
X164290952Y-80509714D01*
X164100476Y-80462095D01*
X164005238Y-80414476D01*
X163910000Y-80319238D01*
X163862380Y-80176380D01*
X163862380Y-80081142D01*
X163910000Y-79938285D01*
X163957619Y-79890666D01*
X164814761Y-79033523D02*
X164862380Y-79128761D01*
X164862380Y-79319238D01*
X164814761Y-79414476D01*
X164767142Y-79462095D01*
X164671904Y-79509714D01*
X164386190Y-79509714D01*
X164290952Y-79462095D01*
X164243333Y-79414476D01*
X164195714Y-79319238D01*
X164195714Y-79128761D01*
X164243333Y-79033523D01*
X164862380Y-78462095D02*
X164814761Y-78557333D01*
X164767142Y-78604952D01*
X164671904Y-78652571D01*
X164386190Y-78652571D01*
X164290952Y-78604952D01*
X164243333Y-78557333D01*
X164195714Y-78462095D01*
X164195714Y-78319238D01*
X164243333Y-78224000D01*
X164290952Y-78176380D01*
X164386190Y-78128761D01*
X164671904Y-78128761D01*
X164767142Y-78176380D01*
X164814761Y-78224000D01*
X164862380Y-78319238D01*
X164862380Y-78462095D01*
X164862380Y-77700190D02*
X164195714Y-77700190D01*
X164290952Y-77700190D02*
X164243333Y-77652571D01*
X164195714Y-77557333D01*
X164195714Y-77414476D01*
X164243333Y-77319238D01*
X164338571Y-77271619D01*
X164862380Y-77271619D01*
X164338571Y-77271619D02*
X164243333Y-77224000D01*
X164195714Y-77128761D01*
X164195714Y-76985904D01*
X164243333Y-76890666D01*
X164338571Y-76843047D01*
X164862380Y-76843047D01*
X164195714Y-76366857D02*
X165195714Y-76366857D01*
X164243333Y-76366857D02*
X164195714Y-76271619D01*
X164195714Y-76081142D01*
X164243333Y-75985904D01*
X164290952Y-75938285D01*
X164386190Y-75890666D01*
X164671904Y-75890666D01*
X164767142Y-75938285D01*
X164814761Y-75985904D01*
X164862380Y-76081142D01*
X164862380Y-76271619D01*
X164814761Y-76366857D01*
X163957619Y-75509714D02*
X163910000Y-75462095D01*
X163862380Y-75366857D01*
X163862380Y-75128761D01*
X163910000Y-75033523D01*
X163957619Y-74985904D01*
X164052857Y-74938285D01*
X164148095Y-74938285D01*
X164290952Y-74985904D01*
X164862380Y-75557333D01*
X164862380Y-74938285D01*
%TO.C,Ccomp1*%
X188333333Y-82581142D02*
X188285714Y-82628761D01*
X188142857Y-82676380D01*
X188047619Y-82676380D01*
X187904761Y-82628761D01*
X187809523Y-82533523D01*
X187761904Y-82438285D01*
X187714285Y-82247809D01*
X187714285Y-82104952D01*
X187761904Y-81914476D01*
X187809523Y-81819238D01*
X187904761Y-81724000D01*
X188047619Y-81676380D01*
X188142857Y-81676380D01*
X188285714Y-81724000D01*
X188333333Y-81771619D01*
X189190476Y-82628761D02*
X189095238Y-82676380D01*
X188904761Y-82676380D01*
X188809523Y-82628761D01*
X188761904Y-82581142D01*
X188714285Y-82485904D01*
X188714285Y-82200190D01*
X188761904Y-82104952D01*
X188809523Y-82057333D01*
X188904761Y-82009714D01*
X189095238Y-82009714D01*
X189190476Y-82057333D01*
X189761904Y-82676380D02*
X189666666Y-82628761D01*
X189619047Y-82581142D01*
X189571428Y-82485904D01*
X189571428Y-82200190D01*
X189619047Y-82104952D01*
X189666666Y-82057333D01*
X189761904Y-82009714D01*
X189904761Y-82009714D01*
X190000000Y-82057333D01*
X190047619Y-82104952D01*
X190095238Y-82200190D01*
X190095238Y-82485904D01*
X190047619Y-82581142D01*
X190000000Y-82628761D01*
X189904761Y-82676380D01*
X189761904Y-82676380D01*
X190523809Y-82676380D02*
X190523809Y-82009714D01*
X190523809Y-82104952D02*
X190571428Y-82057333D01*
X190666666Y-82009714D01*
X190809523Y-82009714D01*
X190904761Y-82057333D01*
X190952380Y-82152571D01*
X190952380Y-82676380D01*
X190952380Y-82152571D02*
X191000000Y-82057333D01*
X191095238Y-82009714D01*
X191238095Y-82009714D01*
X191333333Y-82057333D01*
X191380952Y-82152571D01*
X191380952Y-82676380D01*
X191857142Y-82009714D02*
X191857142Y-83009714D01*
X191857142Y-82057333D02*
X191952380Y-82009714D01*
X192142857Y-82009714D01*
X192238095Y-82057333D01*
X192285714Y-82104952D01*
X192333333Y-82200190D01*
X192333333Y-82485904D01*
X192285714Y-82581142D01*
X192238095Y-82628761D01*
X192142857Y-82676380D01*
X191952380Y-82676380D01*
X191857142Y-82628761D01*
X193285714Y-82676380D02*
X192714285Y-82676380D01*
X193000000Y-82676380D02*
X193000000Y-81676380D01*
X192904761Y-81819238D01*
X192809523Y-81914476D01*
X192714285Y-81962095D01*
%TD*%
M02*
