%TF.GenerationSoftware,KiCad,Pcbnew,(5.1.8)-1*%
%TF.CreationDate,2021-03-15T15:17:27-07:00*%
%TF.ProjectId,KiCAD Simulations,4b694341-4420-4536-996d-756c6174696f,rev?*%
%TF.SameCoordinates,Original*%
%TF.FileFunction,Copper,L2,Bot*%
%TF.FilePolarity,Positive*%
%FSLAX46Y46*%
G04 Gerber Fmt 4.6, Leading zero omitted, Abs format (unit mm)*
G04 Created by KiCad (PCBNEW (5.1.8)-1) date 2021-03-15 15:17:27*
%MOMM*%
%LPD*%
G01*
G04 APERTURE LIST*
%TA.AperFunction,ComponentPad*%
%ADD10O,3.200000X3.200000*%
%TD*%
%TA.AperFunction,ComponentPad*%
%ADD11R,3.200000X3.200000*%
%TD*%
%TA.AperFunction,ComponentPad*%
%ADD12O,2.800000X2.800000*%
%TD*%
%TA.AperFunction,ComponentPad*%
%ADD13R,2.800000X2.800000*%
%TD*%
%TA.AperFunction,ComponentPad*%
%ADD14O,1.700000X1.700000*%
%TD*%
%TA.AperFunction,ComponentPad*%
%ADD15R,1.700000X1.700000*%
%TD*%
%TA.AperFunction,ComponentPad*%
%ADD16C,1.854200*%
%TD*%
%TA.AperFunction,ComponentPad*%
%ADD17C,2.000000*%
%TD*%
%TA.AperFunction,ComponentPad*%
%ADD18O,4.500000X2.500000*%
%TD*%
%TA.AperFunction,ComponentPad*%
%ADD19R,4.500000X2.500000*%
%TD*%
%TA.AperFunction,ComponentPad*%
%ADD20C,1.447800*%
%TD*%
%TA.AperFunction,ComponentPad*%
%ADD21C,3.000000*%
%TD*%
%TA.AperFunction,ComponentPad*%
%ADD22R,3.000000X3.000000*%
%TD*%
%TA.AperFunction,ComponentPad*%
%ADD23O,2.000000X2.000000*%
%TD*%
%TA.AperFunction,ComponentPad*%
%ADD24R,2.000000X2.000000*%
%TD*%
%TA.AperFunction,ComponentPad*%
%ADD25O,1.600000X1.600000*%
%TD*%
%TA.AperFunction,ComponentPad*%
%ADD26R,1.600000X1.600000*%
%TD*%
%TA.AperFunction,ViaPad*%
%ADD27C,0.800000*%
%TD*%
%TA.AperFunction,ViaPad*%
%ADD28C,1.200000*%
%TD*%
%TA.AperFunction,Conductor*%
%ADD29C,1.500000*%
%TD*%
%TA.AperFunction,Conductor*%
%ADD30C,0.500000*%
%TD*%
G04 APERTURE END LIST*
D10*
%TO.P,Dboost1,2*%
%TO.N,Net-(Dboost1-Pad2)*%
X120650000Y-26416000D03*
D11*
%TO.P,Dboost1,1*%
%TO.N,Net-(Coutx1-Pad1)*%
X135890000Y-26416000D03*
%TD*%
D12*
%TO.P,Coutx2,2*%
%TO.N,GND*%
X152675000Y-40894000D03*
D13*
%TO.P,Coutx2,1*%
%TO.N,Net-(Coutx1-Pad1)*%
X193675000Y-40894000D03*
%TD*%
D14*
%TO.P,J2,2*%
%TO.N,Net-(Cvcc1-Pad1)*%
X191008000Y-76200000D03*
D15*
%TO.P,J2,1*%
%TO.N,GND*%
X191008000Y-78740000D03*
%TD*%
D16*
%TO.P,Uac1,4*%
%TO.N,Net-(J1-Pad2)*%
X123171001Y-73533000D03*
%TO.P,Uac1,3*%
%TO.N,Net-(Cin1-Pad1)*%
X115671000Y-73533000D03*
%TO.P,Uac1,2*%
%TO.N,Net-(Cin1-Pad2)*%
X108171000Y-73533000D03*
%TO.P,Uac1,1*%
%TO.N,Net-(Rntc1-Pad1)*%
X98171000Y-73533000D03*
%TD*%
D17*
%TO.P,Rntc1,2*%
%TO.N,Net-(J1-Pad1)*%
X94996000Y-92058000D03*
%TO.P,Rntc1,1*%
%TO.N,Net-(Rntc1-Pad1)*%
X94996000Y-83058000D03*
%TD*%
D18*
%TO.P,Q1,3*%
%TO.N,GND*%
X176530000Y-65764000D03*
%TO.P,Q1,2*%
%TO.N,Net-(Dboost1-Pad2)*%
X176530000Y-60314000D03*
D19*
%TO.P,Q1,1*%
%TO.N,Net-(Dturnoff1-Pad2)*%
X176530000Y-54864000D03*
%TD*%
D20*
%TO.P,L1,2*%
%TO.N,Net-(Dboost1-Pad2)*%
X133096000Y-50673000D03*
%TO.P,L1,1*%
%TO.N,Net-(Cin1-Pad1)*%
X120396000Y-50673000D03*
%TD*%
D21*
%TO.P,J3,2*%
%TO.N,GND*%
X227130000Y-68714000D03*
D22*
%TO.P,J3,1*%
%TO.N,Net-(Coutx1-Pad1)*%
X214630000Y-61214000D03*
%TD*%
D21*
%TO.P,J1,2*%
%TO.N,Net-(J1-Pad2)*%
X118926000Y-90558000D03*
D22*
%TO.P,J1,1*%
%TO.N,Net-(J1-Pad1)*%
X106426000Y-83058000D03*
%TD*%
D23*
%TO.P,Dstart1,2*%
%TO.N,Net-(Cin1-Pad1)*%
X147066000Y-38862000D03*
D24*
%TO.P,Dstart1,1*%
%TO.N,Net-(Coutx1-Pad1)*%
X141986000Y-38862000D03*
%TD*%
D25*
%TO.P,Disense1,2*%
%TO.N,GND*%
X146050000Y-77089000D03*
D26*
%TO.P,Disense1,1*%
%TO.N,Net-(Cisense1-Pad1)*%
X146050000Y-69469000D03*
%TD*%
D12*
%TO.P,Coutx1,2*%
%TO.N,GND*%
X240390000Y-40894000D03*
D13*
%TO.P,Coutx1,1*%
%TO.N,Net-(Coutx1-Pad1)*%
X199390000Y-40894000D03*
%TD*%
D12*
%TO.P,Cin1,2*%
%TO.N,Net-(Cin1-Pad2)*%
X105791000Y-24913000D03*
D13*
%TO.P,Cin1,1*%
%TO.N,Net-(Cin1-Pad1)*%
X105791000Y-65913000D03*
%TD*%
D27*
%TO.N,Net-(Cin1-Pad2)*%
X175895000Y-91059000D03*
%TO.N,Net-(Cvcc1-Pad1)*%
X172085000Y-74549000D03*
X170815000Y-71374000D03*
%TO.N,Net-(Ccomp1-Pad1)*%
X165100000Y-76454000D03*
X188595000Y-82169000D03*
%TO.N,GND*%
X155575000Y-68834000D03*
D28*
X168783000Y-66548000D03*
D27*
X184150000Y-78740000D03*
%TD*%
D29*
%TO.N,Net-(Cin1-Pad2)*%
X172085000Y-91059000D02*
X175895000Y-91059000D01*
X125697000Y-91059000D02*
X172085000Y-91059000D01*
X108171000Y-73533000D02*
X125697000Y-91059000D01*
%TO.N,Net-(Dboost1-Pad2)*%
X166889000Y-50673000D02*
X176530000Y-60314000D01*
X133096000Y-50673000D02*
X166889000Y-50673000D01*
X120650000Y-38227000D02*
X124142500Y-41719500D01*
X120650000Y-26416000D02*
X120650000Y-38227000D01*
X124142500Y-41719500D02*
X123444000Y-41021000D01*
X133096000Y-50673000D02*
X124142500Y-41719500D01*
D30*
%TO.N,Net-(Cisense1-Pad1)*%
X146050000Y-69469000D02*
X146685000Y-69469000D01*
%TO.N,Net-(Cvcc1-Pad1)*%
X170815000Y-73279000D02*
X172085000Y-74549000D01*
X170815000Y-71374000D02*
X170815000Y-73279000D01*
%TO.N,Net-(Ccomp1-Pad1)*%
X165100000Y-76454000D02*
X169545000Y-80899000D01*
X169545000Y-80899000D02*
X186055000Y-80899000D01*
X186055000Y-80899000D02*
X187325000Y-82169000D01*
X187325000Y-82169000D02*
X188595000Y-82169000D01*
%TO.N,GND*%
X146050000Y-77089000D02*
X147955000Y-77089000D01*
X147955000Y-77089000D02*
X151130000Y-73914000D01*
X151130000Y-73914000D02*
X151130000Y-70104000D01*
X152400000Y-68834000D02*
X155575000Y-68834000D01*
X151130000Y-70104000D02*
X152400000Y-68834000D01*
X183134000Y-77724000D02*
X181610000Y-76200000D01*
X181610000Y-70844000D02*
X176530000Y-65764000D01*
X181610000Y-76200000D02*
X181610000Y-70844000D01*
D29*
X166497000Y-68834000D02*
X168783000Y-66548000D01*
X155575000Y-68834000D02*
X166497000Y-68834000D01*
D30*
X184150000Y-78740000D02*
X184023000Y-78613000D01*
X191008000Y-78740000D02*
X184150000Y-78740000D01*
X183134000Y-77724000D02*
X184023000Y-78613000D01*
D29*
%TO.N,Net-(Coutx1-Pad1)*%
X214630000Y-56134000D02*
X199390000Y-40894000D01*
X214630000Y-61214000D02*
X214630000Y-56134000D01*
X193675000Y-40894000D02*
X199390000Y-40894000D01*
X193675000Y-40894000D02*
X193675000Y-41275000D01*
X193675000Y-41275000D02*
X189992000Y-44958000D01*
X148082000Y-44958000D02*
X141986000Y-38862000D01*
X189992000Y-44958000D02*
X148082000Y-44958000D01*
%TD*%
M02*
