%TF.GenerationSoftware,KiCad,Pcbnew,(5.1.8)-1*%
%TF.CreationDate,2021-03-07T20:42:01-08:00*%
%TF.ProjectId,KiCAD Simulations,4b694341-4420-4536-996d-756c6174696f,rev?*%
%TF.SameCoordinates,Original*%
%TF.FileFunction,Copper,L2,Bot*%
%TF.FilePolarity,Positive*%
%FSLAX46Y46*%
G04 Gerber Fmt 4.6, Leading zero omitted, Abs format (unit mm)*
G04 Created by KiCad (PCBNEW (5.1.8)-1) date 2021-03-07 20:42:01*
%MOMM*%
%LPD*%
G01*
G04 APERTURE LIST*
%TA.AperFunction,ComponentPad*%
%ADD10C,2.049999*%
%TD*%
%TA.AperFunction,ComponentPad*%
%ADD11R,2.049999X2.049999*%
%TD*%
%TA.AperFunction,ComponentPad*%
%ADD12O,1.600000X1.600000*%
%TD*%
%TA.AperFunction,ComponentPad*%
%ADD13R,1.600000X1.600000*%
%TD*%
%TA.AperFunction,ComponentPad*%
%ADD14C,2.000000*%
%TD*%
%TA.AperFunction,ComponentPad*%
%ADD15O,2.000000X2.000000*%
%TD*%
%TA.AperFunction,ComponentPad*%
%ADD16R,2.000000X2.000000*%
%TD*%
%TA.AperFunction,ComponentPad*%
%ADD17O,3.200000X3.200000*%
%TD*%
%TA.AperFunction,ComponentPad*%
%ADD18R,3.200000X3.200000*%
%TD*%
%TA.AperFunction,ComponentPad*%
%ADD19O,2.800000X2.800000*%
%TD*%
%TA.AperFunction,ComponentPad*%
%ADD20R,2.800000X2.800000*%
%TD*%
%TA.AperFunction,ComponentPad*%
%ADD21C,3.000000*%
%TD*%
%TA.AperFunction,ComponentPad*%
%ADD22R,3.000000X3.000000*%
%TD*%
%TA.AperFunction,ComponentPad*%
%ADD23O,1.000000X1.000000*%
%TD*%
%TA.AperFunction,ComponentPad*%
%ADD24R,1.000000X1.000000*%
%TD*%
%TA.AperFunction,ComponentPad*%
%ADD25C,1.447800*%
%TD*%
%TA.AperFunction,ComponentPad*%
%ADD26C,1.117600*%
%TD*%
%TA.AperFunction,ComponentPad*%
%ADD27C,2.400000*%
%TD*%
%TA.AperFunction,ComponentPad*%
%ADD28C,4.000000*%
%TD*%
%TA.AperFunction,ComponentPad*%
%ADD29R,4.000000X4.000000*%
%TD*%
%TA.AperFunction,ComponentPad*%
%ADD30O,2.500000X4.500000*%
%TD*%
%TA.AperFunction,ComponentPad*%
%ADD31R,2.500000X4.500000*%
%TD*%
%TA.AperFunction,ComponentPad*%
%ADD32O,2.000000X1.905000*%
%TD*%
%TA.AperFunction,ComponentPad*%
%ADD33R,2.000000X1.905000*%
%TD*%
%TA.AperFunction,ComponentPad*%
%ADD34C,1.600000*%
%TD*%
%TA.AperFunction,ComponentPad*%
%ADD35C,1.854200*%
%TD*%
%TA.AperFunction,ViaPad*%
%ADD36C,0.800000*%
%TD*%
%TA.AperFunction,Conductor*%
%ADD37C,0.500000*%
%TD*%
%TA.AperFunction,Conductor*%
%ADD38C,1.000000*%
%TD*%
%TA.AperFunction,Conductor*%
%ADD39C,0.250000*%
%TD*%
%TA.AperFunction,Conductor*%
%ADD40C,0.254000*%
%TD*%
%TA.AperFunction,Conductor*%
%ADD41C,0.100000*%
%TD*%
G04 APERTURE END LIST*
D10*
%TO.P,TR1,5*%
%TO.N,Net-(QM3-Pad3)*%
X55626000Y-86614000D03*
%TO.P,TR1,*%
%TO.N,*%
X55626000Y-94234000D03*
%TO.P,TR1,6*%
%TO.N,Net-(Cout21-Pad1)*%
X55626000Y-101854000D03*
%TO.P,TR1,7*%
X55626000Y-114554000D03*
%TO.P,TR1,*%
%TO.N,*%
X55626000Y-122174000D03*
%TO.P,TR1,8*%
%TO.N,Net-(QM4-Pad2)*%
X55626000Y-129794000D03*
D11*
%TO.P,TR1,1*%
%TO.N,Net-(Lr1-Pad1)*%
X101346000Y-129794000D03*
D10*
%TO.P,TR1,*%
%TO.N,*%
X101346000Y-122174000D03*
%TO.P,TR1,2*%
%TO.N,Net-(Cisns2-Pad2)*%
X101346000Y-114554000D03*
%TO.P,TR1,3*%
%TO.N,Net-(Rbw1-Pad1)*%
X101346000Y-101854000D03*
%TO.P,TR1,*%
%TO.N,*%
X101346000Y-94234000D03*
%TO.P,TR1,4*%
%TO.N,GND*%
X101346000Y-86614000D03*
%TD*%
D12*
%TO.P,Disense1,2*%
%TO.N,GND*%
X108458000Y-45974000D03*
D13*
%TO.P,Disense1,1*%
%TO.N,Net-(Cisense1-Pad1)*%
X100838000Y-45974000D03*
%TD*%
D14*
%TO.P,Cr1,2*%
%TO.N,Net-(Cisns2-Pad2)*%
X190914000Y-96774000D03*
%TO.P,Cr1,1*%
%TO.N,Net-(Cin2-Pad1)*%
X200914000Y-96774000D03*
%TD*%
D15*
%TO.P,Dstart1,2*%
%TO.N,Net-(Cin1-Pad1)*%
X109982000Y-21844000D03*
D16*
%TO.P,Dstart1,1*%
%TO.N,Net-(Cout1-Pad1)*%
X104902000Y-21844000D03*
%TD*%
D17*
%TO.P,Dboost1,2*%
%TO.N,Net-(Dboost1-Pad2)*%
X127000000Y-33274000D03*
D18*
%TO.P,Dboost1,1*%
%TO.N,Net-(Cout1-Pad1)*%
X111760000Y-33274000D03*
%TD*%
D19*
%TO.P,Coutx1,2*%
%TO.N,GND*%
X167386000Y-19706000D03*
D20*
%TO.P,Coutx1,1*%
%TO.N,Net-(Cout1-Pad1)*%
X167386000Y-60706000D03*
%TD*%
D21*
%TO.P,J6,2*%
%TO.N,GND1*%
X207398000Y-144726000D03*
D22*
%TO.P,J6,1*%
%TO.N,Net-(Cout21-Pad1)*%
X199898000Y-157226000D03*
%TD*%
D23*
%TO.P,J5,2*%
%TO.N,Net-(Cvcc21-Pad1)*%
X54610000Y-148590000D03*
D24*
%TO.P,J5,1*%
%TO.N,GND*%
X54610000Y-147320000D03*
%TD*%
D21*
%TO.P,J4,2*%
%TO.N,Net-(Cin2-Pad1)*%
X192732000Y-52952000D03*
D22*
%TO.P,J4,1*%
%TO.N,GND*%
X205232000Y-60452000D03*
%TD*%
D21*
%TO.P,J3,2*%
%TO.N,GND*%
X192224000Y-22726000D03*
D22*
%TO.P,J3,1*%
%TO.N,Net-(Cout1-Pad1)*%
X204724000Y-30226000D03*
%TD*%
D23*
%TO.P,J2,2*%
%TO.N,Net-(Cvcc1-Pad1)*%
X118110000Y-48006000D03*
D24*
%TO.P,J2,1*%
%TO.N,GND*%
X118110000Y-46736000D03*
%TD*%
D21*
%TO.P,J1,2*%
%TO.N,Net-(J1-Pad2)*%
X72190000Y-30614000D03*
D22*
%TO.P,J1,1*%
%TO.N,Net-(J1-Pad1)*%
X59690000Y-23114000D03*
%TD*%
D25*
%TO.P,L1,2*%
%TO.N,Net-(Dboost1-Pad2)*%
X70866000Y-70104000D03*
%TO.P,L1,1*%
%TO.N,Net-(Cin1-Pad1)*%
X70866000Y-57404000D03*
%TD*%
D14*
%TO.P,Rntc1,2*%
%TO.N,Net-(J1-Pad1)*%
X59580000Y-41148000D03*
%TO.P,Rntc1,1*%
%TO.N,Net-(Rntc1-Pad1)*%
X68580000Y-41148000D03*
%TD*%
%TO.P,Cr2,2*%
%TO.N,GND*%
X201008000Y-80518000D03*
%TO.P,Cr2,1*%
%TO.N,Net-(Cisns2-Pad2)*%
X191008000Y-80518000D03*
%TD*%
D26*
%TO.P,Cisns2,2*%
%TO.N,Net-(Cisns2-Pad2)*%
X148804000Y-73660000D03*
%TO.P,Cisns2,1*%
%TO.N,Net-(Cisns1-Pad1)*%
X143804000Y-73660000D03*
%TD*%
D27*
%TO.P,Cinx1,2*%
%TO.N,GND*%
X160634000Y-109474000D03*
%TO.P,Cinx1,1*%
%TO.N,Net-(Cin2-Pad1)*%
X183134000Y-109474000D03*
%TD*%
D28*
%TO.P,Cin2,2*%
%TO.N,GND*%
X167546000Y-86360000D03*
D29*
%TO.P,Cin2,1*%
%TO.N,Net-(Cin2-Pad1)*%
X177546000Y-86360000D03*
%TD*%
D30*
%TO.P,QM4,3*%
%TO.N,GND1*%
X106956000Y-159512000D03*
%TO.P,QM4,2*%
%TO.N,Net-(QM4-Pad2)*%
X112406000Y-159512000D03*
D31*
%TO.P,QM4,1*%
%TO.N,Net-(QM4-Pad1)*%
X117856000Y-159512000D03*
%TD*%
D30*
%TO.P,QM3,3*%
%TO.N,Net-(QM3-Pad3)*%
X128292000Y-159512000D03*
%TO.P,QM3,2*%
%TO.N,GND1*%
X133742000Y-159512000D03*
D31*
%TO.P,QM3,1*%
%TO.N,Net-(QM3-Pad1)*%
X139192000Y-159512000D03*
%TD*%
D32*
%TO.P,QM2,3*%
%TO.N,GND*%
X208534000Y-80518000D03*
%TO.P,QM2,2*%
%TO.N,/LLC/HS*%
X208534000Y-77978000D03*
D33*
%TO.P,QM2,1*%
%TO.N,Net-(QM2-Pad1)*%
X208534000Y-75438000D03*
%TD*%
D32*
%TO.P,QM1,3*%
%TO.N,/LLC/HS*%
X208534000Y-99314000D03*
%TO.P,QM1,2*%
%TO.N,Net-(Cin2-Pad1)*%
X208534000Y-96774000D03*
D33*
%TO.P,QM1,1*%
%TO.N,Net-(QM1-Pad1)*%
X208534000Y-94234000D03*
%TD*%
D34*
%TO.P,Cvcr1,2*%
%TO.N,Net-(Cvcr1-Pad2)*%
X143844000Y-66802000D03*
%TO.P,Cvcr1,1*%
%TO.N,Net-(Cisns2-Pad2)*%
X148844000Y-66802000D03*
%TD*%
D35*
%TO.P,Uac1,4*%
%TO.N,Net-(J1-Pad2)*%
X93218000Y-20973999D03*
%TO.P,Uac1,3*%
%TO.N,Net-(Cin1-Pad1)*%
X93218000Y-28474000D03*
%TO.P,Uac1,2*%
%TO.N,Net-(Cin1-Pad2)*%
X93218000Y-35974000D03*
%TO.P,Uac1,1*%
%TO.N,Net-(Rntc1-Pad1)*%
X93218000Y-45974000D03*
%TD*%
D30*
%TO.P,Q1,3*%
%TO.N,GND*%
X135868000Y-21082000D03*
%TO.P,Q1,2*%
%TO.N,Net-(Dboost1-Pad2)*%
X130418000Y-21082000D03*
D31*
%TO.P,Q1,1*%
%TO.N,Net-(Dturnoff1-Pad2)*%
X124968000Y-21082000D03*
%TD*%
D36*
%TO.N,Net-(Cout1-Pad1)*%
X140208000Y-29464000D03*
%TO.N,Net-(Cvsense1-Pad1)*%
X138430000Y-60706000D03*
X128270000Y-61722000D03*
%TO.N,Net-(Dturnoff1-Pad2)*%
X137668000Y-26924000D03*
%TO.N,Net-(Dturnoff1-Pad1)*%
X125730000Y-43180000D03*
X132080000Y-36830000D03*
%TO.N,/LLC/BLK*%
X130810000Y-109982000D03*
X130810000Y-87884000D03*
X123698000Y-107442000D03*
%TO.N,GND*%
X126238000Y-80010000D03*
X112575000Y-59743000D03*
X112575000Y-56081000D03*
X111760000Y-94742000D03*
%TO.N,Net-(Cisns1-Pad1)*%
X122936000Y-89916000D03*
X116840000Y-89916000D03*
%TO.N,Net-(Cin2-Pad1)*%
X181356000Y-73914000D03*
%TO.N,/LLC/HS*%
X196342000Y-91948000D03*
%TO.N,Net-(QM2-Pad1)*%
X204978000Y-73660000D03*
X197358000Y-73660000D03*
%TO.N,Net-(QM3-Pad3)*%
X124460000Y-141986000D03*
X125730000Y-140970000D03*
X122936000Y-140970000D03*
X81788000Y-135636000D03*
X78994000Y-135890000D03*
X79502000Y-133858000D03*
X86106000Y-133604000D03*
X86614000Y-135890000D03*
X83820000Y-133604000D03*
X84836000Y-135382000D03*
X79756000Y-137160000D03*
X81788000Y-134112000D03*
X77724000Y-134366000D03*
X89408000Y-136652000D03*
X88900000Y-134366000D03*
X83566000Y-137414000D03*
%TO.N,Net-(QM3-Pad1)*%
X131572000Y-152146000D03*
%TO.N,Net-(Rbw1-Pad1)*%
X133604000Y-105410000D03*
%TO.N,/LLC/LO*%
X198374000Y-69850000D03*
X146558000Y-93980000D03*
X204470000Y-69088000D03*
%TO.N,/LLC/HO*%
X141097000Y-85471000D03*
X195072000Y-88392000D03*
%TO.N,Net-(Cisns2-Pad2)*%
X191008000Y-66802000D03*
X109728000Y-76708000D03*
%TO.N,Net-(U1LLC1-Pad5)*%
X127762000Y-89916000D03*
X127762000Y-108458000D03*
%TO.N,Net-(Cout21-Pad1)*%
X115316000Y-149352000D03*
X141986000Y-137414000D03*
X147066000Y-129540000D03*
%TO.N,Net-(Cvcc21-Pad1)*%
X129540000Y-83058000D03*
X112014000Y-82804000D03*
%TO.N,Net-(Lr1-Pad1)*%
X181864000Y-126492000D03*
X181102000Y-125222000D03*
X182880000Y-125222000D03*
X183388000Y-126492000D03*
X180594000Y-126492000D03*
%TO.N,GND1*%
X132334000Y-143002000D03*
X130810000Y-130302000D03*
X130810000Y-134366000D03*
X133731000Y-151003000D03*
X151892000Y-147066000D03*
X196088000Y-147066000D03*
X173736000Y-147066000D03*
X161036000Y-147066000D03*
X186436000Y-147066000D03*
X203708000Y-147066000D03*
X134239000Y-149733000D03*
X134874000Y-150622000D03*
X156210000Y-146812000D03*
X164084000Y-147066000D03*
X168402000Y-147066000D03*
X171196000Y-146812000D03*
X177292000Y-146558000D03*
X180340000Y-147320000D03*
X183642000Y-147066000D03*
X189230000Y-147066000D03*
X191770000Y-147066000D03*
X198882000Y-146812000D03*
X201930000Y-146812000D03*
%TD*%
D37*
%TO.N,Net-(Cin1-Pad1)*%
X70866000Y-57404000D02*
X70866000Y-53086000D01*
X93218000Y-30734000D02*
X93218000Y-28474000D01*
X70866000Y-53086000D02*
X93218000Y-30734000D01*
%TO.N,Net-(Dboost1-Pad2)*%
X127000000Y-38862000D02*
X127000000Y-33274000D01*
X123952000Y-41910000D02*
X127000000Y-38862000D01*
X99568000Y-41910000D02*
X123952000Y-41910000D01*
X98298000Y-43180000D02*
X99568000Y-41910000D01*
X98298000Y-48514000D02*
X98298000Y-43180000D01*
X76708000Y-70104000D02*
X98298000Y-48514000D01*
X70866000Y-70104000D02*
X76708000Y-70104000D01*
%TO.N,Net-(Cout1-Pad1)*%
X111760000Y-33274000D02*
X111760000Y-31496000D01*
X111760000Y-31496000D02*
X113792000Y-29464000D01*
X113792000Y-29464000D02*
X140208000Y-29464000D01*
X111760000Y-28702000D02*
X104902000Y-21844000D01*
X111760000Y-33274000D02*
X111760000Y-28702000D01*
%TO.N,Net-(Cvsense1-Pad1)*%
X138430000Y-60706000D02*
X134366000Y-60706000D01*
X134366000Y-60706000D02*
X133350000Y-61722000D01*
X133350000Y-61722000D02*
X128270000Y-61722000D01*
%TO.N,Net-(Dturnoff1-Pad2)*%
X137668000Y-26924000D02*
X126238000Y-26924000D01*
X124968000Y-25654000D02*
X124968000Y-21082000D01*
X126238000Y-26924000D02*
X124968000Y-25654000D01*
%TO.N,Net-(Dturnoff1-Pad1)*%
X125730000Y-43180000D02*
X132080000Y-36830000D01*
%TO.N,/LLC/BLK*%
X130810000Y-87884000D02*
X130810000Y-108966000D01*
X130810000Y-108966000D02*
X130810000Y-109982000D01*
X130810000Y-109982000D02*
X126238000Y-109982000D01*
X126238000Y-109982000D02*
X123698000Y-107442000D01*
X123698000Y-107442000D02*
X123698000Y-107442000D01*
%TO.N,GND*%
X167546000Y-86360000D02*
X173642000Y-92456000D01*
X173642000Y-92456000D02*
X185166000Y-92456000D01*
X185166000Y-92456000D02*
X192278000Y-85344000D01*
X196182000Y-85344000D02*
X201008000Y-80518000D01*
X192278000Y-85344000D02*
X196182000Y-85344000D01*
D38*
X126238000Y-80010000D02*
X111252000Y-80010000D01*
X111252000Y-80010000D02*
X108458000Y-82804000D01*
D37*
X112575000Y-59743000D02*
X112575000Y-56081000D01*
D38*
X108458000Y-91440000D02*
X111760000Y-94742000D01*
X105156000Y-86614000D02*
X108458000Y-89916000D01*
X101346000Y-86614000D02*
X105156000Y-86614000D01*
X108458000Y-89916000D02*
X108458000Y-91440000D01*
X108458000Y-82804000D02*
X108458000Y-89916000D01*
D37*
%TO.N,Net-(Cisns1-Pad1)*%
X122936000Y-89916000D02*
X116840000Y-89916000D01*
D39*
X116840000Y-89916000D02*
X116840000Y-89916000D01*
D37*
%TO.N,Net-(Cin2-Pad1)*%
X177546000Y-86360000D02*
X177546000Y-77724000D01*
X177546000Y-77724000D02*
X181356000Y-73914000D01*
X181356000Y-73914000D02*
X181356000Y-73914000D01*
%TO.N,/LLC/HS*%
X208534000Y-99314000D02*
X206756000Y-99314000D01*
X206756000Y-99314000D02*
X204724000Y-101346000D01*
X204724000Y-101346000D02*
X199644000Y-101346000D01*
X199644000Y-101346000D02*
X196342000Y-98044000D01*
X196342000Y-98044000D02*
X196342000Y-91948000D01*
X196342000Y-91948000D02*
X196342000Y-91948000D01*
%TO.N,Net-(QM2-Pad1)*%
X204978000Y-73660000D02*
X197358000Y-73660000D01*
X197358000Y-73660000D02*
X197358000Y-73660000D01*
D38*
%TO.N,Net-(QM3-Pad3)*%
X128292000Y-159512000D02*
X128292000Y-154200000D01*
X128292000Y-154200000D02*
X125984000Y-151892000D01*
X125984000Y-151892000D02*
X114046000Y-151892000D01*
X114046000Y-151892000D02*
X111252000Y-149098000D01*
X111252000Y-149098000D02*
X111252000Y-143764000D01*
X111252000Y-143764000D02*
X113030000Y-141986000D01*
X113030000Y-141986000D02*
X124460000Y-141986000D01*
D37*
X124460000Y-141986000D02*
X124460000Y-141986000D01*
D38*
X111252000Y-143764000D02*
X89916000Y-143764000D01*
X89916000Y-143764000D02*
X83566000Y-137414000D01*
X83566000Y-137414000D02*
X81788000Y-135636000D01*
D37*
%TO.N,Net-(QM3-Pad1)*%
X139192000Y-159512000D02*
X139192000Y-154178000D01*
X139192000Y-154178000D02*
X137160000Y-152146000D01*
X137160000Y-152146000D02*
X131572000Y-152146000D01*
X131572000Y-152146000D02*
X131572000Y-152146000D01*
D38*
%TO.N,Net-(QM4-Pad2)*%
X62230000Y-129794000D02*
X55626000Y-129794000D01*
X68834000Y-136398000D02*
X62230000Y-129794000D01*
X68834000Y-158750000D02*
X68834000Y-136398000D01*
X72546010Y-162462010D02*
X68834000Y-158750000D01*
X109455990Y-162462010D02*
X72546010Y-162462010D01*
X112406000Y-159512000D02*
X109455990Y-162462010D01*
D37*
%TO.N,Net-(Rbw1-Pad1)*%
X133604000Y-105410000D02*
X133604000Y-105410000D01*
D38*
X112776000Y-101854000D02*
X101346000Y-101854000D01*
X114808000Y-111760000D02*
X114808000Y-103886000D01*
X116078000Y-113030000D02*
X114808000Y-111760000D01*
X131826000Y-113030000D02*
X116078000Y-113030000D01*
X133604000Y-111252000D02*
X131826000Y-113030000D01*
X114808000Y-103886000D02*
X112776000Y-101854000D01*
X133604000Y-105410000D02*
X133604000Y-111252000D01*
D37*
%TO.N,/LLC/LO*%
X156299998Y-93980000D02*
X157988000Y-92291998D01*
X157988000Y-92291998D02*
X157988000Y-76708000D01*
X157988000Y-76708000D02*
X164846000Y-69850000D01*
X164846000Y-69850000D02*
X198374000Y-69850000D01*
X198374000Y-69850000D02*
X198374000Y-69850000D01*
X146558000Y-93980000D02*
X156299998Y-93980000D01*
X198374000Y-69850000D02*
X203708000Y-69850000D01*
X203708000Y-69850000D02*
X204470000Y-69088000D01*
X204470000Y-69088000D02*
X204470000Y-69088000D01*
%TO.N,/LLC/HO*%
X141097000Y-85471000D02*
X141097000Y-93091000D01*
X141097000Y-93091000D02*
X143764000Y-95758000D01*
X143764000Y-95758000D02*
X186436000Y-95758000D01*
X186436000Y-95758000D02*
X186690000Y-95758000D01*
X186690000Y-95758000D02*
X194056000Y-88392000D01*
X194056000Y-88392000D02*
X195072000Y-88392000D01*
X195072000Y-88392000D02*
X195072000Y-88392000D01*
%TO.N,Net-(Cisns2-Pad2)*%
X191008000Y-66802000D02*
X148844000Y-66802000D01*
D38*
X145756000Y-76708000D02*
X148804000Y-73660000D01*
X145756000Y-76708000D02*
X109728000Y-76708000D01*
D37*
%TO.N,Net-(U1LLC1-Pad5)*%
X127762000Y-89916000D02*
X127762000Y-108458000D01*
X127762000Y-108458000D02*
X127762000Y-108458000D01*
%TO.N,Net-(Cout21-Pad1)*%
X115316000Y-149352000D02*
X130048000Y-149352000D01*
X130048000Y-149352000D02*
X141986000Y-137414000D01*
X141986000Y-137414000D02*
X141986000Y-137414000D01*
D38*
X111506000Y-114808000D02*
X115316000Y-118618000D01*
X115316000Y-118618000D02*
X136144000Y-118618000D01*
X136144000Y-118618000D02*
X147066000Y-129540000D01*
X147066000Y-129540000D02*
X147066000Y-129540000D01*
X55626000Y-101854000D02*
X55626000Y-114554000D01*
X61976000Y-108204000D02*
X55626000Y-101854000D01*
X111506000Y-114808000D02*
X111506000Y-110236000D01*
X109474000Y-108204000D02*
X61976000Y-108204000D01*
X111506000Y-110236000D02*
X109474000Y-108204000D01*
D37*
%TO.N,Net-(Cvcc21-Pad1)*%
X129286000Y-82804000D02*
X129540000Y-83058000D01*
X112014000Y-82804000D02*
X129286000Y-82804000D01*
D38*
%TO.N,Net-(Lr1-Pad1)*%
X110236000Y-129794000D02*
X115062000Y-124968000D01*
X115062000Y-124968000D02*
X134620000Y-124968000D01*
X134620000Y-124968000D02*
X144526000Y-134874000D01*
X144526000Y-134874000D02*
X148590000Y-134874000D01*
X148590000Y-134874000D02*
X156972000Y-126492000D01*
X156972000Y-126492000D02*
X180594000Y-126492000D01*
D37*
X181864000Y-126492000D02*
X181864000Y-126492000D01*
D38*
X110236000Y-129794000D02*
X101346000Y-129794000D01*
X180594000Y-126492000D02*
X181864000Y-126492000D01*
D37*
%TO.N,GND1*%
X132334000Y-143002000D02*
X132334000Y-136144000D01*
X132334000Y-136144000D02*
X130810000Y-134620000D01*
X130810000Y-134620000D02*
X130810000Y-134366000D01*
X130810000Y-130302000D02*
X130810000Y-130302000D01*
X130810000Y-134366000D02*
X130810000Y-130302000D01*
D38*
X133731000Y-151003000D02*
X133731000Y-150241000D01*
X133731000Y-150241000D02*
X134239000Y-149733000D01*
X136906000Y-147066000D02*
X151892000Y-147066000D01*
X151892000Y-147066000D02*
X151892000Y-147066000D01*
X134239000Y-149733000D02*
X136906000Y-147066000D01*
%TD*%
D40*
%TO.N,GND1*%
X212725000Y-150749000D02*
X132189588Y-150749000D01*
X132017410Y-150677681D01*
X131740044Y-150622510D01*
X136002809Y-146217653D01*
X206085952Y-146217653D01*
X206241962Y-146533214D01*
X206616745Y-146724020D01*
X207021551Y-146838044D01*
X207440824Y-146870902D01*
X207858451Y-146821334D01*
X208258383Y-146691243D01*
X208554038Y-146533214D01*
X208710048Y-146217653D01*
X207398000Y-144905605D01*
X206085952Y-146217653D01*
X136002809Y-146217653D01*
X137404902Y-144768824D01*
X205253098Y-144768824D01*
X205302666Y-145186451D01*
X205432757Y-145586383D01*
X205590786Y-145882038D01*
X205906347Y-146038048D01*
X207218395Y-144726000D01*
X207577605Y-144726000D01*
X208889653Y-146038048D01*
X209205214Y-145882038D01*
X209396020Y-145507255D01*
X209510044Y-145102449D01*
X209542902Y-144683176D01*
X209493334Y-144265549D01*
X209363243Y-143865617D01*
X209205214Y-143569962D01*
X208889653Y-143413952D01*
X207577605Y-144726000D01*
X207218395Y-144726000D01*
X205906347Y-143413952D01*
X205590786Y-143569962D01*
X205399980Y-143944745D01*
X205285956Y-144349551D01*
X205253098Y-144768824D01*
X137404902Y-144768824D01*
X138889880Y-143234347D01*
X206085952Y-143234347D01*
X207398000Y-144546395D01*
X208710048Y-143234347D01*
X208554038Y-142918786D01*
X208179255Y-142727980D01*
X207774449Y-142613956D01*
X207355176Y-142581098D01*
X206937549Y-142630666D01*
X206537617Y-142760757D01*
X206241962Y-142918786D01*
X206085952Y-143234347D01*
X138889880Y-143234347D01*
X139028512Y-143091094D01*
X142038606Y-140081000D01*
X212725000Y-140081000D01*
X212725000Y-150749000D01*
%TA.AperFunction,Conductor*%
D41*
G36*
X212725000Y-150749000D02*
G01*
X132189588Y-150749000D01*
X132017410Y-150677681D01*
X131740044Y-150622510D01*
X136002809Y-146217653D01*
X206085952Y-146217653D01*
X206241962Y-146533214D01*
X206616745Y-146724020D01*
X207021551Y-146838044D01*
X207440824Y-146870902D01*
X207858451Y-146821334D01*
X208258383Y-146691243D01*
X208554038Y-146533214D01*
X208710048Y-146217653D01*
X207398000Y-144905605D01*
X206085952Y-146217653D01*
X136002809Y-146217653D01*
X137404902Y-144768824D01*
X205253098Y-144768824D01*
X205302666Y-145186451D01*
X205432757Y-145586383D01*
X205590786Y-145882038D01*
X205906347Y-146038048D01*
X207218395Y-144726000D01*
X207577605Y-144726000D01*
X208889653Y-146038048D01*
X209205214Y-145882038D01*
X209396020Y-145507255D01*
X209510044Y-145102449D01*
X209542902Y-144683176D01*
X209493334Y-144265549D01*
X209363243Y-143865617D01*
X209205214Y-143569962D01*
X208889653Y-143413952D01*
X207577605Y-144726000D01*
X207218395Y-144726000D01*
X205906347Y-143413952D01*
X205590786Y-143569962D01*
X205399980Y-143944745D01*
X205285956Y-144349551D01*
X205253098Y-144768824D01*
X137404902Y-144768824D01*
X138889880Y-143234347D01*
X206085952Y-143234347D01*
X207398000Y-144546395D01*
X208710048Y-143234347D01*
X208554038Y-142918786D01*
X208179255Y-142727980D01*
X207774449Y-142613956D01*
X207355176Y-142581098D01*
X206937549Y-142630666D01*
X206537617Y-142760757D01*
X206241962Y-142918786D01*
X206085952Y-143234347D01*
X138889880Y-143234347D01*
X139028512Y-143091094D01*
X142038606Y-140081000D01*
X212725000Y-140081000D01*
X212725000Y-150749000D01*
G37*
%TD.AperFunction*%
%TD*%
D40*
%TO.N,Net-(Cout21-Pad1)*%
X98462197Y-105499803D02*
X98481443Y-105515597D01*
X98503399Y-105527333D01*
X98527224Y-105534560D01*
X98552000Y-105537000D01*
X109167394Y-105537000D01*
X112181000Y-108550606D01*
X112181000Y-111630955D01*
X112168290Y-111760000D01*
X112181000Y-111889045D01*
X112181000Y-111889047D01*
X112219011Y-112274981D01*
X112369226Y-112770172D01*
X112395000Y-112818392D01*
X112395000Y-113792000D01*
X112397440Y-113816776D01*
X112404667Y-113840601D01*
X112416403Y-113862557D01*
X112428935Y-113878417D01*
X115730935Y-117434417D01*
X115749583Y-117450913D01*
X115771090Y-117463454D01*
X115794630Y-117471557D01*
X115824000Y-117475000D01*
X137105959Y-117475000D01*
X149447911Y-130300951D01*
X149065862Y-130683000D01*
X144578606Y-130683000D01*
X134963803Y-121068197D01*
X134944557Y-121052403D01*
X134922601Y-121040667D01*
X134898776Y-121033440D01*
X134874388Y-121031001D01*
X104245455Y-120937334D01*
X104139265Y-120680969D01*
X103794317Y-120164718D01*
X103355282Y-119725683D01*
X102839031Y-119380735D01*
X102265404Y-119143131D01*
X101656445Y-119022001D01*
X101035555Y-119022001D01*
X100426596Y-119143131D01*
X99852969Y-119380735D01*
X99336718Y-119725683D01*
X98897683Y-120164718D01*
X98552735Y-120680969D01*
X98453881Y-120919623D01*
X58467468Y-120797341D01*
X58419265Y-120680969D01*
X58074317Y-120164718D01*
X57635282Y-119725683D01*
X57119031Y-119380735D01*
X56545404Y-119143131D01*
X55936445Y-119022001D01*
X55315555Y-119022001D01*
X54706596Y-119143131D01*
X54132969Y-119380735D01*
X53616718Y-119725683D01*
X53177683Y-120164718D01*
X52952000Y-120502476D01*
X52952000Y-115707240D01*
X54652365Y-115707240D01*
X54751148Y-115974197D01*
X55045025Y-116117584D01*
X55361228Y-116200883D01*
X55687607Y-116220893D01*
X56011618Y-116176845D01*
X56320809Y-116070432D01*
X56500852Y-115974197D01*
X56599635Y-115707240D01*
X55626000Y-114733605D01*
X54652365Y-115707240D01*
X52952000Y-115707240D01*
X52952000Y-114615607D01*
X53959107Y-114615607D01*
X54003155Y-114939618D01*
X54109568Y-115248809D01*
X54205803Y-115428852D01*
X54472760Y-115527635D01*
X55446395Y-114554000D01*
X55805605Y-114554000D01*
X56779240Y-115527635D01*
X57046197Y-115428852D01*
X57189584Y-115134975D01*
X57272883Y-114818772D01*
X57292893Y-114492393D01*
X57259065Y-114243555D01*
X98194001Y-114243555D01*
X98194001Y-114864445D01*
X98315131Y-115473404D01*
X98552735Y-116047031D01*
X98897683Y-116563282D01*
X99336718Y-117002317D01*
X99852969Y-117347265D01*
X100426596Y-117584869D01*
X101035555Y-117705999D01*
X101656445Y-117705999D01*
X102265404Y-117584869D01*
X102839031Y-117347265D01*
X103355282Y-117002317D01*
X103794317Y-116563282D01*
X104139265Y-116047031D01*
X104376869Y-115473404D01*
X104497999Y-114864445D01*
X104497999Y-114243555D01*
X104376869Y-113634596D01*
X104139265Y-113060969D01*
X103794317Y-112544718D01*
X103355282Y-112105683D01*
X102839031Y-111760735D01*
X102265404Y-111523131D01*
X101656445Y-111402001D01*
X101035555Y-111402001D01*
X100426596Y-111523131D01*
X99852969Y-111760735D01*
X99336718Y-112105683D01*
X98897683Y-112544718D01*
X98552735Y-113060969D01*
X98315131Y-113634596D01*
X98194001Y-114243555D01*
X57259065Y-114243555D01*
X57248845Y-114168382D01*
X57142432Y-113859191D01*
X57046197Y-113679148D01*
X56779240Y-113580365D01*
X55805605Y-114554000D01*
X55446395Y-114554000D01*
X54472760Y-113580365D01*
X54205803Y-113679148D01*
X54062416Y-113973025D01*
X53979117Y-114289228D01*
X53959107Y-114615607D01*
X52952000Y-114615607D01*
X52952000Y-113400760D01*
X54652365Y-113400760D01*
X55626000Y-114374395D01*
X56599635Y-113400760D01*
X56500852Y-113133803D01*
X56206975Y-112990416D01*
X55890772Y-112907117D01*
X55564393Y-112887107D01*
X55240382Y-112931155D01*
X54931191Y-113037568D01*
X54751148Y-113133803D01*
X54652365Y-113400760D01*
X52952000Y-113400760D01*
X52952000Y-103007240D01*
X54652365Y-103007240D01*
X54751148Y-103274197D01*
X55045025Y-103417584D01*
X55361228Y-103500883D01*
X55687607Y-103520893D01*
X56011618Y-103476845D01*
X56320809Y-103370432D01*
X56500852Y-103274197D01*
X56599635Y-103007240D01*
X55626000Y-102033605D01*
X54652365Y-103007240D01*
X52952000Y-103007240D01*
X52952000Y-101915607D01*
X53959107Y-101915607D01*
X54003155Y-102239618D01*
X54109568Y-102548809D01*
X54205803Y-102728852D01*
X54472760Y-102827635D01*
X55446395Y-101854000D01*
X55805605Y-101854000D01*
X56779240Y-102827635D01*
X57046197Y-102728852D01*
X57189584Y-102434975D01*
X57272883Y-102118772D01*
X57292893Y-101792393D01*
X57248845Y-101468382D01*
X57142432Y-101159191D01*
X57046197Y-100979148D01*
X56779240Y-100880365D01*
X55805605Y-101854000D01*
X55446395Y-101854000D01*
X54472760Y-100880365D01*
X54205803Y-100979148D01*
X54062416Y-101273025D01*
X53979117Y-101589228D01*
X53959107Y-101915607D01*
X52952000Y-101915607D01*
X52952000Y-100700760D01*
X54652365Y-100700760D01*
X55626000Y-101674395D01*
X56599635Y-100700760D01*
X56500852Y-100433803D01*
X56206975Y-100290416D01*
X55890772Y-100207117D01*
X55564393Y-100187107D01*
X55240382Y-100231155D01*
X54931191Y-100337568D01*
X54751148Y-100433803D01*
X54652365Y-100700760D01*
X52952000Y-100700760D01*
X52952000Y-99695000D01*
X92657394Y-99695000D01*
X98462197Y-105499803D01*
%TA.AperFunction,Conductor*%
D41*
G36*
X98462197Y-105499803D02*
G01*
X98481443Y-105515597D01*
X98503399Y-105527333D01*
X98527224Y-105534560D01*
X98552000Y-105537000D01*
X109167394Y-105537000D01*
X112181000Y-108550606D01*
X112181000Y-111630955D01*
X112168290Y-111760000D01*
X112181000Y-111889045D01*
X112181000Y-111889047D01*
X112219011Y-112274981D01*
X112369226Y-112770172D01*
X112395000Y-112818392D01*
X112395000Y-113792000D01*
X112397440Y-113816776D01*
X112404667Y-113840601D01*
X112416403Y-113862557D01*
X112428935Y-113878417D01*
X115730935Y-117434417D01*
X115749583Y-117450913D01*
X115771090Y-117463454D01*
X115794630Y-117471557D01*
X115824000Y-117475000D01*
X137105959Y-117475000D01*
X149447911Y-130300951D01*
X149065862Y-130683000D01*
X144578606Y-130683000D01*
X134963803Y-121068197D01*
X134944557Y-121052403D01*
X134922601Y-121040667D01*
X134898776Y-121033440D01*
X134874388Y-121031001D01*
X104245455Y-120937334D01*
X104139265Y-120680969D01*
X103794317Y-120164718D01*
X103355282Y-119725683D01*
X102839031Y-119380735D01*
X102265404Y-119143131D01*
X101656445Y-119022001D01*
X101035555Y-119022001D01*
X100426596Y-119143131D01*
X99852969Y-119380735D01*
X99336718Y-119725683D01*
X98897683Y-120164718D01*
X98552735Y-120680969D01*
X98453881Y-120919623D01*
X58467468Y-120797341D01*
X58419265Y-120680969D01*
X58074317Y-120164718D01*
X57635282Y-119725683D01*
X57119031Y-119380735D01*
X56545404Y-119143131D01*
X55936445Y-119022001D01*
X55315555Y-119022001D01*
X54706596Y-119143131D01*
X54132969Y-119380735D01*
X53616718Y-119725683D01*
X53177683Y-120164718D01*
X52952000Y-120502476D01*
X52952000Y-115707240D01*
X54652365Y-115707240D01*
X54751148Y-115974197D01*
X55045025Y-116117584D01*
X55361228Y-116200883D01*
X55687607Y-116220893D01*
X56011618Y-116176845D01*
X56320809Y-116070432D01*
X56500852Y-115974197D01*
X56599635Y-115707240D01*
X55626000Y-114733605D01*
X54652365Y-115707240D01*
X52952000Y-115707240D01*
X52952000Y-114615607D01*
X53959107Y-114615607D01*
X54003155Y-114939618D01*
X54109568Y-115248809D01*
X54205803Y-115428852D01*
X54472760Y-115527635D01*
X55446395Y-114554000D01*
X55805605Y-114554000D01*
X56779240Y-115527635D01*
X57046197Y-115428852D01*
X57189584Y-115134975D01*
X57272883Y-114818772D01*
X57292893Y-114492393D01*
X57259065Y-114243555D01*
X98194001Y-114243555D01*
X98194001Y-114864445D01*
X98315131Y-115473404D01*
X98552735Y-116047031D01*
X98897683Y-116563282D01*
X99336718Y-117002317D01*
X99852969Y-117347265D01*
X100426596Y-117584869D01*
X101035555Y-117705999D01*
X101656445Y-117705999D01*
X102265404Y-117584869D01*
X102839031Y-117347265D01*
X103355282Y-117002317D01*
X103794317Y-116563282D01*
X104139265Y-116047031D01*
X104376869Y-115473404D01*
X104497999Y-114864445D01*
X104497999Y-114243555D01*
X104376869Y-113634596D01*
X104139265Y-113060969D01*
X103794317Y-112544718D01*
X103355282Y-112105683D01*
X102839031Y-111760735D01*
X102265404Y-111523131D01*
X101656445Y-111402001D01*
X101035555Y-111402001D01*
X100426596Y-111523131D01*
X99852969Y-111760735D01*
X99336718Y-112105683D01*
X98897683Y-112544718D01*
X98552735Y-113060969D01*
X98315131Y-113634596D01*
X98194001Y-114243555D01*
X57259065Y-114243555D01*
X57248845Y-114168382D01*
X57142432Y-113859191D01*
X57046197Y-113679148D01*
X56779240Y-113580365D01*
X55805605Y-114554000D01*
X55446395Y-114554000D01*
X54472760Y-113580365D01*
X54205803Y-113679148D01*
X54062416Y-113973025D01*
X53979117Y-114289228D01*
X53959107Y-114615607D01*
X52952000Y-114615607D01*
X52952000Y-113400760D01*
X54652365Y-113400760D01*
X55626000Y-114374395D01*
X56599635Y-113400760D01*
X56500852Y-113133803D01*
X56206975Y-112990416D01*
X55890772Y-112907117D01*
X55564393Y-112887107D01*
X55240382Y-112931155D01*
X54931191Y-113037568D01*
X54751148Y-113133803D01*
X54652365Y-113400760D01*
X52952000Y-113400760D01*
X52952000Y-103007240D01*
X54652365Y-103007240D01*
X54751148Y-103274197D01*
X55045025Y-103417584D01*
X55361228Y-103500883D01*
X55687607Y-103520893D01*
X56011618Y-103476845D01*
X56320809Y-103370432D01*
X56500852Y-103274197D01*
X56599635Y-103007240D01*
X55626000Y-102033605D01*
X54652365Y-103007240D01*
X52952000Y-103007240D01*
X52952000Y-101915607D01*
X53959107Y-101915607D01*
X54003155Y-102239618D01*
X54109568Y-102548809D01*
X54205803Y-102728852D01*
X54472760Y-102827635D01*
X55446395Y-101854000D01*
X55805605Y-101854000D01*
X56779240Y-102827635D01*
X57046197Y-102728852D01*
X57189584Y-102434975D01*
X57272883Y-102118772D01*
X57292893Y-101792393D01*
X57248845Y-101468382D01*
X57142432Y-101159191D01*
X57046197Y-100979148D01*
X56779240Y-100880365D01*
X55805605Y-101854000D01*
X55446395Y-101854000D01*
X54472760Y-100880365D01*
X54205803Y-100979148D01*
X54062416Y-101273025D01*
X53979117Y-101589228D01*
X53959107Y-101915607D01*
X52952000Y-101915607D01*
X52952000Y-100700760D01*
X54652365Y-100700760D01*
X55626000Y-101674395D01*
X56599635Y-100700760D01*
X56500852Y-100433803D01*
X56206975Y-100290416D01*
X55890772Y-100207117D01*
X55564393Y-100187107D01*
X55240382Y-100231155D01*
X54931191Y-100337568D01*
X54751148Y-100433803D01*
X54652365Y-100700760D01*
X52952000Y-100700760D01*
X52952000Y-99695000D01*
X92657394Y-99695000D01*
X98462197Y-105499803D01*
G37*
%TD.AperFunction*%
%TD*%
D40*
%TO.N,Net-(QM4-Pad2)*%
X54132969Y-124967265D02*
X54706596Y-125204869D01*
X55315555Y-125325999D01*
X55936445Y-125325999D01*
X56545404Y-125204869D01*
X57119031Y-124967265D01*
X57308000Y-124841000D01*
X73025000Y-124841000D01*
X73025000Y-154432000D01*
X73027440Y-154456776D01*
X73034667Y-154480601D01*
X73046403Y-154502557D01*
X73062197Y-154521803D01*
X73081443Y-154537597D01*
X73103399Y-154549333D01*
X73127224Y-154556560D01*
X73152000Y-154559000D01*
X114935000Y-154559000D01*
X114935000Y-155945310D01*
X114828907Y-156074585D01*
X114631401Y-156444094D01*
X114509776Y-156845035D01*
X114468709Y-157262000D01*
X114468709Y-161762000D01*
X114509776Y-162178965D01*
X114631401Y-162579906D01*
X114828907Y-162949415D01*
X114935000Y-163078690D01*
X114935000Y-163202000D01*
X109001419Y-163202000D01*
X109355453Y-162911453D01*
X109777458Y-162397238D01*
X110091036Y-161810575D01*
X110284137Y-161174008D01*
X110333000Y-160677893D01*
X110333000Y-159639000D01*
X110521000Y-159639000D01*
X110521000Y-160639000D01*
X110581996Y-161004305D01*
X110713088Y-161350691D01*
X110909237Y-161664847D01*
X111162906Y-161934699D01*
X111464347Y-162149878D01*
X111801975Y-162302114D01*
X111986355Y-162349695D01*
X112279000Y-162233572D01*
X112279000Y-159639000D01*
X112533000Y-159639000D01*
X112533000Y-162233572D01*
X112825645Y-162349695D01*
X113010025Y-162302114D01*
X113347653Y-162149878D01*
X113649094Y-161934699D01*
X113902763Y-161664847D01*
X114098912Y-161350691D01*
X114230004Y-161004305D01*
X114291000Y-160639000D01*
X114291000Y-159639000D01*
X112533000Y-159639000D01*
X112279000Y-159639000D01*
X110521000Y-159639000D01*
X110333000Y-159639000D01*
X110333000Y-158385000D01*
X110521000Y-158385000D01*
X110521000Y-159385000D01*
X112279000Y-159385000D01*
X112279000Y-156790428D01*
X112533000Y-156790428D01*
X112533000Y-159385000D01*
X114291000Y-159385000D01*
X114291000Y-158385000D01*
X114230004Y-158019695D01*
X114098912Y-157673309D01*
X113902763Y-157359153D01*
X113649094Y-157089301D01*
X113347653Y-156874122D01*
X113010025Y-156721886D01*
X112825645Y-156674305D01*
X112533000Y-156790428D01*
X112279000Y-156790428D01*
X111986355Y-156674305D01*
X111801975Y-156721886D01*
X111464347Y-156874122D01*
X111162906Y-157089301D01*
X110909237Y-157359153D01*
X110713088Y-157673309D01*
X110581996Y-158019695D01*
X110521000Y-158385000D01*
X110333000Y-158385000D01*
X110333000Y-158346107D01*
X110284137Y-157849992D01*
X110091036Y-157213425D01*
X109777458Y-156626762D01*
X109355453Y-156112547D01*
X108841238Y-155690542D01*
X108254575Y-155376964D01*
X107618008Y-155183863D01*
X106956000Y-155118661D01*
X106293993Y-155183863D01*
X105657426Y-155376964D01*
X105070763Y-155690542D01*
X104556548Y-156112547D01*
X104134543Y-156626762D01*
X103820964Y-157213425D01*
X103627863Y-157849992D01*
X103579000Y-158346107D01*
X103579000Y-160677892D01*
X103627863Y-161174007D01*
X103820964Y-161810574D01*
X104134542Y-162397237D01*
X104556547Y-162911453D01*
X104910580Y-163202000D01*
X52952000Y-163202000D01*
X52952000Y-150641626D01*
X53365649Y-150918017D01*
X53843732Y-151116046D01*
X54351263Y-151217000D01*
X54868737Y-151217000D01*
X55376268Y-151116046D01*
X55854351Y-150918017D01*
X56284615Y-150630524D01*
X56650524Y-150264615D01*
X56938017Y-149834351D01*
X57136046Y-149356268D01*
X57237000Y-148848737D01*
X57237000Y-148331263D01*
X57210204Y-148196552D01*
X57247291Y-147820000D01*
X57247291Y-146820000D01*
X57206224Y-146403035D01*
X57084599Y-146002094D01*
X56887093Y-145632585D01*
X56621293Y-145308707D01*
X56297415Y-145042907D01*
X55927906Y-144845401D01*
X55526965Y-144723776D01*
X55110000Y-144682709D01*
X54110000Y-144682709D01*
X53693035Y-144723776D01*
X53292094Y-144845401D01*
X52952000Y-145027184D01*
X52952000Y-130947240D01*
X54652365Y-130947240D01*
X54751148Y-131214197D01*
X55045025Y-131357584D01*
X55361228Y-131440883D01*
X55687607Y-131460893D01*
X56011618Y-131416845D01*
X56320809Y-131310432D01*
X56500852Y-131214197D01*
X56599635Y-130947240D01*
X55626000Y-129973605D01*
X54652365Y-130947240D01*
X52952000Y-130947240D01*
X52952000Y-129855607D01*
X53959107Y-129855607D01*
X54003155Y-130179618D01*
X54109568Y-130488809D01*
X54205803Y-130668852D01*
X54472760Y-130767635D01*
X55446395Y-129794000D01*
X55805605Y-129794000D01*
X56779240Y-130767635D01*
X57046197Y-130668852D01*
X57189584Y-130374975D01*
X57272883Y-130058772D01*
X57292893Y-129732393D01*
X57248845Y-129408382D01*
X57142432Y-129099191D01*
X57046197Y-128919148D01*
X56779240Y-128820365D01*
X55805605Y-129794000D01*
X55446395Y-129794000D01*
X54472760Y-128820365D01*
X54205803Y-128919148D01*
X54062416Y-129213025D01*
X53979117Y-129529228D01*
X53959107Y-129855607D01*
X52952000Y-129855607D01*
X52952000Y-128640760D01*
X54652365Y-128640760D01*
X55626000Y-129614395D01*
X56599635Y-128640760D01*
X56500852Y-128373803D01*
X56206975Y-128230416D01*
X55890772Y-128147117D01*
X55564393Y-128127107D01*
X55240382Y-128171155D01*
X54931191Y-128277568D01*
X54751148Y-128373803D01*
X54652365Y-128640760D01*
X52952000Y-128640760D01*
X52952000Y-124841000D01*
X53944000Y-124841000D01*
X54132969Y-124967265D01*
%TA.AperFunction,Conductor*%
D41*
G36*
X54132969Y-124967265D02*
G01*
X54706596Y-125204869D01*
X55315555Y-125325999D01*
X55936445Y-125325999D01*
X56545404Y-125204869D01*
X57119031Y-124967265D01*
X57308000Y-124841000D01*
X73025000Y-124841000D01*
X73025000Y-154432000D01*
X73027440Y-154456776D01*
X73034667Y-154480601D01*
X73046403Y-154502557D01*
X73062197Y-154521803D01*
X73081443Y-154537597D01*
X73103399Y-154549333D01*
X73127224Y-154556560D01*
X73152000Y-154559000D01*
X114935000Y-154559000D01*
X114935000Y-155945310D01*
X114828907Y-156074585D01*
X114631401Y-156444094D01*
X114509776Y-156845035D01*
X114468709Y-157262000D01*
X114468709Y-161762000D01*
X114509776Y-162178965D01*
X114631401Y-162579906D01*
X114828907Y-162949415D01*
X114935000Y-163078690D01*
X114935000Y-163202000D01*
X109001419Y-163202000D01*
X109355453Y-162911453D01*
X109777458Y-162397238D01*
X110091036Y-161810575D01*
X110284137Y-161174008D01*
X110333000Y-160677893D01*
X110333000Y-159639000D01*
X110521000Y-159639000D01*
X110521000Y-160639000D01*
X110581996Y-161004305D01*
X110713088Y-161350691D01*
X110909237Y-161664847D01*
X111162906Y-161934699D01*
X111464347Y-162149878D01*
X111801975Y-162302114D01*
X111986355Y-162349695D01*
X112279000Y-162233572D01*
X112279000Y-159639000D01*
X112533000Y-159639000D01*
X112533000Y-162233572D01*
X112825645Y-162349695D01*
X113010025Y-162302114D01*
X113347653Y-162149878D01*
X113649094Y-161934699D01*
X113902763Y-161664847D01*
X114098912Y-161350691D01*
X114230004Y-161004305D01*
X114291000Y-160639000D01*
X114291000Y-159639000D01*
X112533000Y-159639000D01*
X112279000Y-159639000D01*
X110521000Y-159639000D01*
X110333000Y-159639000D01*
X110333000Y-158385000D01*
X110521000Y-158385000D01*
X110521000Y-159385000D01*
X112279000Y-159385000D01*
X112279000Y-156790428D01*
X112533000Y-156790428D01*
X112533000Y-159385000D01*
X114291000Y-159385000D01*
X114291000Y-158385000D01*
X114230004Y-158019695D01*
X114098912Y-157673309D01*
X113902763Y-157359153D01*
X113649094Y-157089301D01*
X113347653Y-156874122D01*
X113010025Y-156721886D01*
X112825645Y-156674305D01*
X112533000Y-156790428D01*
X112279000Y-156790428D01*
X111986355Y-156674305D01*
X111801975Y-156721886D01*
X111464347Y-156874122D01*
X111162906Y-157089301D01*
X110909237Y-157359153D01*
X110713088Y-157673309D01*
X110581996Y-158019695D01*
X110521000Y-158385000D01*
X110333000Y-158385000D01*
X110333000Y-158346107D01*
X110284137Y-157849992D01*
X110091036Y-157213425D01*
X109777458Y-156626762D01*
X109355453Y-156112547D01*
X108841238Y-155690542D01*
X108254575Y-155376964D01*
X107618008Y-155183863D01*
X106956000Y-155118661D01*
X106293993Y-155183863D01*
X105657426Y-155376964D01*
X105070763Y-155690542D01*
X104556548Y-156112547D01*
X104134543Y-156626762D01*
X103820964Y-157213425D01*
X103627863Y-157849992D01*
X103579000Y-158346107D01*
X103579000Y-160677892D01*
X103627863Y-161174007D01*
X103820964Y-161810574D01*
X104134542Y-162397237D01*
X104556547Y-162911453D01*
X104910580Y-163202000D01*
X52952000Y-163202000D01*
X52952000Y-150641626D01*
X53365649Y-150918017D01*
X53843732Y-151116046D01*
X54351263Y-151217000D01*
X54868737Y-151217000D01*
X55376268Y-151116046D01*
X55854351Y-150918017D01*
X56284615Y-150630524D01*
X56650524Y-150264615D01*
X56938017Y-149834351D01*
X57136046Y-149356268D01*
X57237000Y-148848737D01*
X57237000Y-148331263D01*
X57210204Y-148196552D01*
X57247291Y-147820000D01*
X57247291Y-146820000D01*
X57206224Y-146403035D01*
X57084599Y-146002094D01*
X56887093Y-145632585D01*
X56621293Y-145308707D01*
X56297415Y-145042907D01*
X55927906Y-144845401D01*
X55526965Y-144723776D01*
X55110000Y-144682709D01*
X54110000Y-144682709D01*
X53693035Y-144723776D01*
X53292094Y-144845401D01*
X52952000Y-145027184D01*
X52952000Y-130947240D01*
X54652365Y-130947240D01*
X54751148Y-131214197D01*
X55045025Y-131357584D01*
X55361228Y-131440883D01*
X55687607Y-131460893D01*
X56011618Y-131416845D01*
X56320809Y-131310432D01*
X56500852Y-131214197D01*
X56599635Y-130947240D01*
X55626000Y-129973605D01*
X54652365Y-130947240D01*
X52952000Y-130947240D01*
X52952000Y-129855607D01*
X53959107Y-129855607D01*
X54003155Y-130179618D01*
X54109568Y-130488809D01*
X54205803Y-130668852D01*
X54472760Y-130767635D01*
X55446395Y-129794000D01*
X55805605Y-129794000D01*
X56779240Y-130767635D01*
X57046197Y-130668852D01*
X57189584Y-130374975D01*
X57272883Y-130058772D01*
X57292893Y-129732393D01*
X57248845Y-129408382D01*
X57142432Y-129099191D01*
X57046197Y-128919148D01*
X56779240Y-128820365D01*
X55805605Y-129794000D01*
X55446395Y-129794000D01*
X54472760Y-128820365D01*
X54205803Y-128919148D01*
X54062416Y-129213025D01*
X53979117Y-129529228D01*
X53959107Y-129855607D01*
X52952000Y-129855607D01*
X52952000Y-128640760D01*
X54652365Y-128640760D01*
X55626000Y-129614395D01*
X56599635Y-128640760D01*
X56500852Y-128373803D01*
X56206975Y-128230416D01*
X55890772Y-128147117D01*
X55564393Y-128127107D01*
X55240382Y-128171155D01*
X54931191Y-128277568D01*
X54751148Y-128373803D01*
X54652365Y-128640760D01*
X52952000Y-128640760D01*
X52952000Y-124841000D01*
X53944000Y-124841000D01*
X54132969Y-124967265D01*
G37*
%TD.AperFunction*%
%TD*%
D40*
%TO.N,Net-(QM3-Pad3)*%
X98212874Y-139286247D02*
X98232896Y-139301043D01*
X98255420Y-139311649D01*
X98279581Y-139317657D01*
X98298000Y-139319000D01*
X128905000Y-139319000D01*
X128905000Y-143637000D01*
X114554000Y-143637000D01*
X114529224Y-143639440D01*
X114505399Y-143646667D01*
X114483443Y-143658403D01*
X114457574Y-143681349D01*
X112933574Y-145459349D01*
X112919303Y-145479749D01*
X112909285Y-145502541D01*
X112903907Y-145526850D01*
X112903000Y-145542000D01*
X112903000Y-148574128D01*
X112886111Y-148614901D01*
X112789000Y-149103112D01*
X112789000Y-149600888D01*
X112886111Y-150089099D01*
X113076602Y-150548983D01*
X113353151Y-150962869D01*
X113705131Y-151314849D01*
X114119017Y-151591398D01*
X114578901Y-151781889D01*
X115067112Y-151879000D01*
X115564888Y-151879000D01*
X116053099Y-151781889D01*
X116180784Y-151729000D01*
X127419394Y-151729000D01*
X130429000Y-154738606D01*
X130429000Y-157800092D01*
X130413863Y-157849992D01*
X130365000Y-158346107D01*
X130365000Y-160677892D01*
X130413863Y-161174007D01*
X130429000Y-161223907D01*
X130429000Y-163202000D01*
X124841000Y-163202000D01*
X124841000Y-159639000D01*
X126407000Y-159639000D01*
X126407000Y-160639000D01*
X126467996Y-161004305D01*
X126599088Y-161350691D01*
X126795237Y-161664847D01*
X127048906Y-161934699D01*
X127350347Y-162149878D01*
X127687975Y-162302114D01*
X127872355Y-162349695D01*
X128165000Y-162233572D01*
X128165000Y-159639000D01*
X128419000Y-159639000D01*
X128419000Y-162233572D01*
X128711645Y-162349695D01*
X128896025Y-162302114D01*
X129233653Y-162149878D01*
X129535094Y-161934699D01*
X129788763Y-161664847D01*
X129984912Y-161350691D01*
X130116004Y-161004305D01*
X130177000Y-160639000D01*
X130177000Y-159639000D01*
X128419000Y-159639000D01*
X128165000Y-159639000D01*
X126407000Y-159639000D01*
X124841000Y-159639000D01*
X124841000Y-158385000D01*
X126407000Y-158385000D01*
X126407000Y-159385000D01*
X128165000Y-159385000D01*
X128165000Y-156790428D01*
X128419000Y-156790428D01*
X128419000Y-159385000D01*
X130177000Y-159385000D01*
X130177000Y-158385000D01*
X130116004Y-158019695D01*
X129984912Y-157673309D01*
X129788763Y-157359153D01*
X129535094Y-157089301D01*
X129233653Y-156874122D01*
X128896025Y-156721886D01*
X128711645Y-156674305D01*
X128419000Y-156790428D01*
X128165000Y-156790428D01*
X127872355Y-156674305D01*
X127687975Y-156721886D01*
X127350347Y-156874122D01*
X127048906Y-157089301D01*
X126795237Y-157359153D01*
X126599088Y-157673309D01*
X126467996Y-158019695D01*
X126407000Y-158385000D01*
X124841000Y-158385000D01*
X124841000Y-154686000D01*
X124838560Y-154661224D01*
X124831333Y-154637399D01*
X124819597Y-154615443D01*
X124796651Y-154589574D01*
X123018651Y-153065574D01*
X122998251Y-153051303D01*
X122975459Y-153041285D01*
X122951150Y-153035907D01*
X122936000Y-153035000D01*
X111812606Y-153035000D01*
X107785803Y-149008197D01*
X107766557Y-148992403D01*
X107744601Y-148980667D01*
X107720776Y-148973440D01*
X107696000Y-148971000D01*
X76073000Y-148971000D01*
X76073000Y-132207000D01*
X90375136Y-132207000D01*
X98212874Y-139286247D01*
%TA.AperFunction,Conductor*%
D41*
G36*
X98212874Y-139286247D02*
G01*
X98232896Y-139301043D01*
X98255420Y-139311649D01*
X98279581Y-139317657D01*
X98298000Y-139319000D01*
X128905000Y-139319000D01*
X128905000Y-143637000D01*
X114554000Y-143637000D01*
X114529224Y-143639440D01*
X114505399Y-143646667D01*
X114483443Y-143658403D01*
X114457574Y-143681349D01*
X112933574Y-145459349D01*
X112919303Y-145479749D01*
X112909285Y-145502541D01*
X112903907Y-145526850D01*
X112903000Y-145542000D01*
X112903000Y-148574128D01*
X112886111Y-148614901D01*
X112789000Y-149103112D01*
X112789000Y-149600888D01*
X112886111Y-150089099D01*
X113076602Y-150548983D01*
X113353151Y-150962869D01*
X113705131Y-151314849D01*
X114119017Y-151591398D01*
X114578901Y-151781889D01*
X115067112Y-151879000D01*
X115564888Y-151879000D01*
X116053099Y-151781889D01*
X116180784Y-151729000D01*
X127419394Y-151729000D01*
X130429000Y-154738606D01*
X130429000Y-157800092D01*
X130413863Y-157849992D01*
X130365000Y-158346107D01*
X130365000Y-160677892D01*
X130413863Y-161174007D01*
X130429000Y-161223907D01*
X130429000Y-163202000D01*
X124841000Y-163202000D01*
X124841000Y-159639000D01*
X126407000Y-159639000D01*
X126407000Y-160639000D01*
X126467996Y-161004305D01*
X126599088Y-161350691D01*
X126795237Y-161664847D01*
X127048906Y-161934699D01*
X127350347Y-162149878D01*
X127687975Y-162302114D01*
X127872355Y-162349695D01*
X128165000Y-162233572D01*
X128165000Y-159639000D01*
X128419000Y-159639000D01*
X128419000Y-162233572D01*
X128711645Y-162349695D01*
X128896025Y-162302114D01*
X129233653Y-162149878D01*
X129535094Y-161934699D01*
X129788763Y-161664847D01*
X129984912Y-161350691D01*
X130116004Y-161004305D01*
X130177000Y-160639000D01*
X130177000Y-159639000D01*
X128419000Y-159639000D01*
X128165000Y-159639000D01*
X126407000Y-159639000D01*
X124841000Y-159639000D01*
X124841000Y-158385000D01*
X126407000Y-158385000D01*
X126407000Y-159385000D01*
X128165000Y-159385000D01*
X128165000Y-156790428D01*
X128419000Y-156790428D01*
X128419000Y-159385000D01*
X130177000Y-159385000D01*
X130177000Y-158385000D01*
X130116004Y-158019695D01*
X129984912Y-157673309D01*
X129788763Y-157359153D01*
X129535094Y-157089301D01*
X129233653Y-156874122D01*
X128896025Y-156721886D01*
X128711645Y-156674305D01*
X128419000Y-156790428D01*
X128165000Y-156790428D01*
X127872355Y-156674305D01*
X127687975Y-156721886D01*
X127350347Y-156874122D01*
X127048906Y-157089301D01*
X126795237Y-157359153D01*
X126599088Y-157673309D01*
X126467996Y-158019695D01*
X126407000Y-158385000D01*
X124841000Y-158385000D01*
X124841000Y-154686000D01*
X124838560Y-154661224D01*
X124831333Y-154637399D01*
X124819597Y-154615443D01*
X124796651Y-154589574D01*
X123018651Y-153065574D01*
X122998251Y-153051303D01*
X122975459Y-153041285D01*
X122951150Y-153035907D01*
X122936000Y-153035000D01*
X111812606Y-153035000D01*
X107785803Y-149008197D01*
X107766557Y-148992403D01*
X107744601Y-148980667D01*
X107720776Y-148973440D01*
X107696000Y-148971000D01*
X76073000Y-148971000D01*
X76073000Y-132207000D01*
X90375136Y-132207000D01*
X98212874Y-139286247D01*
G37*
%TD.AperFunction*%
%TD*%
D40*
%TO.N,Net-(Lr1-Pad1)*%
X144687981Y-133691530D02*
X144706826Y-133707800D01*
X144728482Y-133720081D01*
X144752118Y-133727902D01*
X144775905Y-133730934D01*
X148712905Y-133857934D01*
X148737748Y-133856294D01*
X148761793Y-133849839D01*
X148784116Y-133838817D01*
X148808666Y-133818899D01*
X157661172Y-124587000D01*
X183515000Y-124587000D01*
X183515000Y-127635000D01*
X157480000Y-127635000D01*
X157455224Y-127637440D01*
X157431399Y-127644667D01*
X157409443Y-127656403D01*
X157390197Y-127672197D01*
X149299394Y-135763000D01*
X143908718Y-135763000D01*
X143596869Y-135451151D01*
X143182983Y-135174602D01*
X142723099Y-134984111D01*
X142481700Y-134936094D01*
X134709803Y-127164197D01*
X134690557Y-127148403D01*
X134668601Y-127136667D01*
X134644776Y-127129440D01*
X134620000Y-127127000D01*
X119380000Y-127127000D01*
X119355224Y-127129440D01*
X119331399Y-127136667D01*
X119309443Y-127148403D01*
X119288384Y-127166048D01*
X113229870Y-133477000D01*
X97917000Y-133477000D01*
X97917000Y-130818999D01*
X99682929Y-130818999D01*
X99695189Y-130943481D01*
X99731499Y-131063179D01*
X99790464Y-131173493D01*
X99869816Y-131270184D01*
X99966507Y-131349536D01*
X100076821Y-131408501D01*
X100196519Y-131444811D01*
X100321001Y-131457071D01*
X101060250Y-131453999D01*
X101219000Y-131295249D01*
X101219000Y-129921000D01*
X101473000Y-129921000D01*
X101473000Y-131295249D01*
X101631750Y-131453999D01*
X102370999Y-131457071D01*
X102495481Y-131444811D01*
X102615179Y-131408501D01*
X102725493Y-131349536D01*
X102822184Y-131270184D01*
X102901536Y-131173493D01*
X102960501Y-131063179D01*
X102996811Y-130943481D01*
X103009071Y-130818999D01*
X103005999Y-130079750D01*
X102847249Y-129921000D01*
X101473000Y-129921000D01*
X101219000Y-129921000D01*
X99844751Y-129921000D01*
X99686001Y-130079750D01*
X99682929Y-130818999D01*
X97917000Y-130818999D01*
X97917000Y-128769001D01*
X99682929Y-128769001D01*
X99686001Y-129508250D01*
X99844751Y-129667000D01*
X101219000Y-129667000D01*
X101219000Y-128292751D01*
X101473000Y-128292751D01*
X101473000Y-129667000D01*
X102847249Y-129667000D01*
X103005999Y-129508250D01*
X103009071Y-128769001D01*
X102996811Y-128644519D01*
X102960501Y-128524821D01*
X102901536Y-128414507D01*
X102822184Y-128317816D01*
X102725493Y-128238464D01*
X102615179Y-128179499D01*
X102495481Y-128143189D01*
X102370999Y-128130929D01*
X101631750Y-128134001D01*
X101473000Y-128292751D01*
X101219000Y-128292751D01*
X101060250Y-128134001D01*
X100321001Y-128130929D01*
X100196519Y-128143189D01*
X100076821Y-128179499D01*
X99966507Y-128238464D01*
X99869816Y-128317816D01*
X99790464Y-128414507D01*
X99731499Y-128524821D01*
X99695189Y-128644519D01*
X99682929Y-128769001D01*
X97917000Y-128769001D01*
X97917000Y-127127000D01*
X106934000Y-127127000D01*
X106958776Y-127124560D01*
X106982601Y-127117333D01*
X107004557Y-127105597D01*
X107015303Y-127097564D01*
X111551980Y-123317000D01*
X134819526Y-123317000D01*
X144687981Y-133691530D01*
%TA.AperFunction,Conductor*%
D41*
G36*
X144687981Y-133691530D02*
G01*
X144706826Y-133707800D01*
X144728482Y-133720081D01*
X144752118Y-133727902D01*
X144775905Y-133730934D01*
X148712905Y-133857934D01*
X148737748Y-133856294D01*
X148761793Y-133849839D01*
X148784116Y-133838817D01*
X148808666Y-133818899D01*
X157661172Y-124587000D01*
X183515000Y-124587000D01*
X183515000Y-127635000D01*
X157480000Y-127635000D01*
X157455224Y-127637440D01*
X157431399Y-127644667D01*
X157409443Y-127656403D01*
X157390197Y-127672197D01*
X149299394Y-135763000D01*
X143908718Y-135763000D01*
X143596869Y-135451151D01*
X143182983Y-135174602D01*
X142723099Y-134984111D01*
X142481700Y-134936094D01*
X134709803Y-127164197D01*
X134690557Y-127148403D01*
X134668601Y-127136667D01*
X134644776Y-127129440D01*
X134620000Y-127127000D01*
X119380000Y-127127000D01*
X119355224Y-127129440D01*
X119331399Y-127136667D01*
X119309443Y-127148403D01*
X119288384Y-127166048D01*
X113229870Y-133477000D01*
X97917000Y-133477000D01*
X97917000Y-130818999D01*
X99682929Y-130818999D01*
X99695189Y-130943481D01*
X99731499Y-131063179D01*
X99790464Y-131173493D01*
X99869816Y-131270184D01*
X99966507Y-131349536D01*
X100076821Y-131408501D01*
X100196519Y-131444811D01*
X100321001Y-131457071D01*
X101060250Y-131453999D01*
X101219000Y-131295249D01*
X101219000Y-129921000D01*
X101473000Y-129921000D01*
X101473000Y-131295249D01*
X101631750Y-131453999D01*
X102370999Y-131457071D01*
X102495481Y-131444811D01*
X102615179Y-131408501D01*
X102725493Y-131349536D01*
X102822184Y-131270184D01*
X102901536Y-131173493D01*
X102960501Y-131063179D01*
X102996811Y-130943481D01*
X103009071Y-130818999D01*
X103005999Y-130079750D01*
X102847249Y-129921000D01*
X101473000Y-129921000D01*
X101219000Y-129921000D01*
X99844751Y-129921000D01*
X99686001Y-130079750D01*
X99682929Y-130818999D01*
X97917000Y-130818999D01*
X97917000Y-128769001D01*
X99682929Y-128769001D01*
X99686001Y-129508250D01*
X99844751Y-129667000D01*
X101219000Y-129667000D01*
X101219000Y-128292751D01*
X101473000Y-128292751D01*
X101473000Y-129667000D01*
X102847249Y-129667000D01*
X103005999Y-129508250D01*
X103009071Y-128769001D01*
X102996811Y-128644519D01*
X102960501Y-128524821D01*
X102901536Y-128414507D01*
X102822184Y-128317816D01*
X102725493Y-128238464D01*
X102615179Y-128179499D01*
X102495481Y-128143189D01*
X102370999Y-128130929D01*
X101631750Y-128134001D01*
X101473000Y-128292751D01*
X101219000Y-128292751D01*
X101060250Y-128134001D01*
X100321001Y-128130929D01*
X100196519Y-128143189D01*
X100076821Y-128179499D01*
X99966507Y-128238464D01*
X99869816Y-128317816D01*
X99790464Y-128414507D01*
X99731499Y-128524821D01*
X99695189Y-128644519D01*
X99682929Y-128769001D01*
X97917000Y-128769001D01*
X97917000Y-127127000D01*
X106934000Y-127127000D01*
X106958776Y-127124560D01*
X106982601Y-127117333D01*
X107004557Y-127105597D01*
X107015303Y-127097564D01*
X111551980Y-123317000D01*
X134819526Y-123317000D01*
X144687981Y-133691530D01*
G37*
%TD.AperFunction*%
%TD*%
M02*
