%TF.GenerationSoftware,KiCad,Pcbnew,(5.1.8)-1*%
%TF.CreationDate,2021-03-15T15:17:27-07:00*%
%TF.ProjectId,KiCAD Simulations,4b694341-4420-4536-996d-756c6174696f,rev?*%
%TF.SameCoordinates,Original*%
%TF.FileFunction,Copper,L1,Top*%
%TF.FilePolarity,Positive*%
%FSLAX46Y46*%
G04 Gerber Fmt 4.6, Leading zero omitted, Abs format (unit mm)*
G04 Created by KiCad (PCBNEW (5.1.8)-1) date 2021-03-15 15:17:27*
%MOMM*%
%LPD*%
G01*
G04 APERTURE LIST*
%TA.AperFunction,ComponentPad*%
%ADD10O,3.200000X3.200000*%
%TD*%
%TA.AperFunction,ComponentPad*%
%ADD11R,3.200000X3.200000*%
%TD*%
%TA.AperFunction,ComponentPad*%
%ADD12O,2.800000X2.800000*%
%TD*%
%TA.AperFunction,ComponentPad*%
%ADD13R,2.800000X2.800000*%
%TD*%
%TA.AperFunction,ComponentPad*%
%ADD14O,1.700000X1.700000*%
%TD*%
%TA.AperFunction,ComponentPad*%
%ADD15R,1.700000X1.700000*%
%TD*%
%TA.AperFunction,ComponentPad*%
%ADD16C,1.854200*%
%TD*%
%TA.AperFunction,SMDPad,CuDef*%
%ADD17R,1.454899X0.558000*%
%TD*%
%TA.AperFunction,SMDPad,CuDef*%
%ADD18C,1.000000*%
%TD*%
%TA.AperFunction,ComponentPad*%
%ADD19C,2.000000*%
%TD*%
%TA.AperFunction,ComponentPad*%
%ADD20O,4.500000X2.500000*%
%TD*%
%TA.AperFunction,ComponentPad*%
%ADD21R,4.500000X2.500000*%
%TD*%
%TA.AperFunction,ComponentPad*%
%ADD22C,1.447800*%
%TD*%
%TA.AperFunction,ComponentPad*%
%ADD23C,3.000000*%
%TD*%
%TA.AperFunction,ComponentPad*%
%ADD24R,3.000000X3.000000*%
%TD*%
%TA.AperFunction,SMDPad,CuDef*%
%ADD25R,2.500000X2.300000*%
%TD*%
%TA.AperFunction,ComponentPad*%
%ADD26O,2.000000X2.000000*%
%TD*%
%TA.AperFunction,ComponentPad*%
%ADD27R,2.000000X2.000000*%
%TD*%
%TA.AperFunction,ComponentPad*%
%ADD28O,1.600000X1.600000*%
%TD*%
%TA.AperFunction,ComponentPad*%
%ADD29R,1.600000X1.600000*%
%TD*%
%TA.AperFunction,ViaPad*%
%ADD30C,0.800000*%
%TD*%
%TA.AperFunction,ViaPad*%
%ADD31C,1.200000*%
%TD*%
%TA.AperFunction,Conductor*%
%ADD32C,1.500000*%
%TD*%
%TA.AperFunction,Conductor*%
%ADD33C,0.500000*%
%TD*%
%TA.AperFunction,Conductor*%
%ADD34C,2.000000*%
%TD*%
%TA.AperFunction,Conductor*%
%ADD35C,1.000000*%
%TD*%
G04 APERTURE END LIST*
D10*
%TO.P,Dboost1,2*%
%TO.N,Net-(Dboost1-Pad2)*%
X120650000Y-26416000D03*
D11*
%TO.P,Dboost1,1*%
%TO.N,Net-(Coutx1-Pad1)*%
X135890000Y-26416000D03*
%TD*%
D12*
%TO.P,Coutx2,2*%
%TO.N,GND*%
X152675000Y-40894000D03*
D13*
%TO.P,Coutx2,1*%
%TO.N,Net-(Coutx1-Pad1)*%
X193675000Y-40894000D03*
%TD*%
D14*
%TO.P,J2,2*%
%TO.N,Net-(Cvcc1-Pad1)*%
X191008000Y-76200000D03*
D15*
%TO.P,J2,1*%
%TO.N,GND*%
X191008000Y-78740000D03*
%TD*%
D16*
%TO.P,Uac1,4*%
%TO.N,Net-(J1-Pad2)*%
X123171001Y-73533000D03*
%TO.P,Uac1,3*%
%TO.N,Net-(Cin1-Pad1)*%
X115671000Y-73533000D03*
%TO.P,Uac1,2*%
%TO.N,Net-(Cin1-Pad2)*%
X108171000Y-73533000D03*
%TO.P,Uac1,1*%
%TO.N,Net-(Rntc1-Pad1)*%
X98171000Y-73533000D03*
%TD*%
D17*
%TO.P,U1,8*%
%TO.N,Net-(Rgate1-Pad1)*%
X158296348Y-70104000D03*
%TO.P,U1,7*%
%TO.N,Net-(Cvcc1-Pad1)*%
X158296348Y-71374000D03*
%TO.P,U1,6*%
%TO.N,Net-(Cvsense1-Pad1)*%
X158296348Y-72644000D03*
%TO.P,U1,5*%
%TO.N,Net-(Ccomp1-Pad1)*%
X158296348Y-73914000D03*
%TO.P,U1,4*%
%TO.N,Net-(Rfreq1-Pad1)*%
X152853652Y-73914000D03*
%TO.P,U1,3*%
%TO.N,Net-(Cisense1-Pad1)*%
X152853652Y-72644000D03*
%TO.P,U1,2*%
%TO.N,Net-(Cicomp1-Pad1)*%
X152853652Y-71374000D03*
%TO.P,U1,1*%
%TO.N,GND*%
X152853652Y-70104000D03*
%TD*%
D18*
%TO.P,TPvsense1,1*%
%TO.N,Net-(Cvsense1-Pad1)*%
X201295000Y-73914000D03*
%TD*%
%TO.P,TPQ1,1*%
%TO.N,Net-(Dturnoff1-Pad2)*%
X184785000Y-54864000D03*
%TD*%
%TO.P,TPisense1,1*%
%TO.N,Net-(Cisense1-Pad1)*%
X140335000Y-65024000D03*
%TD*%
%TO.P,TPgnd5,1*%
%TO.N,GND*%
X184785000Y-65659000D03*
%TD*%
%TO.P,TPgnd2,1*%
%TO.N,GND*%
X237490000Y-54229000D03*
%TD*%
%TO.P,TPgnd1,1*%
%TO.N,GND*%
X146050000Y-82296000D03*
%TD*%
%TO.P,TPgate1,1*%
%TO.N,Net-(Rgate1-Pad1)*%
X167640000Y-69469000D03*
%TD*%
%TO.P,TPDstart2,1*%
%TO.N,Net-(Coutx1-Pad1)*%
X145288000Y-26416000D03*
%TD*%
%TO.P,TPDstart1,1*%
%TO.N,Net-(Cin1-Pad1)*%
X158750000Y-26416000D03*
%TD*%
%TO.P,Rsense1,2*%
%TO.N,GND*%
%TA.AperFunction,SMDPad,CuDef*%
G36*
G01*
X184595000Y-91849001D02*
X184595000Y-88998999D01*
G75*
G02*
X184844999Y-88749000I249999J0D01*
G01*
X185745001Y-88749000D01*
G75*
G02*
X185995000Y-88998999I0J-249999D01*
G01*
X185995000Y-91849001D01*
G75*
G02*
X185745001Y-92099000I-249999J0D01*
G01*
X184844999Y-92099000D01*
G75*
G02*
X184595000Y-91849001I0J249999D01*
G01*
G37*
%TD.AperFunction*%
%TO.P,Rsense1,1*%
%TO.N,Net-(Cin1-Pad2)*%
%TA.AperFunction,SMDPad,CuDef*%
G36*
G01*
X178495000Y-91849001D02*
X178495000Y-88998999D01*
G75*
G02*
X178744999Y-88749000I249999J0D01*
G01*
X179645001Y-88749000D01*
G75*
G02*
X179895000Y-88998999I0J-249999D01*
G01*
X179895000Y-91849001D01*
G75*
G02*
X179645001Y-92099000I-249999J0D01*
G01*
X178744999Y-92099000D01*
G75*
G02*
X178495000Y-91849001I0J249999D01*
G01*
G37*
%TD.AperFunction*%
%TD*%
D19*
%TO.P,Rntc1,2*%
%TO.N,Net-(J1-Pad1)*%
X94996000Y-92058000D03*
%TO.P,Rntc1,1*%
%TO.N,Net-(Rntc1-Pad1)*%
X94996000Y-83058000D03*
%TD*%
%TO.P,Risense1,2*%
%TO.N,Net-(Cin1-Pad2)*%
%TA.AperFunction,SMDPad,CuDef*%
G36*
G01*
X184595000Y-85499001D02*
X184595000Y-82648999D01*
G75*
G02*
X184844999Y-82399000I249999J0D01*
G01*
X185745001Y-82399000D01*
G75*
G02*
X185995000Y-82648999I0J-249999D01*
G01*
X185995000Y-85499001D01*
G75*
G02*
X185745001Y-85749000I-249999J0D01*
G01*
X184844999Y-85749000D01*
G75*
G02*
X184595000Y-85499001I0J249999D01*
G01*
G37*
%TD.AperFunction*%
%TO.P,Risense1,1*%
%TO.N,Net-(Cisense1-Pad1)*%
%TA.AperFunction,SMDPad,CuDef*%
G36*
G01*
X178495000Y-85499001D02*
X178495000Y-82648999D01*
G75*
G02*
X178744999Y-82399000I249999J0D01*
G01*
X179645001Y-82399000D01*
G75*
G02*
X179895000Y-82648999I0J-249999D01*
G01*
X179895000Y-85499001D01*
G75*
G02*
X179645001Y-85749000I-249999J0D01*
G01*
X178744999Y-85749000D01*
G75*
G02*
X178495000Y-85499001I0J249999D01*
G01*
G37*
%TD.AperFunction*%
%TD*%
%TO.P,Rgate3,2*%
%TO.N,Net-(Rgate1-Pad1)*%
%TA.AperFunction,SMDPad,CuDef*%
G36*
G01*
X154368000Y-54962999D02*
X154368000Y-57813001D01*
G75*
G02*
X154118001Y-58063000I-249999J0D01*
G01*
X153217999Y-58063000D01*
G75*
G02*
X152968000Y-57813001I0J249999D01*
G01*
X152968000Y-54962999D01*
G75*
G02*
X153217999Y-54713000I249999J0D01*
G01*
X154118001Y-54713000D01*
G75*
G02*
X154368000Y-54962999I0J-249999D01*
G01*
G37*
%TD.AperFunction*%
%TO.P,Rgate3,1*%
%TO.N,Net-(Dturnoff1-Pad1)*%
%TA.AperFunction,SMDPad,CuDef*%
G36*
G01*
X160468000Y-54962999D02*
X160468000Y-57813001D01*
G75*
G02*
X160218001Y-58063000I-249999J0D01*
G01*
X159317999Y-58063000D01*
G75*
G02*
X159068000Y-57813001I0J249999D01*
G01*
X159068000Y-54962999D01*
G75*
G02*
X159317999Y-54713000I249999J0D01*
G01*
X160218001Y-54713000D01*
G75*
G02*
X160468000Y-54962999I0J-249999D01*
G01*
G37*
%TD.AperFunction*%
%TD*%
%TO.P,Rgate2,2*%
%TO.N,GND*%
%TA.AperFunction,SMDPad,CuDef*%
G36*
G01*
X168593000Y-64798001D02*
X168593000Y-61947999D01*
G75*
G02*
X168842999Y-61698000I249999J0D01*
G01*
X169743001Y-61698000D01*
G75*
G02*
X169993000Y-61947999I0J-249999D01*
G01*
X169993000Y-64798001D01*
G75*
G02*
X169743001Y-65048000I-249999J0D01*
G01*
X168842999Y-65048000D01*
G75*
G02*
X168593000Y-64798001I0J249999D01*
G01*
G37*
%TD.AperFunction*%
%TO.P,Rgate2,1*%
%TO.N,Net-(Dturnoff1-Pad2)*%
%TA.AperFunction,SMDPad,CuDef*%
G36*
G01*
X162493000Y-64798001D02*
X162493000Y-61947999D01*
G75*
G02*
X162742999Y-61698000I249999J0D01*
G01*
X163643001Y-61698000D01*
G75*
G02*
X163893000Y-61947999I0J-249999D01*
G01*
X163893000Y-64798001D01*
G75*
G02*
X163643001Y-65048000I-249999J0D01*
G01*
X162742999Y-65048000D01*
G75*
G02*
X162493000Y-64798001I0J249999D01*
G01*
G37*
%TD.AperFunction*%
%TD*%
%TO.P,Rgate1,2*%
%TO.N,Net-(Dturnoff1-Pad2)*%
%TA.AperFunction,SMDPad,CuDef*%
G36*
G01*
X159068000Y-64798001D02*
X159068000Y-61947999D01*
G75*
G02*
X159317999Y-61698000I249999J0D01*
G01*
X160218001Y-61698000D01*
G75*
G02*
X160468000Y-61947999I0J-249999D01*
G01*
X160468000Y-64798001D01*
G75*
G02*
X160218001Y-65048000I-249999J0D01*
G01*
X159317999Y-65048000D01*
G75*
G02*
X159068000Y-64798001I0J249999D01*
G01*
G37*
%TD.AperFunction*%
%TO.P,Rgate1,1*%
%TO.N,Net-(Rgate1-Pad1)*%
%TA.AperFunction,SMDPad,CuDef*%
G36*
G01*
X152968000Y-64798001D02*
X152968000Y-61947999D01*
G75*
G02*
X153217999Y-61698000I249999J0D01*
G01*
X154118001Y-61698000D01*
G75*
G02*
X154368000Y-61947999I0J-249999D01*
G01*
X154368000Y-64798001D01*
G75*
G02*
X154118001Y-65048000I-249999J0D01*
G01*
X153217999Y-65048000D01*
G75*
G02*
X152968000Y-64798001I0J249999D01*
G01*
G37*
%TD.AperFunction*%
%TD*%
%TO.P,Rfreq1,2*%
%TO.N,GND*%
%TA.AperFunction,SMDPad,CuDef*%
G36*
G01*
X196405000Y-89633999D02*
X196405000Y-92484001D01*
G75*
G02*
X196155001Y-92734000I-249999J0D01*
G01*
X195254999Y-92734000D01*
G75*
G02*
X195005000Y-92484001I0J249999D01*
G01*
X195005000Y-89633999D01*
G75*
G02*
X195254999Y-89384000I249999J0D01*
G01*
X196155001Y-89384000D01*
G75*
G02*
X196405000Y-89633999I0J-249999D01*
G01*
G37*
%TD.AperFunction*%
%TO.P,Rfreq1,1*%
%TO.N,Net-(Rfreq1-Pad1)*%
%TA.AperFunction,SMDPad,CuDef*%
G36*
G01*
X202505000Y-89633999D02*
X202505000Y-92484001D01*
G75*
G02*
X202255001Y-92734000I-249999J0D01*
G01*
X201354999Y-92734000D01*
G75*
G02*
X201105000Y-92484001I0J249999D01*
G01*
X201105000Y-89633999D01*
G75*
G02*
X201354999Y-89384000I249999J0D01*
G01*
X202255001Y-89384000D01*
G75*
G02*
X202505000Y-89633999I0J-249999D01*
G01*
G37*
%TD.AperFunction*%
%TD*%
%TO.P,Rfbt3,2*%
%TO.N,Net-(Cvsense1-Pad1)*%
%TA.AperFunction,SMDPad,CuDef*%
G36*
G01*
X195100001Y-55054000D02*
X192249999Y-55054000D01*
G75*
G02*
X192000000Y-54804001I0J249999D01*
G01*
X192000000Y-53903999D01*
G75*
G02*
X192249999Y-53654000I249999J0D01*
G01*
X195100001Y-53654000D01*
G75*
G02*
X195350000Y-53903999I0J-249999D01*
G01*
X195350000Y-54804001D01*
G75*
G02*
X195100001Y-55054000I-249999J0D01*
G01*
G37*
%TD.AperFunction*%
%TO.P,Rfbt3,1*%
%TO.N,Net-(Rfbt1-Pad2)*%
%TA.AperFunction,SMDPad,CuDef*%
G36*
G01*
X195100001Y-61154000D02*
X192249999Y-61154000D01*
G75*
G02*
X192000000Y-60904001I0J249999D01*
G01*
X192000000Y-60003999D01*
G75*
G02*
X192249999Y-59754000I249999J0D01*
G01*
X195100001Y-59754000D01*
G75*
G02*
X195350000Y-60003999I0J-249999D01*
G01*
X195350000Y-60904001D01*
G75*
G02*
X195100001Y-61154000I-249999J0D01*
G01*
G37*
%TD.AperFunction*%
%TD*%
%TO.P,Rfbt2,2*%
%TO.N,Net-(Rfbt1-Pad1)*%
%TA.AperFunction,SMDPad,CuDef*%
G36*
G01*
X199869999Y-68644000D02*
X202720001Y-68644000D01*
G75*
G02*
X202970000Y-68893999I0J-249999D01*
G01*
X202970000Y-69794001D01*
G75*
G02*
X202720001Y-70044000I-249999J0D01*
G01*
X199869999Y-70044000D01*
G75*
G02*
X199620000Y-69794001I0J249999D01*
G01*
X199620000Y-68893999D01*
G75*
G02*
X199869999Y-68644000I249999J0D01*
G01*
G37*
%TD.AperFunction*%
%TO.P,Rfbt2,1*%
%TO.N,Net-(Coutx1-Pad1)*%
%TA.AperFunction,SMDPad,CuDef*%
G36*
G01*
X199869999Y-62544000D02*
X202720001Y-62544000D01*
G75*
G02*
X202970000Y-62793999I0J-249999D01*
G01*
X202970000Y-63694001D01*
G75*
G02*
X202720001Y-63944000I-249999J0D01*
G01*
X199869999Y-63944000D01*
G75*
G02*
X199620000Y-63694001I0J249999D01*
G01*
X199620000Y-62793999D01*
G75*
G02*
X199869999Y-62544000I249999J0D01*
G01*
G37*
%TD.AperFunction*%
%TD*%
%TO.P,Rfbt1,2*%
%TO.N,Net-(Rfbt1-Pad2)*%
%TA.AperFunction,SMDPad,CuDef*%
G36*
G01*
X195100001Y-63944000D02*
X192249999Y-63944000D01*
G75*
G02*
X192000000Y-63694001I0J249999D01*
G01*
X192000000Y-62793999D01*
G75*
G02*
X192249999Y-62544000I249999J0D01*
G01*
X195100001Y-62544000D01*
G75*
G02*
X195350000Y-62793999I0J-249999D01*
G01*
X195350000Y-63694001D01*
G75*
G02*
X195100001Y-63944000I-249999J0D01*
G01*
G37*
%TD.AperFunction*%
%TO.P,Rfbt1,1*%
%TO.N,Net-(Rfbt1-Pad1)*%
%TA.AperFunction,SMDPad,CuDef*%
G36*
G01*
X195100001Y-70044000D02*
X192249999Y-70044000D01*
G75*
G02*
X192000000Y-69794001I0J249999D01*
G01*
X192000000Y-68893999D01*
G75*
G02*
X192249999Y-68644000I249999J0D01*
G01*
X195100001Y-68644000D01*
G75*
G02*
X195350000Y-68893999I0J-249999D01*
G01*
X195350000Y-69794001D01*
G75*
G02*
X195100001Y-70044000I-249999J0D01*
G01*
G37*
%TD.AperFunction*%
%TD*%
%TO.P,Rfbb1,2*%
%TO.N,GND*%
%TA.AperFunction,SMDPad,CuDef*%
G36*
G01*
X199869999Y-59754000D02*
X202720001Y-59754000D01*
G75*
G02*
X202970000Y-60003999I0J-249999D01*
G01*
X202970000Y-60904001D01*
G75*
G02*
X202720001Y-61154000I-249999J0D01*
G01*
X199869999Y-61154000D01*
G75*
G02*
X199620000Y-60904001I0J249999D01*
G01*
X199620000Y-60003999D01*
G75*
G02*
X199869999Y-59754000I249999J0D01*
G01*
G37*
%TD.AperFunction*%
%TO.P,Rfbb1,1*%
%TO.N,Net-(Cvsense1-Pad1)*%
%TA.AperFunction,SMDPad,CuDef*%
G36*
G01*
X199869999Y-53654000D02*
X202720001Y-53654000D01*
G75*
G02*
X202970000Y-53903999I0J-249999D01*
G01*
X202970000Y-54804001D01*
G75*
G02*
X202720001Y-55054000I-249999J0D01*
G01*
X199869999Y-55054000D01*
G75*
G02*
X199620000Y-54804001I0J249999D01*
G01*
X199620000Y-53903999D01*
G75*
G02*
X199869999Y-53654000I249999J0D01*
G01*
G37*
%TD.AperFunction*%
%TD*%
%TO.P,Rcomp1,2*%
%TO.N,GND*%
%TA.AperFunction,SMDPad,CuDef*%
G36*
G01*
X201105000Y-85499001D02*
X201105000Y-82648999D01*
G75*
G02*
X201354999Y-82399000I249999J0D01*
G01*
X202255001Y-82399000D01*
G75*
G02*
X202505000Y-82648999I0J-249999D01*
G01*
X202505000Y-85499001D01*
G75*
G02*
X202255001Y-85749000I-249999J0D01*
G01*
X201354999Y-85749000D01*
G75*
G02*
X201105000Y-85499001I0J249999D01*
G01*
G37*
%TD.AperFunction*%
%TO.P,Rcomp1,1*%
%TO.N,Net-(Ccomp1-Pad2)*%
%TA.AperFunction,SMDPad,CuDef*%
G36*
G01*
X195005000Y-85499001D02*
X195005000Y-82648999D01*
G75*
G02*
X195254999Y-82399000I249999J0D01*
G01*
X196155001Y-82399000D01*
G75*
G02*
X196405000Y-82648999I0J-249999D01*
G01*
X196405000Y-85499001D01*
G75*
G02*
X196155001Y-85749000I-249999J0D01*
G01*
X195254999Y-85749000D01*
G75*
G02*
X195005000Y-85499001I0J249999D01*
G01*
G37*
%TD.AperFunction*%
%TD*%
D20*
%TO.P,Q1,3*%
%TO.N,GND*%
X176530000Y-65764000D03*
%TO.P,Q1,2*%
%TO.N,Net-(Dboost1-Pad2)*%
X176530000Y-60314000D03*
D21*
%TO.P,Q1,1*%
%TO.N,Net-(Dturnoff1-Pad2)*%
X176530000Y-54864000D03*
%TD*%
D22*
%TO.P,L1,2*%
%TO.N,Net-(Dboost1-Pad2)*%
X133096000Y-50673000D03*
%TO.P,L1,1*%
%TO.N,Net-(Cin1-Pad1)*%
X120396000Y-50673000D03*
%TD*%
D23*
%TO.P,J3,2*%
%TO.N,GND*%
X227130000Y-68714000D03*
D24*
%TO.P,J3,1*%
%TO.N,Net-(Coutx1-Pad1)*%
X214630000Y-61214000D03*
%TD*%
D23*
%TO.P,J1,2*%
%TO.N,Net-(J1-Pad2)*%
X118926000Y-90558000D03*
D24*
%TO.P,J1,1*%
%TO.N,Net-(J1-Pad1)*%
X106426000Y-83058000D03*
%TD*%
D25*
%TO.P,Dturnoff1,2*%
%TO.N,Net-(Dturnoff1-Pad2)*%
X167758000Y-56388000D03*
%TO.P,Dturnoff1,1*%
%TO.N,Net-(Dturnoff1-Pad1)*%
X163458000Y-56388000D03*
%TD*%
D26*
%TO.P,Dstart1,2*%
%TO.N,Net-(Cin1-Pad1)*%
X147066000Y-38862000D03*
D27*
%TO.P,Dstart1,1*%
%TO.N,Net-(Coutx1-Pad1)*%
X141986000Y-38862000D03*
%TD*%
D28*
%TO.P,Disense1,2*%
%TO.N,GND*%
X146050000Y-77089000D03*
D29*
%TO.P,Disense1,1*%
%TO.N,Net-(Cisense1-Pad1)*%
X146050000Y-69469000D03*
%TD*%
%TO.P,Cvsense1,2*%
%TO.N,GND*%
%TA.AperFunction,SMDPad,CuDef*%
G36*
G01*
X167624998Y-78624000D02*
X168925002Y-78624000D01*
G75*
G02*
X169175000Y-78873998I0J-249998D01*
G01*
X169175000Y-79699002D01*
G75*
G02*
X168925002Y-79949000I-249998J0D01*
G01*
X167624998Y-79949000D01*
G75*
G02*
X167375000Y-79699002I0J249998D01*
G01*
X167375000Y-78873998D01*
G75*
G02*
X167624998Y-78624000I249998J0D01*
G01*
G37*
%TD.AperFunction*%
%TO.P,Cvsense1,1*%
%TO.N,Net-(Cvsense1-Pad1)*%
%TA.AperFunction,SMDPad,CuDef*%
G36*
G01*
X167624998Y-75499000D02*
X168925002Y-75499000D01*
G75*
G02*
X169175000Y-75748998I0J-249998D01*
G01*
X169175000Y-76574002D01*
G75*
G02*
X168925002Y-76824000I-249998J0D01*
G01*
X167624998Y-76824000D01*
G75*
G02*
X167375000Y-76574002I0J249998D01*
G01*
X167375000Y-75748998D01*
G75*
G02*
X167624998Y-75499000I249998J0D01*
G01*
G37*
%TD.AperFunction*%
%TD*%
%TO.P,Cvccx1,2*%
%TO.N,GND*%
%TA.AperFunction,SMDPad,CuDef*%
G36*
G01*
X178419998Y-78624000D02*
X179720002Y-78624000D01*
G75*
G02*
X179970000Y-78873998I0J-249998D01*
G01*
X179970000Y-79699002D01*
G75*
G02*
X179720002Y-79949000I-249998J0D01*
G01*
X178419998Y-79949000D01*
G75*
G02*
X178170000Y-79699002I0J249998D01*
G01*
X178170000Y-78873998D01*
G75*
G02*
X178419998Y-78624000I249998J0D01*
G01*
G37*
%TD.AperFunction*%
%TO.P,Cvccx1,1*%
%TO.N,Net-(Cvcc1-Pad1)*%
%TA.AperFunction,SMDPad,CuDef*%
G36*
G01*
X178419998Y-75499000D02*
X179720002Y-75499000D01*
G75*
G02*
X179970000Y-75748998I0J-249998D01*
G01*
X179970000Y-76574002D01*
G75*
G02*
X179720002Y-76824000I-249998J0D01*
G01*
X178419998Y-76824000D01*
G75*
G02*
X178170000Y-76574002I0J249998D01*
G01*
X178170000Y-75748998D01*
G75*
G02*
X178419998Y-75499000I249998J0D01*
G01*
G37*
%TD.AperFunction*%
%TD*%
%TO.P,Cvcc1,2*%
%TO.N,GND*%
%TA.AperFunction,SMDPad,CuDef*%
G36*
G01*
X172704998Y-78624000D02*
X174005002Y-78624000D01*
G75*
G02*
X174255000Y-78873998I0J-249998D01*
G01*
X174255000Y-79699002D01*
G75*
G02*
X174005002Y-79949000I-249998J0D01*
G01*
X172704998Y-79949000D01*
G75*
G02*
X172455000Y-79699002I0J249998D01*
G01*
X172455000Y-78873998D01*
G75*
G02*
X172704998Y-78624000I249998J0D01*
G01*
G37*
%TD.AperFunction*%
%TO.P,Cvcc1,1*%
%TO.N,Net-(Cvcc1-Pad1)*%
%TA.AperFunction,SMDPad,CuDef*%
G36*
G01*
X172704998Y-75499000D02*
X174005002Y-75499000D01*
G75*
G02*
X174255000Y-75748998I0J-249998D01*
G01*
X174255000Y-76574002D01*
G75*
G02*
X174005002Y-76824000I-249998J0D01*
G01*
X172704998Y-76824000D01*
G75*
G02*
X172455000Y-76574002I0J249998D01*
G01*
X172455000Y-75748998D01*
G75*
G02*
X172704998Y-75499000I249998J0D01*
G01*
G37*
%TD.AperFunction*%
%TD*%
D12*
%TO.P,Coutx1,2*%
%TO.N,GND*%
X240390000Y-40894000D03*
D13*
%TO.P,Coutx1,1*%
%TO.N,Net-(Coutx1-Pad1)*%
X199390000Y-40894000D03*
%TD*%
%TO.P,Cisense1,2*%
%TO.N,GND*%
%TA.AperFunction,SMDPad,CuDef*%
G36*
G01*
X139684998Y-72274000D02*
X140985002Y-72274000D01*
G75*
G02*
X141235000Y-72523998I0J-249998D01*
G01*
X141235000Y-73349002D01*
G75*
G02*
X140985002Y-73599000I-249998J0D01*
G01*
X139684998Y-73599000D01*
G75*
G02*
X139435000Y-73349002I0J249998D01*
G01*
X139435000Y-72523998D01*
G75*
G02*
X139684998Y-72274000I249998J0D01*
G01*
G37*
%TD.AperFunction*%
%TO.P,Cisense1,1*%
%TO.N,Net-(Cisense1-Pad1)*%
%TA.AperFunction,SMDPad,CuDef*%
G36*
G01*
X139684998Y-69149000D02*
X140985002Y-69149000D01*
G75*
G02*
X141235000Y-69398998I0J-249998D01*
G01*
X141235000Y-70224002D01*
G75*
G02*
X140985002Y-70474000I-249998J0D01*
G01*
X139684998Y-70474000D01*
G75*
G02*
X139435000Y-70224002I0J249998D01*
G01*
X139435000Y-69398998D01*
G75*
G02*
X139684998Y-69149000I249998J0D01*
G01*
G37*
%TD.AperFunction*%
%TD*%
D12*
%TO.P,Cin1,2*%
%TO.N,Net-(Cin1-Pad2)*%
X105791000Y-24913000D03*
D13*
%TO.P,Cin1,1*%
%TO.N,Net-(Cin1-Pad1)*%
X105791000Y-65913000D03*
%TD*%
%TO.P,Cicomp1,2*%
%TO.N,GND*%
%TA.AperFunction,SMDPad,CuDef*%
G36*
G01*
X191400000Y-91074002D02*
X191400000Y-89773998D01*
G75*
G02*
X191649998Y-89524000I249998J0D01*
G01*
X192475002Y-89524000D01*
G75*
G02*
X192725000Y-89773998I0J-249998D01*
G01*
X192725000Y-91074002D01*
G75*
G02*
X192475002Y-91324000I-249998J0D01*
G01*
X191649998Y-91324000D01*
G75*
G02*
X191400000Y-91074002I0J249998D01*
G01*
G37*
%TD.AperFunction*%
%TO.P,Cicomp1,1*%
%TO.N,Net-(Cicomp1-Pad1)*%
%TA.AperFunction,SMDPad,CuDef*%
G36*
G01*
X188275000Y-91074002D02*
X188275000Y-89773998D01*
G75*
G02*
X188524998Y-89524000I249998J0D01*
G01*
X189350002Y-89524000D01*
G75*
G02*
X189600000Y-89773998I0J-249998D01*
G01*
X189600000Y-91074002D01*
G75*
G02*
X189350002Y-91324000I-249998J0D01*
G01*
X188524998Y-91324000D01*
G75*
G02*
X188275000Y-91074002I0J249998D01*
G01*
G37*
%TD.AperFunction*%
%TD*%
%TO.P,Ccomp2,2*%
%TO.N,GND*%
%TA.AperFunction,SMDPad,CuDef*%
G36*
G01*
X161909998Y-78624000D02*
X163210002Y-78624000D01*
G75*
G02*
X163460000Y-78873998I0J-249998D01*
G01*
X163460000Y-79699002D01*
G75*
G02*
X163210002Y-79949000I-249998J0D01*
G01*
X161909998Y-79949000D01*
G75*
G02*
X161660000Y-79699002I0J249998D01*
G01*
X161660000Y-78873998D01*
G75*
G02*
X161909998Y-78624000I249998J0D01*
G01*
G37*
%TD.AperFunction*%
%TO.P,Ccomp2,1*%
%TO.N,Net-(Ccomp1-Pad1)*%
%TA.AperFunction,SMDPad,CuDef*%
G36*
G01*
X161909998Y-75499000D02*
X163210002Y-75499000D01*
G75*
G02*
X163460000Y-75748998I0J-249998D01*
G01*
X163460000Y-76574002D01*
G75*
G02*
X163210002Y-76824000I-249998J0D01*
G01*
X161909998Y-76824000D01*
G75*
G02*
X161660000Y-76574002I0J249998D01*
G01*
X161660000Y-75748998D01*
G75*
G02*
X161909998Y-75499000I249998J0D01*
G01*
G37*
%TD.AperFunction*%
%TD*%
%TO.P,Ccomp1,2*%
%TO.N,Net-(Ccomp1-Pad2)*%
%TA.AperFunction,SMDPad,CuDef*%
G36*
G01*
X191400000Y-84724002D02*
X191400000Y-83423998D01*
G75*
G02*
X191649998Y-83174000I249998J0D01*
G01*
X192475002Y-83174000D01*
G75*
G02*
X192725000Y-83423998I0J-249998D01*
G01*
X192725000Y-84724002D01*
G75*
G02*
X192475002Y-84974000I-249998J0D01*
G01*
X191649998Y-84974000D01*
G75*
G02*
X191400000Y-84724002I0J249998D01*
G01*
G37*
%TD.AperFunction*%
%TO.P,Ccomp1,1*%
%TO.N,Net-(Ccomp1-Pad1)*%
%TA.AperFunction,SMDPad,CuDef*%
G36*
G01*
X188275000Y-84724002D02*
X188275000Y-83423998D01*
G75*
G02*
X188524998Y-83174000I249998J0D01*
G01*
X189350002Y-83174000D01*
G75*
G02*
X189600000Y-83423998I0J-249998D01*
G01*
X189600000Y-84724002D01*
G75*
G02*
X189350002Y-84974000I-249998J0D01*
G01*
X188524998Y-84974000D01*
G75*
G02*
X188275000Y-84724002I0J249998D01*
G01*
G37*
%TD.AperFunction*%
%TD*%
D30*
%TO.N,Net-(Cin1-Pad2)*%
X175895000Y-91059000D03*
%TO.N,Net-(Cvcc1-Pad1)*%
X172085000Y-74549000D03*
X170815000Y-71374000D03*
%TO.N,Net-(Ccomp1-Pad1)*%
X165100000Y-76454000D03*
X188595000Y-82169000D03*
%TO.N,GND*%
X155575000Y-68834000D03*
D31*
X168783000Y-66548000D03*
D30*
X184150000Y-78740000D03*
%TD*%
D32*
%TO.N,Net-(Cin1-Pad2)*%
X108171000Y-73533000D02*
X100551000Y-65913000D01*
X100551000Y-30153000D02*
X105791000Y-24913000D01*
X100551000Y-65913000D02*
X100551000Y-30153000D01*
D33*
X178560000Y-91059000D02*
X179195000Y-90424000D01*
X175895000Y-91059000D02*
X178560000Y-91059000D01*
X179195000Y-90424000D02*
X179195000Y-88394000D01*
X183515000Y-84074000D02*
X185295000Y-84074000D01*
X179195000Y-88394000D02*
X183515000Y-84074000D01*
D32*
%TO.N,Net-(Cin1-Pad1)*%
X113411000Y-73533000D02*
X105791000Y-65913000D01*
X115671000Y-73533000D02*
X113411000Y-73533000D01*
X105791000Y-65278000D02*
X105791000Y-65913000D01*
X120396000Y-50673000D02*
X105791000Y-65278000D01*
X147066000Y-38862000D02*
X140462000Y-45466000D01*
X125603000Y-45466000D02*
X120396000Y-50673000D01*
X140462000Y-45466000D02*
X125603000Y-45466000D01*
X158750000Y-27178000D02*
X158750000Y-26416000D01*
X147066000Y-38862000D02*
X158750000Y-27178000D01*
D33*
%TO.N,Net-(Cisense1-Pad1)*%
X139992500Y-69469000D02*
X140335000Y-69811500D01*
X140335000Y-69811500D02*
X140335000Y-69469000D01*
X145707500Y-69811500D02*
X146050000Y-69469000D01*
X140335000Y-69811500D02*
X145707500Y-69811500D01*
X153670000Y-72644000D02*
X152853652Y-72644000D01*
X154940000Y-73914000D02*
X153670000Y-72644000D01*
X154940000Y-75819000D02*
X154940000Y-73914000D01*
X161290000Y-82169000D02*
X154940000Y-75819000D01*
X175895000Y-82169000D02*
X161290000Y-82169000D01*
X177800000Y-84074000D02*
X175895000Y-82169000D01*
X179195000Y-84074000D02*
X177800000Y-84074000D01*
X149225000Y-72644000D02*
X152853652Y-72644000D01*
X146050000Y-69469000D02*
X149225000Y-72644000D01*
X140335000Y-69811500D02*
X140335000Y-65024000D01*
%TO.N,Net-(Cvcc1-Pad1)*%
X173355000Y-76161500D02*
X179070000Y-76161500D01*
X173355000Y-76161500D02*
X173355000Y-75819000D01*
X173355000Y-75819000D02*
X172085000Y-74549000D01*
X158296348Y-71374000D02*
X170815000Y-71374000D01*
X190969500Y-76161500D02*
X191008000Y-76200000D01*
X179070000Y-76161500D02*
X190969500Y-76161500D01*
%TO.N,Net-(Cvsense1-Pad1)*%
X193550000Y-54229000D02*
X193675000Y-54354000D01*
X193675000Y-54354000D02*
X201295000Y-54354000D01*
X192280000Y-54354000D02*
X193675000Y-54354000D01*
X191135000Y-55499000D02*
X192280000Y-54354000D01*
X191135000Y-67564000D02*
X191135000Y-55499000D01*
X186055000Y-72644000D02*
X191135000Y-67564000D01*
X164465000Y-72644000D02*
X186055000Y-72644000D01*
X163195000Y-72644000D02*
X162560000Y-72644000D01*
X166712500Y-76161500D02*
X163195000Y-72644000D01*
X168275000Y-76161500D02*
X166712500Y-76161500D01*
X162560000Y-72644000D02*
X164465000Y-72644000D01*
X158296348Y-72644000D02*
X162560000Y-72644000D01*
X201295000Y-73914000D02*
X199390000Y-73914000D01*
X199390000Y-73914000D02*
X198120000Y-72644000D01*
X198120000Y-72644000D02*
X186055000Y-72644000D01*
%TO.N,Net-(Ccomp1-Pad1)*%
X162560000Y-76161500D02*
X162560000Y-75819000D01*
X160655000Y-73914000D02*
X158296348Y-73914000D01*
X162560000Y-75819000D02*
X160655000Y-73914000D01*
X164807500Y-76161500D02*
X165100000Y-76454000D01*
X162560000Y-76161500D02*
X164807500Y-76161500D01*
X189230000Y-83781500D02*
X188937500Y-84074000D01*
X188595000Y-83731500D02*
X188937500Y-84074000D01*
X188595000Y-82169000D02*
X188595000Y-83731500D01*
%TO.N,Net-(Rfreq1-Pad1)*%
X152853652Y-75637652D02*
X152853652Y-73914000D01*
X172720000Y-83439000D02*
X160655000Y-83439000D01*
X174625000Y-85344000D02*
X172720000Y-83439000D01*
X174625000Y-92329000D02*
X174625000Y-85344000D01*
X177165000Y-94869000D02*
X174625000Y-92329000D01*
X200660000Y-94869000D02*
X177165000Y-94869000D01*
X160655000Y-83439000D02*
X152853652Y-75637652D01*
X201805000Y-93724000D02*
X200660000Y-94869000D01*
X201805000Y-91059000D02*
X201805000Y-93724000D01*
%TO.N,Net-(Cicomp1-Pad1)*%
X154081101Y-71374000D02*
X152853652Y-71374000D01*
X156210000Y-75184000D02*
X156210000Y-73502899D01*
X156210000Y-73502899D02*
X154081101Y-71374000D01*
X161925000Y-80899000D02*
X156210000Y-75184000D01*
X186055000Y-80899000D02*
X161925000Y-80899000D01*
X187325000Y-82169000D02*
X186055000Y-80899000D01*
X187325000Y-87249000D02*
X187325000Y-82169000D01*
X188937500Y-88861500D02*
X187325000Y-87249000D01*
X188937500Y-90424000D02*
X188937500Y-88861500D01*
%TO.N,Net-(Ccomp1-Pad2)*%
X192062500Y-84074000D02*
X195705000Y-84074000D01*
%TO.N,Net-(Dturnoff1-Pad2)*%
X175260000Y-56134000D02*
X176530000Y-54864000D01*
X159768000Y-63373000D02*
X163193000Y-63373000D01*
X163193000Y-63373000D02*
X163193000Y-60708000D01*
X163193000Y-60708000D02*
X164338000Y-59563000D01*
X164338000Y-59563000D02*
X166878000Y-59563000D01*
X167758000Y-58683000D02*
X167758000Y-56388000D01*
X166878000Y-59563000D02*
X167758000Y-58683000D01*
X184785000Y-54864000D02*
X176530000Y-54864000D01*
X175006000Y-56388000D02*
X176530000Y-54864000D01*
X167758000Y-56388000D02*
X175006000Y-56388000D01*
%TO.N,Net-(Dturnoff1-Pad1)*%
X159768000Y-56388000D02*
X163458000Y-56388000D01*
%TO.N,Net-(Rfbt1-Pad2)*%
X193675000Y-60454000D02*
X193675000Y-63244000D01*
%TO.N,Net-(Rfbt1-Pad1)*%
X201295000Y-69344000D02*
X193675000Y-69344000D01*
%TO.N,GND*%
X152853652Y-70104000D02*
X154305000Y-70104000D01*
X154305000Y-70104000D02*
X155575000Y-68834000D01*
D34*
X227130000Y-54154000D02*
X240390000Y-40894000D01*
X227130000Y-68714000D02*
X227130000Y-54154000D01*
X240390000Y-40894000D02*
X240390000Y-53869000D01*
X240030000Y-54229000D02*
X240390000Y-53869000D01*
X237490000Y-54229000D02*
X240030000Y-54229000D01*
D33*
X176635000Y-65659000D02*
X176530000Y-65764000D01*
X184785000Y-65659000D02*
X176635000Y-65659000D01*
X187325000Y-63119000D02*
X184785000Y-65659000D01*
X187325000Y-54229000D02*
X187325000Y-63119000D01*
X188595000Y-52959000D02*
X187325000Y-54229000D01*
X203200000Y-52959000D02*
X188595000Y-52959000D01*
X203960000Y-53719000D02*
X203200000Y-52959000D01*
X203960000Y-60454000D02*
X203960000Y-53719000D01*
X201295000Y-60454000D02*
X203960000Y-60454000D01*
X173355000Y-79286500D02*
X179070000Y-79286500D01*
X168275000Y-79286500D02*
X173355000Y-79286500D01*
X162560000Y-79286500D02*
X168275000Y-79286500D01*
X195070000Y-90424000D02*
X195705000Y-91059000D01*
X192062500Y-90424000D02*
X195070000Y-90424000D01*
X201805000Y-84959000D02*
X201805000Y-84074000D01*
X195705000Y-91059000D02*
X201805000Y-84959000D01*
X192062500Y-90424000D02*
X192062500Y-90081500D01*
X146050000Y-77089000D02*
X146050000Y-74549000D01*
X144437500Y-72936500D02*
X140335000Y-72936500D01*
X146050000Y-74549000D02*
X144437500Y-72936500D01*
X185295000Y-90424000D02*
X185295000Y-92839000D01*
X185295000Y-92839000D02*
X186055000Y-93599000D01*
X188887500Y-93599000D02*
X192062500Y-90424000D01*
X186055000Y-93599000D02*
X188887500Y-93599000D01*
D35*
X146050000Y-77089000D02*
X146050000Y-82296000D01*
D32*
X171684000Y-65764000D02*
X169293000Y-63373000D01*
X176530000Y-65764000D02*
X171684000Y-65764000D01*
X168783000Y-63883000D02*
X169293000Y-63373000D01*
X168783000Y-66548000D02*
X168783000Y-63883000D01*
D33*
X179070000Y-79286500D02*
X183603500Y-79286500D01*
X183603500Y-79286500D02*
X184150000Y-78740000D01*
D32*
X217104000Y-78740000D02*
X218788000Y-77056000D01*
X218788000Y-77056000D02*
X217866000Y-77978000D01*
X227130000Y-68714000D02*
X218788000Y-77056000D01*
X200914000Y-78740000D02*
X217104000Y-78740000D01*
X191008000Y-78740000D02*
X200914000Y-78740000D01*
D33*
X201805000Y-84074000D02*
X201805000Y-82171000D01*
X201805000Y-82171000D02*
X201422000Y-81788000D01*
X194056000Y-81788000D02*
X191008000Y-78740000D01*
X201422000Y-81788000D02*
X194056000Y-81788000D01*
D32*
X152675000Y-40894000D02*
X187452000Y-40894000D01*
X187452000Y-40894000D02*
X191770000Y-36576000D01*
X236072000Y-36576000D02*
X240390000Y-40894000D01*
X191770000Y-36576000D02*
X236072000Y-36576000D01*
%TO.N,Net-(Rntc1-Pad1)*%
X94996000Y-76708000D02*
X98171000Y-73533000D01*
X94996000Y-83058000D02*
X94996000Y-76708000D01*
%TO.N,Net-(J1-Pad2)*%
X118926000Y-77778001D02*
X123171001Y-73533000D01*
X118926000Y-90558000D02*
X118926000Y-77778001D01*
%TO.N,Net-(J1-Pad1)*%
X97426000Y-92058000D02*
X106426000Y-83058000D01*
X94996000Y-92058000D02*
X97426000Y-92058000D01*
D33*
%TO.N,Net-(Coutx1-Pad1)*%
X212600000Y-63244000D02*
X214630000Y-61214000D01*
X201295000Y-63244000D02*
X212600000Y-63244000D01*
D32*
X135890000Y-32766000D02*
X141986000Y-38862000D01*
X135890000Y-26416000D02*
X135890000Y-32766000D01*
X141986000Y-29718000D02*
X145288000Y-26416000D01*
X141986000Y-38862000D02*
X141986000Y-29718000D01*
D33*
%TO.N,Net-(Rgate1-Pad1)*%
X158296348Y-70104000D02*
X158296348Y-68380348D01*
X153668000Y-65403000D02*
X153668000Y-63373000D01*
X155448000Y-67183000D02*
X153668000Y-65403000D01*
X153668000Y-63373000D02*
X153668000Y-56388000D01*
X167005000Y-70104000D02*
X167640000Y-69469000D01*
X158296348Y-70104000D02*
X167005000Y-70104000D01*
X157099000Y-67183000D02*
X158296348Y-68380348D01*
X155448000Y-67183000D02*
X157099000Y-67183000D01*
%TD*%
M02*
