M48
; DRILL file {KiCad (5.1.8)-1} date 03/07/21 20:42:45
; FORMAT={-:-/ absolute / inch / decimal}
; #@! TF.CreationDate,2021-03-07T20:42:45-08:00
; #@! TF.GenerationSoftware,Kicad,Pcbnew,(5.1.8)-1
; #@! TF.FileFunction,Plated,1,2,PTH
FMAT,2
INCH
T1C0.0157
T2C0.0240
T3C0.0256
T4C0.0315
T5C0.0370
T6C0.0394
T7C0.0433
T8C0.0472
T9C0.0530
T10C0.0531
T11C0.0551
T12C0.0591
T13C0.0630
T14C0.0787
%
G90
G05
T1
X3.06Y-5.29
X3.11Y-5.35
X3.13Y-5.27
X3.14Y-5.4
X3.22Y-5.28
X3.22Y-5.34
X3.29Y-5.41
X3.3Y-5.26
X3.34Y-5.33
X3.39Y-5.26
X3.41Y-5.35
X3.5Y-5.29
X3.52Y-5.38
X4.32Y-3.02
X4.4Y-3.73
X4.41Y-3.26
X4.4321Y-2.2079
X4.4321Y-2.3521
X4.54Y-5.88
X4.6Y-3.54
X4.84Y-3.54
X4.84Y-5.55
X4.87Y-4.23
X4.9Y-5.59
X4.95Y-1.7
X4.95Y-5.55
X4.97Y-3.15
X5.03Y-3.54
X5.03Y-4.27
X5.05Y-2.43
X5.1Y-3.27
X5.15Y-3.46
X5.15Y-4.33
X5.15Y-5.13
X5.15Y-5.29
X5.18Y-5.99
X5.2Y-1.45
X5.21Y-5.63
X5.26Y-4.15
X5.265Y-5.945
X5.285Y-5.895
X5.31Y-5.93
X5.42Y-1.06
X5.45Y-2.39
X5.52Y-1.16
X5.555Y-3.365
X5.59Y-5.41
X5.77Y-3.7
X5.79Y-5.1
X5.98Y-5.79
X6.15Y-5.78
X6.34Y-5.79
X6.46Y-5.79
X6.63Y-5.79
X6.74Y-5.78
X6.84Y-5.79
X6.98Y-5.77
X7.1Y-5.8
X7.11Y-4.98
X7.13Y-4.93
X7.14Y-2.91
X7.16Y-4.98
X7.2Y-4.93
X7.22Y-4.98
X7.23Y-5.79
X7.34Y-5.79
X7.45Y-5.79
X7.52Y-2.63
X7.55Y-5.79
X7.68Y-3.48
X7.72Y-5.79
X7.73Y-3.62
X7.77Y-2.9
X7.81Y-2.75
X7.83Y-5.78
X7.95Y-5.78
X8.02Y-5.79
X8.05Y-2.72
X8.07Y-2.9
T2
X5.6616Y-2.9
X5.8584Y-2.9
T3
X4.65Y-1.84
X4.65Y-1.89
X2.15Y-5.8
X2.15Y-5.85
T4
X3.97Y-1.81
X4.27Y-1.81
X5.6631Y-2.63
X5.86Y-2.63
T5
X2.79Y-2.26
X2.79Y-2.76
T6
X7.52Y-3.17
X7.9137Y-3.17
X7.5163Y-3.81
X7.91Y-3.81
X2.3457Y-1.62
X2.7Y-1.62
T7
X4.13Y-0.86
X4.33Y-0.86
X8.21Y-3.71
X8.21Y-3.81
X8.21Y-3.91
X8.21Y-2.97
X8.21Y-3.07
X8.21Y-3.17
T8
X6.3242Y-4.31
X7.21Y-4.31
T9
X3.67Y-0.8257
X3.67Y-1.121
X3.67Y-1.4163
X3.67Y-1.81
T10
X2.19Y-3.41
X2.19Y-3.71
X2.19Y-4.01
X2.19Y-4.51
X2.19Y-4.81
X2.19Y-5.11
X3.99Y-3.41
X3.99Y-3.71
X3.99Y-4.01
X3.99Y-4.51
X3.99Y-4.81
X3.99Y-5.11
T11
X6.59Y-0.7758
X6.59Y-2.39
T12
X5.0509Y-6.28
X5.2654Y-6.28
X5.48Y-6.28
X4.92Y-0.83
X5.1346Y-0.83
X5.3491Y-0.83
X4.2109Y-6.28
X4.4254Y-6.28
X4.64Y-6.28
T13
X4.4Y-1.31
X5.0Y-1.31
T14
X7.5879Y-2.0847
X8.08Y-2.38
X7.5679Y-0.8947
X8.06Y-1.19
X2.35Y-0.91
X2.8421Y-1.2053
X7.87Y-6.19
X8.1653Y-5.6979
X6.5963Y-3.4
X6.99Y-3.4
T0
M30
