%TF.GenerationSoftware,KiCad,Pcbnew,(5.1.8)-1*%
%TF.CreationDate,2021-03-29T19:48:26-07:00*%
%TF.ProjectId,KiCAD Simulations,4b694341-4420-4536-996d-756c6174696f,rev?*%
%TF.SameCoordinates,Original*%
%TF.FileFunction,Paste,Top*%
%TF.FilePolarity,Positive*%
%FSLAX46Y46*%
G04 Gerber Fmt 4.6, Leading zero omitted, Abs format (unit mm)*
G04 Created by KiCad (PCBNEW (5.1.8)-1) date 2021-03-29 19:48:26*
%MOMM*%
%LPD*%
G01*
G04 APERTURE LIST*
%ADD10C,0.152400*%
%ADD11R,0.458000X1.112799*%
%ADD12R,0.972299X0.508000*%
%ADD13R,1.454899X0.558000*%
%ADD14R,1.842999X1.447000*%
%ADD15R,0.900000X0.800000*%
%ADD16R,1.212799X2.990799*%
%ADD17R,1.492199X3.600399*%
G04 APERTURE END LIST*
D10*
%TO.C,Dsec2*%
X208307000Y-79003200D02*
X203989000Y-79003200D01*
X208307000Y-82711600D02*
X208307000Y-79003200D01*
X203989000Y-82711600D02*
X208307000Y-82711600D01*
X203989000Y-79003200D02*
X203989000Y-82711600D01*
%TO.C,Dsec1*%
X193973000Y-79003200D02*
X193973000Y-82711600D01*
X193973000Y-82711600D02*
X198291000Y-82711600D01*
X198291000Y-82711600D02*
X198291000Y-79003200D01*
X198291000Y-79003200D02*
X193973000Y-79003200D01*
%TD*%
%TO.C,Rlimit1*%
G36*
G01*
X181875000Y-77400000D02*
X183125000Y-77400000D01*
G75*
G02*
X183375000Y-77650000I0J-250000D01*
G01*
X183375000Y-78450000D01*
G75*
G02*
X183125000Y-78700000I-250000J0D01*
G01*
X181875000Y-78700000D01*
G75*
G02*
X181625000Y-78450000I0J250000D01*
G01*
X181625000Y-77650000D01*
G75*
G02*
X181875000Y-77400000I250000J0D01*
G01*
G37*
G36*
G01*
X181875000Y-74300000D02*
X183125000Y-74300000D01*
G75*
G02*
X183375000Y-74550000I0J-250000D01*
G01*
X183375000Y-75350000D01*
G75*
G02*
X183125000Y-75600000I-250000J0D01*
G01*
X181875000Y-75600000D01*
G75*
G02*
X181625000Y-75350000I0J250000D01*
G01*
X181625000Y-74550000D01*
G75*
G02*
X181875000Y-74300000I250000J0D01*
G01*
G37*
%TD*%
%TO.C,Rdrv2*%
G36*
G01*
X134625000Y-120900000D02*
X135875000Y-120900000D01*
G75*
G02*
X136125000Y-121150000I0J-250000D01*
G01*
X136125000Y-121950000D01*
G75*
G02*
X135875000Y-122200000I-250000J0D01*
G01*
X134625000Y-122200000D01*
G75*
G02*
X134375000Y-121950000I0J250000D01*
G01*
X134375000Y-121150000D01*
G75*
G02*
X134625000Y-120900000I250000J0D01*
G01*
G37*
G36*
G01*
X134625000Y-117800000D02*
X135875000Y-117800000D01*
G75*
G02*
X136125000Y-118050000I0J-250000D01*
G01*
X136125000Y-118850000D01*
G75*
G02*
X135875000Y-119100000I-250000J0D01*
G01*
X134625000Y-119100000D01*
G75*
G02*
X134375000Y-118850000I0J250000D01*
G01*
X134375000Y-118050000D01*
G75*
G02*
X134625000Y-117800000I250000J0D01*
G01*
G37*
%TD*%
%TO.C,Rdrv1*%
G36*
G01*
X134375000Y-101100000D02*
X135625000Y-101100000D01*
G75*
G02*
X135875000Y-101350000I0J-250000D01*
G01*
X135875000Y-102150000D01*
G75*
G02*
X135625000Y-102400000I-250000J0D01*
G01*
X134375000Y-102400000D01*
G75*
G02*
X134125000Y-102150000I0J250000D01*
G01*
X134125000Y-101350000D01*
G75*
G02*
X134375000Y-101100000I250000J0D01*
G01*
G37*
G36*
G01*
X134375000Y-98000000D02*
X135625000Y-98000000D01*
G75*
G02*
X135875000Y-98250000I0J-250000D01*
G01*
X135875000Y-99050000D01*
G75*
G02*
X135625000Y-99300000I-250000J0D01*
G01*
X134375000Y-99300000D01*
G75*
G02*
X134125000Y-99050000I0J250000D01*
G01*
X134125000Y-98250000D01*
G75*
G02*
X134375000Y-98000000I250000J0D01*
G01*
G37*
%TD*%
%TO.C,Rcomp2*%
G36*
G01*
X167600000Y-94375000D02*
X167600000Y-95625000D01*
G75*
G02*
X167350000Y-95875000I-250000J0D01*
G01*
X166550000Y-95875000D01*
G75*
G02*
X166300000Y-95625000I0J250000D01*
G01*
X166300000Y-94375000D01*
G75*
G02*
X166550000Y-94125000I250000J0D01*
G01*
X167350000Y-94125000D01*
G75*
G02*
X167600000Y-94375000I0J-250000D01*
G01*
G37*
G36*
G01*
X170700000Y-94375000D02*
X170700000Y-95625000D01*
G75*
G02*
X170450000Y-95875000I-250000J0D01*
G01*
X169650000Y-95875000D01*
G75*
G02*
X169400000Y-95625000I0J250000D01*
G01*
X169400000Y-94375000D01*
G75*
G02*
X169650000Y-94125000I250000J0D01*
G01*
X170450000Y-94125000D01*
G75*
G02*
X170700000Y-94375000I0J-250000D01*
G01*
G37*
%TD*%
D11*
%TO.C,Dsec2*%
X204243000Y-84665000D03*
X205513000Y-84665000D03*
X206783000Y-84665000D03*
X208053000Y-84665000D03*
X208053000Y-79031000D03*
X206783000Y-79031000D03*
X205513000Y-79031000D03*
X204243000Y-79031000D03*
%TD*%
%TO.C,Dsec1*%
X194227000Y-79031000D03*
X195497000Y-79031000D03*
X196767000Y-79031000D03*
X198037000Y-79031000D03*
X198037000Y-84665000D03*
X196767000Y-84665000D03*
X195497000Y-84665000D03*
X194227000Y-84665000D03*
%TD*%
D12*
%TO.C,VR1*%
X168698451Y-74637999D03*
X168698451Y-76538001D03*
X165973549Y-76538001D03*
X165973549Y-75588000D03*
X165973549Y-74637999D03*
%TD*%
D13*
%TO.C,U1LLC1*%
X103701348Y-88671000D03*
X103701348Y-89941000D03*
X103701348Y-91211000D03*
X103701348Y-93751000D03*
X103701348Y-95021000D03*
X103701348Y-96291000D03*
X103701348Y-97561000D03*
X98258652Y-97561000D03*
X98258652Y-96291000D03*
X98258652Y-95021000D03*
X98258652Y-93751000D03*
X98258652Y-92481000D03*
X98258652Y-91211000D03*
X98258652Y-88671000D03*
%TD*%
%TO.C,Rvcc2*%
G36*
G01*
X110514999Y-112440000D02*
X113365001Y-112440000D01*
G75*
G02*
X113615000Y-112689999I0J-249999D01*
G01*
X113615000Y-113590001D01*
G75*
G02*
X113365001Y-113840000I-249999J0D01*
G01*
X110514999Y-113840000D01*
G75*
G02*
X110265000Y-113590001I0J249999D01*
G01*
X110265000Y-112689999D01*
G75*
G02*
X110514999Y-112440000I249999J0D01*
G01*
G37*
G36*
G01*
X110514999Y-106340000D02*
X113365001Y-106340000D01*
G75*
G02*
X113615000Y-106589999I0J-249999D01*
G01*
X113615000Y-107490001D01*
G75*
G02*
X113365001Y-107740000I-249999J0D01*
G01*
X110514999Y-107740000D01*
G75*
G02*
X110265000Y-107490001I0J249999D01*
G01*
X110265000Y-106589999D01*
G75*
G02*
X110514999Y-106340000I249999J0D01*
G01*
G37*
%TD*%
%TO.C,Rvcc1*%
G36*
G01*
X111622000Y-101552999D02*
X111622000Y-104403001D01*
G75*
G02*
X111372001Y-104653000I-249999J0D01*
G01*
X110471999Y-104653000D01*
G75*
G02*
X110222000Y-104403001I0J249999D01*
G01*
X110222000Y-101552999D01*
G75*
G02*
X110471999Y-101303000I249999J0D01*
G01*
X111372001Y-101303000D01*
G75*
G02*
X111622000Y-101552999I0J-249999D01*
G01*
G37*
G36*
G01*
X117722000Y-101552999D02*
X117722000Y-104403001D01*
G75*
G02*
X117472001Y-104653000I-249999J0D01*
G01*
X116571999Y-104653000D01*
G75*
G02*
X116322000Y-104403001I0J249999D01*
G01*
X116322000Y-101552999D01*
G75*
G02*
X116571999Y-101303000I249999J0D01*
G01*
X117472001Y-101303000D01*
G75*
G02*
X117722000Y-101552999I0J-249999D01*
G01*
G37*
%TD*%
%TO.C,Rlo1*%
G36*
G01*
X133644999Y-114148000D02*
X136495001Y-114148000D01*
G75*
G02*
X136745000Y-114397999I0J-249999D01*
G01*
X136745000Y-115298001D01*
G75*
G02*
X136495001Y-115548000I-249999J0D01*
G01*
X133644999Y-115548000D01*
G75*
G02*
X133395000Y-115298001I0J249999D01*
G01*
X133395000Y-114397999D01*
G75*
G02*
X133644999Y-114148000I249999J0D01*
G01*
G37*
G36*
G01*
X133644999Y-108048000D02*
X136495001Y-108048000D01*
G75*
G02*
X136745000Y-108297999I0J-249999D01*
G01*
X136745000Y-109198001D01*
G75*
G02*
X136495001Y-109448000I-249999J0D01*
G01*
X133644999Y-109448000D01*
G75*
G02*
X133395000Y-109198001I0J249999D01*
G01*
X133395000Y-108297999D01*
G75*
G02*
X133644999Y-108048000I249999J0D01*
G01*
G37*
%TD*%
%TO.C,Rled1*%
G36*
G01*
X159978000Y-80422999D02*
X159978000Y-83273001D01*
G75*
G02*
X159728001Y-83523000I-249999J0D01*
G01*
X158827999Y-83523000D01*
G75*
G02*
X158578000Y-83273001I0J249999D01*
G01*
X158578000Y-80422999D01*
G75*
G02*
X158827999Y-80173000I249999J0D01*
G01*
X159728001Y-80173000D01*
G75*
G02*
X159978000Y-80422999I0J-249999D01*
G01*
G37*
G36*
G01*
X166078000Y-80422999D02*
X166078000Y-83273001D01*
G75*
G02*
X165828001Y-83523000I-249999J0D01*
G01*
X164927999Y-83523000D01*
G75*
G02*
X164678000Y-83273001I0J249999D01*
G01*
X164678000Y-80422999D01*
G75*
G02*
X164927999Y-80173000I249999J0D01*
G01*
X165828001Y-80173000D01*
G75*
G02*
X166078000Y-80422999I0J-249999D01*
G01*
G37*
%TD*%
%TO.C,Risns1*%
G36*
G01*
X81121001Y-87010000D02*
X78270999Y-87010000D01*
G75*
G02*
X78021000Y-86760001I0J249999D01*
G01*
X78021000Y-85859999D01*
G75*
G02*
X78270999Y-85610000I249999J0D01*
G01*
X81121001Y-85610000D01*
G75*
G02*
X81371000Y-85859999I0J-249999D01*
G01*
X81371000Y-86760001D01*
G75*
G02*
X81121001Y-87010000I-249999J0D01*
G01*
G37*
G36*
G01*
X81121001Y-93110000D02*
X78270999Y-93110000D01*
G75*
G02*
X78021000Y-92860001I0J249999D01*
G01*
X78021000Y-91959999D01*
G75*
G02*
X78270999Y-91710000I249999J0D01*
G01*
X81121001Y-91710000D01*
G75*
G02*
X81371000Y-91959999I0J-249999D01*
G01*
X81371000Y-92860001D01*
G75*
G02*
X81121001Y-93110000I-249999J0D01*
G01*
G37*
%TD*%
%TO.C,Rho1*%
G36*
G01*
X133644999Y-93532000D02*
X136495001Y-93532000D01*
G75*
G02*
X136745000Y-93781999I0J-249999D01*
G01*
X136745000Y-94682001D01*
G75*
G02*
X136495001Y-94932000I-249999J0D01*
G01*
X133644999Y-94932000D01*
G75*
G02*
X133395000Y-94682001I0J249999D01*
G01*
X133395000Y-93781999D01*
G75*
G02*
X133644999Y-93532000I249999J0D01*
G01*
G37*
G36*
G01*
X133644999Y-87432000D02*
X136495001Y-87432000D01*
G75*
G02*
X136745000Y-87681999I0J-249999D01*
G01*
X136745000Y-88582001D01*
G75*
G02*
X136495001Y-88832000I-249999J0D01*
G01*
X133644999Y-88832000D01*
G75*
G02*
X133395000Y-88582001I0J249999D01*
G01*
X133395000Y-87681999D01*
G75*
G02*
X133644999Y-87432000I249999J0D01*
G01*
G37*
%TD*%
%TO.C,Rfbt4*%
G36*
G01*
X187194999Y-77938000D02*
X190045001Y-77938000D01*
G75*
G02*
X190295000Y-78187999I0J-249999D01*
G01*
X190295000Y-79088001D01*
G75*
G02*
X190045001Y-79338000I-249999J0D01*
G01*
X187194999Y-79338000D01*
G75*
G02*
X186945000Y-79088001I0J249999D01*
G01*
X186945000Y-78187999D01*
G75*
G02*
X187194999Y-77938000I249999J0D01*
G01*
G37*
G36*
G01*
X187194999Y-71838000D02*
X190045001Y-71838000D01*
G75*
G02*
X190295000Y-72087999I0J-249999D01*
G01*
X190295000Y-72988001D01*
G75*
G02*
X190045001Y-73238000I-249999J0D01*
G01*
X187194999Y-73238000D01*
G75*
G02*
X186945000Y-72988001I0J249999D01*
G01*
X186945000Y-72087999D01*
G75*
G02*
X187194999Y-71838000I249999J0D01*
G01*
G37*
%TD*%
%TO.C,Rfbb2*%
G36*
G01*
X188466000Y-87029001D02*
X188466000Y-84178999D01*
G75*
G02*
X188715999Y-83929000I249999J0D01*
G01*
X189616001Y-83929000D01*
G75*
G02*
X189866000Y-84178999I0J-249999D01*
G01*
X189866000Y-87029001D01*
G75*
G02*
X189616001Y-87279000I-249999J0D01*
G01*
X188715999Y-87279000D01*
G75*
G02*
X188466000Y-87029001I0J249999D01*
G01*
G37*
G36*
G01*
X182366000Y-87029001D02*
X182366000Y-84178999D01*
G75*
G02*
X182615999Y-83929000I249999J0D01*
G01*
X183516001Y-83929000D01*
G75*
G02*
X183766000Y-84178999I0J-249999D01*
G01*
X183766000Y-87029001D01*
G75*
G02*
X183516001Y-87279000I-249999J0D01*
G01*
X182615999Y-87279000D01*
G75*
G02*
X182366000Y-87029001I0J249999D01*
G01*
G37*
%TD*%
%TO.C,Rbw1B1*%
G36*
G01*
X88633001Y-104538000D02*
X85782999Y-104538000D01*
G75*
G02*
X85533000Y-104288001I0J249999D01*
G01*
X85533000Y-103387999D01*
G75*
G02*
X85782999Y-103138000I249999J0D01*
G01*
X88633001Y-103138000D01*
G75*
G02*
X88883000Y-103387999I0J-249999D01*
G01*
X88883000Y-104288001D01*
G75*
G02*
X88633001Y-104538000I-249999J0D01*
G01*
G37*
G36*
G01*
X88633001Y-110638000D02*
X85782999Y-110638000D01*
G75*
G02*
X85533000Y-110388001I0J249999D01*
G01*
X85533000Y-109487999D01*
G75*
G02*
X85782999Y-109238000I249999J0D01*
G01*
X88633001Y-109238000D01*
G75*
G02*
X88883000Y-109487999I0J-249999D01*
G01*
X88883000Y-110388001D01*
G75*
G02*
X88633001Y-110638000I-249999J0D01*
G01*
G37*
%TD*%
%TO.C,Rbw1A1*%
G36*
G01*
X94893001Y-104538000D02*
X92042999Y-104538000D01*
G75*
G02*
X91793000Y-104288001I0J249999D01*
G01*
X91793000Y-103387999D01*
G75*
G02*
X92042999Y-103138000I249999J0D01*
G01*
X94893001Y-103138000D01*
G75*
G02*
X95143000Y-103387999I0J-249999D01*
G01*
X95143000Y-104288001D01*
G75*
G02*
X94893001Y-104538000I-249999J0D01*
G01*
G37*
G36*
G01*
X94893001Y-110638000D02*
X92042999Y-110638000D01*
G75*
G02*
X91793000Y-110388001I0J249999D01*
G01*
X91793000Y-109487999D01*
G75*
G02*
X92042999Y-109238000I249999J0D01*
G01*
X94893001Y-109238000D01*
G75*
G02*
X95143000Y-109487999I0J-249999D01*
G01*
X95143000Y-110388001D01*
G75*
G02*
X94893001Y-110638000I-249999J0D01*
G01*
G37*
%TD*%
%TO.C,Rbw2*%
G36*
G01*
X78270999Y-109238000D02*
X81121001Y-109238000D01*
G75*
G02*
X81371000Y-109487999I0J-249999D01*
G01*
X81371000Y-110388001D01*
G75*
G02*
X81121001Y-110638000I-249999J0D01*
G01*
X78270999Y-110638000D01*
G75*
G02*
X78021000Y-110388001I0J249999D01*
G01*
X78021000Y-109487999D01*
G75*
G02*
X78270999Y-109238000I249999J0D01*
G01*
G37*
G36*
G01*
X78270999Y-103138000D02*
X81121001Y-103138000D01*
G75*
G02*
X81371000Y-103387999I0J-249999D01*
G01*
X81371000Y-104288001D01*
G75*
G02*
X81121001Y-104538000I-249999J0D01*
G01*
X78270999Y-104538000D01*
G75*
G02*
X78021000Y-104288001I0J249999D01*
G01*
X78021000Y-103387999D01*
G75*
G02*
X78270999Y-103138000I249999J0D01*
G01*
G37*
%TD*%
%TO.C,Rboot1*%
G36*
G01*
X114906000Y-92942999D02*
X114906000Y-95793001D01*
G75*
G02*
X114656001Y-96043000I-249999J0D01*
G01*
X113755999Y-96043000D01*
G75*
G02*
X113506000Y-95793001I0J249999D01*
G01*
X113506000Y-92942999D01*
G75*
G02*
X113755999Y-92693000I249999J0D01*
G01*
X114656001Y-92693000D01*
G75*
G02*
X114906000Y-92942999I0J-249999D01*
G01*
G37*
G36*
G01*
X121006000Y-92942999D02*
X121006000Y-95793001D01*
G75*
G02*
X120756001Y-96043000I-249999J0D01*
G01*
X119855999Y-96043000D01*
G75*
G02*
X119606000Y-95793001I0J249999D01*
G01*
X119606000Y-92942999D01*
G75*
G02*
X119855999Y-92693000I249999J0D01*
G01*
X120756001Y-92693000D01*
G75*
G02*
X121006000Y-92942999I0J-249999D01*
G01*
G37*
%TD*%
%TO.C,Rbias1*%
G36*
G01*
X164678000Y-90785001D02*
X164678000Y-87934999D01*
G75*
G02*
X164927999Y-87685000I249999J0D01*
G01*
X165828001Y-87685000D01*
G75*
G02*
X166078000Y-87934999I0J-249999D01*
G01*
X166078000Y-90785001D01*
G75*
G02*
X165828001Y-91035000I-249999J0D01*
G01*
X164927999Y-91035000D01*
G75*
G02*
X164678000Y-90785001I0J249999D01*
G01*
G37*
G36*
G01*
X158578000Y-90785001D02*
X158578000Y-87934999D01*
G75*
G02*
X158827999Y-87685000I249999J0D01*
G01*
X159728001Y-87685000D01*
G75*
G02*
X159978000Y-87934999I0J-249999D01*
G01*
X159978000Y-90785001D01*
G75*
G02*
X159728001Y-91035000I-249999J0D01*
G01*
X158827999Y-91035000D01*
G75*
G02*
X158578000Y-90785001I0J249999D01*
G01*
G37*
%TD*%
%TO.C,R28*%
G36*
G01*
X84877001Y-75742000D02*
X82026999Y-75742000D01*
G75*
G02*
X81777000Y-75492001I0J249999D01*
G01*
X81777000Y-74591999D01*
G75*
G02*
X82026999Y-74342000I249999J0D01*
G01*
X84877001Y-74342000D01*
G75*
G02*
X85127000Y-74591999I0J-249999D01*
G01*
X85127000Y-75492001D01*
G75*
G02*
X84877001Y-75742000I-249999J0D01*
G01*
G37*
G36*
G01*
X84877001Y-81842000D02*
X82026999Y-81842000D01*
G75*
G02*
X81777000Y-81592001I0J249999D01*
G01*
X81777000Y-80691999D01*
G75*
G02*
X82026999Y-80442000I249999J0D01*
G01*
X84877001Y-80442000D01*
G75*
G02*
X85127000Y-80691999I0J-249999D01*
G01*
X85127000Y-81592001D01*
G75*
G02*
X84877001Y-81842000I-249999J0D01*
G01*
G37*
%TD*%
%TO.C,R27*%
G36*
G01*
X88074999Y-80442000D02*
X90925001Y-80442000D01*
G75*
G02*
X91175000Y-80691999I0J-249999D01*
G01*
X91175000Y-81592001D01*
G75*
G02*
X90925001Y-81842000I-249999J0D01*
G01*
X88074999Y-81842000D01*
G75*
G02*
X87825000Y-81592001I0J249999D01*
G01*
X87825000Y-80691999D01*
G75*
G02*
X88074999Y-80442000I249999J0D01*
G01*
G37*
G36*
G01*
X88074999Y-74342000D02*
X90925001Y-74342000D01*
G75*
G02*
X91175000Y-74591999I0J-249999D01*
G01*
X91175000Y-75492001D01*
G75*
G02*
X90925001Y-75742000I-249999J0D01*
G01*
X88074999Y-75742000D01*
G75*
G02*
X87825000Y-75492001I0J249999D01*
G01*
X87825000Y-74591999D01*
G75*
G02*
X88074999Y-74342000I249999J0D01*
G01*
G37*
%TD*%
%TO.C,R20*%
G36*
G01*
X74514999Y-80442000D02*
X77365001Y-80442000D01*
G75*
G02*
X77615000Y-80691999I0J-249999D01*
G01*
X77615000Y-81592001D01*
G75*
G02*
X77365001Y-81842000I-249999J0D01*
G01*
X74514999Y-81842000D01*
G75*
G02*
X74265000Y-81592001I0J249999D01*
G01*
X74265000Y-80691999D01*
G75*
G02*
X74514999Y-80442000I249999J0D01*
G01*
G37*
G36*
G01*
X74514999Y-74342000D02*
X77365001Y-74342000D01*
G75*
G02*
X77615000Y-74591999I0J-249999D01*
G01*
X77615000Y-75492001D01*
G75*
G02*
X77365001Y-75742000I-249999J0D01*
G01*
X74514999Y-75742000D01*
G75*
G02*
X74265000Y-75492001I0J249999D01*
G01*
X74265000Y-74591999D01*
G75*
G02*
X74514999Y-74342000I249999J0D01*
G01*
G37*
%TD*%
%TO.C,R19*%
G36*
G01*
X86110000Y-84178999D02*
X86110000Y-87029001D01*
G75*
G02*
X85860001Y-87279000I-249999J0D01*
G01*
X84959999Y-87279000D01*
G75*
G02*
X84710000Y-87029001I0J249999D01*
G01*
X84710000Y-84178999D01*
G75*
G02*
X84959999Y-83929000I249999J0D01*
G01*
X85860001Y-83929000D01*
G75*
G02*
X86110000Y-84178999I0J-249999D01*
G01*
G37*
G36*
G01*
X92210000Y-84178999D02*
X92210000Y-87029001D01*
G75*
G02*
X91960001Y-87279000I-249999J0D01*
G01*
X91059999Y-87279000D01*
G75*
G02*
X90810000Y-87029001I0J249999D01*
G01*
X90810000Y-84178999D01*
G75*
G02*
X91059999Y-83929000I249999J0D01*
G01*
X91960001Y-83929000D01*
G75*
G02*
X92210000Y-84178999I0J-249999D01*
G01*
G37*
%TD*%
D14*
%TO.C,O1*%
X150383700Y-76858000D03*
X150383700Y-74318000D03*
X159248300Y-74318000D03*
X159248300Y-76858000D03*
%TD*%
D15*
%TO.C,Dz1*%
X178352000Y-81848000D03*
X176352000Y-82798000D03*
X176352000Y-80898000D03*
%TD*%
%TO.C,Cz1*%
G36*
G01*
X171992000Y-82498002D02*
X171992000Y-81197998D01*
G75*
G02*
X172241998Y-80948000I249998J0D01*
G01*
X173067002Y-80948000D01*
G75*
G02*
X173317000Y-81197998I0J-249998D01*
G01*
X173317000Y-82498002D01*
G75*
G02*
X173067002Y-82748000I-249998J0D01*
G01*
X172241998Y-82748000D01*
G75*
G02*
X171992000Y-82498002I0J249998D01*
G01*
G37*
G36*
G01*
X168867000Y-82498002D02*
X168867000Y-81197998D01*
G75*
G02*
X169116998Y-80948000I249998J0D01*
G01*
X169942002Y-80948000D01*
G75*
G02*
X170192000Y-81197998I0J-249998D01*
G01*
X170192000Y-82498002D01*
G75*
G02*
X169942002Y-82748000I-249998J0D01*
G01*
X169116998Y-82748000D01*
G75*
G02*
X168867000Y-82498002I0J249998D01*
G01*
G37*
%TD*%
%TO.C,Cvrcc1*%
G36*
G01*
X109269000Y-94818000D02*
X110219000Y-94818000D01*
G75*
G02*
X110469000Y-95068000I0J-250000D01*
G01*
X110469000Y-95743000D01*
G75*
G02*
X110219000Y-95993000I-250000J0D01*
G01*
X109269000Y-95993000D01*
G75*
G02*
X109019000Y-95743000I0J250000D01*
G01*
X109019000Y-95068000D01*
G75*
G02*
X109269000Y-94818000I250000J0D01*
G01*
G37*
G36*
G01*
X109269000Y-92743000D02*
X110219000Y-92743000D01*
G75*
G02*
X110469000Y-92993000I0J-250000D01*
G01*
X110469000Y-93668000D01*
G75*
G02*
X110219000Y-93918000I-250000J0D01*
G01*
X109269000Y-93918000D01*
G75*
G02*
X109019000Y-93668000I0J250000D01*
G01*
X109019000Y-92993000D01*
G75*
G02*
X109269000Y-92743000I250000J0D01*
G01*
G37*
%TD*%
%TO.C,Cvcr2*%
G36*
G01*
X85354002Y-97224000D02*
X84053998Y-97224000D01*
G75*
G02*
X83804000Y-96974002I0J249998D01*
G01*
X83804000Y-96148998D01*
G75*
G02*
X84053998Y-95899000I249998J0D01*
G01*
X85354002Y-95899000D01*
G75*
G02*
X85604000Y-96148998I0J-249998D01*
G01*
X85604000Y-96974002D01*
G75*
G02*
X85354002Y-97224000I-249998J0D01*
G01*
G37*
G36*
G01*
X85354002Y-100349000D02*
X84053998Y-100349000D01*
G75*
G02*
X83804000Y-100099002I0J249998D01*
G01*
X83804000Y-99273998D01*
G75*
G02*
X84053998Y-99024000I249998J0D01*
G01*
X85354002Y-99024000D01*
G75*
G02*
X85604000Y-99273998I0J-249998D01*
G01*
X85604000Y-100099002D01*
G75*
G02*
X85354002Y-100349000I-249998J0D01*
G01*
G37*
%TD*%
%TO.C,Cvcr1*%
G36*
G01*
X96326000Y-73685998D02*
X96326000Y-74986002D01*
G75*
G02*
X96076002Y-75236000I-249998J0D01*
G01*
X95250998Y-75236000D01*
G75*
G02*
X95001000Y-74986002I0J249998D01*
G01*
X95001000Y-73685998D01*
G75*
G02*
X95250998Y-73436000I249998J0D01*
G01*
X96076002Y-73436000D01*
G75*
G02*
X96326000Y-73685998I0J-249998D01*
G01*
G37*
G36*
G01*
X99451000Y-73685998D02*
X99451000Y-74986002D01*
G75*
G02*
X99201002Y-75236000I-249998J0D01*
G01*
X98375998Y-75236000D01*
G75*
G02*
X98126000Y-74986002I0J249998D01*
G01*
X98126000Y-73685998D01*
G75*
G02*
X98375998Y-73436000I249998J0D01*
G01*
X99201002Y-73436000D01*
G75*
G02*
X99451000Y-73685998I0J-249998D01*
G01*
G37*
%TD*%
D16*
%TO.C,Cvcc2H1*%
X124398000Y-121491501D03*
X124398000Y-125012499D03*
%TD*%
%TO.C,Cvcc2G1*%
X116778000Y-121491501D03*
X116778000Y-125012499D03*
%TD*%
%TO.C,Cvcc2F1*%
X109158000Y-121491501D03*
X109158000Y-125012499D03*
%TD*%
%TO.C,Cvcc2E1*%
X101538000Y-121491501D03*
X101538000Y-125012499D03*
%TD*%
%TO.C,Cvcc2D1*%
X93918000Y-121491501D03*
X93918000Y-125012499D03*
%TD*%
%TO.C,Cvcc2C1*%
X86298000Y-121491501D03*
X86298000Y-125012499D03*
%TD*%
%TO.C,Cvcc2B1*%
X78678000Y-121491501D03*
X78678000Y-125012499D03*
%TD*%
%TO.C,Cvcc2A1*%
X71058000Y-121491501D03*
X71058000Y-125012499D03*
%TD*%
%TO.C,Cvcc2*%
G36*
G01*
X98124000Y-81246002D02*
X98124000Y-79945998D01*
G75*
G02*
X98373998Y-79696000I249998J0D01*
G01*
X99199002Y-79696000D01*
G75*
G02*
X99449000Y-79945998I0J-249998D01*
G01*
X99449000Y-81246002D01*
G75*
G02*
X99199002Y-81496000I-249998J0D01*
G01*
X98373998Y-81496000D01*
G75*
G02*
X98124000Y-81246002I0J249998D01*
G01*
G37*
G36*
G01*
X94999000Y-81246002D02*
X94999000Y-79945998D01*
G75*
G02*
X95248998Y-79696000I249998J0D01*
G01*
X96074002Y-79696000D01*
G75*
G02*
X96324000Y-79945998I0J-249998D01*
G01*
X96324000Y-81246002D01*
G75*
G02*
X96074002Y-81496000I-249998J0D01*
G01*
X95248998Y-81496000D01*
G75*
G02*
X94999000Y-81246002I0J249998D01*
G01*
G37*
%TD*%
%TO.C,Css1*%
G36*
G01*
X106463998Y-105363500D02*
X107764002Y-105363500D01*
G75*
G02*
X108014000Y-105613498I0J-249998D01*
G01*
X108014000Y-106438502D01*
G75*
G02*
X107764002Y-106688500I-249998J0D01*
G01*
X106463998Y-106688500D01*
G75*
G02*
X106214000Y-106438502I0J249998D01*
G01*
X106214000Y-105613498D01*
G75*
G02*
X106463998Y-105363500I249998J0D01*
G01*
G37*
G36*
G01*
X106463998Y-102238500D02*
X107764002Y-102238500D01*
G75*
G02*
X108014000Y-102488498I0J-249998D01*
G01*
X108014000Y-103313502D01*
G75*
G02*
X107764002Y-103563500I-249998J0D01*
G01*
X106463998Y-103563500D01*
G75*
G02*
X106214000Y-103313502I0J249998D01*
G01*
X106214000Y-102488498D01*
G75*
G02*
X106463998Y-102238500I249998J0D01*
G01*
G37*
%TD*%
%TO.C,Crvcc2*%
G36*
G01*
X120101000Y-104422500D02*
X121051000Y-104422500D01*
G75*
G02*
X121301000Y-104672500I0J-250000D01*
G01*
X121301000Y-105347500D01*
G75*
G02*
X121051000Y-105597500I-250000J0D01*
G01*
X120101000Y-105597500D01*
G75*
G02*
X119851000Y-105347500I0J250000D01*
G01*
X119851000Y-104672500D01*
G75*
G02*
X120101000Y-104422500I250000J0D01*
G01*
G37*
G36*
G01*
X120101000Y-102347500D02*
X121051000Y-102347500D01*
G75*
G02*
X121301000Y-102597500I0J-250000D01*
G01*
X121301000Y-103272500D01*
G75*
G02*
X121051000Y-103522500I-250000J0D01*
G01*
X120101000Y-103522500D01*
G75*
G02*
X119851000Y-103272500I0J250000D01*
G01*
X119851000Y-102597500D01*
G75*
G02*
X120101000Y-102347500I250000J0D01*
G01*
G37*
%TD*%
%TO.C,Cr2*%
G36*
G01*
X157373998Y-112294000D02*
X162274002Y-112294000D01*
G75*
G02*
X162524000Y-112543998I0J-249998D01*
G01*
X162524000Y-114019002D01*
G75*
G02*
X162274002Y-114269000I-249998J0D01*
G01*
X157373998Y-114269000D01*
G75*
G02*
X157124000Y-114019002I0J249998D01*
G01*
X157124000Y-112543998D01*
G75*
G02*
X157373998Y-112294000I249998J0D01*
G01*
G37*
G36*
G01*
X157373998Y-107019000D02*
X162274002Y-107019000D01*
G75*
G02*
X162524000Y-107268998I0J-249998D01*
G01*
X162524000Y-108744002D01*
G75*
G02*
X162274002Y-108994000I-249998J0D01*
G01*
X157373998Y-108994000D01*
G75*
G02*
X157124000Y-108744002I0J249998D01*
G01*
X157124000Y-107268998D01*
G75*
G02*
X157373998Y-107019000I249998J0D01*
G01*
G37*
%TD*%
%TO.C,Cr1*%
G36*
G01*
X157373998Y-99774000D02*
X162274002Y-99774000D01*
G75*
G02*
X162524000Y-100023998I0J-249998D01*
G01*
X162524000Y-101499002D01*
G75*
G02*
X162274002Y-101749000I-249998J0D01*
G01*
X157373998Y-101749000D01*
G75*
G02*
X157124000Y-101499002I0J249998D01*
G01*
X157124000Y-100023998D01*
G75*
G02*
X157373998Y-99774000I249998J0D01*
G01*
G37*
G36*
G01*
X157373998Y-94499000D02*
X162274002Y-94499000D01*
G75*
G02*
X162524000Y-94748998I0J-249998D01*
G01*
X162524000Y-96224002D01*
G75*
G02*
X162274002Y-96474000I-249998J0D01*
G01*
X157373998Y-96474000D01*
G75*
G02*
X157124000Y-96224002I0J249998D01*
G01*
X157124000Y-94748998D01*
G75*
G02*
X157373998Y-94499000I249998J0D01*
G01*
G37*
%TD*%
%TO.C,CoutxD1*%
G36*
G01*
X229334002Y-80948000D02*
X228033998Y-80948000D01*
G75*
G02*
X227784000Y-80698002I0J249998D01*
G01*
X227784000Y-79872998D01*
G75*
G02*
X228033998Y-79623000I249998J0D01*
G01*
X229334002Y-79623000D01*
G75*
G02*
X229584000Y-79872998I0J-249998D01*
G01*
X229584000Y-80698002D01*
G75*
G02*
X229334002Y-80948000I-249998J0D01*
G01*
G37*
G36*
G01*
X229334002Y-84073000D02*
X228033998Y-84073000D01*
G75*
G02*
X227784000Y-83823002I0J249998D01*
G01*
X227784000Y-82997998D01*
G75*
G02*
X228033998Y-82748000I249998J0D01*
G01*
X229334002Y-82748000D01*
G75*
G02*
X229584000Y-82997998I0J-249998D01*
G01*
X229584000Y-83823002D01*
G75*
G02*
X229334002Y-84073000I-249998J0D01*
G01*
G37*
%TD*%
%TO.C,CoutxC1*%
G36*
G01*
X224326002Y-80948000D02*
X223025998Y-80948000D01*
G75*
G02*
X222776000Y-80698002I0J249998D01*
G01*
X222776000Y-79872998D01*
G75*
G02*
X223025998Y-79623000I249998J0D01*
G01*
X224326002Y-79623000D01*
G75*
G02*
X224576000Y-79872998I0J-249998D01*
G01*
X224576000Y-80698002D01*
G75*
G02*
X224326002Y-80948000I-249998J0D01*
G01*
G37*
G36*
G01*
X224326002Y-84073000D02*
X223025998Y-84073000D01*
G75*
G02*
X222776000Y-83823002I0J249998D01*
G01*
X222776000Y-82997998D01*
G75*
G02*
X223025998Y-82748000I249998J0D01*
G01*
X224326002Y-82748000D01*
G75*
G02*
X224576000Y-82997998I0J-249998D01*
G01*
X224576000Y-83823002D01*
G75*
G02*
X224326002Y-84073000I-249998J0D01*
G01*
G37*
%TD*%
%TO.C,CoutxB1*%
G36*
G01*
X219318002Y-80948000D02*
X218017998Y-80948000D01*
G75*
G02*
X217768000Y-80698002I0J249998D01*
G01*
X217768000Y-79872998D01*
G75*
G02*
X218017998Y-79623000I249998J0D01*
G01*
X219318002Y-79623000D01*
G75*
G02*
X219568000Y-79872998I0J-249998D01*
G01*
X219568000Y-80698002D01*
G75*
G02*
X219318002Y-80948000I-249998J0D01*
G01*
G37*
G36*
G01*
X219318002Y-84073000D02*
X218017998Y-84073000D01*
G75*
G02*
X217768000Y-83823002I0J249998D01*
G01*
X217768000Y-82997998D01*
G75*
G02*
X218017998Y-82748000I249998J0D01*
G01*
X219318002Y-82748000D01*
G75*
G02*
X219568000Y-82997998I0J-249998D01*
G01*
X219568000Y-83823002D01*
G75*
G02*
X219318002Y-84073000I-249998J0D01*
G01*
G37*
%TD*%
%TO.C,CoutxA1*%
G36*
G01*
X214310002Y-80948000D02*
X213009998Y-80948000D01*
G75*
G02*
X212760000Y-80698002I0J249998D01*
G01*
X212760000Y-79872998D01*
G75*
G02*
X213009998Y-79623000I249998J0D01*
G01*
X214310002Y-79623000D01*
G75*
G02*
X214560000Y-79872998I0J-249998D01*
G01*
X214560000Y-80698002D01*
G75*
G02*
X214310002Y-80948000I-249998J0D01*
G01*
G37*
G36*
G01*
X214310002Y-84073000D02*
X213009998Y-84073000D01*
G75*
G02*
X212760000Y-83823002I0J249998D01*
G01*
X212760000Y-82997998D01*
G75*
G02*
X213009998Y-82748000I249998J0D01*
G01*
X214310002Y-82748000D01*
G75*
G02*
X214560000Y-82997998I0J-249998D01*
G01*
X214560000Y-83823002D01*
G75*
G02*
X214310002Y-84073000I-249998J0D01*
G01*
G37*
%TD*%
D17*
%TO.C,CoutF1*%
X223628000Y-58501500D03*
X223628000Y-67102500D03*
%TD*%
%TO.C,CoutE1*%
X208388000Y-58501500D03*
X208388000Y-67102500D03*
%TD*%
%TO.C,CoutD1*%
X193148000Y-58501500D03*
X193148000Y-67102500D03*
%TD*%
%TO.C,CoutC1*%
X193072000Y-52610500D03*
X193072000Y-44009500D03*
%TD*%
%TO.C,CoutB1*%
X208312000Y-52610500D03*
X208312000Y-44009500D03*
%TD*%
%TO.C,CoutA1*%
X223676000Y-52344500D03*
X223676000Y-43743500D03*
%TD*%
%TO.C,Cisns2*%
G36*
G01*
X104384000Y-74986002D02*
X104384000Y-73685998D01*
G75*
G02*
X104633998Y-73436000I249998J0D01*
G01*
X105459002Y-73436000D01*
G75*
G02*
X105709000Y-73685998I0J-249998D01*
G01*
X105709000Y-74986002D01*
G75*
G02*
X105459002Y-75236000I-249998J0D01*
G01*
X104633998Y-75236000D01*
G75*
G02*
X104384000Y-74986002I0J249998D01*
G01*
G37*
G36*
G01*
X101259000Y-74986002D02*
X101259000Y-73685998D01*
G75*
G02*
X101508998Y-73436000I249998J0D01*
G01*
X102334002Y-73436000D01*
G75*
G02*
X102584000Y-73685998I0J-249998D01*
G01*
X102584000Y-74986002D01*
G75*
G02*
X102334002Y-75236000I-249998J0D01*
G01*
X101508998Y-75236000D01*
G75*
G02*
X101259000Y-74986002I0J249998D01*
G01*
G37*
%TD*%
%TO.C,Cisns1*%
G36*
G01*
X90187000Y-97674000D02*
X89237000Y-97674000D01*
G75*
G02*
X88987000Y-97424000I0J250000D01*
G01*
X88987000Y-96749000D01*
G75*
G02*
X89237000Y-96499000I250000J0D01*
G01*
X90187000Y-96499000D01*
G75*
G02*
X90437000Y-96749000I0J-250000D01*
G01*
X90437000Y-97424000D01*
G75*
G02*
X90187000Y-97674000I-250000J0D01*
G01*
G37*
G36*
G01*
X90187000Y-99749000D02*
X89237000Y-99749000D01*
G75*
G02*
X88987000Y-99499000I0J250000D01*
G01*
X88987000Y-98824000D01*
G75*
G02*
X89237000Y-98574000I250000J0D01*
G01*
X90187000Y-98574000D01*
G75*
G02*
X90437000Y-98824000I0J-250000D01*
G01*
X90437000Y-99499000D01*
G75*
G02*
X90187000Y-99749000I-250000J0D01*
G01*
G37*
%TD*%
%TO.C,Ccomp3*%
G36*
G01*
X171693998Y-90260000D02*
X172994002Y-90260000D01*
G75*
G02*
X173244000Y-90509998I0J-249998D01*
G01*
X173244000Y-91335002D01*
G75*
G02*
X172994002Y-91585000I-249998J0D01*
G01*
X171693998Y-91585000D01*
G75*
G02*
X171444000Y-91335002I0J249998D01*
G01*
X171444000Y-90509998D01*
G75*
G02*
X171693998Y-90260000I249998J0D01*
G01*
G37*
G36*
G01*
X171693998Y-87135000D02*
X172994002Y-87135000D01*
G75*
G02*
X173244000Y-87384998I0J-249998D01*
G01*
X173244000Y-88210002D01*
G75*
G02*
X172994002Y-88460000I-249998J0D01*
G01*
X171693998Y-88460000D01*
G75*
G02*
X171444000Y-88210002I0J249998D01*
G01*
X171444000Y-87384998D01*
G75*
G02*
X171693998Y-87135000I249998J0D01*
G01*
G37*
%TD*%
%TO.C,CbwB1*%
G36*
G01*
X106451500Y-110740002D02*
X106451500Y-109439998D01*
G75*
G02*
X106701498Y-109190000I249998J0D01*
G01*
X107526502Y-109190000D01*
G75*
G02*
X107776500Y-109439998I0J-249998D01*
G01*
X107776500Y-110740002D01*
G75*
G02*
X107526502Y-110990000I-249998J0D01*
G01*
X106701498Y-110990000D01*
G75*
G02*
X106451500Y-110740002I0J249998D01*
G01*
G37*
G36*
G01*
X103326500Y-110740002D02*
X103326500Y-109439998D01*
G75*
G02*
X103576498Y-109190000I249998J0D01*
G01*
X104401502Y-109190000D01*
G75*
G02*
X104651500Y-109439998I0J-249998D01*
G01*
X104651500Y-110740002D01*
G75*
G02*
X104401502Y-110990000I-249998J0D01*
G01*
X103576498Y-110990000D01*
G75*
G02*
X103326500Y-110740002I0J249998D01*
G01*
G37*
%TD*%
%TO.C,CbwA1*%
G36*
G01*
X100875998Y-105656000D02*
X102176002Y-105656000D01*
G75*
G02*
X102426000Y-105905998I0J-249998D01*
G01*
X102426000Y-106731002D01*
G75*
G02*
X102176002Y-106981000I-249998J0D01*
G01*
X100875998Y-106981000D01*
G75*
G02*
X100626000Y-106731002I0J249998D01*
G01*
X100626000Y-105905998D01*
G75*
G02*
X100875998Y-105656000I249998J0D01*
G01*
G37*
G36*
G01*
X100875998Y-102531000D02*
X102176002Y-102531000D01*
G75*
G02*
X102426000Y-102780998I0J-249998D01*
G01*
X102426000Y-103606002D01*
G75*
G02*
X102176002Y-103856000I-249998J0D01*
G01*
X100875998Y-103856000D01*
G75*
G02*
X100626000Y-103606002I0J249998D01*
G01*
X100626000Y-102780998D01*
G75*
G02*
X100875998Y-102531000I249998J0D01*
G01*
G37*
%TD*%
%TO.C,CbootB1*%
G36*
G01*
X103396000Y-80025500D02*
X103396000Y-80500500D01*
G75*
G02*
X103158500Y-80738000I-237500J0D01*
G01*
X102558500Y-80738000D01*
G75*
G02*
X102321000Y-80500500I0J237500D01*
G01*
X102321000Y-80025500D01*
G75*
G02*
X102558500Y-79788000I237500J0D01*
G01*
X103158500Y-79788000D01*
G75*
G02*
X103396000Y-80025500I0J-237500D01*
G01*
G37*
G36*
G01*
X105121000Y-80025500D02*
X105121000Y-80500500D01*
G75*
G02*
X104883500Y-80738000I-237500J0D01*
G01*
X104283500Y-80738000D01*
G75*
G02*
X104046000Y-80500500I0J237500D01*
G01*
X104046000Y-80025500D01*
G75*
G02*
X104283500Y-79788000I237500J0D01*
G01*
X104883500Y-79788000D01*
G75*
G02*
X105121000Y-80025500I0J-237500D01*
G01*
G37*
%TD*%
%TO.C,CbootA1*%
G36*
G01*
X103396000Y-83835500D02*
X103396000Y-84310500D01*
G75*
G02*
X103158500Y-84548000I-237500J0D01*
G01*
X102558500Y-84548000D01*
G75*
G02*
X102321000Y-84310500I0J237500D01*
G01*
X102321000Y-83835500D01*
G75*
G02*
X102558500Y-83598000I237500J0D01*
G01*
X103158500Y-83598000D01*
G75*
G02*
X103396000Y-83835500I0J-237500D01*
G01*
G37*
G36*
G01*
X105121000Y-83835500D02*
X105121000Y-84310500D01*
G75*
G02*
X104883500Y-84548000I-237500J0D01*
G01*
X104283500Y-84548000D01*
G75*
G02*
X104046000Y-84310500I0J237500D01*
G01*
X104046000Y-83835500D01*
G75*
G02*
X104283500Y-83598000I237500J0D01*
G01*
X104883500Y-83598000D01*
G75*
G02*
X105121000Y-83835500I0J-237500D01*
G01*
G37*
%TD*%
%TO.C,C16*%
G36*
G01*
X87560000Y-91213998D02*
X87560000Y-92514002D01*
G75*
G02*
X87310002Y-92764000I-249998J0D01*
G01*
X86484998Y-92764000D01*
G75*
G02*
X86235000Y-92514002I0J249998D01*
G01*
X86235000Y-91213998D01*
G75*
G02*
X86484998Y-90964000I249998J0D01*
G01*
X87310002Y-90964000D01*
G75*
G02*
X87560000Y-91213998I0J-249998D01*
G01*
G37*
G36*
G01*
X90685000Y-91213998D02*
X90685000Y-92514002D01*
G75*
G02*
X90435002Y-92764000I-249998J0D01*
G01*
X89609998Y-92764000D01*
G75*
G02*
X89360000Y-92514002I0J249998D01*
G01*
X89360000Y-91213998D01*
G75*
G02*
X89609998Y-90964000I249998J0D01*
G01*
X90435002Y-90964000D01*
G75*
G02*
X90685000Y-91213998I0J-249998D01*
G01*
G37*
%TD*%
M02*
