%TF.GenerationSoftware,KiCad,Pcbnew,(5.1.8)-1*%
%TF.CreationDate,2021-03-29T19:48:26-07:00*%
%TF.ProjectId,KiCAD Simulations,4b694341-4420-4536-996d-756c6174696f,rev?*%
%TF.SameCoordinates,Original*%
%TF.FileFunction,Copper,L2,Bot*%
%TF.FilePolarity,Positive*%
%FSLAX46Y46*%
G04 Gerber Fmt 4.6, Leading zero omitted, Abs format (unit mm)*
G04 Created by KiCad (PCBNEW (5.1.8)-1) date 2021-03-29 19:48:26*
%MOMM*%
%LPD*%
G01*
G04 APERTURE LIST*
%TA.AperFunction,ComponentPad*%
%ADD10R,1.700000X1.700000*%
%TD*%
%TA.AperFunction,ComponentPad*%
%ADD11C,3.000000*%
%TD*%
%TA.AperFunction,ComponentPad*%
%ADD12R,3.000000X3.000000*%
%TD*%
%TA.AperFunction,ComponentPad*%
%ADD13C,4.000000*%
%TD*%
%TA.AperFunction,ComponentPad*%
%ADD14O,4.500000X2.500000*%
%TD*%
%TA.AperFunction,ComponentPad*%
%ADD15R,4.500000X2.500000*%
%TD*%
%TA.AperFunction,ComponentPad*%
%ADD16C,2.108200*%
%TD*%
%TA.AperFunction,ComponentPad*%
%ADD17R,2.108200X2.108200*%
%TD*%
%TA.AperFunction,ComponentPad*%
%ADD18O,1.700000X1.700000*%
%TD*%
%TA.AperFunction,ComponentPad*%
%ADD19O,1.500000X1.500000*%
%TD*%
%TA.AperFunction,ComponentPad*%
%ADD20R,1.500000X1.500000*%
%TD*%
%TA.AperFunction,ComponentPad*%
%ADD21C,1.574800*%
%TD*%
%TA.AperFunction,ComponentPad*%
%ADD22R,4.000000X4.000000*%
%TD*%
%TA.AperFunction,ViaPad*%
%ADD23C,0.800000*%
%TD*%
%TA.AperFunction,Conductor*%
%ADD24C,0.500000*%
%TD*%
%TA.AperFunction,Conductor*%
%ADD25C,1.000000*%
%TD*%
%TA.AperFunction,Conductor*%
%ADD26C,0.254000*%
%TD*%
%TA.AperFunction,Conductor*%
%ADD27C,0.100000*%
%TD*%
G04 APERTURE END LIST*
D10*
%TO.P,TPisoGND1,1*%
%TO.N,GND1*%
X155500000Y-43000000D03*
%TD*%
%TO.P,TPgnd6,1*%
%TO.N,GND*%
X148000000Y-132500000D03*
%TD*%
D11*
%TO.P,J4,2*%
%TO.N,Net-(Cpfc1-Pad1)*%
X68466000Y-52360000D03*
D12*
%TO.P,J4,1*%
%TO.N,GND*%
X60966000Y-64860000D03*
%TD*%
D11*
%TO.P,TR1,8*%
%TO.N,N/C*%
X181382000Y-130684000D03*
%TO.P,TR1,7*%
%TO.N,Net-(Rbw1A1-Pad1)*%
X181382000Y-125684000D03*
%TO.P,TR1,6*%
%TO.N,GND*%
X181382000Y-120684000D03*
%TO.P,TR1,5*%
%TO.N,N/C*%
X181382000Y-115684000D03*
%TO.P,TR1,4*%
%TO.N,Net-(Lr1-Pad1)*%
X181382000Y-110684000D03*
%TO.P,TR1,3*%
%TO.N,N/C*%
X181382000Y-105684000D03*
%TO.P,TR1,2*%
%TO.N,Net-(Cisns2-Pad1)*%
X181382000Y-100684000D03*
%TO.P,TR1,1*%
%TO.N,N/C*%
X181382000Y-95684000D03*
%TO.P,TR1,16*%
%TO.N,Net-(Dsec2-Pad1)*%
X222392000Y-95684000D03*
%TO.P,TR1,15*%
X222392000Y-100684000D03*
%TO.P,TR1,14*%
%TO.N,GND1*%
X222392000Y-105684000D03*
%TO.P,TR1,13*%
X222392000Y-110684000D03*
%TO.P,TR1,12*%
X222392000Y-115684000D03*
%TO.P,TR1,11*%
X222392000Y-120684000D03*
%TO.P,TR1,10*%
%TO.N,Net-(Dsec1-Pad1)*%
X222392000Y-125684000D03*
%TO.P,TR1,9*%
X222392000Y-130684000D03*
%TD*%
D13*
%TO.P,TPpfc1,1*%
%TO.N,Net-(Cpfc1-Pad1)*%
X85796000Y-41296000D03*
%TD*%
%TO.P,TPllc1,1*%
%TO.N,Net-(Cin2-Pad1)*%
X105796000Y-41296000D03*
%TD*%
D14*
%TO.P,M2,3*%
%TO.N,GND*%
X148220000Y-123464000D03*
%TO.P,M2,2*%
%TO.N,/LLC/HS*%
X148220000Y-118014000D03*
D15*
%TO.P,M2,1*%
%TO.N,Net-(M2-Pad1)*%
X148220000Y-112564000D03*
%TD*%
D14*
%TO.P,M1,3*%
%TO.N,/LLC/HS*%
X148220000Y-100328000D03*
%TO.P,M1,2*%
%TO.N,Net-(Cin2-Pad1)*%
X148220000Y-94878000D03*
D15*
%TO.P,M1,1*%
%TO.N,Net-(M1-Pad1)*%
X148220000Y-89428000D03*
%TD*%
D16*
%TO.P,Lr1,2*%
%TO.N,/LLC/HS*%
X131992000Y-58060000D03*
D17*
%TO.P,Lr1,1*%
%TO.N,Net-(Lr1-Pad1)*%
X152312000Y-58060000D03*
%TD*%
D11*
%TO.P,J6,2*%
%TO.N,GND1*%
X167348000Y-60544000D03*
D12*
%TO.P,J6,1*%
%TO.N,Net-(CoutA1-Pad1)*%
X174848000Y-48044000D03*
%TD*%
D18*
%TO.P,J5,2*%
%TO.N,Net-(Cvcc2-Pad1)*%
X63692000Y-124522000D03*
D10*
%TO.P,J5,1*%
%TO.N,GND*%
X63692000Y-121982000D03*
%TD*%
D19*
%TO.P,Dboot1,2*%
%TO.N,Net-(CbootA1-Pad2)*%
X126020000Y-86748000D03*
D20*
%TO.P,Dboot1,1*%
%TO.N,Net-(Dboot1-Pad1)*%
X126020000Y-94368000D03*
%TD*%
D21*
%TO.P,Cpfc1,2*%
%TO.N,GND*%
X88398000Y-62200000D03*
%TO.P,Cpfc1,1*%
%TO.N,Net-(Cpfc1-Pad1)*%
X88398000Y-54700000D03*
%TD*%
D13*
%TO.P,Cin2,2*%
%TO.N,GND*%
X113036000Y-63176000D03*
D22*
%TO.P,Cin2,1*%
%TO.N,Net-(Cin2-Pad1)*%
X113036000Y-53176000D03*
%TD*%
D23*
%TO.N,GND*%
X87810000Y-89770000D03*
X97335000Y-87230000D03*
X97335000Y-78340000D03*
X78678000Y-115822000D03*
%TO.N,/LLC/HS*%
X105590000Y-78340000D03*
X120195000Y-63735000D03*
%TO.N,GND1*%
X172654500Y-79845500D03*
X189166000Y-88334000D03*
X213000000Y-77500000D03*
X215000000Y-77500000D03*
X216000000Y-77500000D03*
X214000000Y-77500000D03*
X217000000Y-77500000D03*
X218000000Y-77500000D03*
X220000000Y-77500000D03*
X219000000Y-77500000D03*
X221000000Y-77500000D03*
X222000000Y-77500000D03*
X223000000Y-77500000D03*
X224000000Y-77500000D03*
X225000000Y-77500000D03*
X226000000Y-77500000D03*
X227000000Y-77500000D03*
X228000000Y-77500000D03*
X229000000Y-77500000D03*
X230000000Y-77500000D03*
X230000000Y-78500000D03*
X229000000Y-78500000D03*
X228000000Y-78500000D03*
X227000000Y-78500000D03*
X226000000Y-78500000D03*
X225000000Y-78500000D03*
X224000000Y-78500000D03*
X223000000Y-78500000D03*
X222000000Y-78500000D03*
X221000000Y-78500000D03*
X220000000Y-78500000D03*
X219000000Y-78500000D03*
X218000000Y-78500000D03*
X217000000Y-78500000D03*
X216000000Y-78500000D03*
X215000000Y-78500000D03*
X214000000Y-78500000D03*
X213000000Y-78500000D03*
X188000000Y-51500000D03*
X190000000Y-51500000D03*
X190000000Y-53500000D03*
X188000000Y-53500000D03*
X188000000Y-55500000D03*
X190000000Y-55500000D03*
X190000000Y-57500000D03*
X188000000Y-57500000D03*
X188000000Y-59500000D03*
X190000000Y-59500000D03*
X196000000Y-59500000D03*
X196000000Y-57500000D03*
X196000000Y-55500000D03*
X196000000Y-53500000D03*
X196000000Y-51500000D03*
X198000000Y-51500000D03*
X198000000Y-53500000D03*
X198000000Y-55500000D03*
X198000000Y-57500000D03*
X198000000Y-59500000D03*
X200000000Y-59500000D03*
X200000000Y-57500000D03*
X200000000Y-55500000D03*
X200000000Y-53500000D03*
X200000000Y-51500000D03*
X202000000Y-51500000D03*
X202000000Y-53500000D03*
X202000000Y-55500000D03*
X202000000Y-57500000D03*
X202000000Y-59500000D03*
X204000000Y-59500000D03*
X204000000Y-57500000D03*
X204000000Y-55500000D03*
X204000000Y-53500000D03*
X204000000Y-51500000D03*
X206000000Y-51500000D03*
X206000000Y-53500000D03*
X206000000Y-55500000D03*
X206000000Y-57500000D03*
X206000000Y-59500000D03*
X211000000Y-59500000D03*
X211000000Y-57500000D03*
X211000000Y-55500000D03*
X211000000Y-53500000D03*
X211000000Y-51500000D03*
X213000000Y-51500000D03*
X213000000Y-53500000D03*
X213000000Y-55500000D03*
X213000000Y-57500000D03*
X213000000Y-59500000D03*
X215000000Y-59500000D03*
X215000000Y-57500000D03*
X215000000Y-55500000D03*
X215000000Y-53500000D03*
X215000000Y-51500000D03*
X217000000Y-51500000D03*
X217000000Y-53500000D03*
X217000000Y-55500000D03*
X217000000Y-57500000D03*
X217000000Y-59500000D03*
X219000000Y-59500000D03*
X219000000Y-57500000D03*
X219000000Y-55500000D03*
X219000000Y-53500000D03*
X219000000Y-51500000D03*
X221000000Y-51500000D03*
X221000000Y-53500000D03*
X221000000Y-55500000D03*
X221000000Y-57500000D03*
X221000000Y-59500000D03*
X226000000Y-59500000D03*
X226000000Y-57500000D03*
X226000000Y-55500000D03*
X226000000Y-53500000D03*
X226000000Y-51500000D03*
X228000000Y-51500000D03*
X230000000Y-51500000D03*
X230000000Y-53500000D03*
X228000000Y-53500000D03*
X228000000Y-55500000D03*
X230000000Y-55500000D03*
X230000000Y-57500000D03*
X228000000Y-57500000D03*
X228000000Y-59500000D03*
X230000000Y-59500000D03*
%TO.N,Net-(Cvcc2-Pad1)*%
X96065000Y-91040000D03*
X96065000Y-123425000D03*
%TO.N,Net-(Cvcr1-Pad2)*%
X94160000Y-90405000D03*
X94795000Y-96120000D03*
%TO.N,Net-(M1-Pad1)*%
X138610000Y-94215000D03*
%TO.N,Net-(O1-Pad4)*%
X96871000Y-93751000D03*
X137975000Y-83420000D03*
%TO.N,Net-(Rbw1A1-Pad1)*%
X93525000Y-111995000D03*
%TO.N,/LLC/LO*%
X115750000Y-99930000D03*
X131625000Y-108185000D03*
%TD*%
D24*
%TO.N,GND*%
X87810000Y-89770000D02*
X87810000Y-89135000D01*
X87810000Y-89135000D02*
X89715000Y-87230000D01*
X89715000Y-87230000D02*
X97335000Y-87230000D01*
X97335000Y-71137000D02*
X88398000Y-62200000D01*
X97335000Y-78340000D02*
X97335000Y-71137000D01*
X105296000Y-63176000D02*
X97335000Y-71137000D01*
X113036000Y-63176000D02*
X105296000Y-63176000D01*
%TO.N,/LLC/HS*%
X128450000Y-61602000D02*
X131992000Y-58060000D01*
X128450000Y-66910000D02*
X128450000Y-61602000D01*
X145595000Y-84055000D02*
X128450000Y-66910000D01*
X150040000Y-84055000D02*
X145595000Y-84055000D01*
X149007000Y-100328000D02*
X152580000Y-96755000D01*
X148220000Y-100328000D02*
X149007000Y-100328000D01*
X152580000Y-96755000D02*
X153850000Y-95485000D01*
X153850000Y-95485000D02*
X153850000Y-86595000D01*
X153850000Y-86595000D02*
X151310000Y-84055000D01*
X151310000Y-84055000D02*
X150040000Y-84055000D01*
X105590000Y-78340000D02*
X120195000Y-63735000D01*
%TO.N,Net-(Cin2-Pad1)*%
X116621000Y-57621000D02*
X144960000Y-85960000D01*
X148220000Y-94878000D02*
X148742000Y-94878000D01*
X148742000Y-94878000D02*
X151945000Y-91675000D01*
X151945000Y-91675000D02*
X151945000Y-87230000D01*
X151945000Y-87230000D02*
X150675000Y-85960000D01*
X150675000Y-85960000D02*
X149405000Y-85960000D01*
X149405000Y-85960000D02*
X150040000Y-85960000D01*
X144960000Y-85960000D02*
X149405000Y-85960000D01*
X116621000Y-57621000D02*
X115351000Y-57621000D01*
X113036000Y-55306000D02*
X113036000Y-53176000D01*
X115351000Y-57621000D02*
X113036000Y-55306000D01*
%TO.N,Net-(Cvcc2-Pad1)*%
X95430000Y-91675000D02*
X96065000Y-91040000D01*
X95430000Y-94850000D02*
X95430000Y-91675000D01*
X96065000Y-95485000D02*
X95430000Y-94850000D01*
X96065000Y-123425000D02*
X96065000Y-95485000D01*
%TO.N,Net-(Cvcr1-Pad2)*%
X94160000Y-90405000D02*
X94160000Y-95485000D01*
X94160000Y-95485000D02*
X94795000Y-96120000D01*
D25*
%TO.N,Net-(Lr1-Pad1)*%
X152312000Y-58060000D02*
X152312000Y-81614000D01*
X152312000Y-81614000D02*
X181382000Y-110684000D01*
D24*
%TO.N,Net-(M1-Pad1)*%
X148220000Y-89428000D02*
X144667000Y-89428000D01*
X144667000Y-89428000D02*
X139880000Y-94215000D01*
X139880000Y-94215000D02*
X138610000Y-94215000D01*
%TO.N,Net-(O1-Pad4)*%
X96871000Y-93751000D02*
X106689000Y-93751000D01*
X106689000Y-93751000D02*
X110035000Y-90405000D01*
X110035000Y-90405000D02*
X118925000Y-90405000D01*
X118925000Y-90405000D02*
X125910000Y-83420000D01*
X125910000Y-83420000D02*
X137975000Y-83420000D01*
D25*
%TO.N,Net-(Rbw1A1-Pad1)*%
X181382000Y-125684000D02*
X179250000Y-127816000D01*
X179250000Y-127816000D02*
X97281000Y-127816000D01*
X97281000Y-127816000D02*
X93525000Y-124060000D01*
X93525000Y-124060000D02*
X93525000Y-111995000D01*
D24*
%TO.N,/LLC/LO*%
X115750000Y-99930000D02*
X119560000Y-99930000D01*
X119560000Y-99930000D02*
X120195000Y-99930000D01*
X120195000Y-99930000D02*
X123370000Y-99930000D01*
X123370000Y-99930000D02*
X131625000Y-108185000D01*
%TD*%
D26*
%TO.N,GND1*%
X230873000Y-136373000D02*
X186127000Y-136373000D01*
X186127000Y-125326772D01*
X218765000Y-125326772D01*
X218765000Y-126041228D01*
X218904383Y-126741957D01*
X219177794Y-127402029D01*
X219574725Y-127996078D01*
X219762647Y-128184000D01*
X219574725Y-128371922D01*
X219177794Y-128965971D01*
X218904383Y-129626043D01*
X218765000Y-130326772D01*
X218765000Y-131041228D01*
X218904383Y-131741957D01*
X219177794Y-132402029D01*
X219574725Y-132996078D01*
X220079922Y-133501275D01*
X220673971Y-133898206D01*
X221334043Y-134171617D01*
X222034772Y-134311000D01*
X222749228Y-134311000D01*
X223449957Y-134171617D01*
X224110029Y-133898206D01*
X224704078Y-133501275D01*
X225209275Y-132996078D01*
X225606206Y-132402029D01*
X225879617Y-131741957D01*
X226019000Y-131041228D01*
X226019000Y-130326772D01*
X225879617Y-129626043D01*
X225606206Y-128965971D01*
X225209275Y-128371922D01*
X225021353Y-128184000D01*
X225209275Y-127996078D01*
X225606206Y-127402029D01*
X225879617Y-126741957D01*
X226019000Y-126041228D01*
X226019000Y-125326772D01*
X225879617Y-124626043D01*
X225606206Y-123965971D01*
X225209275Y-123371922D01*
X224704078Y-122866725D01*
X224110029Y-122469794D01*
X223652352Y-122280218D01*
X223704048Y-122175653D01*
X222392000Y-120863605D01*
X221079952Y-122175653D01*
X221131648Y-122280218D01*
X220673971Y-122469794D01*
X220079922Y-122866725D01*
X219574725Y-123371922D01*
X219177794Y-123965971D01*
X218904383Y-124626043D01*
X218765000Y-125326772D01*
X186127000Y-125326772D01*
X186127000Y-120726824D01*
X220247098Y-120726824D01*
X220296666Y-121144451D01*
X220426757Y-121544383D01*
X220584786Y-121840038D01*
X220900347Y-121996048D01*
X222212395Y-120684000D01*
X222571605Y-120684000D01*
X223883653Y-121996048D01*
X224199214Y-121840038D01*
X224390020Y-121465255D01*
X224504044Y-121060449D01*
X224536902Y-120641176D01*
X224487334Y-120223549D01*
X224357243Y-119823617D01*
X224199214Y-119527962D01*
X223883653Y-119371952D01*
X222571605Y-120684000D01*
X222212395Y-120684000D01*
X220900347Y-119371952D01*
X220584786Y-119527962D01*
X220393980Y-119902745D01*
X220279956Y-120307551D01*
X220247098Y-120726824D01*
X186127000Y-120726824D01*
X186127000Y-119192347D01*
X221079952Y-119192347D01*
X222392000Y-120504395D01*
X223704048Y-119192347D01*
X223548038Y-118876786D01*
X223173255Y-118685980D01*
X222768449Y-118571956D01*
X222349176Y-118539098D01*
X221931549Y-118588666D01*
X221531617Y-118718757D01*
X221235962Y-118876786D01*
X221079952Y-119192347D01*
X186127000Y-119192347D01*
X186127000Y-117175653D01*
X221079952Y-117175653D01*
X221235962Y-117491214D01*
X221610745Y-117682020D01*
X222015551Y-117796044D01*
X222434824Y-117828902D01*
X222852451Y-117779334D01*
X223252383Y-117649243D01*
X223548038Y-117491214D01*
X223704048Y-117175653D01*
X222392000Y-115863605D01*
X221079952Y-117175653D01*
X186127000Y-117175653D01*
X186127000Y-115726824D01*
X220247098Y-115726824D01*
X220296666Y-116144451D01*
X220426757Y-116544383D01*
X220584786Y-116840038D01*
X220900347Y-116996048D01*
X222212395Y-115684000D01*
X222571605Y-115684000D01*
X223883653Y-116996048D01*
X224199214Y-116840038D01*
X224390020Y-116465255D01*
X224504044Y-116060449D01*
X224536902Y-115641176D01*
X224487334Y-115223549D01*
X224357243Y-114823617D01*
X224199214Y-114527962D01*
X223883653Y-114371952D01*
X222571605Y-115684000D01*
X222212395Y-115684000D01*
X220900347Y-114371952D01*
X220584786Y-114527962D01*
X220393980Y-114902745D01*
X220279956Y-115307551D01*
X220247098Y-115726824D01*
X186127000Y-115726824D01*
X186127000Y-114192347D01*
X221079952Y-114192347D01*
X222392000Y-115504395D01*
X223704048Y-114192347D01*
X223548038Y-113876786D01*
X223173255Y-113685980D01*
X222768449Y-113571956D01*
X222349176Y-113539098D01*
X221931549Y-113588666D01*
X221531617Y-113718757D01*
X221235962Y-113876786D01*
X221079952Y-114192347D01*
X186127000Y-114192347D01*
X186127000Y-112175653D01*
X221079952Y-112175653D01*
X221235962Y-112491214D01*
X221610745Y-112682020D01*
X222015551Y-112796044D01*
X222434824Y-112828902D01*
X222852451Y-112779334D01*
X223252383Y-112649243D01*
X223548038Y-112491214D01*
X223704048Y-112175653D01*
X222392000Y-110863605D01*
X221079952Y-112175653D01*
X186127000Y-112175653D01*
X186127000Y-110726824D01*
X220247098Y-110726824D01*
X220296666Y-111144451D01*
X220426757Y-111544383D01*
X220584786Y-111840038D01*
X220900347Y-111996048D01*
X222212395Y-110684000D01*
X222571605Y-110684000D01*
X223883653Y-111996048D01*
X224199214Y-111840038D01*
X224390020Y-111465255D01*
X224504044Y-111060449D01*
X224536902Y-110641176D01*
X224487334Y-110223549D01*
X224357243Y-109823617D01*
X224199214Y-109527962D01*
X223883653Y-109371952D01*
X222571605Y-110684000D01*
X222212395Y-110684000D01*
X220900347Y-109371952D01*
X220584786Y-109527962D01*
X220393980Y-109902745D01*
X220279956Y-110307551D01*
X220247098Y-110726824D01*
X186127000Y-110726824D01*
X186127000Y-109192347D01*
X221079952Y-109192347D01*
X222392000Y-110504395D01*
X223704048Y-109192347D01*
X223548038Y-108876786D01*
X223173255Y-108685980D01*
X222768449Y-108571956D01*
X222349176Y-108539098D01*
X221931549Y-108588666D01*
X221531617Y-108718757D01*
X221235962Y-108876786D01*
X221079952Y-109192347D01*
X186127000Y-109192347D01*
X186127000Y-107175653D01*
X221079952Y-107175653D01*
X221235962Y-107491214D01*
X221610745Y-107682020D01*
X222015551Y-107796044D01*
X222434824Y-107828902D01*
X222852451Y-107779334D01*
X223252383Y-107649243D01*
X223548038Y-107491214D01*
X223704048Y-107175653D01*
X222392000Y-105863605D01*
X221079952Y-107175653D01*
X186127000Y-107175653D01*
X186127000Y-105726824D01*
X220247098Y-105726824D01*
X220296666Y-106144451D01*
X220426757Y-106544383D01*
X220584786Y-106840038D01*
X220900347Y-106996048D01*
X222212395Y-105684000D01*
X222571605Y-105684000D01*
X223883653Y-106996048D01*
X224199214Y-106840038D01*
X224390020Y-106465255D01*
X224504044Y-106060449D01*
X224536902Y-105641176D01*
X224487334Y-105223549D01*
X224357243Y-104823617D01*
X224199214Y-104527962D01*
X223883653Y-104371952D01*
X222571605Y-105684000D01*
X222212395Y-105684000D01*
X220900347Y-104371952D01*
X220584786Y-104527962D01*
X220393980Y-104902745D01*
X220279956Y-105307551D01*
X220247098Y-105726824D01*
X186127000Y-105726824D01*
X186127000Y-95326772D01*
X218765000Y-95326772D01*
X218765000Y-96041228D01*
X218904383Y-96741957D01*
X219177794Y-97402029D01*
X219574725Y-97996078D01*
X219762647Y-98184000D01*
X219574725Y-98371922D01*
X219177794Y-98965971D01*
X218904383Y-99626043D01*
X218765000Y-100326772D01*
X218765000Y-101041228D01*
X218904383Y-101741957D01*
X219177794Y-102402029D01*
X219574725Y-102996078D01*
X220079922Y-103501275D01*
X220673971Y-103898206D01*
X221131648Y-104087782D01*
X221079952Y-104192347D01*
X222392000Y-105504395D01*
X223704048Y-104192347D01*
X223652352Y-104087782D01*
X224110029Y-103898206D01*
X224704078Y-103501275D01*
X225209275Y-102996078D01*
X225606206Y-102402029D01*
X225879617Y-101741957D01*
X226019000Y-101041228D01*
X226019000Y-100326772D01*
X225879617Y-99626043D01*
X225606206Y-98965971D01*
X225209275Y-98371922D01*
X225021353Y-98184000D01*
X225209275Y-97996078D01*
X225606206Y-97402029D01*
X225879617Y-96741957D01*
X226019000Y-96041228D01*
X226019000Y-95326772D01*
X225879617Y-94626043D01*
X225606206Y-93965971D01*
X225209275Y-93371922D01*
X224704078Y-92866725D01*
X224110029Y-92469794D01*
X223449957Y-92196383D01*
X222749228Y-92057000D01*
X222034772Y-92057000D01*
X221334043Y-92196383D01*
X220673971Y-92469794D01*
X220079922Y-92866725D01*
X219574725Y-93371922D01*
X219177794Y-93965971D01*
X218904383Y-94626043D01*
X218765000Y-95326772D01*
X186127000Y-95326772D01*
X186127000Y-83500000D01*
X186124560Y-83475224D01*
X186117333Y-83451399D01*
X186105597Y-83429443D01*
X186089803Y-83410197D01*
X186070557Y-83394403D01*
X186048601Y-83382667D01*
X186024776Y-83375440D01*
X186000000Y-83373000D01*
X157786138Y-83373000D01*
X157627000Y-83213862D01*
X157627000Y-62035653D01*
X166035952Y-62035653D01*
X166191962Y-62351214D01*
X166566745Y-62542020D01*
X166971551Y-62656044D01*
X167390824Y-62688902D01*
X167808451Y-62639334D01*
X168208383Y-62509243D01*
X168504038Y-62351214D01*
X168660048Y-62035653D01*
X167348000Y-60723605D01*
X166035952Y-62035653D01*
X157627000Y-62035653D01*
X157627000Y-60586824D01*
X165203098Y-60586824D01*
X165252666Y-61004451D01*
X165382757Y-61404383D01*
X165540786Y-61700038D01*
X165856347Y-61856048D01*
X167168395Y-60544000D01*
X167527605Y-60544000D01*
X168839653Y-61856048D01*
X169155214Y-61700038D01*
X169346020Y-61325255D01*
X169460044Y-60920449D01*
X169492902Y-60501176D01*
X169443334Y-60083549D01*
X169313243Y-59683617D01*
X169155214Y-59387962D01*
X168839653Y-59231952D01*
X167527605Y-60544000D01*
X167168395Y-60544000D01*
X165856347Y-59231952D01*
X165540786Y-59387962D01*
X165349980Y-59762745D01*
X165235956Y-60167551D01*
X165203098Y-60586824D01*
X157627000Y-60586824D01*
X157627000Y-59052347D01*
X166035952Y-59052347D01*
X167348000Y-60364395D01*
X168660048Y-59052347D01*
X168504038Y-58736786D01*
X168129255Y-58545980D01*
X167724449Y-58431956D01*
X167305176Y-58399098D01*
X166887549Y-58448666D01*
X166487617Y-58578757D01*
X166191962Y-58736786D01*
X166035952Y-59052347D01*
X157627000Y-59052347D01*
X157627000Y-46544000D01*
X171210709Y-46544000D01*
X171210709Y-49544000D01*
X171251776Y-49960965D01*
X171373401Y-50361906D01*
X171570907Y-50731415D01*
X171836707Y-51055293D01*
X172160585Y-51321093D01*
X172530094Y-51518599D01*
X172931035Y-51640224D01*
X173348000Y-51681291D01*
X176348000Y-51681291D01*
X176764965Y-51640224D01*
X177165906Y-51518599D01*
X177535415Y-51321093D01*
X177859293Y-51055293D01*
X178125093Y-50731415D01*
X178322599Y-50361906D01*
X178444224Y-49960965D01*
X178485291Y-49544000D01*
X178485291Y-46544000D01*
X178444224Y-46127035D01*
X178322599Y-45726094D01*
X178125093Y-45356585D01*
X177859293Y-45032707D01*
X177535415Y-44766907D01*
X177165906Y-44569401D01*
X176764965Y-44447776D01*
X176348000Y-44406709D01*
X173348000Y-44406709D01*
X172931035Y-44447776D01*
X172530094Y-44569401D01*
X172160585Y-44766907D01*
X171836707Y-45032707D01*
X171570907Y-45356585D01*
X171373401Y-45726094D01*
X171251776Y-46127035D01*
X171210709Y-46544000D01*
X157627000Y-46544000D01*
X157627000Y-39627000D01*
X230873000Y-39627000D01*
X230873000Y-136373000D01*
%TA.AperFunction,Conductor*%
D27*
G36*
X230873000Y-136373000D02*
G01*
X186127000Y-136373000D01*
X186127000Y-125326772D01*
X218765000Y-125326772D01*
X218765000Y-126041228D01*
X218904383Y-126741957D01*
X219177794Y-127402029D01*
X219574725Y-127996078D01*
X219762647Y-128184000D01*
X219574725Y-128371922D01*
X219177794Y-128965971D01*
X218904383Y-129626043D01*
X218765000Y-130326772D01*
X218765000Y-131041228D01*
X218904383Y-131741957D01*
X219177794Y-132402029D01*
X219574725Y-132996078D01*
X220079922Y-133501275D01*
X220673971Y-133898206D01*
X221334043Y-134171617D01*
X222034772Y-134311000D01*
X222749228Y-134311000D01*
X223449957Y-134171617D01*
X224110029Y-133898206D01*
X224704078Y-133501275D01*
X225209275Y-132996078D01*
X225606206Y-132402029D01*
X225879617Y-131741957D01*
X226019000Y-131041228D01*
X226019000Y-130326772D01*
X225879617Y-129626043D01*
X225606206Y-128965971D01*
X225209275Y-128371922D01*
X225021353Y-128184000D01*
X225209275Y-127996078D01*
X225606206Y-127402029D01*
X225879617Y-126741957D01*
X226019000Y-126041228D01*
X226019000Y-125326772D01*
X225879617Y-124626043D01*
X225606206Y-123965971D01*
X225209275Y-123371922D01*
X224704078Y-122866725D01*
X224110029Y-122469794D01*
X223652352Y-122280218D01*
X223704048Y-122175653D01*
X222392000Y-120863605D01*
X221079952Y-122175653D01*
X221131648Y-122280218D01*
X220673971Y-122469794D01*
X220079922Y-122866725D01*
X219574725Y-123371922D01*
X219177794Y-123965971D01*
X218904383Y-124626043D01*
X218765000Y-125326772D01*
X186127000Y-125326772D01*
X186127000Y-120726824D01*
X220247098Y-120726824D01*
X220296666Y-121144451D01*
X220426757Y-121544383D01*
X220584786Y-121840038D01*
X220900347Y-121996048D01*
X222212395Y-120684000D01*
X222571605Y-120684000D01*
X223883653Y-121996048D01*
X224199214Y-121840038D01*
X224390020Y-121465255D01*
X224504044Y-121060449D01*
X224536902Y-120641176D01*
X224487334Y-120223549D01*
X224357243Y-119823617D01*
X224199214Y-119527962D01*
X223883653Y-119371952D01*
X222571605Y-120684000D01*
X222212395Y-120684000D01*
X220900347Y-119371952D01*
X220584786Y-119527962D01*
X220393980Y-119902745D01*
X220279956Y-120307551D01*
X220247098Y-120726824D01*
X186127000Y-120726824D01*
X186127000Y-119192347D01*
X221079952Y-119192347D01*
X222392000Y-120504395D01*
X223704048Y-119192347D01*
X223548038Y-118876786D01*
X223173255Y-118685980D01*
X222768449Y-118571956D01*
X222349176Y-118539098D01*
X221931549Y-118588666D01*
X221531617Y-118718757D01*
X221235962Y-118876786D01*
X221079952Y-119192347D01*
X186127000Y-119192347D01*
X186127000Y-117175653D01*
X221079952Y-117175653D01*
X221235962Y-117491214D01*
X221610745Y-117682020D01*
X222015551Y-117796044D01*
X222434824Y-117828902D01*
X222852451Y-117779334D01*
X223252383Y-117649243D01*
X223548038Y-117491214D01*
X223704048Y-117175653D01*
X222392000Y-115863605D01*
X221079952Y-117175653D01*
X186127000Y-117175653D01*
X186127000Y-115726824D01*
X220247098Y-115726824D01*
X220296666Y-116144451D01*
X220426757Y-116544383D01*
X220584786Y-116840038D01*
X220900347Y-116996048D01*
X222212395Y-115684000D01*
X222571605Y-115684000D01*
X223883653Y-116996048D01*
X224199214Y-116840038D01*
X224390020Y-116465255D01*
X224504044Y-116060449D01*
X224536902Y-115641176D01*
X224487334Y-115223549D01*
X224357243Y-114823617D01*
X224199214Y-114527962D01*
X223883653Y-114371952D01*
X222571605Y-115684000D01*
X222212395Y-115684000D01*
X220900347Y-114371952D01*
X220584786Y-114527962D01*
X220393980Y-114902745D01*
X220279956Y-115307551D01*
X220247098Y-115726824D01*
X186127000Y-115726824D01*
X186127000Y-114192347D01*
X221079952Y-114192347D01*
X222392000Y-115504395D01*
X223704048Y-114192347D01*
X223548038Y-113876786D01*
X223173255Y-113685980D01*
X222768449Y-113571956D01*
X222349176Y-113539098D01*
X221931549Y-113588666D01*
X221531617Y-113718757D01*
X221235962Y-113876786D01*
X221079952Y-114192347D01*
X186127000Y-114192347D01*
X186127000Y-112175653D01*
X221079952Y-112175653D01*
X221235962Y-112491214D01*
X221610745Y-112682020D01*
X222015551Y-112796044D01*
X222434824Y-112828902D01*
X222852451Y-112779334D01*
X223252383Y-112649243D01*
X223548038Y-112491214D01*
X223704048Y-112175653D01*
X222392000Y-110863605D01*
X221079952Y-112175653D01*
X186127000Y-112175653D01*
X186127000Y-110726824D01*
X220247098Y-110726824D01*
X220296666Y-111144451D01*
X220426757Y-111544383D01*
X220584786Y-111840038D01*
X220900347Y-111996048D01*
X222212395Y-110684000D01*
X222571605Y-110684000D01*
X223883653Y-111996048D01*
X224199214Y-111840038D01*
X224390020Y-111465255D01*
X224504044Y-111060449D01*
X224536902Y-110641176D01*
X224487334Y-110223549D01*
X224357243Y-109823617D01*
X224199214Y-109527962D01*
X223883653Y-109371952D01*
X222571605Y-110684000D01*
X222212395Y-110684000D01*
X220900347Y-109371952D01*
X220584786Y-109527962D01*
X220393980Y-109902745D01*
X220279956Y-110307551D01*
X220247098Y-110726824D01*
X186127000Y-110726824D01*
X186127000Y-109192347D01*
X221079952Y-109192347D01*
X222392000Y-110504395D01*
X223704048Y-109192347D01*
X223548038Y-108876786D01*
X223173255Y-108685980D01*
X222768449Y-108571956D01*
X222349176Y-108539098D01*
X221931549Y-108588666D01*
X221531617Y-108718757D01*
X221235962Y-108876786D01*
X221079952Y-109192347D01*
X186127000Y-109192347D01*
X186127000Y-107175653D01*
X221079952Y-107175653D01*
X221235962Y-107491214D01*
X221610745Y-107682020D01*
X222015551Y-107796044D01*
X222434824Y-107828902D01*
X222852451Y-107779334D01*
X223252383Y-107649243D01*
X223548038Y-107491214D01*
X223704048Y-107175653D01*
X222392000Y-105863605D01*
X221079952Y-107175653D01*
X186127000Y-107175653D01*
X186127000Y-105726824D01*
X220247098Y-105726824D01*
X220296666Y-106144451D01*
X220426757Y-106544383D01*
X220584786Y-106840038D01*
X220900347Y-106996048D01*
X222212395Y-105684000D01*
X222571605Y-105684000D01*
X223883653Y-106996048D01*
X224199214Y-106840038D01*
X224390020Y-106465255D01*
X224504044Y-106060449D01*
X224536902Y-105641176D01*
X224487334Y-105223549D01*
X224357243Y-104823617D01*
X224199214Y-104527962D01*
X223883653Y-104371952D01*
X222571605Y-105684000D01*
X222212395Y-105684000D01*
X220900347Y-104371952D01*
X220584786Y-104527962D01*
X220393980Y-104902745D01*
X220279956Y-105307551D01*
X220247098Y-105726824D01*
X186127000Y-105726824D01*
X186127000Y-95326772D01*
X218765000Y-95326772D01*
X218765000Y-96041228D01*
X218904383Y-96741957D01*
X219177794Y-97402029D01*
X219574725Y-97996078D01*
X219762647Y-98184000D01*
X219574725Y-98371922D01*
X219177794Y-98965971D01*
X218904383Y-99626043D01*
X218765000Y-100326772D01*
X218765000Y-101041228D01*
X218904383Y-101741957D01*
X219177794Y-102402029D01*
X219574725Y-102996078D01*
X220079922Y-103501275D01*
X220673971Y-103898206D01*
X221131648Y-104087782D01*
X221079952Y-104192347D01*
X222392000Y-105504395D01*
X223704048Y-104192347D01*
X223652352Y-104087782D01*
X224110029Y-103898206D01*
X224704078Y-103501275D01*
X225209275Y-102996078D01*
X225606206Y-102402029D01*
X225879617Y-101741957D01*
X226019000Y-101041228D01*
X226019000Y-100326772D01*
X225879617Y-99626043D01*
X225606206Y-98965971D01*
X225209275Y-98371922D01*
X225021353Y-98184000D01*
X225209275Y-97996078D01*
X225606206Y-97402029D01*
X225879617Y-96741957D01*
X226019000Y-96041228D01*
X226019000Y-95326772D01*
X225879617Y-94626043D01*
X225606206Y-93965971D01*
X225209275Y-93371922D01*
X224704078Y-92866725D01*
X224110029Y-92469794D01*
X223449957Y-92196383D01*
X222749228Y-92057000D01*
X222034772Y-92057000D01*
X221334043Y-92196383D01*
X220673971Y-92469794D01*
X220079922Y-92866725D01*
X219574725Y-93371922D01*
X219177794Y-93965971D01*
X218904383Y-94626043D01*
X218765000Y-95326772D01*
X186127000Y-95326772D01*
X186127000Y-83500000D01*
X186124560Y-83475224D01*
X186117333Y-83451399D01*
X186105597Y-83429443D01*
X186089803Y-83410197D01*
X186070557Y-83394403D01*
X186048601Y-83382667D01*
X186024776Y-83375440D01*
X186000000Y-83373000D01*
X157786138Y-83373000D01*
X157627000Y-83213862D01*
X157627000Y-62035653D01*
X166035952Y-62035653D01*
X166191962Y-62351214D01*
X166566745Y-62542020D01*
X166971551Y-62656044D01*
X167390824Y-62688902D01*
X167808451Y-62639334D01*
X168208383Y-62509243D01*
X168504038Y-62351214D01*
X168660048Y-62035653D01*
X167348000Y-60723605D01*
X166035952Y-62035653D01*
X157627000Y-62035653D01*
X157627000Y-60586824D01*
X165203098Y-60586824D01*
X165252666Y-61004451D01*
X165382757Y-61404383D01*
X165540786Y-61700038D01*
X165856347Y-61856048D01*
X167168395Y-60544000D01*
X167527605Y-60544000D01*
X168839653Y-61856048D01*
X169155214Y-61700038D01*
X169346020Y-61325255D01*
X169460044Y-60920449D01*
X169492902Y-60501176D01*
X169443334Y-60083549D01*
X169313243Y-59683617D01*
X169155214Y-59387962D01*
X168839653Y-59231952D01*
X167527605Y-60544000D01*
X167168395Y-60544000D01*
X165856347Y-59231952D01*
X165540786Y-59387962D01*
X165349980Y-59762745D01*
X165235956Y-60167551D01*
X165203098Y-60586824D01*
X157627000Y-60586824D01*
X157627000Y-59052347D01*
X166035952Y-59052347D01*
X167348000Y-60364395D01*
X168660048Y-59052347D01*
X168504038Y-58736786D01*
X168129255Y-58545980D01*
X167724449Y-58431956D01*
X167305176Y-58399098D01*
X166887549Y-58448666D01*
X166487617Y-58578757D01*
X166191962Y-58736786D01*
X166035952Y-59052347D01*
X157627000Y-59052347D01*
X157627000Y-46544000D01*
X171210709Y-46544000D01*
X171210709Y-49544000D01*
X171251776Y-49960965D01*
X171373401Y-50361906D01*
X171570907Y-50731415D01*
X171836707Y-51055293D01*
X172160585Y-51321093D01*
X172530094Y-51518599D01*
X172931035Y-51640224D01*
X173348000Y-51681291D01*
X176348000Y-51681291D01*
X176764965Y-51640224D01*
X177165906Y-51518599D01*
X177535415Y-51321093D01*
X177859293Y-51055293D01*
X178125093Y-50731415D01*
X178322599Y-50361906D01*
X178444224Y-49960965D01*
X178485291Y-49544000D01*
X178485291Y-46544000D01*
X178444224Y-46127035D01*
X178322599Y-45726094D01*
X178125093Y-45356585D01*
X177859293Y-45032707D01*
X177535415Y-44766907D01*
X177165906Y-44569401D01*
X176764965Y-44447776D01*
X176348000Y-44406709D01*
X173348000Y-44406709D01*
X172931035Y-44447776D01*
X172530094Y-44569401D01*
X172160585Y-44766907D01*
X171836707Y-45032707D01*
X171570907Y-45356585D01*
X171373401Y-45726094D01*
X171251776Y-46127035D01*
X171210709Y-46544000D01*
X157627000Y-46544000D01*
X157627000Y-39627000D01*
X230873000Y-39627000D01*
X230873000Y-136373000D01*
G37*
%TD.AperFunction*%
%TD*%
D26*
%TO.N,GND*%
X104520702Y-76047713D02*
X104393017Y-76100602D01*
X103979131Y-76377151D01*
X103627151Y-76729131D01*
X103350602Y-77143017D01*
X103160111Y-77602901D01*
X103063000Y-78091112D01*
X103063000Y-78588888D01*
X103160111Y-79077099D01*
X103350602Y-79536983D01*
X103627151Y-79950869D01*
X103979131Y-80302849D01*
X104393017Y-80579398D01*
X104852901Y-80769889D01*
X105341112Y-80867000D01*
X105838888Y-80867000D01*
X106327099Y-80769889D01*
X106786983Y-80579398D01*
X107200869Y-80302849D01*
X107552849Y-79950869D01*
X107829398Y-79536983D01*
X107882287Y-79409298D01*
X114664585Y-72627000D01*
X128265415Y-72627000D01*
X130873000Y-75234585D01*
X130873000Y-81043000D01*
X126026762Y-81043000D01*
X125910000Y-81031500D01*
X125793237Y-81043000D01*
X125793228Y-81043000D01*
X125444027Y-81077393D01*
X124995960Y-81213313D01*
X124583019Y-81434034D01*
X124311777Y-81656637D01*
X124311773Y-81656641D01*
X124221075Y-81731075D01*
X124146641Y-81821773D01*
X117940415Y-88028000D01*
X110151762Y-88028000D01*
X110035000Y-88016500D01*
X109918237Y-88028000D01*
X109918228Y-88028000D01*
X109569027Y-88062393D01*
X109225217Y-88166687D01*
X109120960Y-88198313D01*
X108708019Y-88419034D01*
X108436777Y-88641637D01*
X108436773Y-88641641D01*
X108346075Y-88716075D01*
X108271641Y-88806773D01*
X105704415Y-91374000D01*
X98575070Y-91374000D01*
X98592000Y-91288888D01*
X98592000Y-90791112D01*
X98494889Y-90302901D01*
X98304398Y-89843017D01*
X98027849Y-89429131D01*
X97675869Y-89077151D01*
X97261983Y-88800602D01*
X96802099Y-88610111D01*
X96313888Y-88513000D01*
X95841718Y-88513000D01*
X95770869Y-88442151D01*
X95356983Y-88165602D01*
X94897099Y-87975111D01*
X94408888Y-87878000D01*
X93911112Y-87878000D01*
X93422901Y-87975111D01*
X92963017Y-88165602D01*
X92549131Y-88442151D01*
X92197151Y-88794131D01*
X91920602Y-89208017D01*
X91730111Y-89667901D01*
X91633000Y-90156112D01*
X91633000Y-90653888D01*
X91730111Y-91142099D01*
X91783000Y-91269784D01*
X91783001Y-95368228D01*
X91771500Y-95485000D01*
X91817394Y-95950973D01*
X91953313Y-96399039D01*
X92174035Y-96811980D01*
X92396637Y-97083222D01*
X92396642Y-97083227D01*
X92471076Y-97173925D01*
X92509359Y-97205343D01*
X92555602Y-97316983D01*
X92832151Y-97730869D01*
X93184131Y-98082849D01*
X93598017Y-98359398D01*
X93688001Y-98396671D01*
X93688001Y-109371344D01*
X93525000Y-109355290D01*
X93010019Y-109406011D01*
X92514828Y-109556226D01*
X92058457Y-109800161D01*
X91658444Y-110128443D01*
X91330162Y-110528456D01*
X91086227Y-110984827D01*
X90936012Y-111480018D01*
X90898001Y-111865952D01*
X90898000Y-122373000D01*
X69127000Y-122373000D01*
X69127000Y-72627000D01*
X107941415Y-72627000D01*
X104520702Y-76047713D01*
%TA.AperFunction,Conductor*%
D27*
G36*
X104520702Y-76047713D02*
G01*
X104393017Y-76100602D01*
X103979131Y-76377151D01*
X103627151Y-76729131D01*
X103350602Y-77143017D01*
X103160111Y-77602901D01*
X103063000Y-78091112D01*
X103063000Y-78588888D01*
X103160111Y-79077099D01*
X103350602Y-79536983D01*
X103627151Y-79950869D01*
X103979131Y-80302849D01*
X104393017Y-80579398D01*
X104852901Y-80769889D01*
X105341112Y-80867000D01*
X105838888Y-80867000D01*
X106327099Y-80769889D01*
X106786983Y-80579398D01*
X107200869Y-80302849D01*
X107552849Y-79950869D01*
X107829398Y-79536983D01*
X107882287Y-79409298D01*
X114664585Y-72627000D01*
X128265415Y-72627000D01*
X130873000Y-75234585D01*
X130873000Y-81043000D01*
X126026762Y-81043000D01*
X125910000Y-81031500D01*
X125793237Y-81043000D01*
X125793228Y-81043000D01*
X125444027Y-81077393D01*
X124995960Y-81213313D01*
X124583019Y-81434034D01*
X124311777Y-81656637D01*
X124311773Y-81656641D01*
X124221075Y-81731075D01*
X124146641Y-81821773D01*
X117940415Y-88028000D01*
X110151762Y-88028000D01*
X110035000Y-88016500D01*
X109918237Y-88028000D01*
X109918228Y-88028000D01*
X109569027Y-88062393D01*
X109225217Y-88166687D01*
X109120960Y-88198313D01*
X108708019Y-88419034D01*
X108436777Y-88641637D01*
X108436773Y-88641641D01*
X108346075Y-88716075D01*
X108271641Y-88806773D01*
X105704415Y-91374000D01*
X98575070Y-91374000D01*
X98592000Y-91288888D01*
X98592000Y-90791112D01*
X98494889Y-90302901D01*
X98304398Y-89843017D01*
X98027849Y-89429131D01*
X97675869Y-89077151D01*
X97261983Y-88800602D01*
X96802099Y-88610111D01*
X96313888Y-88513000D01*
X95841718Y-88513000D01*
X95770869Y-88442151D01*
X95356983Y-88165602D01*
X94897099Y-87975111D01*
X94408888Y-87878000D01*
X93911112Y-87878000D01*
X93422901Y-87975111D01*
X92963017Y-88165602D01*
X92549131Y-88442151D01*
X92197151Y-88794131D01*
X91920602Y-89208017D01*
X91730111Y-89667901D01*
X91633000Y-90156112D01*
X91633000Y-90653888D01*
X91730111Y-91142099D01*
X91783000Y-91269784D01*
X91783001Y-95368228D01*
X91771500Y-95485000D01*
X91817394Y-95950973D01*
X91953313Y-96399039D01*
X92174035Y-96811980D01*
X92396637Y-97083222D01*
X92396642Y-97083227D01*
X92471076Y-97173925D01*
X92509359Y-97205343D01*
X92555602Y-97316983D01*
X92832151Y-97730869D01*
X93184131Y-98082849D01*
X93598017Y-98359398D01*
X93688001Y-98396671D01*
X93688001Y-109371344D01*
X93525000Y-109355290D01*
X93010019Y-109406011D01*
X92514828Y-109556226D01*
X92058457Y-109800161D01*
X91658444Y-110128443D01*
X91330162Y-110528456D01*
X91086227Y-110984827D01*
X90936012Y-111480018D01*
X90898001Y-111865952D01*
X90898000Y-122373000D01*
X69127000Y-122373000D01*
X69127000Y-72627000D01*
X107941415Y-72627000D01*
X104520702Y-76047713D01*
G37*
%TD.AperFunction*%
%TD*%
D26*
%TO.N,GND1*%
X158873000Y-52373000D02*
X145127000Y-52373000D01*
X145127000Y-43850000D01*
X154011928Y-43850000D01*
X154024188Y-43974482D01*
X154060498Y-44094180D01*
X154119463Y-44204494D01*
X154198815Y-44301185D01*
X154295506Y-44380537D01*
X154405820Y-44439502D01*
X154525518Y-44475812D01*
X154650000Y-44488072D01*
X155214250Y-44485000D01*
X155373000Y-44326250D01*
X155373000Y-43127000D01*
X155627000Y-43127000D01*
X155627000Y-44326250D01*
X155785750Y-44485000D01*
X156350000Y-44488072D01*
X156474482Y-44475812D01*
X156594180Y-44439502D01*
X156704494Y-44380537D01*
X156801185Y-44301185D01*
X156880537Y-44204494D01*
X156939502Y-44094180D01*
X156975812Y-43974482D01*
X156988072Y-43850000D01*
X156985000Y-43285750D01*
X156826250Y-43127000D01*
X155627000Y-43127000D01*
X155373000Y-43127000D01*
X154173750Y-43127000D01*
X154015000Y-43285750D01*
X154011928Y-43850000D01*
X145127000Y-43850000D01*
X145127000Y-42150000D01*
X154011928Y-42150000D01*
X154015000Y-42714250D01*
X154173750Y-42873000D01*
X155373000Y-42873000D01*
X155373000Y-41673750D01*
X155627000Y-41673750D01*
X155627000Y-42873000D01*
X156826250Y-42873000D01*
X156985000Y-42714250D01*
X156988072Y-42150000D01*
X156975812Y-42025518D01*
X156939502Y-41905820D01*
X156880537Y-41795506D01*
X156801185Y-41698815D01*
X156704494Y-41619463D01*
X156594180Y-41560498D01*
X156474482Y-41524188D01*
X156350000Y-41511928D01*
X155785750Y-41515000D01*
X155627000Y-41673750D01*
X155373000Y-41673750D01*
X155214250Y-41515000D01*
X154650000Y-41511928D01*
X154525518Y-41524188D01*
X154405820Y-41560498D01*
X154295506Y-41619463D01*
X154198815Y-41698815D01*
X154119463Y-41795506D01*
X154060498Y-41905820D01*
X154024188Y-42025518D01*
X154011928Y-42150000D01*
X145127000Y-42150000D01*
X145127000Y-39627000D01*
X158873000Y-39627000D01*
X158873000Y-52373000D01*
%TA.AperFunction,Conductor*%
D27*
G36*
X158873000Y-52373000D02*
G01*
X145127000Y-52373000D01*
X145127000Y-43850000D01*
X154011928Y-43850000D01*
X154024188Y-43974482D01*
X154060498Y-44094180D01*
X154119463Y-44204494D01*
X154198815Y-44301185D01*
X154295506Y-44380537D01*
X154405820Y-44439502D01*
X154525518Y-44475812D01*
X154650000Y-44488072D01*
X155214250Y-44485000D01*
X155373000Y-44326250D01*
X155373000Y-43127000D01*
X155627000Y-43127000D01*
X155627000Y-44326250D01*
X155785750Y-44485000D01*
X156350000Y-44488072D01*
X156474482Y-44475812D01*
X156594180Y-44439502D01*
X156704494Y-44380537D01*
X156801185Y-44301185D01*
X156880537Y-44204494D01*
X156939502Y-44094180D01*
X156975812Y-43974482D01*
X156988072Y-43850000D01*
X156985000Y-43285750D01*
X156826250Y-43127000D01*
X155627000Y-43127000D01*
X155373000Y-43127000D01*
X154173750Y-43127000D01*
X154015000Y-43285750D01*
X154011928Y-43850000D01*
X145127000Y-43850000D01*
X145127000Y-42150000D01*
X154011928Y-42150000D01*
X154015000Y-42714250D01*
X154173750Y-42873000D01*
X155373000Y-42873000D01*
X155373000Y-41673750D01*
X155627000Y-41673750D01*
X155627000Y-42873000D01*
X156826250Y-42873000D01*
X156985000Y-42714250D01*
X156988072Y-42150000D01*
X156975812Y-42025518D01*
X156939502Y-41905820D01*
X156880537Y-41795506D01*
X156801185Y-41698815D01*
X156704494Y-41619463D01*
X156594180Y-41560498D01*
X156474482Y-41524188D01*
X156350000Y-41511928D01*
X155785750Y-41515000D01*
X155627000Y-41673750D01*
X155373000Y-41673750D01*
X155214250Y-41515000D01*
X154650000Y-41511928D01*
X154525518Y-41524188D01*
X154405820Y-41560498D01*
X154295506Y-41619463D01*
X154198815Y-41698815D01*
X154119463Y-41795506D01*
X154060498Y-41905820D01*
X154024188Y-42025518D01*
X154011928Y-42150000D01*
X145127000Y-42150000D01*
X145127000Y-39627000D01*
X158873000Y-39627000D01*
X158873000Y-52373000D01*
G37*
%TD.AperFunction*%
%TD*%
M02*
